<?xml version="1.0" encoding="UTF-8" standalone="no"?>
<!-- Created with Inkscape (http://www.inkscape.org/) -->

<svg
   xmlns:dc="http://purl.org/dc/elements/1.1/"
   xmlns:cc="http://creativecommons.org/ns#"
   xmlns:rdf="http://www.w3.org/1999/02/22-rdf-syntax-ns#"
   xmlns:svg="http://www.w3.org/2000/svg"
   xmlns="http://www.w3.org/2000/svg"
   xmlns:sodipodi="http://sodipodi.sourceforge.net/DTD/sodipodi-0.dtd"
   xmlns:inkscape="http://www.inkscape.org/namespaces/inkscape"
   width="500"
   height="500"
   viewBox="0 0 132.29167 132.29167"
   version="1.1"
   id="svg8"
   inkscape:version="0.92.4 (5da689c313, 2019-01-14)"
   sodipodi:docname="slv-logo-primary.svg">
  <defs
     id="defs2" />
  <sodipodi:namedview
     id="base"
     pagecolor="#000000"
     bordercolor="#000000"
     borderopacity="1"
     inkscape:pageopacity="0.47843137"
     inkscape:pageshadow="2"
     inkscape:zoom="1.3494949"
     inkscape:cx="249.99999"
     inkscape:cy="250"
     inkscape:document-units="mm"
     inkscape:current-layer="layer1"
     showgrid="false"
     inkscape:pagecheckerboard="true"
     fit-margin-top="0"
     fit-margin-left="0"
     fit-margin-right="0"
     fit-margin-bottom="0"
     inkscape:window-width="1600"
     inkscape:window-height="837"
     inkscape:window-x="-8"
     inkscape:window-y="-8"
     inkscape:window-maximized="1"
     inkscape:snap-bbox="true"
     inkscape:bbox-paths="true"
     inkscape:bbox-nodes="true"
     inkscape:snap-bbox-edge-midpoints="true"
     inkscape:snap-bbox-midpoints="true"
     showguides="true"
     inkscape:guide-bbox="true"
     units="px"
     inkscape:snap-page="true"
     inkscape:showpageshadow="false"
     borderlayer="true" />
  <metadata
     id="metadata5">
    <rdf:RDF>
      <cc:Work
         rdf:about="">
        <dc:format>image/svg+xml</dc:format>
        <dc:type
           rdf:resource="http://purl.org/dc/dcmitype/StillImage" />
        <dc:title></dc:title>
      </cc:Work>
    </rdf:RDF>
  </metadata>
  <g
     inkscape:label="Layer 1"
     inkscape:groupmode="layer"
     id="layer1"
     transform="translate(484.35746,-36.134648)">
    <g
       id="g132"
       transform="matrix(1.4288534,0,0,1.4288534,322.46179,-18.413202)">
      <path
         inkscape:connector-curvature="0"
         transform="matrix(0.26458333,0,0,0.26458333,-484.35746,36.134648)"
         id="path1320"
         d="m -128.54883,9.4648438 -2.05078,0.4277343 -152.24414,31.8300779 V 60.082031 287.31055 l 154.29492,68.58593 154.296877,-68.58593 V 41.722656 Z m 0,20.4765622 L 5.7070312,58.007812 V 274.28125 L -128.54883,333.96484 -262.80273,274.28125 V 60.082031 58.007812 Z m 0,5.205078 -2.05078,0.435547 -127.10156,26.574219 V 270.9668 L -128.54883,328.38477 0.60546875,270.9668 V 62.15625 Z m 0,20.476563 109.113283,22.816406 V 257.94531 l -109.113283,48.5 -109.11133,-48.5 V 78.439453 Z"
         style="color:#000000;font-style:normal;font-variant:normal;font-weight:normal;font-stretch:normal;font-size:medium;line-height:normal;font-family:sans-serif;font-variant-ligatures:normal;font-variant-position:normal;font-variant-caps:normal;font-variant-numeric:normal;font-variant-alternates:normal;font-feature-settings:normal;text-indent:0;text-align:start;text-decoration:none;text-decoration-line:none;text-decoration-style:solid;text-decoration-color:#000000;letter-spacing:normal;word-spacing:normal;text-transform:none;writing-mode:lr-tb;direction:ltr;text-orientation:mixed;dominant-baseline:auto;baseline-shift:baseline;text-anchor:start;white-space:normal;shape-padding:0;clip-rule:nonzero;display:inline;overflow:visible;visibility:visible;opacity:1;isolation:auto;mix-blend-mode:normal;color-interpolation:sRGB;color-interpolation-filters:linearRGB;solid-color:#000000;solid-opacity:1;vector-effect:none;fill:#ff0000;fill-opacity:1;fill-rule:nonzero;stroke:none;stroke-width:20.04400063;stroke-linecap:butt;stroke-linejoin:miter;stroke-miterlimit:4;stroke-dasharray:none;stroke-dashoffset:0;stroke-opacity:1;color-rendering:auto;image-rendering:auto;shape-rendering:auto;text-rendering:auto;enable-background:accumulate" />
      <path
         inkscape:connector-curvature="0"
         id="path1323"
         transform="matrix(0.26458333,0,0,0.26458333,-484.35746,36.134648)"
         d="m -128.54883,9.4648438 -2.05078,0.4277343 -152.24414,31.8300779 V 60.082031 287.31055 l 154.29492,68.58593 v -21.93164 l -134.2539,-59.68359 V 60.082031 58.007812 l 134.2539,-28.066406 z m 0,25.6816402 -2.05078,0.435547 -127.10156,26.574219 V 270.9668 l 129.15234,57.41797 v -21.93946 l -109.11133,-48.5 V 78.439453 l 109.11133,-22.816406 z"
         style="fill:#003a90;fill-opacity:1;stroke:none;stroke-width:0.99999994px;stroke-linecap:butt;stroke-linejoin:miter;stroke-opacity:1" />
      <path
         id="path901"
         d="m -518.36927,41.347641 -38.1727,7.980897 v 2.703466 58.396506 l 38.1727,16.96942 38.17271,-16.96942 V 49.328538 Z m 0,6.795911 31.52015,6.591052 v 51.370616 l -31.52015,14.01237 -31.52015,-14.01237 V 54.734604 Z"
         style="color:#000000;font-style:normal;font-variant:normal;font-weight:normal;font-stretch:normal;font-size:medium;line-height:normal;font-family:sans-serif;font-variant-ligatures:normal;font-variant-position:normal;font-variant-caps:normal;font-variant-numeric:normal;font-variant-alternates:normal;font-feature-settings:normal;text-indent:0;text-align:start;text-decoration:none;text-decoration-line:none;text-decoration-style:solid;text-decoration-color:#000000;letter-spacing:normal;word-spacing:normal;text-transform:none;writing-mode:lr-tb;direction:ltr;text-orientation:mixed;dominant-baseline:auto;baseline-shift:baseline;text-anchor:start;white-space:normal;shape-padding:0;clip-rule:nonzero;display:inline;overflow:visible;visibility:visible;opacity:1;isolation:auto;mix-blend-mode:normal;color-interpolation:sRGB;color-interpolation-filters:linearRGB;solid-color:#000000;solid-opacity:1;vector-effect:none;fill:#ffffff;fill-opacity:1;fill-rule:nonzero;stroke:none;stroke-width:6.6525526;stroke-linecap:butt;stroke-linejoin:miter;stroke-miterlimit:4;stroke-dasharray:none;stroke-dashoffset:0;stroke-opacity:1;color-rendering:auto;image-rendering:auto;shape-rendering:auto;text-rendering:auto;enable-background:accumulate"
         inkscape:connector-curvature="0" />
      <path
         sodipodi:nodetypes="ccccc"
         inkscape:connector-curvature="0"
         id="path883"
         d="m -483.52269,52.031664 -34.84671,-7.28613 v 79.012226 l 34.84671,-15.49094 z"
         style="fill:#ffffff;fill-opacity:1;stroke-width:0.11087587" />
      <path
         style="fill:#003a90;fill-opacity:1;stroke-width:0.11087587"
         d="m -553.2161,52.031664 34.8467,-7.28613 v 79.012226 l -34.8467,-15.49094 z"
         id="path887"
         inkscape:connector-curvature="0"
         sodipodi:nodetypes="ccccc" />
      <rect
         style="fill:#ffffff;fill-opacity:1;stroke:none;stroke-width:0.08548264"
         id="rect885"
         width="69.693413"
         height="33.426411"
         x="-553.21613"
         y="69.138229" />
      <g
         id="text891"
         style="font-style:normal;font-weight:normal;font-size:38.01388931px;line-height:1.25;font-family:sans-serif;letter-spacing:0px;word-spacing:0px;fill:#003a90;fill-opacity:1;stroke:none;stroke-width:0.95034724"
         aria-label="SLV">
        <path
           inkscape:connector-curvature="0"
           id="path113"
           style="font-style:normal;font-variant:normal;font-weight:bold;font-stretch:normal;font-family:'United Serif Reg';-inkscape-font-specification:'United Serif Reg Bold';letter-spacing:-1.67433059px;fill:#003a90;fill-opacity:1;stroke-width:0.95034724"
           d="m -546.60755,98.966225 h 13.19082 l 3.64933,-3.649334 v -8.743194 l -3.11713,-3.155153 h -10.45382 l -0.83631,-0.836306 v -4.447625 l 1.1024,-1.102402 h 6.27229 l 1.14042,1.102402 v 2.356861 h 5.81613 v -4.219541 l -3.5353,-3.535292 h -13.00075 l -3.64933,3.649333 V 84.9391 l 3.11714,3.117138 h 10.45382 l 0.83631,0.836306 v 4.675708 l -1.10241,1.064389 h -6.46236 l -1.1024,-1.064389 v -2.394875 h -5.81613 v 4.257556 z" />
        <path
           inkscape:connector-curvature="0"
           id="path115"
           style="font-style:normal;font-variant:normal;font-weight:bold;font-stretch:normal;font-family:'United Serif Reg';-inkscape-font-specification:'United Serif Reg Bold';letter-spacing:-1.67433059px;fill:#003a90;fill-opacity:1;stroke-width:0.95034724"
           d="m -528.63226,98.966225 h 19.65318 V 88.778502 h -4.86578 v 6.15825 h -6.34832 V 76.766113 h 3.49728 v -4.029472 h -11.93636 v 4.029472 h 2.58494 v 18.170639 h -2.58494 z" />
        <path
           inkscape:connector-curvature="0"
           id="path117"
           style="font-style:normal;font-variant:normal;font-weight:bold;font-stretch:normal;font-family:'United Serif Reg';-inkscape-font-specification:'United Serif Reg Bold';letter-spacing:-1.67433059px;fill:#003a90;fill-opacity:1;stroke-width:0.95034724"
           d="m -503.17002,98.966225 h 8.7432 l 6.0442,-22.200112 h 1.74864 v -4.029472 h -10.30176 v 4.029472 h 3.0031 l -4.56167,18.094612 -4.59968,-18.094612 h 2.92707 v -4.029472 h -10.90999 v 4.029472 h 1.9007 z" />
      </g>
      <path
         style="fill:#ff0000;fill-opacity:1;stroke:none;stroke-width:0.0135571px;stroke-linecap:butt;stroke-linejoin:miter;stroke-opacity:1"
         d="m -500.94604,51.113563 -1.63107,2.898282 -1.55109,-0.895509 0.79716,5.322879 -2.57425,-2.574255 -0.37743,1.40856 -2.42162,-0.648862 0.73087,2.727622 -1.074,0.620052 3.98915,3.331049 -0.42559,1.588244 4.22799,-0.649599 v 2.721906 c 0,0.171671 0.1382,0.309881 0.30988,0.309881 0.17166,0 0.30988,-0.13821 0.30988,-0.309881 v -2.721906 l 4.22798,0.649599 -0.42559,-1.588244 3.98916,-3.331049 -1.07401,-0.620052 0.73087,-2.727622 -2.42161,0.648862 -0.37743,-1.40856 -2.57426,2.574255 0.79716,-5.322879 -1.55109,0.895509 z"
         id="path893"
         inkscape:connector-curvature="0" />
      <path
         style="fill:#ffffff;fill-opacity:1;stroke:none;stroke-width:0.02537985"
         d="m -535.79275,51.092235 2.56011,5.541349 5.54134,2.560104 -5.54134,2.560107 -2.56011,5.541344 -2.56011,-5.541344 -5.54134,-2.560107 5.54134,-2.560104 z"
         id="path895"
         inkscape:connector-curvature="0"
         sodipodi:nodetypes="ccccccccc" />
    </g>
  </g>
</svg>
