<?xml version="1.0" encoding="UTF-8" standalone="no"?>
<svg
   xmlns:dc="http://purl.org/dc/elements/1.1/"
   xmlns:cc="http://creativecommons.org/ns#"
   xmlns:rdf="http://www.w3.org/1999/02/22-rdf-syntax-ns#"
   xmlns:svg="http://www.w3.org/2000/svg"
   xmlns="http://www.w3.org/2000/svg"
   id="svg8"
   version="1.1"
   viewBox="0 0 132.29166 132.29167"
   height="500"
   width="500">
  <defs
     id="defs2" />
  <metadata
     id="metadata5">
    <rdf:RDF>
      <cc:Work
         rdf:about="">
        <dc:format>image/svg+xml</dc:format>
        <dc:type
           rdf:resource="http://purl.org/dc/dcmitype/StillImage" />
        <dc:title></dc:title>
      </cc:Work>
    </rdf:RDF>
  </metadata>
  <g
     transform="translate(0,-164.70832)"
     id="layer1">
    <g
       id="g938">
      <path
         style="fill:#ffffff;stroke-width:0.66145831"
         id="path2"
         d="m 111.1002,179.7565 c -4.14007,2.96994 -12.05839,7.01807 -22.246171,4.50784 -17.654985,-4.34909 -22.708526,-19.55602 -22.708526,-19.55602 0,0 -5.052881,15.20957 -22.708526,19.55602 -10.192412,2.51023 -18.109406,-1.53922 -22.245505,-4.50784 h -3.187568 v 82.00363 c 0.0013,2.075 0.506677,6.15752 3.870854,10.24467 4.15462,5.04693 11.201797,8.31982 20.940448,9.72674 7.758245,1.1225 13.49375,3.5613 17.539229,7.45398 2.971271,2.8608 5.791068,7.81447 5.791068,7.81447 0,0 2.927614,-5.05751 5.791729,-7.81381 4.044817,-3.89268 9.78363,-6.33082 17.539229,-7.45398 9.738651,-1.40692 16.785829,-4.67981 20.941109,-9.72674 3.36153,-4.08451 3.86755,-8.17166 3.87019,-10.24467 V 179.7565 Z" />
      <path
         style="fill:#013369;stroke-width:0.66145831"
         id="path4"
         d="m 111.39851,182.95399 c 0,0 -9.65067,7.51086 -23.245627,4.11427 -15.849865,-3.96148 -22.00738,-15.83267 -22.00738,-15.83267 0,0 -6.156855,11.87119 -22.00738,15.83267 -13.594292,3.39725 -23.244969,-4.11427 -23.244969,-4.11427 v 78.80217 c 0.002,2.67825 1.121172,14.05136 22.336125,17.11722 8.376047,1.21246 14.632781,3.90459 19.128052,8.23053 1.61925,1.5531 2.849562,3.13465 3.788833,4.58589 0.941917,-1.45058 2.166938,-3.03279 3.784203,-4.58589 4.500563,-4.32594 10.757297,-7.01807 19.133344,-8.23053 21.212969,-3.06586 22.332159,-14.43897 22.336129,-17.11722 v -78.80217 z" />
      <path
         style="fill:#ffffff;stroke-width:0.66145831"
         id="path6"
         d="m 66.145503,283.66763 c 0,0 6.156854,-7.58891 22.155546,-10.05681 18.325701,-2.82773 17.781321,-11.43265 17.782651,-11.86855 V 220.4719 H 26.207972 v 41.26971 c 0,0.43392 -0.541073,9.04015 17.781984,11.86855 15.998031,2.46922 22.155547,10.05747 22.155547,10.05747 z"
         enable-background="new    " />
      <path
         d="m 47.526774,250.6344 -0.0026,-19.62745 -2.464594,-1.38046 v -5.08926 h 11.21701 v 5.08926 l -2.345531,1.38046 v 40.03609 l -5.995458,-1.79718 -8.66775,-25.57397 -0.0013,16.85991 2.752328,2.11402 v 5.19576 L 29.984899,264.783 v -4.42913 l 2.753651,-1.07685 v -28.25353 l -2.82112,-1.397 v -5.08926 h 9.106958 z"
         id="path8"
         style="fill:#d50a0a;stroke-width:0.66145831" />
      <path
         d="m 68.173534,268.5844 2.402416,2.878 v 5.0886 l -11.92014,-4.4536 v -4.31998 l 2.631281,-1.07752 v -35.69229 l -2.615406,-1.32292 v -5.14746 H 79.369378 V 234.895 h -4.549511 l -1.378479,-4.25251 h -5.267854 v 11.97636 h 3.953536 l 1.55575,-2.27409 h 3.172354 v 10.65741 H 73.68282 l -1.497541,-2.15503 h -4.011084 v 19.73726 z"
         id="path10"
         style="fill:#d50a0a;stroke-width:0.66145831" />
      <path
         d="m 81.332586,270.38621 v -5.08926 l 2.960687,-2.4302 v -31.8598 l -2.528093,-1.32292 v -5.1468 h 11.935354 v 5.14746 l -2.345532,1.32292 v 29.88998 l 5.128948,-1.38575 0.983589,-7.83366 h 4.906701 v 13.08696 z"
         id="path12"
         style="fill:#d50a0a;stroke-width:0.66145831" />
      <path
         style="fill:#ffffff;stroke-width:0.66145831"
         id="path16"
         d="m 28.284289,212.02905 -3.612224,-2.71793 h 4.414573 l 1.457854,-4.1824 1.457855,4.1824 h 4.414572 l -3.612224,2.71859 1.32887,4.24524 -3.589073,-2.52148 -3.589073,2.52148 z" />
      <path
         style="fill:#ffffff;stroke-width:0.66145831"
         id="path20"
         d="m 43.957544,212.02905 -3.612224,-2.71793 h 4.414573 l 1.457193,-4.1824 1.457854,4.1824 h 4.415235 l -3.612224,2.71859 1.328869,4.24524 -3.589734,-2.52148 -3.589073,2.52148 z" />
      <path
         style="fill:#ffffff;stroke-width:0.66145831"
         id="path24"
         d="m 28.284289,197.88442 -3.612224,-2.71793 h 4.414573 l 1.457854,-4.18306 1.457855,4.18306 h 4.414572 l -3.612224,2.71793 1.32887,4.24524 -3.589073,-2.52214 -3.589073,2.52214 z" />
      <path
         style="fill:#ffffff;stroke-width:0.66145831"
         id="path28"
         d="m 43.957544,197.88442 -3.612224,-2.71793 h 4.414573 l 1.457193,-4.18306 1.457854,4.18306 h 4.415235 l -3.612224,2.71793 1.328869,4.24524 -3.589734,-2.52214 -3.589073,2.52214 z" />
      <path
         style="fill:#ffffff;stroke-width:0.66145831"
         id="path34"
         d="m 105.33691,216.27495 -3.58974,-2.52214 -3.589069,2.52214 1.328209,-4.2459 -3.611563,-2.71859 h 4.414573 l 1.45785,-4.18241 1.4572,4.18241 h 4.41457 l -3.61156,2.71859 z" />
      <path
         style="fill:#ffffff;stroke-width:0.66145831"
         id="path38"
         d="m 89.663654,216.27495 -3.589735,-2.52214 -3.589734,2.52214 1.329531,-4.2459 -3.612885,-2.71859 h 4.415234 l 1.457854,-4.18241 1.457854,4.18241 h 4.414573 l -3.612885,2.71859 z" />
      <path
         style="fill:#ffffff;stroke-width:0.66145831"
         id="path42"
         d="m 105.33691,202.13033 -3.58974,-2.52215 -3.589069,2.52215 1.328209,-4.24591 -3.611563,-2.71859 h 4.414573 l 1.45785,-4.1824 1.4572,4.1824 h 4.41457 l -3.61156,2.71859 z" />
      <path
         style="fill:#ffffff;stroke-width:0.66145831"
         id="path46"
         d="m 89.663654,202.13033 -3.589735,-2.52215 -3.589734,2.52215 1.329531,-4.24591 -3.612885,-2.71859 h 4.415234 l 1.457854,-4.1824 1.457854,4.1824 h 4.414573 l -3.612885,2.71859 z" />
      <path
         style="fill:#ffffff;stroke-width:0.66145831"
         id="path52"
         d="m 76.096482,186.53711 c 0,0 -1.871266,0.97499 -4.482042,3.54277 0.589359,0.33271 1.252141,0.79904 1.631818,1.11389 -0.394229,0.34991 -0.797719,0.72695 -1.172104,1.08215 -1.698625,-1.40031 -3.468026,-2.11138 -4.838568,-2.44607 0.455083,-0.3261 0.937948,-0.64691 1.415521,-0.9578 0.736864,0.18786 1.448594,0.47758 1.448594,0.47758 2.949442,-2.24499 5.500026,-3.21337 5.500026,-3.21337 0,0 -0.295011,-0.14486 -1.084131,-0.13493 -11.594041,0.15015 -22.276593,8.80665 -20.259807,23.61803 0.215636,1.57096 0.826162,4.4278 1.602052,5.6806 0.25863,-2.46525 1.184011,-7.91964 3.933031,-13.76362 -0.955145,-0.34264 -1.748234,-0.48353 -1.748234,-0.48353 0.280458,-0.5887 0.670719,-1.33945 0.670719,-1.33945 2.033984,0.38364 3.831166,1.23428 5.387578,2.46724 -0.373724,0.60325 -0.626401,0.99748 -0.804333,1.3077 -0.545704,-0.42929 -1.096698,-0.80037 -1.704579,-1.13705 -3.08901,5.40081 -4.523052,10.49801 -5.104473,13.17361 0.03175,0.1647 0.368432,0.25003 0.638968,0.21497 12.70463,-1.64439 18.652464,-8.12469 20.462214,-15.1474 1.190625,-4.60705 0.801026,-9.42445 -0.793089,-13.35285 -0.111786,-0.27649 -0.329406,-0.73489 -0.699161,-0.70247 z m -10.923985,13.99116 c -1.652323,-1.37715 -3.579812,-2.22117 -5.470921,-2.58167 0,0 0.580099,-0.94655 0.910166,-1.43801 2.31312,0.45773 4.191,1.53921 5.503995,2.65046 -0.337344,0.48221 -0.65749,0.94391 -0.94324,1.36922 z m 2.08624,-2.92893 c -1.531938,-1.28654 -3.395927,-2.24632 -5.507964,-2.66833 0.322792,-0.41672 0.701808,-0.86055 1.063625,-1.27066 1.611974,0.28641 3.679032,1.13573 5.480844,2.62268 -0.369094,0.44053 -0.71239,0.88966 -1.036505,1.31631 z m 2.32238,-2.79467 c -1.608005,-1.32357 -3.410479,-2.18082 -5.326062,-2.58894 0.463682,-0.43855 0.938609,-0.81426 1.355989,-1.16219 2.393157,0.57547 4.004469,1.6477 5.101828,2.55919 -0.392244,0.4015 -0.771921,0.79308 -1.131755,1.19194 z" />
      <rect
         style="opacity:1;fill:none;fill-opacity:1;stroke:none;stroke-width:2.28299999;stroke-linejoin:round;stroke-miterlimit:4;stroke-dasharray:none;stroke-opacity:1;paint-order:stroke fill markers"
         id="rect874"
         width="132.29167"
         height="132.29167"
         x="0"
         y="164.70831"
         ry="0.81215179" />
    </g>
  </g>
</svg>
