<?xml version="1.0" encoding="UTF-8" standalone="no"?>
<!-- Created with Inkscape (http://www.inkscape.org/) -->

<svg
   xmlns:dc="http://purl.org/dc/elements/1.1/"
   xmlns:cc="http://creativecommons.org/ns#"
   xmlns:rdf="http://www.w3.org/1999/02/22-rdf-syntax-ns#"
   xmlns:svg="http://www.w3.org/2000/svg"
   xmlns="http://www.w3.org/2000/svg"
   xmlns:sodipodi="http://sodipodi.sourceforge.net/DTD/sodipodi-0.dtd"
   xmlns:inkscape="http://www.inkscape.org/namespaces/inkscape"
   width="500"
   height="500"
   viewBox="0 0 132.29166 132.29167"
   version="1.1"
   id="svg1323"
   inkscape:version="0.92.4 (5da689c313, 2019-01-14)"
   sodipodi:docname="ARI.svg">
  <defs
     id="defs1317" />
  <sodipodi:namedview
     id="base"
     pagecolor="#ffffff"
     bordercolor="#666666"
     borderopacity="1.0"
     inkscape:pageopacity="0.0"
     inkscape:pageshadow="2"
     inkscape:zoom="0.62040816"
     inkscape:cx="262.85714"
     inkscape:cy="187.14286"
     inkscape:document-units="mm"
     inkscape:current-layer="layer1"
     showgrid="false"
     units="px"
     inkscape:snap-bbox="true"
     inkscape:bbox-paths="true"
     inkscape:bbox-nodes="true"
     inkscape:snap-bbox-edge-midpoints="true"
     inkscape:snap-bbox-midpoints="true"
     inkscape:snap-page="true"
     inkscape:snap-nodes="true"
     inkscape:window-width="1600"
     inkscape:window-height="837"
     inkscape:window-x="-8"
     inkscape:window-y="-8"
     inkscape:window-maximized="1" />
  <metadata
     id="metadata1320">
    <rdf:RDF>
      <cc:Work
         rdf:about="">
        <dc:format>image/svg+xml</dc:format>
        <dc:type
           rdf:resource="http://purl.org/dc/dcmitype/StillImage" />
        <dc:title></dc:title>
      </cc:Work>
    </rdf:RDF>
  </metadata>
  <g
     inkscape:label="Layer 1"
     inkscape:groupmode="layer"
     id="layer1"
     transform="translate(0,-164.70832)">
    <g
       id="g1914">
      <g
         style="fill:none"
         transform="matrix(0.31557843,0,0,0.31557843,-12.623453,151.76594)"
         id="g1886">
        <path
           style="fill:#ffffff"
           inkscape:connector-curvature="0"
           d="m 458.507,373.202 c -31.199,-6.571 -93.096,-0.17 -128.401,74.543 0,0 -60.37,-72.09 -144.251,-84.756 3.292,-40.111 -49.832,-50.774 -59.996,-119.782 0,0 -41.27,-33.804 -61.905,-87.039 l 10.988,3.531 c 0,0 -16.045,-17.776 -28.382,-48.414 l 11.616,3.837 c 0,0 -11.752,-15.934 -18.175,-61.64 142.376,97.965 217.382,63.779 303.978,112.795 58.775,33.303 72.775,71.971 77.696,110.571 0,0 43.51,39.432 36.833,96.352"
           id="path1874" />
        <path
           style="fill:#000000"
           inkscape:connector-curvature="0"
           d="M 452.567,364.857 C 453.5,316.409 415.463,281.994 415.463,281.994 411.356,251.365 400.233,207.069 340.958,174.36 250.951,124.732 201.153,165.268 59.261,78.314 c 2.953,16.257 12.303,38.753 24.216,52.726 l -14.67,-4.813 c 10.665,22.488 27.745,42.887 36.688,49.509 l -16.444,-5.17 c 17.419,42.768 51.452,68.1 51.452,68.1 7.755,65.477 55.762,76.632 59.64,116.904 62.542,9.703 128.647,76.708 128.647,76.708 34.61,-59.526 82.872,-71.063 123.777,-67.421"
           id="path1876" />
        <path
           style="fill:#ffffff"
           inkscape:connector-curvature="0"
           d="m 372.47,280.586 c -13.601,21.902 -36.595,15.798 -44.792,-11.511 l 16.579,1.01 c -14.535,-8.701 -27.737,-21.503 -37.944,-34.118 -3.004,60.332 53.743,87.413 72.512,45.043 -2.121,-0.017 -4.242,-0.161 -6.355,-0.424"
           id="path1878" />
        <path
           style="fill:#97233f"
           inkscape:connector-curvature="0"
           d="M 333.432,182.57 C 268.226,146.814 188.536,170.032 86.71,106.915 96.798,137.077 159.824,172.4 159.824,172.4 l -55.771,-18.141 c 14.204,24.661 72.342,55.561 72.342,55.561 l -52.012,-16.817 c 21.543,35.799 70.416,59.959 70.416,59.959 l -30.036,-2.173 c 3.886,33.659 50.366,62.641 52.835,88.618 21.025,8.039 48.118,22.055 69.236,40.222 40.371,-19.856 29.239,-87.039 -47.736,-182.338 105.874,6.401 102.955,84.934 163.724,73.643 -4.455,-21.096 -7.331,-54.305 -69.389,-88.364"
           id="path1880" />
        <path
           style="fill:#ffb612"
           inkscape:connector-curvature="0"
           d="m 444.965,352.361 c -14.823,-14.763 -45.962,-29.831 -83.83,-34.373 16.13,-4.482 34.491,-14.381 42.017,-29.78 16.053,10.162 38.411,39.228 41.813,64.152 z m -81.047,20.586 c 6.236,-21.257 -5.108,-40.553 -5.108,-40.553 33.184,-3.251 69.805,12.156 84.628,24.703 -23.172,-4.678 -54.897,2.02 -79.52,15.849 z"
           id="path1882" />
        <path
           style="fill:#ffffff"
           inkscape:connector-curvature="0"
           d="m 372.47,280.586 c -13.601,21.902 -36.595,15.798 -44.792,-11.511 l 16.579,1.01 c -14.535,-8.701 -27.737,-21.503 -37.944,-34.118 -3.004,60.332 53.743,87.413 72.512,45.043 -2.121,-0.017 -4.242,-0.161 -6.355,-0.424"
           id="path1884" />
      </g>
      <rect
         y="164.70831"
         x="0"
         height="132.29167"
         width="132.29167"
         id="rect1904"
         style="opacity:0.21199999;fill:none;fill-opacity:1;stroke:none;stroke-width:1.96499991;stroke-linejoin:round;stroke-miterlimit:4;stroke-dasharray:none;stroke-opacity:1;paint-order:stroke fill markers" />
    </g>
  </g>
</svg>
