<?xml version="1.0" encoding="UTF-8" standalone="no"?>
<!-- Created with Inkscape (http://www.inkscape.org/) -->

<svg
   xmlns:dc="http://purl.org/dc/elements/1.1/"
   xmlns:cc="http://creativecommons.org/ns#"
   xmlns:rdf="http://www.w3.org/1999/02/22-rdf-syntax-ns#"
   xmlns:svg="http://www.w3.org/2000/svg"
   xmlns="http://www.w3.org/2000/svg"
   xmlns:sodipodi="http://sodipodi.sourceforge.net/DTD/sodipodi-0.dtd"
   xmlns:inkscape="http://www.inkscape.org/namespaces/inkscape"
   width="500"
   height="500"
   viewBox="0 0 132.29166 132.29167"
   version="1.1"
   id="svg1323"
   inkscape:version="0.92.4 (5da689c313, 2019-01-14)"
   sodipodi:docname="BAL.svg">
  <defs
     id="defs1317" />
  <sodipodi:namedview
     id="base"
     pagecolor="#ffffff"
     bordercolor="#666666"
     borderopacity="1.0"
     inkscape:pageopacity="0.0"
     inkscape:pageshadow="2"
     inkscape:zoom="0.62040816"
     inkscape:cx="0.93279652"
     inkscape:cy="187.14286"
     inkscape:document-units="mm"
     inkscape:current-layer="layer1"
     showgrid="false"
     units="px"
     inkscape:snap-bbox="true"
     inkscape:bbox-paths="true"
     inkscape:bbox-nodes="true"
     inkscape:snap-bbox-edge-midpoints="true"
     inkscape:snap-bbox-midpoints="true"
     inkscape:snap-page="true"
     inkscape:snap-nodes="true"
     inkscape:window-width="1600"
     inkscape:window-height="837"
     inkscape:window-x="-8"
     inkscape:window-y="-8"
     inkscape:window-maximized="1" />
  <metadata
     id="metadata1320">
    <rdf:RDF>
      <cc:Work
         rdf:about="">
        <dc:format>image/svg+xml</dc:format>
        <dc:type
           rdf:resource="http://purl.org/dc/dcmitype/StillImage" />
        <dc:title></dc:title>
      </cc:Work>
    </rdf:RDF>
  </metadata>
  <g
     inkscape:label="Layer 1"
     inkscape:groupmode="layer"
     id="layer1"
     transform="translate(0,-164.70832)">
    <g
       id="g980">
      <g
         transform="matrix(0.2733683,0,0,0.2733683,-2.1869471,162.53419)"
         style="fill:none"
         id="g942">
        <path
           style="fill:#ffffff"
           inkscape:connector-curvature="0"
           d="m 491.341,276.819 c -1.96,-11.916 -9.819,-29.417 -36.182,-45.163 -1.781,-1.064 -3.651,-2.1 -5.578,-3.119 4.932,-1.657 10.03,-3.367 10.03,-3.367 l -29.217,-11.38 c -2.501,-0.975 -5.123,-1.852 -7.778,-2.705 l 3.968,-4.025 -22.403,-3.135 c -9.681,-1.357 -17.316,-1.669 -23.167,-1.584 -0.057,-0.942 -0.13,-1.811 -0.228,-2.591 0,-0.008 -3.741,-28.028 -3.741,-28.028 0,0 -8.668,11.823 -9.53,12.997 -1.842,-3.066 -3.932,-5.95 -6.331,-8.659 0,-0.004 -24.163,-27.297 -24.163,-27.297 0,0 0.964,8.029 1.736,14.438 -7.835,-5.459 -16.45,-10.336 -25.981,-14.418 -38.878,-16.656 -88.042,-20.116 -134.893,-9.508 -39.187,8.878 -95.767,32.024 -142.76,91.861 L 8,265.674 48.825,249.428 c 0.325,-0.13 31.84,-12.404 57.255,-15.982 9.478,-1.336 16.735,-1.442 10.844,11.526 -4.643,10.235 -15.19,25.173 -15.3,25.323 l -20.443,29.701 34.1,-11.827 c 16.402,-5.698 31.124,-8.505 38.569,-8.769 2.659,0.049 3.147,1.803 2.309,3.712 -0.24,0.662 -0.378,1.007 -2.22,3.834 l -21.382,30.485 35.072,-12.55 c 25.452,-9.122 58.914,-15.129 70.884,-10.56 0.976,0.37 4.139,2.047 1.004,6.64 l -13.775,21.891 c 0,0 20.337,-3.083 23.228,-3.529 1.598,19.99 11.636,30.891 12.873,32.15 l 14.775,15.137 5.188,-20.498 c 3.724,-14.751 10.742,-22.789 17.003,-27.167 0,0.008 1.203,8.423 1.203,8.423 l 13.698,-4.935 c 11.515,-4.159 20.63,-9.154 27.192,-14.853 8.681,-0.686 29.888,-1.949 50.258,0.065 35.109,3.468 58.658,-1.194 65.042,-2.709 8.538,-2.019 15.735,1.625 15.812,1.665 l 10.437,5.67 5.631,-10.56 c 0.667,-1.267 3.85,-7.859 3.85,-17.631 0,-2.421 -0.195,-4.866 -0.594,-7.266"
           id="path921" />
        <path
           style="fill:#9e7c0c"
           inkscape:connector-curvature="0"
           d="m 486.45,278.843 c -1.736,-10.555 -8.888,-26.159 -33.137,-40.65 -6.485,-3.858 -13.527,-7.16 -20.655,-9.967 l 8.587,-2.884 -11.795,-4.597 c -5.843,-2.278 -11.982,-4.155 -18.313,-5.678 1.216,-1.231 2.533,-2.575 2.533,-2.575 l -9.038,-1.271 c -13.922,-1.945 -23.533,-1.722 -29.189,-1.194 0.053,-1.218 0.094,-2.506 0.094,-3.805 0,-1.819 -0.069,-3.611 -0.26,-5.06 l -1.517,-11.319 c 0,0 -5.497,7.501 -6.29,8.586 -1.817,-5.044 -4.798,-11.295 -10.238,-17.452 l -9.766,-11.035 1.106,9.211 c -8.778,-8.147 -20.927,-16.712 -37.581,-23.848 -37.78,-16.185 -85.684,-19.527 -131.4,-9.175 -38.317,8.679 -93.649,31.329 -139.654,89.902 L 28.345,250.803 45.8,243.85 c 0.325,-0.126 32.791,-12.972 59.183,-16.497 10.348,-1.373 17.491,-0.15 20.106,3.456 2.44,3.379 1.655,10.064 -2.135,17.898 -5.188,10.75 -15.792,26.184 -15.898,26.346 l -8.742,12.692 14.58,-5.052 c 19.211,-6.673 43.432,-11.607 49.046,-7.94 1.297,0.849 1.996,1.848 2.269,3.245 0.899,4.662 -3.119,11.729 -4.598,13.849 l -9.152,13.025 15.003,-5.361 c 23.968,-8.586 66.94,-18.43 80.223,-8.261 6.144,4.707 0.403,14.008 0.146,14.398 l -5.895,9.378 10.945,-1.669 5.355,-0.829 c -0.033,0.857 -0.089,1.726 -0.089,2.542 0,21.164 10.718,32.418 11.234,32.954 l 6.322,6.474 2.22,-8.777 c 6.221,-24.636 20.943,-33.165 29.148,-36.057 0.228,1.633 1.37,9.613 1.37,9.613 l 5.855,-2.112 c 14.361,-5.178 22.403,-10.86 26.818,-15.124 6.607,-0.577 30.811,-2.404 54.052,-0.114 34.226,3.387 56.975,-1.109 63.135,-2.571 11.348,-2.68 20.569,2.222 20.667,2.27 l 4.505,2.457 2.419,-4.528 c 0.155,-0.284 3.07,-5.95 3.07,-14.515 0,-1.925 -0.15,-3.996 -0.512,-6.198"
           id="path923" />
        <path
           style="fill:#000000"
           inkscape:connector-curvature="0"
           d="m 450.301,243.308 c -10.124,-7.152 -23.761,-12.355 -36.991,-16.075 5.509,-1.779 11.027,-1.661 11.027,-1.661 -8.477,-3.237 -17.329,-5.26 -25.562,-6.535 l 3.082,-2.762 c -15.08,-2.567 -25.607,-2.372 -31.852,-1.722 0.785,-3.087 1.423,-7.802 0.618,-14.097 0,0 -1.83,5.426 -6.265,8.797 -0.585,-7.042 -2.838,-17.229 -10.49,-24.141 l 1.419,12.432 c -6.741,-10.141 -19.569,-23.109 -43.822,-34.441 -65.928,-30.781 -182.098,-19.113 -245.867,63.159 0,0 24.798,-12.379 59.154,-13.2 18,-0.422 22.374,9.646 15.816,26.614 -6.595,17.054 -18.154,32.016 -18.154,32.016 0,0 77.747,-27.52 53.202,10.71 0,0 58.691,-17.558 76.296,3.038 8.185,9.557 -1.346,22.923 -1.346,22.923 l 16.65,-3.598 c -5.399,21.123 4.054,34.615 4.054,34.615 6.871,-27.614 30.831,-34.969 39.313,-36.362 l 1.834,7.481 c 14.214,-5.134 20.899,-10.596 24.72,-15.096 30.1,-4.727 50.539,-0.686 73.743,0.577 33.799,1.844 51.27,-4.037 56.853,-4 4.098,0.037 8.957,3.607 8.957,3.607 0,0 14.048,-23.686 -26.387,-52.279"
           id="path925" />
        <path
           style="fill:#ffffff"
           inkscape:connector-curvature="0"
           d="m 422.555,288.231 c -23.403,0.114 -44.253,-5.836 -72.519,-2.352 l -9.469,-7.595 c -2.557,6.559 -6.066,11.019 -6.066,11.019 3.123,-5.58 -0.069,-12.209 -1.391,-15.454 -11.645,-6.186 -30.701,-18.021 -14.515,-21.883 -10.083,-1.503 -40.801,-4.533 -79.288,6.445 0,0 35.58,-23.739 104.005,-12.582 -18.487,-11.023 -58.996,-10.568 -58.996,-10.568 36.914,-9.219 81.464,5.361 98.003,10.763 l -15.414,-11.132 19.471,1.685 -10.466,-8.427 c 0,0 41.423,2.936 68.384,20.892 31.51,18.439 27.652,37.8 27.652,37.8 -7.392,-15.466 -62.09,-26.034 -125.289,-33.49 -16.877,-1.982 -24.005,-0.881 -23.293,3.054 0.675,3.704 10.417,11.019 20.175,14.857 -6.977,-6.693 -0.915,-8.399 -0.915,-8.399 11.092,-0.906 82.696,5.792 119.268,21.448 -9.909,2.311 -22.505,3.826 -39.337,3.919 z M 213.196,250.504 c -0.358,0.227 -0.728,0.467 -1.086,0.707 -0.394,0.28 -0.793,0.548 -1.187,0.816 l -0.573,0.39 c -1.716,0.093 -3.407,0.15 -5.054,0.15 l -15.162,0.873 c -9.002,0.459 -24.196,2.283 -29.25,2.924 l -1.708,0.207 c 11.779,-41.179 22.411,-55.613 29.53,-62.672 4.233,-5.158 11.718,-8.655 17.719,-10.694 -40.321,1.921 -79.52,10.21 -79.52,10.21 25.351,-19.653 84.131,-33.385 118.016,-29.933 33.881,3.456 31.575,17.184 28.091,25.014 -2.822,6.328 -16.662,14.905 -29.677,17.675 13.474,1.755 21.106,12.144 16.28,22.516 -0.415,0.889 -0.894,1.75 -1.407,2.579 -14.381,3.412 -27.144,8.821 -37.617,14.731 -0.366,0.215 -0.728,0.426 -1.094,0.634 -0.488,0.284 -0.98,0.569 -1.464,0.857 l -1.114,0.662 c -0.455,0.276 -0.903,0.556 -1.346,0.833 -0.37,0.236 -1.96,1.243 -2.379,1.519 z"
           id="Combined-Shape" />
        <path
           style="fill:#241773"
           inkscape:connector-curvature="0"
           d="m 293.159,165.743 c 73.214,21.826 62.126,63.78 62.126,63.78 0,0 -5.912,0.374 -12.885,-12.647 -6.583,-12.29 -16.308,-13.866 -16.308,-13.866 0,0 7.184,-0.662 17.272,3.728 0,0 -14.174,-21.241 -54.637,-19.604 0,0 20.411,2.51 29.055,13.91 0,0 -27.489,-4.325 -52.214,8.456 0,0 22.053,-3.643 38.967,7.741 0,0 -25.363,-1.897 -39.284,12.538 12.389,-2.287 25.822,-3.03 39.894,-1.365 9.209,1.397 17.04,3.261 22.801,4.862 -14.332,-1.58 -29.534,-1.535 -43.631,1.986 0,0 40.508,-0.455 58.996,10.568 -68.424,-11.157 -104.005,12.582 -104.005,12.582 38.487,-10.978 69.205,-7.948 79.288,-6.445 -16.186,3.862 2.87,15.697 14.515,21.883 1.321,3.245 4.513,9.873 1.395,15.446 -7.652,10.487 -16.202,12.619 -16.202,12.619 C 323.364,289.13 317.18,280 317.18,280 c 0,0 -4.281,13.175 -22.846,20.924 -20.358,8.513 -23.517,20.928 -23.517,20.928 0,0 -0.74,-11.348 10.018,-23.284 3.456,-3.85 5.997,-7.051 7.603,-9.853 l -22.761,6.23 c 15.267,-44.33 -72.852,-26.501 -72.852,-26.501 3.24,-4.589 9.49,-10.507 18.097,-16.416 0.394,-0.268 0.793,-0.536 1.187,-0.816 0.358,-0.24 0.728,-0.479 1.086,-0.707 0.419,-0.276 0.838,-0.552 1.264,-0.816 l 1.114,-0.703 c 0.443,-0.276 0.89,-0.556 1.346,-0.833 l 1.114,-0.662 c 0.484,-0.288 0.976,-0.573 1.464,-0.857 0.366,-0.207 0.728,-0.418 1.094,-0.634 10.474,-5.909 23.236,-11.319 37.617,-14.731 0.512,-0.829 0.992,-1.69 1.407,-2.579 4.826,-10.373 -2.805,-20.762 -16.28,-22.516 13.015,-2.77 26.855,-11.348 29.677,-17.675 3.484,-7.83 5.79,-21.558 -28.091,-25.014 -33.885,-3.452 -92.665,10.279 -118.016,29.933 0,0 39.199,-8.289 79.52,-10.21 -6.001,2.039 -13.486,5.536 -17.719,10.694 -7.119,7.059 -17.752,21.493 -29.53,62.672 l 1.708,-0.207 -15.08,2.36 c 0,0 23.057,-36.833 7.839,-52.498 -13.084,-13.472 -56.702,0.24 -56.702,0.24 43.33,-41.451 121.398,-63.025 196.218,-40.724 z m -76.784,73.849 c -2.293,0.581 -4.509,0.784 -6.375,0.784 h -8.66 c 0,0 3.476,-10.828 9.067,-22.651 h 3.395 c 8.071,0 12.547,4.533 7.522,15.344 -1.285,2.758 -3.005,4.882 -4.948,6.523 z m 15.031,-37.385 c -2.444,0.723 -5.16,1.141 -8.054,1.141 h -6.074 c 3.761,-8.651 6.766,-13.931 8.851,-17.074 7.912,0.069 11.128,4.013 6.94,12.992 -0.524,1.137 -1.086,2.108 -1.663,2.94 z"
           id="path928" />
        <path
           style="fill:#000000"
           inkscape:connector-curvature="0"
           d="m 233.07,199.266 c -0.524,1.137 -1.086,2.108 -1.663,2.94 4.851,-1.442 8.603,-4.122 10.449,-7.319 4.058,-7.079 0.947,-12.156 -5.599,-12.85 l -6.802,0.02 c 0,0 -1.175,0.967 -3.326,4.216 7.912,0.069 11.128,4.013 6.94,12.992"
           id="path930" />
        <path
           style="fill:#000000"
           inkscape:connector-curvature="0"
           d="m 221.323,233.069 c -1.285,2.758 -3.005,4.882 -4.948,6.523 5.131,-1.267 10.677,-4.338 13.73,-10.901 5.034,-10.816 0.549,-15.348 -7.514,-15.348 h -10.026 c -0.748,1.466 -1.472,2.932 -2.159,4.382 h 3.395 c 8.071,0 12.547,4.533 7.522,15.344"
           id="path932" />
        <path
           style="fill:#9e7c0c"
           inkscape:connector-curvature="0"
           d="m 269.923,177.663 c -3.167,-5.195 -10.901,-8.269 -24.631,-8.968 0,0 -13.901,-1.884 -31.49,0.467 -6.961,0.93 -40.797,4.37 -69.608,18.419 25.196,-6.129 54.974,-8.375 73.828,-9.057 7.928,-0.28 16.638,-0.032 16.638,-0.032 5.639,0 10.868,1.665 12.873,4.951 2.078,3.399 2.651,7.477 -1.256,12.456 -2.151,2.746 -4.676,5.637 -12.006,8.618 l 8.449,-1.799 c 12.629,-2.697 24.09,-9.784 26.725,-15.279 1.923,-4.013 2.033,-7.229 0.48,-9.776"
           id="path934" />
        <path
           style="fill:#9e7c0c"
           inkscape:connector-curvature="0"
           d="m 208.805,209.83 h 13.913 c 7.18,0 10.482,2.94 11.994,5.418 2.37,3.879 1.948,9.106 -0.988,15.653 -5.664,12.627 -19.386,13.764 -23.505,13.764 l -15.788,0.601 c 6.843,-21.688 14.373,-35.436 14.373,-35.436 z m 7.237,38.856 c 10.043,-6.19 22.61,-12.083 36.959,-16.075 0.907,-1.206 1.687,-2.482 2.309,-3.83 1.443,-3.091 1.61,-6.933 0.581,-9.971 -1.549,-4.61 -4.635,-7.68 -14.361,-9.955 -12.799,-2.985 -31.494,-1.669 -31.494,-1.669 4.302,-10.434 7.514,-16.534 10.73,-21.822 -2.765,-0.179 -16.707,1.3 -27.412,11.502 -9.323,8.232 -19.394,29.616 -27.404,55.081 13.779,-1.446 26.27,-2.1 26.27,-2.1 l 13.1,-0.565 c 3.444,0 7.066,-0.187 10.722,-0.597 z"
           id="path936" />
        <path
           style="fill:#c60c30"
           inkscape:connector-curvature="0"
           d="m 332.724,213.879 c 2.098,4.963 -0.793,10.474 -6.461,12.314 -5.664,1.844 -11.962,-0.699 -14.06,-5.662 -2.098,-4.967 0.797,-10.487 6.461,-12.318 5.66,-1.84 11.962,0.695 14.06,5.666 z m -0.516,3.026 c -1.138,-2.977 -4.615,-4.472 -7.774,-3.334 -3.151,1.125 -4.798,4.447 -3.655,7.42 1.143,2.981 4.619,4.472 7.778,3.347 3.159,-1.133 4.798,-4.459 3.651,-7.432 z"
           id="path938" />
        <path
           style="fill:#ffffff"
           inkscape:connector-curvature="0"
           d="m 318.152,221.177 c -1.578,-3.728 0.703,-7.92 5.082,-9.345 1.691,-0.548 3.444,-0.609 5.046,-0.256 -2.187,-1.381 -5.151,-1.811 -7.928,-0.906 -4.391,1.421 -6.668,5.605 -5.082,9.358 0.968,2.299 3.18,3.895 5.757,4.447 -1.269,-0.8 -2.289,-1.921 -2.875,-3.298"
           id="path940" />
      </g>
      <rect
         y="164.70831"
         x="0"
         height="132.29167"
         width="132.29167"
         id="rect965"
         style="opacity:0.21199999;fill:none;fill-opacity:1;stroke:none;stroke-width:10.58333302;stroke-linejoin:round;stroke-miterlimit:4;stroke-dasharray:none;stroke-opacity:1;paint-order:stroke fill markers" />
    </g>
  </g>
</svg>
