<?xml version="1.0" encoding="UTF-8" standalone="no"?>
<!-- Created with Inkscape (http://www.inkscape.org/) -->

<svg
   xmlns:dc="http://purl.org/dc/elements/1.1/"
   xmlns:cc="http://creativecommons.org/ns#"
   xmlns:rdf="http://www.w3.org/1999/02/22-rdf-syntax-ns#"
   xmlns:svg="http://www.w3.org/2000/svg"
   xmlns="http://www.w3.org/2000/svg"
   xmlns:sodipodi="http://sodipodi.sourceforge.net/DTD/sodipodi-0.dtd"
   xmlns:inkscape="http://www.inkscape.org/namespaces/inkscape"
   width="500"
   height="500"
   viewBox="0 0 132.29166 132.29167"
   version="1.1"
   id="svg1323"
   inkscape:version="0.92.4 (5da689c313, 2019-01-14)"
   sodipodi:docname="CAR.svg">
  <defs
     id="defs1317" />
  <sodipodi:namedview
     id="base"
     pagecolor="#ffffff"
     bordercolor="#666666"
     borderopacity="1.0"
     inkscape:pageopacity="0.0"
     inkscape:pageshadow="2"
     inkscape:zoom="0.62040816"
     inkscape:cx="0.93279652"
     inkscape:cy="187.14286"
     inkscape:document-units="mm"
     inkscape:current-layer="layer1"
     showgrid="false"
     units="px"
     inkscape:snap-bbox="true"
     inkscape:bbox-paths="true"
     inkscape:bbox-nodes="true"
     inkscape:snap-bbox-edge-midpoints="true"
     inkscape:snap-bbox-midpoints="true"
     inkscape:snap-page="true"
     inkscape:snap-nodes="true"
     inkscape:window-width="1600"
     inkscape:window-height="837"
     inkscape:window-x="-8"
     inkscape:window-y="-8"
     inkscape:window-maximized="1" />
  <metadata
     id="metadata1320">
    <rdf:RDF>
      <cc:Work
         rdf:about="">
        <dc:format>image/svg+xml</dc:format>
        <dc:type
           rdf:resource="http://purl.org/dc/dcmitype/StillImage" />
        <dc:title></dc:title>
      </cc:Work>
    </rdf:RDF>
  </metadata>
  <g
     inkscape:label="Layer 1"
     inkscape:groupmode="layer"
     id="layer1"
     transform="translate(0,-164.70832)">
    <g
       id="g1065">
      <g
         transform="matrix(0.27570011,0,0,0.27570011,-2.7575517,161.87309)"
         style="fill:none"
         id="g1039">
        <path
           style="fill:#000000"
           inkscape:connector-curvature="0"
           d="m 449.889,145.217 0.007,-0.007 z m -68.656,102.754 c 0,0 5.679,-12.499 3.12,-27.829 0,0 -10.786,-3.976 -30.382,0 0,0 -9.375,21.004 -21.309,31.229 0,0 9.098,-21.299 3.689,-37.194 0,0 16.476,-6.53 36.654,-5.112 20.161,1.418 24.696,5.684 24.696,5.684 0,0 -5.107,24.134 -16.469,33.222 z m -13.019,44.001 c 9.375,-6.852 8.377,-20.28 8.377,-20.28 2.271,5.317 3.543,12.422 2.271,17.497 -1.272,5.064 -4.559,10.138 -18.258,11.396 -13.695,1.276 -21.555,-3.04 -21.555,-3.04 6.095,-6.079 12.007,-22.557 12.007,-22.557 3.048,11.674 0.458,17.074 0.458,17.074 6.594,2.021 16.701,-0.09 16.701,-0.09 z m 21.572,-2.218 c 3.301,24.096 -18.129,34.21 -30.036,34.21 -11.913,0 -28.288,-5.057 -34.536,-25.288 -6.248,-20.238 -6.248,-45.235 1.786,-57.436 0,0 -5.35,24.103 -2.378,37.797 2.975,13.687 8.63,25.292 19.641,27.382 11.018,2.076 27.394,1.483 33.34,-5.369 5.963,-6.845 8.338,-16.661 2.389,-30.058 -5.96,-13.382 -17.863,-30.65 1.803,-47.897 0,0 -8.647,10.405 -5.374,25.59 3.269,15.171 10.055,16.98 13.366,41.069 z m -76.928,-99.659 c -44.854,-6.17 -81.647,2.991 -81.647,2.991 36.131,-11.642 68.982,-10.187 85.176,-8.332 -1.515,1.858 -2.68,3.646 -3.53,5.341 z m -2.105,11.154 c -43.838,-3.036 -78.603,7.708 -78.603,7.708 31.61,-12.155 61.194,-13.757 78.769,-13.268 -0.402,2.111 -0.381,3.993 -0.166,5.56 z m -73.839,63.38 c -16.736,-20.526 -9.691,-47.956 -9.691,-47.956 0,0 0.628,23.528 21.163,44.313 20.543,20.793 46.036,26.418 46.036,26.418 0,0 -40.77,-2.236 -57.509,-22.775 z m 90.072,-89.351 c -2.306,1.601 -4.292,3.171 -6.022,4.724 -48.002,-11.337 -89.982,-3.303 -89.982,-3.303 51.982,-13.632 96.004,-1.421 96.004,-1.421 z m -37.434,-25.118 0.01,-0.01 0.014,-0.007 c 0.721,-0.308 15.332,-6.412 30.247,-3.022 15.3,3.483 24.793,13.85 24.793,13.85 0,0 -13.74,-4.118 -39.203,-3.664 0,0 -1.002,-1.854 1.619,-5.736 0,0 -4.081,-1.192 -17.485,-1.411 h 0.003 z m 112.671,4.242 c 7.829,-1.574 14.974,2.45 18.331,5.58 0,0 -18.102,-3.348 -26.586,4.468 0,0 0.447,-8.492 8.255,-10.048 z m 86.272,59.699 c -17.689,-9.646 -37.75,-12.644 -53.14,-13.244 0,0 -6.262,0.114 -7.229,0.087 0.316,-2.561 0.236,-4.856 -0.17,-6.884 3.821,-0.114 8.657,-0.267 9.365,-0.302 l 0.582,-0.035 c 30.84,-1.009 47.146,7.14 47.146,7.14 l -1.564,-1.189 c -15.02,-6.96 -30.913,-9.507 -44.66,-9.896 h -0.551 c 0,0 -6.64,-0.01 -11.691,0.083 -1.383,-2.918 -3.405,-5.119 -5.443,-6.728 6.494,-0.038 14.018,-0.017 18.351,0.177 l 0.316,0.01 c 23.729,0.25 36.672,5.871 36.672,5.871 l -1.557,-1.224 c -11.771,-5.022 -23.798,-7.296 -35.073,-8.048 0,0 -14.701,-0.787 -26.034,-0.721 3.283,2.485 5.794,6.062 6.036,11.202 0.77,15.833 -15.585,22.214 -15.585,22.214 3.842,-2.558 10.734,-11.23 8.952,-22.474 -1.796,-11.23 -16.351,-16.568 -16.351,-16.568 0,0 -17.048,7.386 -20.747,21.292 0,0 0.288,-14.474 -23.861,-23.85 0,0 11.362,-3.404 23.583,-2.558 12.211,0.86 21.025,5.116 21.025,5.116 0,0 2.25,-5.951 14.232,-7.986 11.993,-2.035 24.956,0.898 24.956,0.898 -2.392,-4.367 -5.149,-10.738 -17.204,-15.66 -12.045,-4.922 -22.852,-0.468 -22.852,-0.468 0,0 -0.784,-5.816 -9.541,-11.48 -14.232,-9.202 -51.871,-14.686 -59.131,-15.081 -7.246,-0.381 5.443,4.288 10.526,7.189 5.78,3.289 12.246,8.88 12.801,14.187 0.142,1.428 -0.194,2.669 -0.832,3.705 -0.513,-1.483 -1.584,-3.379 -3.467,-5.799 -10.311,-13.237 -36.46,-18.963 -56.087,-17.656 -19.624,1.31 -35.219,8.731 -35.219,8.731 0.225,1.813 -7.236,8.138 -27.817,10.409 -19.61,2.149 -33.451,-1.435 -38.429,-2.173 l -0.378,-0.073 c -2.018,-0.25 -3.533,-0.159 -4.167,1.293 l -0.066,0.201 -0.042,0.27 c -0.087,1.012 0.534,2.409 0.534,2.409 l -0.288,-0.551 c 1.397,2.679 9.739,18.055 20.733,25.947 0,0 6.57,-1.393 14.364,-2.232 0,0 -120.461,58.611 -169.264,150.184 21.264,-2.496 49.243,-4.104 79.615,-1.428 l -0.205,-0.021 h -0.017 c 4.386,-7.376 26.395,-48.563 78.735,-73.868 0,0 -38.7,26.897 -52.454,77.224 17.498,2.967 35.371,7.57 52.873,14.381 56.254,21.916 103.673,44.83 157.129,44.358 l 9.087,-0.399 -0.017,-0.042 c -14.201,-29.59 -28.181,-43.114 -28.181,-43.114 10.571,1.896 19.111,-1.116 19.267,-1.168 0.794,-0.288 1.48,-0.572 2.056,-0.835 17.485,-9.424 20.4,-25.375 21.836,-36.802 1.643,-13.213 -0.7,-21.663 -0.7,-21.663 0,0 30.268,-39.721 37.951,-70.964 0,0 3.876,-0.53 6.858,-0.468 36.068,0.406 55.779,10.426 55.779,10.426 l -1.345,-1.355 z m -39.033,-67.602 c 0.111,-0.253 0.198,-0.489 0.267,-0.721 l 0.159,-0.579 -0.003,-0.028 c -0.697,-1.986 -2.077,-2.132 -4.996,-1.903 -4.247,0.808 -8.172,1.324 -11.48,1.65 h 0.007 l -0.541,0.059 -0.385,0.035 -1.432,0.132 -0.205,0.007 c -4.258,0.35 -6.955,0.367 -6.955,0.367 10.883,8.228 12.156,20.97 12.156,20.97 l 0.558,-0.475 c 8.352,-6.062 12.849,-19.514 12.849,-19.514 z"
           id="path1033" />
        <path
           style="fill:#bfc0bf"
           inkscape:connector-curvature="0"
           d="m 336.352,214.178 c 5.409,15.895 -3.689,37.194 -3.689,37.194 11.934,-10.225 21.309,-31.229 21.309,-31.229 19.596,-3.976 30.382,0 30.382,0 2.559,15.33 -3.12,27.829 -3.12,27.829 11.362,-9.088 16.469,-33.222 16.469,-33.222 0,0 -4.535,-4.267 -24.696,-5.684 -20.179,-1.418 -36.654,5.112 -36.654,5.112 z m 65.872,-59.775 c -7.808,1.556 -8.255,10.048 -8.255,10.048 8.484,-7.816 26.586,-4.468 26.586,-4.468 -3.356,-3.13 -10.502,-7.154 -18.331,-5.58 z m -34.009,137.571 c 0,0 -10.107,2.111 -16.701,0.09 0,0 2.59,-5.4 -0.458,-17.074 0,0 -5.911,16.478 -12.007,22.557 0,0 7.86,4.315 21.555,3.04 13.699,-1.258 16.985,-6.332 18.258,-11.396 1.272,-5.074 0,-12.18 -2.271,-17.497 0,0 0.999,13.427 -8.377,20.28 z m -48.39,-144.853 c -14.915,-3.39 -29.526,2.714 -30.247,3.022 0.707,-0.302 14.659,-6.125 29.207,-3.241 -8.266,-1.567 -11.75,4.669 -11.75,4.669 -2.621,3.882 -1.619,5.736 -1.619,5.736 25.462,-0.454 39.203,3.664 39.203,3.664 0,0 -9.493,-10.367 -24.793,-13.85 z"
           id="path1035" />
        <path
           style="fill:#0085ca"
           inkscape:connector-curvature="0"
           d="m 427.204,205.499 c -7.683,31.243 -37.951,70.964 -37.951,70.964 l 0.014,-0.014 c 22.876,-19.51 38.124,-54.018 44.795,-71.418 -2.982,-0.062 -6.858,0.468 -6.858,0.468 z m 0.922,-4.554 c 0.967,0.028 7.229,-0.087 7.229,-0.087 0.579,-1.948 1.286,-4.43 1.966,-7.098 -0.707,0.035 -5.544,0.187 -9.365,0.302 0.406,2.028 0.485,4.322 0.17,6.884 z m -51.705,47.741 c -3.273,-15.185 5.374,-25.59 5.374,-25.59 -19.665,17.247 -7.763,34.515 -1.803,47.897 5.95,13.396 3.575,23.212 -2.389,30.058 -5.946,6.852 -22.321,7.445 -33.34,5.369 -11.012,-2.09 -16.666,-13.694 -19.641,-27.382 -2.971,-13.694 2.378,-37.797 2.378,-37.797 -8.033,12.2 -8.033,37.198 -1.786,57.436 6.248,20.231 22.623,25.288 34.536,25.288 11.906,0 33.336,-10.114 30.036,-34.21 -3.311,-24.089 -10.096,-25.898 -13.366,-41.069 z m 73.662,-105.084 -0.042,-0.392 -0.031,-0.201 -0.107,-0.34 -0.066,-0.177 -0.142,-0.295 -0.076,-0.142 -0.187,-0.263 -0.104,-0.114 -0.205,-0.215 -0.107,-0.097 -0.239,-0.18 -0.114,-0.08 -0.246,-0.135 -0.114,-0.066 -0.25,-0.111 -0.107,-0.052 -0.236,-0.083 -0.104,-0.031 -0.229,-0.062 -0.076,-0.024 -0.211,-0.038 -0.062,-0.014 -0.163,-0.021 -0.038,-0.01 -0.184,-0.021 c -15.033,0.163 -27.376,-4.936 -27.376,-4.936 l -1.012,-0.364 c -33.419,-12.225 -68.104,-15.725 -98.986,-15.164 l -0.01,-0.031 c -13.792,0.128 -23.861,1.255 -23.861,1.255 -44.341,3.747 -76.127,14.37 -76.127,14.37 0,0 -12.069,3.397 -28.136,2.596 0,0 -5.967,-0.104 -7.146,3.695 -1.009,2.419 -1.148,5.296 1.123,11.594 2.621,7.265 13.106,20.921 13.185,21.022 -31.714,12.88 -114.304,59.19 -188.295,152.309 0,0 15.637,-4.062 40.229,-6.942 48.803,-91.573 169.264,-150.184 169.264,-150.184 -7.794,0.839 -14.364,2.232 -14.364,2.232 -10.994,-7.892 -19.336,-23.268 -20.733,-25.947 l 0.288,0.551 c 0,0 -0.621,-1.397 -0.534,-2.409 l 0.042,-0.27 0.066,-0.201 c 0.634,-1.452 2.15,-1.542 4.167,-1.293 l 0.378,0.073 c 4.979,0.738 18.819,4.322 38.429,2.173 20.581,-2.27 28.042,-8.596 27.817,-10.409 0,0 15.595,-7.421 35.219,-8.731 19.627,-1.307 45.776,4.419 56.087,17.656 1.883,2.419 2.954,4.315 3.467,5.799 0.638,-1.036 0.974,-2.277 0.832,-3.705 -0.555,-5.307 -7.021,-10.897 -12.801,-14.187 -5.083,-2.901 -17.772,-7.57 -10.526,-7.189 7.26,0.395 44.899,5.878 59.131,15.081 8.758,5.664 9.541,11.48 9.541,11.48 0,0 10.807,-4.454 22.852,0.468 12.055,4.922 14.811,11.292 17.204,15.66 0,0 -1.272,-12.741 -12.156,-20.97 0,0 2.697,-0.017 6.955,-0.367 l 0.205,-0.007 1.432,-0.132 0.385,-0.035 0.541,-0.059 h -0.007 c 3.308,-0.326 7.232,-0.842 11.48,-1.65 2.919,-0.229 4.299,-0.083 4.996,1.903 l 0.003,0.028 -0.159,0.579 c -0.069,0.232 -0.156,0.468 -0.267,0.721 0,0 -4.497,13.452 -12.849,19.514 l -0.558,0.475 c 0,0 -12.964,-2.932 -24.956,-0.898 -11.982,2.035 -14.232,7.986 -14.232,7.986 0,0 14.555,5.338 16.351,16.568 1.782,11.244 -5.111,19.916 -8.952,22.474 0,0 16.354,-6.381 15.585,-22.214 -0.243,-5.14 -2.753,-8.717 -6.036,-11.202 11.334,-0.066 26.034,0.721 26.034,0.721 0.069,-4.385 -0.659,-7.996 -2.33,-11.123 8.699,-7.549 11.913,-19.049 12.371,-23.583 l 0.007,-0.007 v -0.01 c 0.042,-0.153 0.121,-0.565 0.135,-0.655 l 0.024,-0.26 c 0.021,-0.153 0.028,-0.305 0.028,-0.451 v -0.232 z m -97.824,27.416 c 24.148,9.376 23.861,23.85 23.861,23.85 3.699,-13.906 20.747,-21.292 20.747,-21.292 0,0 -8.813,-4.256 -21.025,-5.116 -12.222,-0.846 -23.583,2.558 -23.583,2.558 z m 68.881,12.117 c 2.039,1.608 4.06,3.809 5.443,6.728 5.052,-0.094 11.691,-0.083 11.691,-0.083 0.478,-2.135 0.901,-4.284 1.193,-6.294 l 0.024,-0.173 c -4.334,-0.194 -11.858,-0.215 -18.351,-0.177 z m -55.078,152.627 c -0.156,0.052 -8.696,3.064 -19.267,1.168 0,0 13.979,13.525 28.181,43.114 l 0.017,0.042 0.555,-0.035 c -1.373,-13.486 -7.132,-36.071 -8.463,-40.248 z M 248.388,260.985 c -20.536,-20.786 -21.163,-44.313 -21.163,-44.313 0,0 -7.045,27.43 9.691,47.956 16.739,20.54 57.509,22.775 57.509,22.775 0,0 -25.494,-5.625 -46.036,-26.418 z M 129.622,318.39 h 0.017 l 0.205,0.021 c 0.766,0.066 3.217,0.295 3.353,0.315 0.333,0.028 4.542,0.468 4.58,0.471 5.974,0.669 12.024,1.508 18.126,2.548 13.754,-50.327 52.454,-77.224 52.454,-77.224 -52.339,25.306 -74.349,66.493 -78.735,73.868 z M 230.983,176.698 c 0,0 41.98,-8.034 89.982,3.303 1.73,-1.553 3.717,-3.123 6.022,-4.724 0,0 -44.022,-12.211 -96.004,1.421 z m 0.229,16.387 c 0,0 36.793,-9.161 81.647,-2.991 0.849,-1.695 2.014,-3.483 3.53,-5.341 -16.195,-1.854 -49.046,-3.31 -85.176,8.332 z M 318.784,146.9 c -14.548,-2.884 -28.5,2.939 -29.207,3.241 l -0.014,0.007 -0.01,0.01 h -0.003 c 13.404,0.218 17.485,1.411 17.485,1.411 0,0 3.484,-6.235 11.75,-4.669 z m -86.633,62.056 c 0,0 34.765,-10.745 78.603,-7.708 -0.215,-1.567 -0.236,-3.449 0.166,-5.56 -17.575,-0.489 -47.16,1.113 -78.769,13.268 z"
           id="path1037" />
      </g>
      <rect
         y="164.70831"
         x="0"
         height="132.29167"
         width="132.29167"
         id="rect1009"
         style="opacity:0.21199999;fill:none;fill-opacity:1;stroke:none;stroke-width:10.58333302;stroke-linejoin:round;stroke-miterlimit:4;stroke-dasharray:none;stroke-opacity:1;paint-order:stroke fill markers" />
    </g>
  </g>
</svg>
