<?xml version="1.0" encoding="UTF-8" standalone="no"?>
<!-- Created with Inkscape (http://www.inkscape.org/) -->

<svg
   xmlns:dc="http://purl.org/dc/elements/1.1/"
   xmlns:cc="http://creativecommons.org/ns#"
   xmlns:rdf="http://www.w3.org/1999/02/22-rdf-syntax-ns#"
   xmlns:svg="http://www.w3.org/2000/svg"
   xmlns="http://www.w3.org/2000/svg"
   xmlns:sodipodi="http://sodipodi.sourceforge.net/DTD/sodipodi-0.dtd"
   xmlns:inkscape="http://www.inkscape.org/namespaces/inkscape"
   width="500"
   height="500"
   viewBox="0 0 132.29166 132.29167"
   version="1.1"
   id="svg1323"
   inkscape:version="0.92.4 (5da689c313, 2019-01-14)"
   sodipodi:docname="CHI.svg">
  <defs
     id="defs1317" />
  <sodipodi:namedview
     id="base"
     pagecolor="#ffffff"
     bordercolor="#666666"
     borderopacity="1.0"
     inkscape:pageopacity="0.0"
     inkscape:pageshadow="2"
     inkscape:zoom="0.62040816"
     inkscape:cx="0.93279652"
     inkscape:cy="187.14286"
     inkscape:document-units="mm"
     inkscape:current-layer="layer1"
     showgrid="false"
     units="px"
     inkscape:snap-bbox="true"
     inkscape:bbox-paths="true"
     inkscape:bbox-nodes="true"
     inkscape:snap-bbox-edge-midpoints="true"
     inkscape:snap-bbox-midpoints="true"
     inkscape:snap-page="true"
     inkscape:snap-nodes="true"
     inkscape:window-width="1600"
     inkscape:window-height="837"
     inkscape:window-x="-8"
     inkscape:window-y="-8"
     inkscape:window-maximized="1" />
  <metadata
     id="metadata1320">
    <rdf:RDF>
      <cc:Work
         rdf:about="">
        <dc:format>image/svg+xml</dc:format>
        <dc:type
           rdf:resource="http://purl.org/dc/dcmitype/StillImage" />
        <dc:title></dc:title>
      </cc:Work>
    </rdf:RDF>
  </metadata>
  <g
     inkscape:label="Layer 1"
     inkscape:groupmode="layer"
     id="layer1"
     transform="translate(0,-164.70832)">
    <g
       id="g1105">
      <g
         transform="matrix(0.30101863,0,0,0.30101863,-9.0308603,155.6264)"
         style="fill:none"
         id="g1079">
        <path
           style="fill:#0b162a"
           inkscape:connector-curvature="0"
           d="m 164.744,123.547 c -50.183,20.767 -73.005,52.27 -83.287,75.029 -6.612,14.79 -13.102,25.886 -20.425,34.943 -7.509,7.818 -21.236,16.441 -29.26,19.481 l -1.499,0.568 -0.272,5.467 2.073,0.411 c 10.392,2.067 23.337,9.88 27.535,15.23 5.396,5.426 9.153,9.179 18.619,25.967 0.133,0.203 4.846,7.667 4.846,7.667 3.068,5.166 6.241,10.511 14.74,19.921 6.536,9.185 37.84,38.076 71.905,50.504 23.934,11.866 55.365,17.732 95.845,17.842 59.452,0.342 104.454,-12.665 145.906,-42.147 17.189,-13.319 22.747,-18.682 37.238,-35.899 9.709,-11.478 20.263,-31.718 20.715,-54.077 l 0.058,-2.502 -84.109,-0.093 -0.463,1.865 c -6.837,27.455 -34.488,44.579 -50.363,52.345 -41.424,17.616 -93.593,17.831 -132.782,0.486 -36.636,-18.363 -56.112,-43.201 -54.739,-69.892 1.395,-27.206 24.553,-53.214 58.989,-66.244 66.608,-24.415 130.634,-3.423 154.816,19.29 l 0.706,0.66 98.004,-0.093 -1.326,-3.347 C 438.055,145.823 365.154,117.013 333.005,111.071 261.036,94.59 198.88,106.705 164.746,123.545"
           id="path1073" />
        <path
           style="fill:#ffffff"
           inkscape:connector-curvature="0"
           d="m 76.021,226.118 c 5.118,-8.09 7.15,-12.653 9.946,-18.977 l 2.999,-6.637 c 9.026,-19.209 24.212,-36.814 43.902,-50.903 19.244,-12.897 40.561,-23.228 58.427,-28.318 77.643,-22.562 157.028,-3.197 191.452,15.323 13.605,6.243 50.421,28.104 65.311,56.497 h -82.934 c -57.75,-44.939 -135.653,-33.513 -174.072,-14.756 -15.522,8.623 -24.542,15.578 -35.837,27.623 -17.536,21.23 -26.967,57.395 3.862,89.808 13.935,13.557 27.871,22.741 45.239,29.864 40.167,16.649 96.534,14.796 137.06,-4.517 25.891,-13.511 43.079,-31.434 50.033,-51.905 h 69.96 c -2.478,17.773 -7.654,36.154 -34.181,61.843 l -2.953,2.647 c -12.847,11.599 -30.453,27.496 -64.842,40.051 -58.659,22.765 -146.387,20.135 -195.609,-5.837 -0.029,-0.012 -3.092,-1.558 -3.092,-1.558 C 149.634,360.83 134.483,353.255 115.395,335.5 102.073,323.269 92.793,311.183 81.121,290.903 68.396,267.611 52.463,259.116 43.895,255.508 c 7.468,-3.764 22.064,-12.723 32.126,-29.39"
           id="path1075" />
        <path
           style="fill:#c83803"
           inkscape:connector-curvature="0"
           d="m 79.054,239.003 c 8.314,-9.202 14.879,-32.847 28.021,-50.805 18.659,-26.309 43.357,-40.086 61.733,-48.876 42.026,-20.587 102.451,-26.454 161.561,-12.265 21.45,5.085 42.906,12.706 58.225,22.689 15.331,9.109 33.278,22.249 43.352,35.036 h -63.14 c -18.735,-14.976 -39.316,-22.249 -57.704,-26.193 -20.576,-5.252 -52.979,-8.055 -91.508,1.147 -22.77,5.687 -38.529,13.568 -53.854,24.519 -30.204,21.462 -63.482,77.866 -4.377,126.922 19.267,16.284 35.461,21.548 53.414,27.768 33.278,9.631 74.875,7.795 98.954,1.222 36.341,-9.636 49.911,-22.336 61.733,-32.407 10.948,-10.511 20.142,-23.216 22.683,-29.783 l 51.839,-0.087 c -3.595,19.359 -17.606,35.123 -31.176,48.263 -15.545,14.657 -27.147,22.336 -50.091,33.814 -53.674,25.747 -132.486,24.873 -181.083,7.268 -24.958,-9.115 -31.964,-13.227 -50.791,-26.28 C 121.52,328.608 111.447,320.46 97.002,298.124 90.437,287.173 87.368,281.046 79.929,270.976 74.672,265.278 71.17,260.019 61.976,255.641 70.405,249.734 74.997,245.35 79.055,239.003"
           id="path1077" />
      </g>
      <rect
         y="164.70831"
         x="0"
         height="132.29167"
         width="132.29167"
         id="rect1009"
         style="opacity:0.21199999;fill:none;fill-opacity:1;stroke:none;stroke-width:10.58333302;stroke-linejoin:round;stroke-miterlimit:4;stroke-dasharray:none;stroke-opacity:1;paint-order:stroke fill markers" />
    </g>
  </g>
</svg>
