<?xml version="1.0" encoding="UTF-8" standalone="no"?>
<!-- Created with Inkscape (http://www.inkscape.org/) -->

<svg
   xmlns:dc="http://purl.org/dc/elements/1.1/"
   xmlns:cc="http://creativecommons.org/ns#"
   xmlns:rdf="http://www.w3.org/1999/02/22-rdf-syntax-ns#"
   xmlns:svg="http://www.w3.org/2000/svg"
   xmlns="http://www.w3.org/2000/svg"
   xmlns:sodipodi="http://sodipodi.sourceforge.net/DTD/sodipodi-0.dtd"
   xmlns:inkscape="http://www.inkscape.org/namespaces/inkscape"
   width="500"
   height="500"
   viewBox="0 0 132.29166 132.29167"
   version="1.1"
   id="svg975"
   inkscape:version="0.92.4 (5da689c313, 2019-01-14)"
   sodipodi:docname="CLE.svg">
  <defs
     id="defs969" />
  <sodipodi:namedview
     id="base"
     pagecolor="#ffffff"
     bordercolor="#666666"
     borderopacity="1.0"
     inkscape:pageopacity="0.0"
     inkscape:pageshadow="2"
     inkscape:zoom="0.57669377"
     inkscape:cx="281.42857"
     inkscape:cy="258.57143"
     inkscape:document-units="mm"
     inkscape:current-layer="layer1"
     showgrid="false"
     units="px"
     inkscape:snap-bbox="true"
     inkscape:bbox-nodes="true"
     inkscape:snap-bbox-edge-midpoints="true"
     inkscape:snap-bbox-midpoints="true"
     inkscape:bbox-paths="true"
     inkscape:snap-page="true"
     inkscape:window-width="1600"
     inkscape:window-height="837"
     inkscape:window-x="-8"
     inkscape:window-y="-8"
     inkscape:window-maximized="1" />
  <metadata
     id="metadata972">
    <rdf:RDF>
      <cc:Work
         rdf:about="">
        <dc:format>image/svg+xml</dc:format>
        <dc:type
           rdf:resource="http://purl.org/dc/dcmitype/StillImage" />
        <dc:title></dc:title>
      </cc:Work>
    </rdf:RDF>
  </metadata>
  <g
     inkscape:label="Layer 1"
     inkscape:groupmode="layer"
     id="layer1"
     transform="translate(0,-164.70832)">
    <g
       id="g2076">
      <g
         transform="matrix(0.26459446,0,0,0.26459446,-0.00654637,164.72038)"
         id="g1994">
        <path
           style="fill:#ff3c00"
           inkscape:connector-curvature="0"
           d="m 226.6,276.6 c 6.4,6.8 15.8,16.4 22.9,23.2 -1.6,-10.2 -2,-20.7 0.1,-30.4 1.4,-6.6 3.8,-12.3 6.7,-17.2 l -6,-13.3 c -1.4,2 -3.8,5.8 -6.2,9.5 0.1,0 -8.5,13.8 -17.5,28.2 z"
           id="path1758" />
        <path
           style="fill:#ff3c00"
           inkscape:connector-curvature="0"
           d="m 254.9,322.6 c -6,-3.5 -11.9,-8.2 -17.8,-14.5 -0.1,-0.1 -10,-9.5 -18.6,-18.1 -4.3,7 -7.2,11.7 -9,14.5 l 19.1,12.6 c 4.1,2.7 8.7,5.9 8.9,11.9 0.2,6.2 -5.2,13.4 -6.9,15.7 -2.2,3 -9.3,11.4 -18.6,5.5 0,0 -13.4,-8.3 -22.8,-13.9 l -7.3,10.7 c 6.9,1.1 44.5,7.1 75.3,12 -1.6,-11.9 -5.5,-22.8 -7.9,-32.3 4.1,8.9 8.5,20.3 10.9,32.7 2.1,0.3 4.2,0.7 6.2,1 -0.6,-3.2 -1.3,-6 -1.9,-8.5 -1,-5.1 -5.5,-16 -9.6,-29.3 z"
           id="path1760" />
        <path
           style="fill:#ff3c00"
           inkscape:connector-curvature="0"
           d="m 280.8,228.6 c 11,-5.9 17.8,-9.2 35.2,-11.4 -0.1,0 4.3,-0.6 4.3,-0.6 3,-0.4 8.6,-1.6 10.3,-4.6 0.9,-1.7 1.3,-3.9 1.2,-6.6 -18.6,3.9 -38,8.5 -54.8,15.4 -5.8,2.1 -10.4,5.1 -14.9,8 1.3,2.9 2.9,6.4 4.7,10.4 4.4,-4.3 8.8,-7.3 12.1,-9.3 0.6,-0.5 1.9,-1.3 1.9,-1.3 z"
           id="path1762" />
        <path
           style="fill:#311d00"
           inkscape:connector-curvature="0"
           d="m 181.7,424.7 c -18.5,-0.8 -40.2,-8.5 -55.8,-16.5 -7.6,-4.4 -25.7,-13.9 -33,-14.3 8.3,1.8 25.7,11.6 31.9,15.7 13.4,7.3 35.9,17.5 56.9,18.3 50.5,3.2 78.7,-24.3 80.2,-52.7 -1.4,-0.2 -2.8,-0.5 -4.2,-0.7 -4.1,36.1 -42.3,53.3 -76,50.2 z"
           id="path1764" />
        <path
           style="fill:#311d00"
           inkscape:connector-curvature="0"
           d="m 257.4,359 c 1,0.2 2,0.3 3,0.5 -2.4,-12.5 -6.8,-23.8 -10.9,-32.7 2.3,9.4 6.2,20.3 7.9,32.2 z"
           id="path1766" />
        <path
           style="fill:#311d00"
           inkscape:connector-curvature="0"
           d="m 143.5,308.3 c -5.4,0 -10.4,2 -14.1,5.8 -8.2,8.4 -7.6,22.8 1.3,32.1 4.5,4.8 10.7,7.5 16.8,7.6 2.2,0 4.4,-0.3 6.4,-1 l 13.5,-20 c -0.1,-6 -2.5,-12.1 -7.1,-16.9 -4.5,-4.8 -10.7,-7.6 -16.8,-7.6 z"
           id="path1768" />
        <path
           style="fill:#311d00"
           inkscape:connector-curvature="0"
           d="m 115.2,367.3 c 18.9,24.3 52.3,24.4 69.1,6.6 -7.1,3.5 -37,23.1 -69.1,-6.6 z"
           id="path1770" />
        <path
           style="fill:#311d00"
           inkscape:connector-curvature="0"
           d="m 207.1,386.6 c 1,2.3 3.3,3.9 5.9,3.9 1.9,0 3.5,-0.8 4.7,-2.1 3.6,-1.5 6.1,-5 6.1,-9.2 0,-5.6 -4.5,-10 -10,-10.1 -5.5,0 -10,4.5 -10,10 0,3 1.3,5.7 3.3,7.5 z m 5.9,2.7 c -3,0 -5.5,-2.5 -5.5,-5.5 0,-3 2.4,-5.5 5.5,-5.5 3,0 5.5,2.5 5.5,5.5 -0.1,3 -2.5,5.5 -5.5,5.5 z m 4.3,-11.1 c -1.4,-1.6 -5,-2.3 -7,-0.9 -0.9,0.6 -1.9,-0.2 -0.7,-1.4 2.3,-2 6.6,-1.9 8.5,1 1,1.5 0,2.5 -0.8,1.3 z m -3.2,-7.3 c 6.5,0 11.1,8.4 5.6,14 2.4,-5.1 0.4,-11.5 -5.8,-11.8 -6.5,-0.3 -8.6,6.2 -7.5,9.6 -2.2,-2 -1.5,-11.7 7.7,-11.8 z"
           id="path1772" />
        <path
           style="fill:#ffffff"
           inkscape:connector-curvature="0"
           d="m 209.6,375.9 c -1.2,1.2 -0.2,1.9 0.7,1.4 2,-1.4 5.6,-0.6 7,0.9 0.8,1.2 1.8,0.2 0.8,-1.3 -1.9,-2.9 -6.2,-3 -8.5,-1 z"
           id="path1774" />
        <path
           style="fill:#ffffff"
           inkscape:connector-curvature="0"
           d="m 213.9,373.1 c 6.2,0.3 8.2,6.7 5.8,11.8 5.4,-5.6 0.9,-14 -5.6,-14 -9.1,0 -9.9,9.8 -7.7,11.8 -1.2,-3.3 1,-9.8 7.5,-9.6 z"
           id="path1776" />
        <path
           style="fill:#ffffff"
           inkscape:connector-curvature="0"
           d="m 218.4,383.8 c 0,-3 -2.4,-5.5 -5.5,-5.5 -3,0 -5.5,2.5 -5.5,5.5 0,3.1 2.4,5.5 5.5,5.5 3.1,0 5.5,-2.5 5.5,-5.5 z m -5.5,4.3 c -2.4,0 -4.4,-1.9 -4.4,-4.4 0,-2.4 2,-4.4 4.4,-4.4 2.4,0 4.4,1.9 4.4,4.4 0,2.4 -2,4.4 -4.4,4.4 z"
           id="path1778" />
        <path
           style="fill:#311d00"
           inkscape:connector-curvature="0"
           d="m 212.9,379.4 c -2.4,0 -4.4,1.9 -4.4,4.4 0,2.4 2,4.4 4.4,4.4 2.4,0 4.4,-1.9 4.4,-4.4 0,-2.5 -2,-4.4 -4.4,-4.4 z m -3.2,4.5 c 0.1,-0.6 0.4,-0.3 0.5,0.1 1.2,1.9 4.5,2 5.5,0.6 0.5,-0.7 0.5,0.3 0.5,0.3 -2.1,4.1 -6.8,1.5 -6.5,-1 z"
           id="path1780" />
        <path
           style="fill:#ffffff"
           inkscape:connector-curvature="0"
           d="m 215.7,384.6 c -1,1.5 -4.3,1.3 -5.5,-0.6 -0.1,-0.4 -0.4,-0.7 -0.5,-0.1 -0.3,2.5 4.4,5.1 6.5,1 0,0 0,-1 -0.5,-0.3 z"
           id="path1782" />
        <path
           style="fill:#311d00"
           inkscape:connector-curvature="0"
           d="m 122.5,383.6 c -2.5,1.8 -3.6,5.3 -3.1,8.8 -1.1,2.2 -0.4,5.4 1.9,7.9 2.5,2.6 6,3.4 8.2,2 2,0.2 4,-0.3 5.4,-1.5 3.6,-3 3.8,-8.9 0.5,-13.6 -3.3,-4.6 -9.1,-6.3 -12.9,-3.6 z m -0.6,15.9 c -2.3,-2.5 -2.7,-5.9 -0.9,-7.6 1.8,-1.7 5.2,-1.2 7.6,1.3 2.3,2.5 2.7,5.9 0.9,7.6 -1.9,1.8 -5.3,1.2 -7.6,-1.3 z m 9,-6 c -0.7,-1.4 -2.8,-3.3 -4,-3.5 -1.2,-0.2 -0.8,-2.2 0.7,-1.7 1.4,0.5 3.5,2.2 4,3.1 1.3,2.3 -0.1,3.4 -0.7,2.1 z m 1.6,6.9 c 6.7,-8.7 -6.3,-18.8 -11.5,-10.8 4.4,-13.1 21.6,3.4 11.5,10.8 z"
           id="path1784" />
        <path
           style="fill:#ffffff"
           inkscape:connector-curvature="0"
           d="m 127.6,388.4 c -1.5,-0.5 -1.9,1.5 -0.7,1.7 1.2,0.2 3.3,2.1 4,3.5 0.6,1.2 2,0.1 0.7,-2.1 -0.6,-0.9 -2.7,-2.7 -4,-3.1 z"
           id="path1786" />
        <path
           style="fill:#ffffff"
           inkscape:connector-curvature="0"
           d="m 121.1,389.6 c 5.1,-8.1 18.2,2.1 11.5,10.8 10,-7.4 -7.2,-23.9 -11.5,-10.8 z"
           id="path1788" />
        <path
           style="fill:#ffffff"
           inkscape:connector-curvature="0"
           d="m 128.6,393.2 c -2.3,-2.5 -5.7,-3 -7.6,-1.3 -1.8,1.8 -1.4,5.2 0.9,7.6 2.3,2.5 5.7,3.1 7.6,1.3 1.8,-1.7 1.4,-5.1 -0.9,-7.6 z m -0.1,7.1 c -1.5,1.1 -4.1,0.2 -6,-1.5 -2,-1.9 -2.2,-4.8 -0.8,-6.1 1.6,-1.5 4.4,-0.6 6,1.4 1.4,1.4 2.6,4.9 0.8,6.2 z"
           id="path1790" />
        <path
           style="fill:#311d00"
           inkscape:connector-curvature="0"
           d="m 121.7,392.6 c -1.4,1.4 -1.2,4.3 0.8,6.1 1.9,1.7 4.5,2.7 6,1.5 1.8,-1.3 0.6,-4.8 -0.8,-6.3 -1.6,-1.9 -4.4,-2.8 -6,-1.3 z m 5.5,6.9 c -3.1,0.3 -5.9,-3.5 -4.8,-5.2 0,0 0.9,-1.2 1,-0.1 0.3,1.9 2.2,3.8 4.1,4.3 0.5,0.2 0.6,0.9 -0.3,1 z"
           id="path1792" />
        <path
           style="fill:#ffffff"
           inkscape:connector-curvature="0"
           d="m 123.4,394.2 c -0.2,-1.1 -1,0.1 -1,0.1 -1.2,1.7 1.7,5.5 4.8,5.2 0.9,-0.2 0.8,-0.9 0.3,-1 -1.8,-0.4 -3.8,-2.4 -4.1,-4.3 z"
           id="path1794" />
        <path
           style="fill:#ffffff"
           inkscape:connector-curvature="0"
           d="m 107.7,410.4 c 0.6,-0.4 1.3,-0.9 1.8,-1.3 -8.6,-5.5 -19.2,-9.1 -36.5,-3.3 -0.3,0.1 -0.5,0.2 -0.8,0.2 4.2,-0.8 9.9,-1.8 13.5,-1.5 4.6,0.3 11.3,1 17.7,5 l -3.2,1.7 c -15.1,7.3 -27.8,9.4 -35,9.9 -7.1,0.5 -5.7,-3.6 -1.1,-6 2.6,-1.3 4.7,-3.8 5.7,-8.3 -0.8,0.4 -0.8,0.2 -1.9,0.4 h -0.1 c -1.5,11.1 -23.3,10 -20.9,-5.2 0,0 -3.1,-6.4 -4.9,-10.2 0,0.2 -0.4,-2.3 -0.2,-2.4 0,0 5.3,8.6 7.5,11.4 -2.9,10.3 12.2,14.6 16.2,6.9 -13.3,2.5 -13.8,-4.3 -13.6,-6.6 -0.1,-0.3 -0.2,-0.7 -0.3,-1.1 -2.3,-2.4 -9.9,-12.4 -18.4,-28.1 -1.2,9.2 9.2,30.4 10.1,32.5 0.9,2.2 0.9,2.2 0.9,2.2 -3.1,8.7 5.9,20.1 22.1,17.4 15.8,-1.4 33.8,-8.1 41.4,-13.6 z"
           id="path1796" />
        <path
           style="fill:#311d00"
           inkscape:connector-curvature="0"
           d="m 334.3,382.2 c 0,0 -1,0.2 -2.7,0.4 l 1,2.1 c 0.7,1.3 1.4,2.6 2.2,3.8 1.8,-2.1 3.5,-4.4 4.9,-6.8 -1.8,0.2 -3.6,0.4 -5.4,0.5 z"
           id="path1798" />
        <path
           style="fill:#311d00"
           inkscape:connector-curvature="0"
           d="m 342.1,330.1 c 1.5,12 1.2,24.5 -2.3,35.7 2.3,-0.2 4.6,-0.5 6.9,-0.7 1.5,-5.4 2.3,-11.1 2.7,-17.1 0,-0.5 0,-1.1 0,-1.6 l 51.8,8.8 c 0,0 -3.4,-7.7 -4.3,-10.3 l -47.6,-8.2 c 0,-0.5 0,-1 -0.1,-1.5 -0.1,-1.9 -0.3,-3.9 -0.6,-5.9 -2.1,0.4 -4.3,0.6 -6.5,0.8 z"
           id="path1800" />
        <path
           style="fill:#311d00"
           inkscape:connector-curvature="0"
           d="m 254.9,322.6 c 4,13.3 8.6,24.3 9.7,29.4 0.5,2.5 1.2,5.3 1.9,8.5 2.7,0.4 5.4,0.9 7.9,1.3 0,-0.5 0,-1 -0.1,-1.5 8.7,-6.3 15.4,-16.6 19.1,-26.2 l -0.6,-1.3 c -0.4,0 -0.9,0 -1.3,-0.1 -9.1,-0.5 -19.1,-1.9 -29.3,-6.3 2.6,9.8 5.2,19.3 6.7,28.1 -1.8,-7.6 -6,-17.9 -9.8,-29.5 -1.4,-0.9 -2.8,-1.6 -4.2,-2.4 z"
           id="path1802" />
        <path
           style="fill:#311d00"
           inkscape:connector-curvature="0"
           d="m 249.5,299.8 c 1.1,1 2.1,2 3.1,2.9 0.3,0.2 0.5,0.4 0.8,0.6 -3.1,-15.7 -3.2,-32.3 4.8,-47.2 l -1.8,-3.9 c -2.9,4.9 -5.3,10.6 -6.7,17.2 -2.2,9.7 -1.8,20.2 -0.2,30.4 z"
           id="path1804" />
        <path
           style="fill:#ffffff"
           inkscape:connector-curvature="0"
           d="m 336.8,288 c -3.1,-14.6 0.2,-41.7 10.8,-49.5 -15.2,1.9 -19.4,40 -10.8,49.5 z"
           id="path1806" />
        <path
           style="fill:#311d00"
           inkscape:connector-curvature="0"
           d="m 285.8,317.1 -26.2,-57.6 c -6,15.2 -5.1,31.2 -2.1,46.9 8.4,5.9 16.2,9.4 28.3,10.7 z"
           id="path1808" />
        <path
           style="fill:#ffffff"
           inkscape:connector-curvature="0"
           d="m 500,403.7 c -2.3,-31.4 -9.4,-62.6 -21.2,-95.8 l -1.4,-3.4 c -3,-7.8 -8.4,-9.3 -17,-8.2 l -7.4,0.8 c -15.1,1.3 -39.5,3.9 -59.7,0.4 l -27.6,-65.4 c -0.2,0 -0.5,0 -0.7,0 -0.6,0 -1.1,0.1 -1.6,0.2 7.5,17.8 32.1,76.1 32.1,76.1 -4.7,0.9 -9.9,1.2 -9.9,1.2 l -31.1,-73 c -0.8,0.8 -1.3,1.5 -1.6,1.9 -0.2,0.3 -0.3,0.4 -0.3,0.4 0,0 10.4,24.8 22.1,52.6 -1.3,-0.7 -2.6,-1.4 -3.4,-2.1 -5.5,-3.4 -18.1,-12.5 -28.7,-28.4 0,0 -0.1,0.2 -0.2,0.7 -0.1,0.5 -0.3,1.4 -0.5,2.5 14.7,22.6 34.4,31 34.4,31 l 4.9,12 c -19.6,-5.7 -36,-23.5 -40.6,-28.8 v 1.5 1.3 c 11.1,14.1 25.7,24.1 41.2,29.3 -11.5,1.5 -24.1,2.9 -36,4.2 -2.3,0.2 -4.5,0.5 -6.7,0.7 -1.5,-5.9 -3.4,-11.4 -5.5,-16.4 -11.1,-26.2 -41.4,-14.2 -39.2,1.6 -9.2,-20.4 -18.6,-41.1 -25.6,-56.6 2.7,-2.9 8.2,-8.5 17,-14.2 -6.2,2.7 -11.1,7 -11.1,7 -2.4,1.9 -4.6,3.8 -6.6,5.8 -0.5,-1.2 -1,-2.3 -1.5,-3.4 -1.8,-4 -3.4,-7.5 -4.7,-10.4 4.5,-2.9 9.1,-5.9 14.9,-8 16.8,-6.8 36.2,-11.5 54.8,-15.4 1,-0.2 2.1,-0.4 3.1,-0.6 0.6,9.3 -4.1,12.8 -12.2,14.5 -5.3,1.1 -9.6,1.3 -11.7,2 l 5,0.2 c 0.3,0 5.8,0 13.5,-2.7 5,-1.9 8.8,-5.3 7.2,-14.4 0.9,-0.2 1.7,-0.4 2.6,-0.5 1.4,8.7 0.1,17 -16.7,18.7 2.9,2 29,-2.9 44.8,0.7 0.4,0.2 7,2.4 -0.6,5.7 14.6,-3.2 15.4,-17.8 12.6,-28.6 l 0.6,0.1 c 2.7,0.2 5.1,0.5 6.9,0.9 1.4,0.2 3.1,0.3 4.9,0.6 10.9,1.1 9.9,-11.8 4.2,-13.4 -4.4,-1.3 -5.5,-1.3 -6.6,-1.5 l -1.5,-0.2 -13.6,-30.3 7.5,-3.5 19.4,35 c 9,14.3 -5.9,20.2 -14.2,15.9 -1.1,0.6 -1.9,1.1 -2.5,1.7 2.3,1.6 5.3,2.5 8.5,2.5 5.5,0 10.2,-2.5 12.4,-6.5 1.6,-2.9 2.6,-7.9 -1.8,-14.9 l -20.4,-37.3 -16.5,7.3 c 1.3,0.3 2.2,0.8 2.7,1.8 l 2.9,-1.2 12.8,28.8 c -1.6,-0.3 -5.9,-0.7 -7,-0.8 0,0 -3.2,-0.1 -3.2,-0.1 -2.8,-8.5 -6.4,-19.4 -8.9,-25.8 -1.4,-0.3 -3.9,-0.4 -4.6,-0.4 0,0.1 0.1,0.1 0.1,0.2 1.9,3.6 7.8,21.8 9.8,26.8 2.7,6.9 2.5,10.8 2.5,10.8 l -12.7,-0.2 C 360.7,193 357.2,186 357.2,186 l -4.7,-9.5 -1.3,-2.7 -4.9,-10.3 c -0.5,-1.2 -1.4,-3.6 -1.7,-5.7 -0.8,-6.7 5.7,-6.7 5.9,-6.7 3.4,0.1 6.2,1.3 8.9,5.2 h 1.8 C 357.3,148.4 355,146 352.4,141.7 303.2,71.5 221.3,50.8 149.3,68.3 c 91.3,-13.4 161,25.9 195.8,84.7 -2.9,1.4 -7.7,3.9 -10,5.1 -1,0 -4.7,-0.1 -6,0 -2.2,0.2 -4.2,0.3 -2.7,5.4 1.1,3.8 1.5,4.7 2.4,7.1 1,2.8 4.3,11.4 6.8,18.6 -0.8,0.2 -1.7,0.3 -2.5,0.5 -0.4,-1.3 -0.9,-2.6 -1.5,-4.1 -2.8,-7.2 -6.3,-16.6 -7.3,-19.8 -0.5,-1.6 -1.3,-4.8 -0.4,-7.5 0,0 -3.5,2.7 -0.4,10 l 7.8,21.6 c -1.1,0.2 -2.1,0.4 -3.2,0.6 -23.7,4.7 -46.8,11 -59.8,16.5 0,0 -9.7,3.5 -16.7,9.2 -0.3,0.2 -0.4,0.4 -0.4,0.5 -2,0.6 -3.9,1.9 -5.1,3.6 -1,0.8 -3.2,2.6 -4.2,3.7 -2.7,3.2 -5.1,5.9 -8.2,10.2 -2.7,4 -12.3,19.2 -20.8,33 -0.7,0.3 -1.5,0.7 -2.1,1.2 -2.3,1.8 -3.7,4.9 -3.2,8 -6.9,11.3 -11,17.8 -12.7,20.5 -3.8,0.3 -5.8,3.3 -5.9,3.7 -1.7,3.4 -9,15.3 -10.3,16.6 -0.8,0.8 -2.5,4 -1.8,7.6 l -0.7,1.3 c 0,0 -16,23.9 -16,23.9 -1.4,2 -1.6,4.1 -0.6,6.2 1.3,2.8 4.6,4.9 8,5.1 1.8,0.1 3.5,-0.3 4.8,-1.3 6.5,1.1 51.4,8.6 85.2,14.2 1.4,0.2 2.8,0.5 4.2,0.7 2.3,0.4 4.5,0.8 6.7,1.1 1.9,0.3 3.7,0.6 5.4,0.9 -0.8,9.8 -3.3,18.4 -7,25.8 l 1.5,0.2 c 23.5,1.9 40.3,-2.3 51.9,-10.1 1,1.9 2.1,3.7 3.2,5.5 11.3,18 28.5,29.9 51.1,35.9 23.1,6.1 49.4,5.5 74.7,-1.9 3,1.5 5.9,0.6 7.9,-0.4 0.6,-0.3 1.1,-0.7 1.5,-1.1 27.4,-6.2 32,-8.5 33.7,-10 0.2,-0.1 0.4,-0.2 0.5,-0.3 7.5,-4.2 7.1,-16.2 7.1,-16.8 z m -39.4,-6.3 c -1.1,-11.2 -3,-22.7 -5.5,-33.9 6.3,-1.2 18,-4.1 22.2,-5.2 l 0.3,1.8 c 2.2,11.9 5.5,29.9 6.8,40.9 0.1,1.1 0,2 -0.2,2.7 -2.1,-0.4 -3.7,-0.5 -4.1,-0.5 -6.7,-1.1 -13.3,-3.1 -19.5,-5.8 z m 1.1,-86 h 0.6 c 2.2,5 5.6,15.7 6.5,19.5 l 2.1,8.4 c -6.6,1.5 -13.9,2.6 -21.2,3.3 -2.9,-9.5 -6.1,-18.5 -9.4,-26.5 16.3,-2.3 21.4,-4.7 21.4,-4.7 z m 16.8,43.6 c 0,0 -4.2,2.1 -23.4,5.6 0,0 -1.6,-6 -2.3,-9.1 0,0 16.3,-3.4 22.6,-5.8 0,0 -0.1,-2.1 -3.3,-2.1 0,0 -16.5,4.2 -20.3,4.5 l -0.9,-2.5 c 0,0 14.1,-2.7 18.9,-3.8 0,0 10,-3.4 12.2,4.2 0,0 2.2,6.6 -3.5,9 z m -2.3,-45.1 c 12.8,35.8 22.7,84.8 19.8,101.8 0,-2.2 -3.4,-6.2 -9.2,-7.4 0,0 0.1,-2.2 -0.1,-5 -1.5,-14.8 -6.8,-41.6 -6.8,-41.6 8.2,-2.7 7.5,-19.5 -6.5,-19.4 -3.4,-15.2 -8.3,-27.4 -8.3,-27.4 7.6,-4.2 4.1,-11.2 -0.1,-12.5 0.1,-0.1 7.7,-1.7 11.2,11.5 z m -14.2,-10 c 2.6,0.4 3.7,2 4,4.1 0.1,0.8 -0.3,3.8 -3.6,4.4 l -1.2,0.3 c -3,0.9 -8.9,2.3 -14.9,3.5 -3.7,0.7 -7.1,1.4 -6.8,1.2 -0.8,-1.7 -1.3,-3.5 -3.6,-7.9 6.6,-1.1 15,-2.8 20.8,-4.5 1.9,-0.6 5.3,-1.1 5.3,-1.1 z m -12.8,0.1 c -2.7,1.1 -15.4,2.7 -15.4,2.7 -1.7,-1.4 -3.4,-1.6 -3.9,-1.6 h -0.1 0.1 c 4.9,0.3 19.3,-1.1 19.3,-1.1 z m -26.7,1.8 c -2.7,0.4 -2.9,2.9 -2.9,2.9 -6.5,1.6 -21.6,3.3 -21.6,3.3 l -3.1,-7.1 c 15.8,2.2 27.6,0.9 27.6,0.9 z M 394.4,190.7 h 0.1 0.1 c 1.9,0.3 3,2.7 2.9,4.8 -0.1,1.1 -0.8,3.6 -4.5,3.6 -3.4,-0.7 -12.3,-1.6 -16.8,-2 0,-3.8 -2.3,-9.3 -2.3,-9.3 4.9,0.5 17.8,2 20.5,2.9 z m -34,10.5 c 0,0 7.6,0 11.5,0.1 0,0 -2.9,5.4 -14.9,4.5 0,0 3.2,-2.2 3.4,-4.6 z m -21,-43.3 3.3,-1.7 c 0,0 0.3,-0.2 0.3,-0.1 -0.2,0.4 -0.1,1.2 -0.1,1.2 -0.1,1.1 0,1.7 1.2,5 1.9,5.2 12,26 13.1,29.1 5.8,15.1 -9.2,17.9 -10.8,11.2 16,-1.2 9.5,-17.9 0.4,-15.6 -3.5,-8.5 -6.2,-17.1 -6.2,-17.1 0,0 -3.6,-9.1 -1.2,-12 z m -1.4,12.3 6.2,17.4 -3.3,0.6 c 0,0 -4,-11.2 -6.6,-18.9 -1.9,-5.9 -0.5,-8.7 -0.5,-8.7 l 3,-1.4 c -1.3,4.3 1.2,11 1.2,11 z m -69,39.9 c 16.1,-6.7 49.4,-15.3 78.3,-20 3.1,-0.4 5.6,1.7 6,3.9 0.3,2 -0.7,4.3 -4.5,4.9 l -1.8,0.3 c -23.1,4.6 -49.2,9.8 -71.1,18.7 -6.9,2.5 -10.5,4.6 -14.4,7.5 0,0 -2.1,-4.6 -2.9,-6 -1.2,-2.2 -1.4,-2.4 -2.4,-2.9 3.2,-2 7.3,-4 12.8,-6.4 z m -20.8,12.6 c 1.2,-2.1 3.7,-3.3 5.3,-3.2 1.2,0 2.2,0.4 2.3,0.5 l 44.2,97.9 c 0,0 -6.1,0.3 -10.9,-0.7 -18.8,-41.2 -40.9,-89.5 -40.9,-89.6 -1,-1.7 -1,-3.3 0,-4.9 z m 8.2,29.6 1.8,3.9 c -7.9,14.9 -7.8,31.4 -4.8,47.2 -0.3,-0.2 -0.5,-0.4 -0.8,-0.6 -0.9,-0.9 -2,-1.9 -3.1,-2.9 -7.1,-6.8 -16.5,-16.4 -22.9,-23.2 8.9,-14.4 17.5,-28.2 17.5,-28.2 2.3,-3.7 4.8,-7.4 6.2,-9.5 z m 3.2,7.2 26.2,57.6 c -12.1,-1.4 -19.9,-4.9 -28.2,-10.7 -3.1,-15.7 -4,-31.7 2,-46.9 z m -23.4,-23.4 c 2.9,-4.7 9.7,-12.8 8.8,-11.7 0,0 -0.2,2.4 1.1,5 1,2.1 3.1,7.2 3.1,7.2 0.3,-0.3 -4.7,5.9 -7.4,10.3 l -16.8,27.6 -4.5,-5 c 0,0 -1.9,-2.3 -3.7,-2.3 8.6,-14.4 16.6,-27.1 19.4,-31.1 z m 26,90.2 c 10.2,4.4 20.2,5.7 29.3,6.3 0.4,0 0.8,0.1 1.3,0.1 l 0.6,1.3 c -3.6,9.6 -10.3,20 -19.1,26.2 0,0.5 0.1,1 0.1,1.5 -2.5,-0.4 -5.2,-0.8 -7.9,-1.3 -2,-0.3 -4.1,-0.6 -6.2,-1 -1,-0.2 -2,-0.3 -3,-0.5 C 226.5,354 188.9,348 182,346.9 l 7.3,-10.7 c 9.4,5.6 22.8,13.9 22.8,13.9 9.2,5.9 16.3,-2.6 18.6,-5.5 1.7,-2.3 7.1,-9.5 6.9,-15.7 -0.2,-6 -4.8,-9.2 -8.9,-11.9 l -19.1,-12.6 c 1.8,-2.9 4.6,-7.5 9,-14.5 8.6,8.6 18.5,18 18.6,18.1 5.9,6.4 11.9,11.1 17.8,14.5 1.4,0.8 2.8,1.6 4.2,2.3 3.8,11.6 8,21.9 9.8,29.5 -1.5,-8.8 -4.2,-18.3 -6.8,-28 z m 152.9,29.3 c -1.6,0.7 -9.6,1.9 -9.6,1.9 -1.9,-3.6 -14,-33.2 -14,-33.2 1.4,-0.2 9.5,-1.5 9.5,-1.5 6.2,17.1 14.1,32.8 14.1,32.8 z m 2.4,-0.7 -3.6,-8.4 c 12.2,0.2 20.9,0.1 20.9,0.1 1.5,5.4 -3.6,5.6 -3.6,5.6 z m -4.7,-11 -9.2,-21.9 c 6.2,-1 11.9,-1.9 17,-2.9 h 0.1 0.1 c 1.3,-0.4 2.4,-0.4 3.2,0 1.3,0.7 1.8,2.3 1.8,2.3 v 0.1 0.1 c 2,5.2 5.8,16.3 7.7,22.1 -7.8,0.3 -15.1,0.3 -20.7,0.2 z m -16.7,-1.3 -46.8,-8.2 v 0.8 c 0,0.5 0,1 0.1,1.5 l 47.6,8.2 c 0.9,2.6 4.3,10.3 4.3,10.3 l -51.8,-8.8 v 1.6 0.8 l 51.1,8.7 c -17,2.9 -34.7,5.6 -53.7,7.6 -2.3,0.2 -4.6,0.5 -6.9,0.7 3.4,-11.2 3.8,-23.7 2.3,-35.7 2.2,-0.2 4.4,-0.5 6.6,-0.7 13.2,-1.5 26.9,-3.2 39.7,-5.1 2.6,6.6 5.2,12.8 7.5,18.3 z m -73.8,24.8 c 0,0 -4.1,0.8 -11,0.2 -3.3,-6.2 -6.9,-14.6 -16.1,-34.7 6.3,0.7 11,0.1 11,0.1 z m -94.8,-45 C 223.3,319.6 207,308.7 207,308.7 l 1.7,-1.7 c 7.4,4.7 17,11.1 21.2,14.3 7.5,5.7 3.4,12.5 3.4,12.5 0.8,-4 -1,-8.1 -5.8,-11.4 z m -31.1,-22.1 0.1,-0.2 c 0.2,-0.3 2.7,-4.5 12.3,-20.1 2.9,4 7.5,8.2 7.5,8.2 l -11.7,18.5 c -1.6,1.2 -4.9,0 -6.9,-2 -0.4,-0.4 -2.7,-2.8 -1.3,-4.4 z m -3.7,0.9 c -0.3,5.5 8.1,9.9 12.1,8.9 l 21.4,14.3 c 3.2,2.3 6.4,6.2 4.5,11.6 -0.3,-5 -6.5,-8.9 -6.5,-8.9 0,0 -23,-13.5 -30,-17.9 -4,-2.7 -3.6,-6.2 -1.5,-8 z m -10.7,17 c 4.2,-6 6.3,-9.4 7.2,-10.9 0.9,2 3.7,3.6 3.7,3.6 7.1,4.5 22,13.5 26.3,15.9 4.6,2.6 5.6,3.8 5.6,3.8 5.4,5.1 4.3,10.2 1.7,13.7 -3,4 -8.7,6.5 -13.4,3.4 l -6.4,-4 -2.3,-1.4 -20,-12.3 h -0.1 -0.1 c 0,0 -3.3,-1.5 -4.2,-4.6 -0.5,-2.2 0.2,-4.5 2,-7.2 z m -13.9,40.3 c -2.3,-0.1 -4.7,-1.6 -5.6,-3.5 -0.5,-1.1 -0.4,-2.2 0.4,-3.3 l 15.2,-23.3 c 1,1.8 8.6,6.4 8.6,6.4 -3.2,4.8 -14.7,21.8 -14.7,21.8 -1,1.8 -2.7,2 -3.9,1.9 z m 280.7,70.8 c 0,0 0.1,0.3 -3.7,1.6 -23.5,6 -48.7,6.4 -69.9,0.8 -19.2,-5.1 -42,-16.2 -54.6,-44.2 0,0 -1.6,-3 -2,-4.5 0,0 6.5,0.1 10.7,-0.2 19.6,42 70.2,49.8 113.5,38.7 0,0 4,-0.7 5.1,-1.9 0.9,-2.1 0.8,-7.4 0.8,-7.4 -0.1,-1.2 -1.1,-27.1 -5.8,-44.3 -0.4,-1.8 -1,-2.9 -1.5,-3.4 0,0 -1.3,-0.5 -2.2,-0.6 -2.3,-0.1 -5.4,0.6 -5.4,0.6 -26.7,6.4 -68.1,11.6 -100.7,14.9 -0.1,0 -2.6,0.4 -7,0.6 l -3.5,0.1 c -6.2,0.1 -15,-0.3 -26,-2.1 0,0 -121.7,-19.8 -121.2,-19.8 l 6.5,-8.9 c 0,0 117.1,19.2 117.2,19.2 17.9,2.7 26.2,1.4 26.4,1.3 31.6,-1.8 89.9,-10.4 104,-14.2 0,0 7.6,-1.8 8.6,-2.8 0.6,-0.6 -1,-6.4 -1,-6.4 -0.1,-0.2 -5.8,-18.9 -8.6,-26.1 v 0.2 c -0.1,-0.3 -1.3,-4.3 -2.6,-4.9 h -1 c 0,0 -1.7,0.3 -3.7,0.8 -27.5,5 -77.8,12 -107.3,13.8 2.6,-0.2 -11.9,0.5 -23.2,-0.3 -16.1,-0.9 -33.9,-4.9 -51.6,-24.1 -0.2,-0.2 -19.8,-18.9 -27.7,-27.5 -2,-2.8 -0.9,-5.9 1.1,-7.5 1.5,-1.2 4.4,-1.7 6,0.2 3.5,4.6 23.3,25.1 33.1,34.3 10.9,8.5 18.7,12.9 33.8,14.6 8.2,1 17.9,0.8 18.4,0.9 20,0.5 92.8,-8.4 114.2,-12.6 2.7,-0.4 4.3,-1 4.3,-1 v -0.4 l 0.1,-0.9 c 0,-0.3 1.3,-1.3 2.3,-1.8 2,-0.9 4.6,-0.9 6.8,0.9 15.3,28.1 30.3,80.4 26.9,119.9 -0.2,2.1 -1,3.8 -2.6,4.6 0,0.1 -3.5,1.7 -7,-0.2 z m -36.7,-57.1 c 2,-0.4 10.2,-2.2 10.2,-2.2 8.7,13.1 22.7,22.5 22.7,22.5 0.4,3.3 0.7,11.6 0.7,11.6 -22,-10.7 -33.6,-31.9 -33.6,-31.9 z m 13.3,-3.1 c 4.5,-0.9 8.7,-1.8 12.6,-2.7 1,-0.3 1.4,0 1.5,0.1 0.7,0.5 1,1.8 1,2.2 v 0.2 0.1 c 1.4,5.1 2.6,12 3.4,18.8 -7.2,-5.3 -13.5,-11.6 -18.5,-18.7 z m 20.4,38.4 c 0.3,3.8 0.4,6.2 0.4,6.3 0,3.2 -1.8,4.3 -2,4.4 -40.1,10.9 -87.7,5.3 -109.2,-29.7 -0.8,-1.2 -1.5,-2.5 -2.2,-3.8 l -1,-2.1 c 1.7,-0.2 2.7,-0.4 2.7,-0.4 1.8,-0.2 3.6,-0.4 5.5,-0.6 21.5,-2.3 47.1,-5.7 69.3,-9.5 9.5,17.6 22.9,29.1 36.5,35.4 z m 15.4,20.4 c 0.9,-4 0.7,-10.4 0.7,-10.4 32.1,-6.9 1.6,-9.8 1.6,-9.8 7.1,2.2 6.9,4.7 6.9,4.7 -3.1,0.2 -8.5,-1.4 -8.5,-1.4 0.2,-2 -0.4,-10.2 -0.4,-10.2 8.3,3.6 9.7,2.6 18.3,4.5 8.9,2 4.5,5.6 4.5,5.6 -4.5,5.6 -21.2,8 -21.2,8 27.9,-3.6 25.4,-11.3 25.4,-11.3 11.4,7.4 0.2,12.7 -5.6,14.3 -5,1.7 -21.7,6 -21.7,6 z"
           id="path1810" />
        <path
           style="fill:#ffffff"
           inkscape:connector-curvature="0"
           d="m 206.9,339 c 0,0 0.3,0.9 1,2.2 0.6,1.1 1.6,2.2 2.8,2.9 8.4,5 13,-1.4 13.1,-1.4 0,-0.1 3.9,-5.1 -1.7,-10.6 -0.1,-0.1 -3.6,-3.2 -8.2,-2.6 -0.5,-1.9 -2.9,-7.3 -9.9,-7.1 -5.6,0.4 -6.9,3.4 -7.5,5.1 0,0 -1.4,3.8 0.7,7.1 -0.1,0.2 2.6,5.5 9.7,4.4 z m 7.4,-8.1 c 6.3,-0.2 11.2,6.1 8,10.7 l -1.1,0.2 c -5.5,0.7 -8.6,-1.5 -9.5,-6.3 0.9,-0.6 2.3,-2.3 2.6,-4.6 z m -7.3,-6.7 c 3.1,1 5.4,3.7 5.2,6.5 h 0.4 c -0.3,2 -2.4,4.8 -6.8,4.2 -0.2,-0.9 -0.3,-1.8 -0.3,-2.8 0.7,0.3 1.5,0.4 2.4,0.3 0,-0.4 0.1,-1.3 0.1,-1.3 -0.9,-0.1 -1.6,-0.4 -2.5,-0.7 0,-2.2 0.5,-4.4 1.5,-6.2 z m -7.3,1.4 c 1.4,-1.2 2.5,-1.7 4.6,-1.6 -0.9,1.4 -1.2,3.5 -1.3,5.6 -0.4,-0.4 -0.8,-0.4 -1.2,-0.8 v 1.5 c 0.3,0.5 0.7,0.6 1.3,1 0,1.3 0.1,2.3 0.3,3.2 -0.3,-0.1 -0.5,-0.3 -0.8,-0.5 -4.4,-2.5 -2.9,-8.4 -2.9,-8.4 z m -1.6,1.9 c -0.7,9.1 7.6,10.4 12.2,8.7 1,7.3 7.4,7.5 10.5,7 -3.9,2.5 -11.3,0.8 -12.7,-6.1 -5.9,1.8 -12.5,-2.9 -10,-9.6 z"
           id="path1812" />
        <g
           style="fill:#311d00"
           id="g1876">
          <path
             inkscape:connector-curvature="0"
             d="m 354.6,166.7 c -1.9,-1.2 -4.7,-5.2 -4.2,-8.5 4.3,0 5.5,6.3 4.2,8.5 z"
             id="path1814" />
          <path
             inkscape:connector-curvature="0"
             d="m 359,178.4 c -2.2,-2.2 -3.3,-4.5 -3.5,-8 3.4,0.7 5.6,5 3.5,8 z"
             id="path1816" />
          <path
             inkscape:connector-curvature="0"
             d="m 340.6,170 c 0,0 2.7,8.5 6.2,17.1 9.1,-2.4 15.5,14.3 -0.4,15.6 1.6,6.7 16.6,3.9 10.8,-11.2 -1.2,-3 -11.2,-23.9 -13.1,-29.1 -1.2,-3.3 -1.3,-3.9 -1.2,-5 0,0 0,-0.9 0.1,-1.2 0,0 -0.3,0.1 -0.3,0.1 l -3.3,1.7 c -2.4,2.8 1.2,12 1.2,12 z"
             id="path1818" />
          <path
             inkscape:connector-curvature="0"
             d="m 333.9,160.6 c 0,0 -1.4,2.9 0.5,8.7 2.5,7.7 6.6,18.9 6.6,18.9 l 3.3,-0.6 -6.2,-17.4 c 0,0 -2.6,-6.7 -1.2,-11 z"
             id="path1820" />
          <path
             inkscape:connector-curvature="0"
             d="m 371.9,201.2 c -3.9,-0.1 -11.5,-0.1 -11.5,-0.1 -0.2,2.4 -3.5,4.6 -3.5,4.6 12.2,0.9 15,-4.5 15,-4.5 z"
             id="path1822" />
          <path
             inkscape:connector-curvature="0"
             d="m 220.4,269.5 4.5,5 16.8,-27.6 c 2.8,-4.4 7.8,-10.6 7.4,-10.3 0,0 -2.1,-5.2 -3.1,-7.2 -1.3,-2.6 -1.1,-5 -1.1,-5 0.9,-1.1 -5.9,7 -8.8,11.7 -2.7,4.1 -10.8,16.8 -19.6,31.1 1.9,-0.1 3.9,2.3 3.9,2.3 z"
             id="path1824" />
          <path
             inkscape:connector-curvature="0"
             d="m 449.2,300 c 0,0 -14.4,1.4 -19.3,1.1 0.4,0 2.2,0.2 3.9,1.6 0,0 12.7,-1.6 15.4,-2.7 z"
             id="path1826" />
          <path
             inkscape:connector-curvature="0"
             d="m 429.9,301.1 c -0.1,0 -0.1,0 -0.1,0 z"
             id="path1828" />
          <path
             inkscape:connector-curvature="0"
             d="m 434.7,346.6 c 0,0 -8.8,0.1 -20.9,-0.1 l 3.6,8.4 13.7,-2.7 c 0.1,0 5.1,-0.2 3.6,-5.6 z"
             id="path1830" />
          <path
             inkscape:connector-curvature="0"
             d="m 401,322.8 c 0,0 -8.1,1.3 -9.5,1.5 0,0 12.1,29.6 14,33.2 0,0 8,-1.2 9.6,-1.9 0,0 -7.9,-15.7 -14.1,-32.8 z"
             id="path1832" />
          <path
             inkscape:connector-curvature="0"
             d="m 422.3,370 c 0,0 -8.2,1.8 -10.2,2.2 0,0 11.6,21.2 33.6,32 0,0 -0.3,-8.4 -0.7,-11.6 0,-0.1 -14,-9.5 -22.7,-22.6 z"
             id="path1834" />
          <path
             inkscape:connector-curvature="0"
             d="m 488.6,407.8 c 0,0 2.5,7.6 -25.4,11.3 0,0 16.7,-2.4 21.2,-8 0,0 4.3,-3.6 -4.5,-5.6 -8.6,-1.9 -10,-0.9 -18.3,-4.5 0,0 0.5,8.2 0.4,10.2 0,0 5.4,1.6 8.5,1.4 0,0 0.2,-2.5 -6.9,-4.7 0,0 30.5,2.9 -1.6,9.8 0,0 0.2,6.4 -0.7,10.4 0,0 16.6,-4.4 21.8,-5.8 5.7,-1.8 17,-7.1 5.5,-14.5 z"
             id="path1836" />
          <path
             inkscape:connector-curvature="0"
             d="m 295.3,332.9 c 9.2,20.2 12.8,28.6 16.1,34.7 6.9,0.5 11,-0.2 11,-0.2 l -16,-34.4 c -0.1,-0.1 -4.9,0.6 -11.1,-0.1 z"
             id="path1838" />
          <path
             inkscape:connector-curvature="0"
             d="m 289.1,317.1 c 4.8,1 10.9,0.7 10.9,0.7 l -44.2,-97.9 c -0.1,-0.1 -1.1,-0.5 -2.3,-0.5 -1.6,0 -4.1,1.2 -5.3,3.2 -0.9,1.6 -0.9,3.2 0,4.8 0,0.2 22,48.5 40.9,89.7 z"
             id="path1840" />
          <path
             inkscape:connector-curvature="0"
             d="m 458.5,425 c 3.5,-39.5 -11.6,-91.8 -26.9,-119.9 -2.2,-1.8 -4.8,-1.8 -6.8,-0.9 -1,0.5 -2.3,1.5 -2.3,1.8 l -0.1,0.9 v 0.4 c 0,0 -1.6,0.6 -4.3,1 -21.4,4.2 -94.2,13.1 -114.2,12.6 -0.5,0 -10.2,0.1 -18.4,-0.9 -15.2,-1.7 -23,-6.1 -33.8,-14.6 -9.8,-9.2 -29.6,-29.6 -33.1,-34.3 -1.6,-1.9 -4.5,-1.4 -6,-0.2 -2.1,1.6 -3.1,4.7 -1.1,7.5 7.9,8.6 27.5,27.3 27.7,27.5 17.7,19.2 35.5,23.2 51.6,24.1 11.3,0.8 25.8,0.1 23.2,0.3 29.5,-1.8 79.8,-8.8 107.3,-13.8 2.1,-0.5 3.7,-0.8 3.7,-0.8 h 1 c 1.3,0.6 2.5,4.6 2.6,4.9 v -0.2 c 2.9,7.2 8.6,25.9 8.6,26.1 0,0 1.6,5.7 1,6.4 -1,1 -8.6,2.8 -8.6,2.8 -14.1,3.8 -72.5,12.4 -104,14.2 -0.2,0 -8.5,1.3 -26.4,-1.3 0,0 -117.2,-19.2 -117.2,-19.2 l -6.5,8.9 c -0.5,0 121.2,19.8 121.2,19.8 11.1,1.8 19.8,2.1 26,2.1 l 3.5,-0.1 c 4.4,-0.2 6.9,-0.6 7,-0.6 32.6,-3.3 74,-8.6 100.7,-14.9 0,0 3,-0.6 5.4,-0.6 0.9,0 2.2,0.6 2.2,0.6 0.5,0.4 1,1.5 1.5,3.4 4.8,17.2 5.8,43.1 5.8,44.3 0,0 0.1,5.4 -0.8,7.4 -1.1,1.2 -5.1,1.9 -5.1,1.9 -43.3,11.1 -93.9,3.3 -113.5,-38.7 -4.2,0.4 -10.7,0.2 -10.7,0.2 0.4,1.5 2,4.5 2,4.5 12.6,28 35.4,39.1 54.6,44.2 21.2,5.6 46.4,5.2 69.9,-0.8 3.8,-1.3 3.7,-1.6 3.7,-1.6 3.5,1.8 7,0.2 7,0.2 1.5,-0.8 2.4,-2.5 2.6,-4.6 z"
             id="path1842" />
          <path
             inkscape:connector-curvature="0"
             d="m 184.2,329.9 0.1,0.1 20,12.3 2.3,1.4 6.4,4 c 4.7,3.2 10.4,0.6 13.4,-3.4 2.6,-3.5 3.6,-8.6 -1.7,-13.7 0,0 -0.9,-1.2 -5.6,-3.8 -4.3,-2.4 -19.2,-11.4 -26.3,-15.9 0,0 -2.8,-1.6 -3.7,-3.6 -0.9,1.6 -3,5 -7.2,10.9 -1.9,2.6 -2.5,5 -2,7.1 1,3.1 4.3,4.6 4.3,4.6 z m 12.2,-2.3 c 0.6,-1.7 1.9,-4.8 7.5,-5.1 7,-0.2 9.4,5.2 9.9,7.1 4.6,-0.6 8.1,2.5 8.2,2.6 5.6,5.5 1.8,10.5 1.7,10.6 0,0.1 -4.7,6.4 -13.1,1.4 -1.1,-0.7 -2.2,-1.7 -2.8,-2.9 -0.7,-1.3 -1,-2.2 -1,-2.2 -7.1,1.1 -9.8,-4.2 -9.9,-4.3 -1.9,-3.4 -0.5,-7.2 -0.5,-7.2 z"
             id="path1844" />
          <path
             inkscape:connector-curvature="0"
             d="M 229.9,321.3 C 225.7,318.1 216,311.8 208.7,307 l -1.7,1.7 c 0,0 16.3,10.9 20.5,13.7 4.8,3.2 6.6,7.3 5.9,11.4 0,0.1 4,-6.8 -3.5,-12.5 z"
             id="path1846" />
          <path
             inkscape:connector-curvature="0"
             d="m 194.2,309 c 7,4.4 30,17.9 30,17.9 0,0 6.2,4 6.5,8.9 1.9,-5.3 -1.3,-9.3 -4.5,-11.6 L 204.8,310 c -4,1.1 -12.4,-3.3 -12.1,-8.9 -2.1,1.9 -2.5,5.4 1.5,7.9 z"
             id="path1848" />
          <path
             inkscape:connector-curvature="0"
             d="m 211.7,335.5 c 0.9,4.9 4,7.1 9.5,6.3 l 1.1,-0.2 c 3.2,-4.6 -1.8,-10.9 -8,-10.7 -0.3,2.3 -1.7,4 -2.6,4.6 z"
             id="path1850" />
          <path
             inkscape:connector-curvature="0"
             d="m 208.1,337.1 c 1.4,6.9 8.8,8.6 12.7,6.1 -3.1,0.5 -9.5,0.3 -10.5,-7 -4.6,1.7 -12.9,0.4 -12.2,-8.7 -2.5,6.7 4.1,11.4 10,9.6 z"
             id="path1852" />
          <path
             inkscape:connector-curvature="0"
             d="m 456.8,300.9 c -5.8,1.7 -14.2,3.4 -20.8,4.5 2.3,4.4 2.8,6.2 3.6,7.9 -0.3,0.2 3.1,-0.5 6.8,-1.2 6,-1.1 11.9,-2.5 14.9,-3.5 l 1.2,-0.3 c 3.3,-0.6 3.7,-3.6 3.6,-4.4 -0.3,-2.1 -1.4,-3.6 -4,-4.1 -0.1,0.1 -3.5,0.6 -5.3,1.1 z"
             id="path1854" />
          <path
             inkscape:connector-curvature="0"
             d="m 469.8,341.8 c -4.7,1.1 -18.9,3.8 -18.9,3.8 l 0.9,2.5 c 3.8,-0.4 20.3,-4.5 20.3,-4.5 3.1,-0.1 3.3,2.1 3.3,2.1 -6.3,2.4 -22.6,5.8 -22.6,5.8 0.7,3.1 2.3,9.1 2.3,9.1 19.2,-3.4 23.4,-5.6 23.4,-5.6 5.6,-2.4 3.5,-8.9 3.5,-8.9 -2.2,-7.7 -12.2,-4.3 -12.2,-4.3 z"
             id="path1856" />
          <path
             inkscape:connector-curvature="0"
             d="m 465.2,310.8 c 0,0 4.9,12.2 8.3,27.4 14,-0.1 14.8,16.7 6.5,19.4 0,0 5.3,26.9 6.8,41.6 0.2,2.7 0.1,5 0.1,5 5.8,1.2 9.2,5.3 9.2,7.4 2.8,-16.9 -7.1,-66 -19.8,-101.8 -3.5,-13.2 -11.1,-11.6 -11.1,-11.6 4.1,1.4 7.7,8.4 0,12.6 z"
             id="path1858" />
          <path
             inkscape:connector-curvature="0"
             d="m 419.6,304.7 c 0,0 0.2,-2.5 2.9,-2.9 0,0 -11.8,1.3 -27.6,-0.9 l 3.1,7.1 c 0,0 15.1,-1.7 21.6,-3.3 z"
             id="path1860" />
          <path
             inkscape:connector-curvature="0"
             d="m 172,356.7 c 0,0 11.5,-17.1 14.7,-21.8 0,0 -7.7,-4.6 -8.6,-6.4 l -15.2,23.3 c -0.8,1.1 -0.9,2.2 -0.4,3.3 0.9,1.8 3.3,3.3 5.6,3.5 1.2,0 2.9,-0.2 3.9,-1.9 z"
             id="path1862" />
          <path
             inkscape:connector-curvature="0"
             d="m 258.6,219.5 c 0.8,1.3 2.9,6 2.9,6 3.9,-2.9 7.5,-5 14.4,-7.5 21.9,-8.9 48,-14.1 71.1,-18.7 l 1.8,-0.3 c 3.8,-0.6 4.8,-2.9 4.5,-4.9 -0.3,-2.2 -2.9,-4.3 -6,-3.9 -28.8,4.7 -62.2,13.3 -78.3,20 -5.5,2.3 -9.6,4.3 -12.8,6.5 1,0.5 1.2,0.7 2.4,2.8 z"
             id="path1864" />
          <path
             inkscape:connector-curvature="0"
             d="m 204.7,306.7 11.7,-18.5 c 0,0 -4.6,-4.2 -7.5,-8.2 -9.6,15.6 -12.1,19.8 -12.3,20.1 l -0.1,0.1 -0.1,0.1 c -1.4,1.6 0.9,4 1.4,4.4 2,2 5.3,3.3 6.9,2 z"
             id="path1866" />
          <path
             inkscape:connector-curvature="0"
             d="m 376.1,197.1 c 4.5,0.4 13.4,1.3 16.8,2 3.8,0 4.4,-2.5 4.5,-3.6 0.2,-2 -0.9,-4.5 -2.9,-4.8 h -0.1 -0.1 c -2.7,-0.9 -15.6,-2.4 -20.6,-2.9 0.1,0.1 2.4,5.5 2.4,9.3 z"
             id="path1868" />
          <path
             inkscape:connector-curvature="0"
             d="m 401.2,188.1 -19.4,-35 -7.5,3.5 13.6,30.3 1.5,0.2 c 1.1,0.2 2.2,0.2 6.6,1.5 5.7,1.7 6.7,14.5 -4.2,13.4 -1.8,-0.2 -3.5,-0.4 -4.9,-0.6 -1.9,-0.3 -4.2,-0.7 -6.9,-0.9 l -0.6,-0.1 c 2.8,10.8 2,25.4 -12.6,28.6 7.5,-3.3 0.9,-5.6 0.6,-5.7 -15.7,-3.6 -41.9,1.2 -44.8,-0.7 16.8,-1.6 18.1,-10 16.7,-18.7 -0.9,0.2 -1.7,0.4 -2.6,0.5 1.6,9.1 -2.2,12.5 -7.2,14.4 -7.7,2.6 -13.2,2.7 -13.5,2.7 l -5,-0.2 c 2.2,-0.7 6.5,-0.9 11.7,-2 8.1,-1.7 12.8,-5.2 12.2,-14.5 -1,0.2 -2.1,0.4 -3.1,0.6 0.1,2.7 -0.2,4.9 -1.2,6.6 -1.6,2.9 -7.3,4.1 -10.3,4.6 0,0 -4.4,0.6 -4.3,0.6 -17.4,2.2 -24.2,5.5 -35.2,11.4 0,0 -1.4,0.9 -2,1.3 -3.3,2 -7.7,5 -12.1,9.3 0.5,1.1 1,2.2 1.5,3.4 2,-2 4.2,-3.9 6.6,-5.8 0,0 4.9,-4.3 11.1,-7 -8.8,5.7 -14.3,11.2 -17,14.2 7,15.5 16.4,36.2 25.6,56.6 -2.1,-15.8 28.2,-27.8 39.2,-1.6 2.1,5 4,10.6 5.5,16.4 2.2,-0.2 4.4,-0.4 6.7,-0.7 -0.7,-2.9 -1.5,-5.9 -2.5,-8.8 -1.6,-6.7 -2.8,-16.1 -2.8,-26 0,-0.5 0,-1 0,-1.5 4.6,5.3 21,23.1 40.6,28.8 l -4.9,-12 c 0,0 -19.8,-8.4 -34.4,-31 0.2,-1.1 0.4,-2 0.5,-2.5 1.7,-8.3 4.6,-16.1 9.4,-22.1 0.3,-0.4 0.6,-0.7 0.9,-1.1 0.3,-0.4 0.8,-1.1 1.6,-1.9 l 31.1,73 c 0,0 5.2,-0.4 9.9,-1.2 0,0 -24.6,-58.3 -32.1,-76.1 0.5,-0.1 1,-0.1 1.6,-0.2 0.2,0 0.5,-0.1 0.7,-0.1 0.5,0 0.9,-0.1 1.1,-0.1 7.4,-1.3 11.3,-4.7 14.2,-9.8 2.4,-4.4 2.8,-10.3 2.4,-15 0.4,-0.5 0.8,-1 1.3,-1.4 0.6,-0.6 1.4,-1.1 2.5,-1.7 8.3,4.3 23.3,-1.6 14.2,-15.9 z M 336.8,288 c -8.6,-9.5 -4.4,-47.6 10.8,-49.5 -10.6,7.8 -14,35 -10.8,49.5 z"
             id="path1870" />
          <path
             inkscape:connector-curvature="0"
             d="m 207.8,332.5 c -0.9,0 -1.7,-0.1 -2.4,-0.3 0,1 0.1,1.9 0.3,2.8 4.4,0.7 6.5,-2.1 6.8,-4.2 h -0.4 c 0.2,-2.8 -2.1,-5.5 -5.2,-6.5 -1,1.8 -1.5,3.9 -1.5,6.3 0.8,0.4 1.6,0.7 2.5,0.7 0,0 -0.1,0.8 -0.1,1.2 z"
             id="path1872" />
          <path
             inkscape:connector-curvature="0"
             d="m 202.6,334 c 0.3,0.1 0.5,0.4 0.8,0.5 -0.3,-0.9 -0.3,-1.9 -0.3,-3.2 -0.6,-0.4 -1,-0.5 -1.3,-1 v -1.5 c 0.4,0.5 0.8,0.5 1.2,0.8 0.1,-2.1 0.5,-4.2 1.3,-5.6 -2.1,-0.1 -3.2,0.4 -4.6,1.6 0,0 -1.5,5.9 2.9,8.4 z"
             id="path1874" />
        </g>
        <path
           style="fill:none"
           inkscape:connector-curvature="0"
           d="m 207.1,386.6 c 1,2.3 3.3,3.9 5.9,3.9 1.9,0 3.5,-0.8 4.7,-2.1 3.6,-1.5 6.1,-5 6.1,-9.2 0,-5.6 -4.5,-10 -10,-10.1 -5.5,0 -10,4.5 -10,10 0,3 1.3,5.7 3.3,7.5 z"
           id="path1878" />
        <path
           style="fill:none"
           inkscape:connector-curvature="0"
           d="m 134.9,72.5 c 27.8,-4.7 53.6,-3.1 76.9,2.8 C 188.6,69.4 162.7,67.8 134.9,72.5 95.9,85 60.8,109 36.6,142.6 60.8,109 95.9,85 134.9,72.5 Z"
           id="path1880" />
        <path
           style="fill:none"
           inkscape:connector-curvature="0"
           d="m 84,400.8 c 11.1,-1.7 20.4,0.6 33.9,10.7 0.8,0.6 1.6,1.2 2.5,1.8 -0.8,-0.6 -1.7,-1.2 -2.5,-1.8 C 104.3,401.4 95,399.1 84,400.8 Z"
           id="path1882" />
        <path
           style="fill:none"
           inkscape:connector-curvature="0"
           d="m 319.5,165.7 c 0.4,1.8 1,3.4 1.4,4.4 -0.3,-1 -1,-2.6 -1.4,-4.4 z"
           id="path1884" />
        <path
           style="fill:none"
           inkscape:connector-curvature="0"
           d="m 322.4,156.4 c -0.2,0.1 -0.4,0.3 -0.6,0.5 0.1,-0.2 0.3,-0.4 0.6,-0.5 -10.8,-18.3 -27.3,-36.8 -48.3,-52 21,15.2 37.5,33.7 48.3,52 z"
           id="path1886" />
        <path
           style="fill:none"
           inkscape:connector-curvature="0"
           d="m 35.7,143.8 c 0.1,-0.1 0.2,-0.3 0.3,-0.4 -0.1,0.1 -0.2,0.3 -0.3,0.4 z"
           id="path1888" />
        <path
           style="fill:none"
           inkscape:connector-curvature="0"
           d="m 212.3,75.4 c 0.3,0.1 0.5,0.2 0.8,0.2 -0.2,0 -0.5,-0.1 -0.8,-0.2 z"
           id="path1890" />
        <path
           style="fill:none"
           inkscape:connector-curvature="0"
           d="m 319.4,160.6 c 0.2,-0.8 0.4,-1.6 0.9,-2.3 0.1,-0.2 0.3,-0.3 0.4,-0.5 -0.1,0.2 -0.3,0.3 -0.4,0.5 -0.5,0.7 -0.8,1.5 -0.9,2.3 z"
           id="path1892" />
        <path
           style="fill:none"
           inkscape:connector-curvature="0"
           d="m 358.9,166.5 c 0,-6.5 -3.6,-11 -6.8,-11.4 0,0 -1.2,-0.3 -2.1,0.3 -0.1,0 -0.1,0.1 -0.2,0.2 0,0 -0.1,0 -0.1,0.1 -0.1,0.1 -0.2,0.2 -0.3,0.4 -0.3,0.5 -0.6,1.3 -0.6,2.6 0,0.6 0.1,1.4 0.2,2.3 v 0.2 c 0,0.2 0.1,0.4 0.2,0.7 0.3,0.8 0.8,2.2 1.7,3.5 0.1,0.2 0.3,0.4 0.5,0.6 0.6,0.8 1.4,1.8 2.4,2.7 0,0 -0.3,2.2 0.3,4.8 l 0.1,0.3 c 0.6,2.1 1.3,3.7 2.9,5.4 3.6,4.2 7.2,1.4 6.1,-3.6 -1,-4.5 -2.4,-6.3 -4.3,-8.2 0,-0.4 0,-0.7 0,-0.9 z"
           id="path1894" />
        <path
           style="fill:none"
           inkscape:connector-curvature="0"
           d="m 72.2,406.1 c 4.2,-0.8 9.9,-1.8 13.5,-1.6 4.6,0.3 11.3,1 17.7,5 l -3.2,1.7 c -15.1,7.3 -27.9,9.4 -35,9.9 -7.1,0.5 -5.7,-3.6 -1.1,-6 2.6,-1.3 4.7,-3.8 5.7,-8.3 -0.8,0.4 -0.8,0.2 -1.9,0.4 h -0.1 c -1.6,11.1 -23.3,10 -20.9,-5.2 0,0 -3.1,-6.4 -4.9,-10.2 0,0.2 -0.4,-2.3 -0.2,-2.4 0,0 5.3,8.6 7.5,11.4 -2.9,10.3 12.2,14.6 16.2,6.8 -13.3,2.5 -13.8,-4.3 -13.6,-6.6 -0.1,-0.3 -0.2,-0.7 -0.3,-1.1 -2.3,-2.4 -9.9,-12.4 -18.4,-28.1 -1.2,9.2 9.2,30.4 10.1,32.5 0.9,2.2 0.9,2.2 0.9,2.2 -3.1,8.7 5.9,20.1 22.1,17.4 16,-1.5 33.9,-8.2 41.6,-13.7 0.6,-0.4 1.3,-0.9 1.8,-1.3 -8.6,-5.5 -19.2,-9.1 -36.5,-3.4 -0.5,0.4 -0.8,0.5 -1,0.6 z"
           id="path1896" />
        <path
           style="fill:none"
           inkscape:connector-curvature="0"
           d="m 122.5,383.6 c -2.5,1.8 -3.6,5.3 -3.1,8.8 -1.1,2.2 -0.4,5.4 1.9,7.9 2.5,2.6 6,3.4 8.2,2 2,0.2 4,-0.3 5.4,-1.5 3.6,-3 3.8,-8.9 0.5,-13.6 -3.3,-4.6 -9.1,-6.3 -12.9,-3.6 z"
           id="path1898" />
        <path
           style="fill:none"
           inkscape:connector-curvature="0"
           d="m 143.5,308.3 c -5.4,0 -10.4,2 -14.1,5.8 -8.2,8.4 -7.6,22.8 1.3,32.1 4.5,4.8 10.7,7.5 16.8,7.6 2.2,0 4.4,-0.3 6.4,-1 l 13.5,-20 c -0.1,-6 -2.5,-12.1 -7.1,-16.9 -4.5,-4.8 -10.7,-7.6 -16.8,-7.6 z"
           id="path1900" />
        <path
           style="fill:none"
           inkscape:connector-curvature="0"
           d="m 115.2,367.3 c 18.9,24.3 52.3,24.4 69.1,6.6 -7.1,3.5 -37,23.1 -69.1,-6.6 z"
           id="path1902" />
        <path
           style="fill:#ff3c00"
           inkscape:connector-curvature="0"
           d="m 320.9,170 c -0.4,-0.9 -1,-2.5 -1.4,-4.4 -0.4,-1.6 -0.5,-3.4 -0.2,-5.1 0.2,-0.8 0.4,-1.6 0.9,-2.3 0.1,-0.2 0.3,-0.3 0.4,-0.5 0.3,-0.4 0.6,-0.7 1,-1 0.2,-0.2 0.4,-0.3 0.6,-0.5 -10.8,-18.3 -27.3,-36.8 -48.3,-52 C 256.5,91.7 236,81.4 213,75.4 c -0.3,-0.1 -0.5,-0.2 -0.8,-0.2 -0.2,0 -0.3,-0.1 -0.5,-0.1 -23.3,-5.9 -49.1,-7.5 -76.9,-2.8 -38.9,12.7 -74,36.7 -98.2,70.3 -0.2,0.3 -0.4,0.5 -0.6,0.8 -0.1,0.1 -0.2,0.3 -0.3,0.4 -29,41 -41.7,96 -25.2,161.8 12.6,45.8 27.3,70 43.2,92.8 0,0 -0.7,11 18.3,5.3 4.3,-1.3 8.2,-2.3 11.9,-2.9 11.1,-1.7 20.4,0.6 33.9,10.7 0.8,0.6 1.6,1.2 2.5,1.8 31.7,22.1 83.9,31.8 117.8,14.1 8.7,-4.5 16.2,-10.9 21.8,-19.3 0,0 0.2,-0.4 0.2,-0.4 2.6,-3.6 4.1,-7 5.5,-10.8 2.5,-6.9 3.1,-13.9 2.9,-20.5 -2.1,-0.4 -4.4,-0.7 -6.7,-1.1 -1.5,28.5 -29.7,55.9 -80.2,52.7 -21,-0.8 -43.5,-11 -56.9,-18.3 -6.2,-4.1 -23.5,-13.9 -31.9,-15.7 7.2,0.4 25.4,9.9 33,14.3 15.6,8 37.3,15.7 55.8,16.5 33.7,3.2 71.9,-14.1 76,-50.2 -33.8,-5.6 -78.7,-13.1 -85.2,-14.2 -1.3,0.9 -3,1.4 -4.8,1.3 -3.4,-0.2 -6.7,-2.3 -8,-5.1 -1,-2.1 -0.8,-4.3 0.6,-6.2 0,0 16,-23.9 16,-23.9 l 0.7,-1.3 c -0.8,-3.7 1,-6.9 1.8,-7.6 1.3,-1.3 8.6,-13.3 10.3,-16.6 0.2,-0.4 2.1,-3.4 5.9,-3.7 1.7,-2.7 5.8,-9.2 12.7,-20.5 -0.6,-3.2 0.9,-6.3 3.2,-8 0.7,-0.5 1.4,-0.9 2.1,-1.2 8.6,-13.9 18.2,-29.1 20.8,-33 3.1,-4.2 5.5,-7 8.2,-10.2 1,-1.1 3.2,-2.9 4.2,-3.7 1.3,-1.7 3.2,-3.1 5.1,-3.6 0,-0.2 0.1,-0.3 0.4,-0.5 6.9,-5.6 16.7,-9.2 16.7,-9.2 13,-5.4 36.2,-11.7 59.8,-16.5 -1.7,-4.8 -6.9,-19.9 -6.9,-19.9 0.1,-0.2 -0.1,-0.5 -0.3,-1 z M 213.8,369.1 c 5.5,0 10,4.5 10,10.1 0,4.1 -2.5,7.6 -6.1,9.2 -1.2,1.3 -2.9,2.1 -4.7,2.1 -2.6,0 -4.9,-1.6 -5.9,-3.9 -2,-1.8 -3.3,-4.5 -3.3,-7.5 0,-5.5 4.5,-10 10,-10 z m -78.9,31.7 c -1.4,1.2 -3.4,1.7 -5.4,1.5 -2.3,1.4 -5.7,0.6 -8.2,-2 -2.3,-2.4 -3,-5.7 -1.9,-7.9 -0.5,-3.5 0.6,-7.1 3.1,-8.8 3.8,-2.7 9.6,-1 12.9,3.7 3.3,4.7 3.1,10.5 -0.5,13.5 z m 49.4,-26.9 c -16.8,17.8 -50.1,17.7 -69.1,-6.6 32.1,29.7 62,10.1 69.1,6.6 z m -30.4,-21.2 c -2,0.7 -4.2,1 -6.4,1 -6.2,0 -12.3,-2.8 -16.8,-7.6 -8.9,-9.3 -9.5,-23.7 -1.3,-32.1 3.7,-3.8 8.7,-5.8 14.1,-5.8 6.2,0 12.3,2.8 16.8,7.6 4.6,4.8 7,11 7.1,16.9 z"
           id="path1904" />
        <path
           style="fill:#311d00"
           inkscape:connector-curvature="0"
           d="m 372.2,157.5 -2.9,1.2 c -0.5,-1 -1.4,-1.6 -2.7,-1.8 -0.4,-0.1 -0.8,-0.1 -1.2,-0.2 C 259.5,-32.4 -66.4,72.4 12.1,322.5 c 5.5,17.6 12.3,32.9 18.8,45.3 -0.6,2.3 -1.4,6.5 -0.1,12.1 2.1,8 3.9,12.9 10.4,27.1 -2.6,9.6 6.4,23.7 28.2,19.5 25.9,-4 39.5,-13.4 42.6,-15.8 0.9,0.6 1.8,1.3 2.6,1.9 46,35.9 121.2,38.7 148.9,-3.7 11.1,2.3 24.9,0.4 24.9,0.4 14.4,-0.9 26,-4.8 35,-10.8 -1.1,-1.8 -2.2,-3.6 -3.2,-5.5 -11.6,7.8 -28.3,12 -51.9,10.1 l -1.5,-0.2 c 3.7,-7.4 6.2,-16 7,-25.8 -1.7,-0.3 -3.5,-0.6 -5.4,-0.9 0.2,6.6 -0.4,13.6 -2.9,20.5 -1.3,3.8 -2.9,7.1 -5.5,10.8 0,0 -0.3,0.4 -0.2,0.4 -5.6,8.4 -13.1,14.7 -21.8,19.3 -33.9,17.7 -86.1,8.1 -117.8,-14.1 -0.8,-0.6 -1.7,-1.2 -2.5,-1.8 C 104.3,401.4 95,399.1 84,400.8 c -3.7,0.6 -7.6,1.6 -11.9,2.9 -19,5.8 -18.3,-5.3 -18.3,-5.3 -16,-22.7 -30.7,-47 -43.2,-92.8 -16.4,-65.8 -3.8,-120.8 25.2,-161.8 0.1,-0.1 0.2,-0.3 0.3,-0.4 0.2,-0.3 0.4,-0.5 0.6,-0.8 C 60.8,109 95.9,85 134.9,72.5 c 27.8,-4.7 53.6,-3.1 76.9,2.8 0.2,0 0.3,0.1 0.5,0.1 0.3,0.1 0.5,0.2 0.8,0.2 23.1,6 43.6,16.3 60.9,28.8 21.1,15.2 37.5,33.7 48.3,52 -0.2,0.1 -0.4,0.3 -0.7,0.5 -0.4,0.3 -0.7,0.6 -1,1 -0.1,0.2 -0.3,0.3 -0.4,0.5 -0.5,0.7 -0.7,1.5 -0.9,2.3 -0.3,1.7 -0.2,3.5 0.2,5.1 0.4,1.8 1,3.4 1.4,4.4 0.2,0.4 0.3,0.7 0.4,0.8 0,0 5.3,15.1 6.9,19.9 1.1,-0.2 2.1,-0.4 3.2,-0.6 l -7.8,-21.6 c -3.1,-7.3 0.4,-10 0.4,-10 -0.9,2.7 -0.1,5.9 0.4,7.5 1,3.2 4.4,12.6 7.3,19.8 0.5,1.4 1,2.8 1.5,4.1 0.8,-0.2 1.7,-0.3 2.5,-0.5 -2.4,-7.3 -5.7,-15.8 -6.8,-18.6 -0.9,-2.4 -1.3,-3.3 -2.4,-7.1 -1.5,-5.2 0.5,-5.3 2.7,-5.5 1.3,-0.1 5,0 6,0 2.3,-1.2 7.1,-3.6 10,-5.1 -34.8,-58.7 -104.4,-98 -195.8,-84.7 72.1,-17.5 153.9,3.2 203.1,73.4 2.6,4.4 4.8,6.8 8.8,14.6 -0.5,0 -1.2,0 -1.8,0 -2.7,-3.9 -5.5,-5.1 -8.9,-5.2 -0.2,0 -6.7,0 -5.9,6.7 0.2,2.1 1.1,4.5 1.6,5.7 h 0.1 l 4.9,10.3 1.3,2.7 4.7,9.5 c 0,0 3.5,7 3.7,10.7 l 12.7,0.3 c 0,0 0.2,-3.9 -2.5,-10.8 -2,-5 -7.8,-23.2 -9.8,-26.8 0,-0.1 -0.1,-0.1 -0.1,-0.2 0.6,0 3.1,0 4.5,0.4 2.5,6.3 6.1,17.2 8.9,25.8 0,0 3.2,0.2 3.2,0.1 1.1,0.1 5.4,0.5 7,0.8 z M 109.5,409.2 c -0.5,0.4 -1.1,0.8 -1.8,1.3 -7.7,5.5 -25.6,12.2 -41.6,13.7 -16.2,2.6 -25.3,-8.8 -22.1,-17.4 0,0 0,0 -0.9,-2.2 -0.9,-2.1 -11.3,-23.3 -10.1,-32.5 8.6,15.7 16.1,25.8 18.4,28.1 0.1,0.4 0.2,0.7 0.3,1.1 -0.2,2.3 0.3,9.1 13.6,6.6 -4,7.8 -19.1,3.5 -16.2,-6.8 -2.2,-2.7 -7.5,-11.4 -7.5,-11.4 -0.2,0.1 0.3,2.6 0.2,2.4 1.8,3.7 4.9,10.2 4.9,10.2 -2.4,15.1 19.4,16.3 20.9,5.2 h 0.1 c 1.1,-0.2 1.1,0 1.9,-0.4 -0.9,4.5 -3.1,7 -5.7,8.3 -4.7,2.4 -6,6.5 1.1,6 7.2,-0.5 20,-2.5 35,-9.9 l 3.2,-1.7 c -6.4,-4 -13.1,-4.7 -17.7,-5 -3.6,-0.3 -9.3,0.7 -13.5,1.6 0.3,-0.1 0.5,-0.2 0.8,-0.3 17.5,-6 28.1,-2.4 36.7,3.1 z M 363.2,175.5 c 1.1,5 -2.5,7.7 -6.1,3.6 -1.5,-1.7 -2.2,-3.3 -2.9,-5.4 l -0.1,-0.3 c -0.6,-2.6 -0.3,-4.8 -0.3,-4.8 -1.1,-1 -1.9,-1.9 -2.4,-2.7 -0.2,-0.2 -0.4,-0.4 -0.5,-0.6 -0.9,-1.3 -1.5,-2.6 -1.7,-3.5 -0.1,-0.3 -0.1,-0.6 -0.2,-0.7 0,-0.1 0,-0.2 0,-0.2 -0.1,-0.9 -0.2,-1.6 -0.2,-2.3 0,-1.3 0.3,-2.1 0.6,-2.6 0.1,-0.2 0.2,-0.3 0.3,-0.4 0,0 0.1,0 0.1,-0.1 0.1,-0.1 0.1,-0.1 0.2,-0.2 0.9,-0.6 2.1,-0.3 2.1,-0.3 3.2,0.4 6.8,5 6.8,11.4 v 0.8 c 1.9,2 3.3,3.8 4.3,8.3 z"
           id="path1906" />
        <path
           style="fill:#ffffff"
           inkscape:connector-curvature="0"
           d="m 363.2,175.5 c -1,-4.5 -2.4,-6.3 -4.3,-8.2 0,-0.3 0,-0.5 0,-0.8 0,-6.5 -3.6,-11 -6.8,-11.4 0,0 -1.2,-0.3 -2.1,0.3 -0.1,0 -0.1,0.1 -0.2,0.2 0,0 -0.1,0 -0.1,0.1 -0.1,0.1 -0.2,0.2 -0.3,0.4 -0.3,0.5 -0.6,1.3 -0.6,2.6 0,0.6 0.1,1.4 0.2,2.3 v 0.2 c 0,0.2 0.1,0.4 0.2,0.7 0.3,0.8 0.8,2.2 1.7,3.5 0.1,0.2 0.3,0.4 0.5,0.6 0.6,0.8 1.4,1.8 2.4,2.7 0,0 -0.3,2.2 0.3,4.8 l 0.1,0.3 c 0.6,2.1 1.3,3.7 2.9,5.4 3.6,4 7.3,1.3 6.1,-3.7 z m -8.6,-8.8 c -1.9,-1.2 -4.7,-5.2 -4.2,-8.5 4.3,0 5.5,6.3 4.2,8.5 z m 4.4,11.7 c -2.2,-2.2 -3.3,-4.5 -3.5,-8 3.4,0.7 5.6,5 3.5,8 z"
           id="path1908" />
      </g>
      <rect
         y="164.70831"
         x="0"
         height="132.29167"
         width="132.29167"
         id="rect1996"
         style="opacity:1;fill:none;fill-opacity:1;stroke:none;stroke-width:10.58333302;stroke-linejoin:round;stroke-miterlimit:4;stroke-dasharray:none;stroke-opacity:1;paint-order:stroke fill markers" />
    </g>
  </g>
</svg>
