<?xml version="1.0" encoding="UTF-8" standalone="no"?>
<!-- Created with Inkscape (http://www.inkscape.org/) -->

<svg
   xmlns:dc="http://purl.org/dc/elements/1.1/"
   xmlns:cc="http://creativecommons.org/ns#"
   xmlns:rdf="http://www.w3.org/1999/02/22-rdf-syntax-ns#"
   xmlns:svg="http://www.w3.org/2000/svg"
   xmlns="http://www.w3.org/2000/svg"
   xmlns:sodipodi="http://sodipodi.sourceforge.net/DTD/sodipodi-0.dtd"
   xmlns:inkscape="http://www.inkscape.org/namespaces/inkscape"
   width="500"
   height="500"
   viewBox="0 0 132.29166 132.29167"
   version="1.1"
   id="svg975"
   inkscape:version="0.92.4 (5da689c313, 2019-01-14)"
   sodipodi:docname="HOU.svg">
  <defs
     id="defs969" />
  <sodipodi:namedview
     id="base"
     pagecolor="#ffffff"
     bordercolor="#666666"
     borderopacity="1.0"
     inkscape:pageopacity="0.0"
     inkscape:pageshadow="2"
     inkscape:zoom="0.57669377"
     inkscape:cx="281.42857"
     inkscape:cy="258.57143"
     inkscape:document-units="mm"
     inkscape:current-layer="layer1"
     showgrid="false"
     units="px"
     inkscape:snap-bbox="true"
     inkscape:bbox-nodes="true"
     inkscape:snap-bbox-edge-midpoints="true"
     inkscape:snap-bbox-midpoints="true"
     inkscape:bbox-paths="true"
     inkscape:snap-page="true"
     inkscape:window-width="1600"
     inkscape:window-height="837"
     inkscape:window-x="-8"
     inkscape:window-y="-8"
     inkscape:window-maximized="1" />
  <metadata
     id="metadata972">
    <rdf:RDF>
      <cc:Work
         rdf:about="">
        <dc:format>image/svg+xml</dc:format>
        <dc:type
           rdf:resource="http://purl.org/dc/dcmitype/StillImage" />
        <dc:title></dc:title>
      </cc:Work>
    </rdf:RDF>
  </metadata>
  <g
     inkscape:label="Layer 1"
     inkscape:groupmode="layer"
     id="layer1"
     transform="translate(0,-164.70832)">
    <g
       id="g2261">
      <g
         transform="matrix(0.32307687,0,0,0.32307687,-14.53865,149.95757)"
         style="fill:none"
         id="g2235">
        <path
           style="fill:#ffffff"
           inkscape:connector-curvature="0"
           d="m 347.117,127.145 c 87.622,66.727 20.941,76.716 -47.487,86.461 0,0 -28.875,-7.971 -78.911,-32.843 C 107.24,124.363 142.967,97.787 232.154,81.707 89.412,19.479 -29.559,127.823 101.686,233.177 l -36.014,25.762 c 29.583,18.148 90.878,56.218 81.973,114.516 l -30.422,21.758 92.907,42.13 73.312,-33.244 c 0.532,-32.286 58.195,-49.055 83.006,-114.729 136.58,-31.358 101.793,-151.583 -19.332,-162.224"
           id="path2229" />
        <path
           style="fill:#03202f"
           inkscape:connector-curvature="0"
           d="m 241.477,326.465 -26.339,-29.979 -30.24,4.512 13.977,-23.042 -26.333,-29.998 34.981,15.754 13.946,-23.048 7.627,32.768 34.974,15.729 -30.253,4.524 7.659,32.78 z M 284.686,219.758 C 113.239,153.495 101.886,99.133 208.901,80.346 75.065,43.956 -3,141.019 129.421,233.582 l -35.532,25.417 c 37.73,25.223 77.714,62.584 64.15,121.377 l -17.904,12.79 68.765,31.195 c 63.994,-70.142 97.465,-138.291 75.785,-204.603 z"
           id="path2231" />
        <path
           style="fill:#a71930"
           inkscape:connector-curvature="0"
           d="m 371.719,137.585 c 58.84,46.097 17.985,75.55 -53.749,83.552 18.148,76.552 -37.498,146.669 -96.413,200.962 l 54.018,-24.49 c 3.995,-31.113 58.802,-47.294 84.772,-116.332 121.982,-27.234 102.074,-114.835 11.372,-143.692"
           id="path2233" />
      </g>
      <rect
         y="164.70831"
         x="0"
         height="132.29167"
         width="132.29167"
         id="rect2120"
         style="opacity:1;fill:none;fill-opacity:1;stroke:none;stroke-width:10.58333302;stroke-linejoin:round;stroke-miterlimit:4;stroke-dasharray:none;stroke-opacity:1;paint-order:stroke fill markers" />
    </g>
  </g>
</svg>
