<?xml version="1.0" encoding="UTF-8" standalone="no"?>
<!-- Created with Inkscape (http://www.inkscape.org/) -->

<svg
   xmlns:dc="http://purl.org/dc/elements/1.1/"
   xmlns:cc="http://creativecommons.org/ns#"
   xmlns:rdf="http://www.w3.org/1999/02/22-rdf-syntax-ns#"
   xmlns:svg="http://www.w3.org/2000/svg"
   xmlns="http://www.w3.org/2000/svg"
   xmlns:sodipodi="http://sodipodi.sourceforge.net/DTD/sodipodi-0.dtd"
   xmlns:inkscape="http://www.inkscape.org/namespaces/inkscape"
   width="500"
   height="500"
   viewBox="0 0 132.29166 132.29167"
   version="1.1"
   id="svg975"
   inkscape:version="0.92.4 (5da689c313, 2019-01-14)"
   sodipodi:docname="LAC.svg">
  <defs
     id="defs969" />
  <sodipodi:namedview
     id="base"
     pagecolor="#ffffff"
     bordercolor="#666666"
     borderopacity="1.0"
     inkscape:pageopacity="0.0"
     inkscape:pageshadow="2"
     inkscape:zoom="0.56895488"
     inkscape:cx="37.679845"
     inkscape:cy="208.41643"
     inkscape:document-units="mm"
     inkscape:current-layer="layer1"
     showgrid="false"
     units="px"
     inkscape:snap-bbox="true"
     inkscape:bbox-nodes="true"
     inkscape:snap-bbox-edge-midpoints="true"
     inkscape:snap-bbox-midpoints="true"
     inkscape:bbox-paths="true"
     inkscape:snap-page="true"
     inkscape:window-width="1600"
     inkscape:window-height="837"
     inkscape:window-x="-8"
     inkscape:window-y="-8"
     inkscape:window-maximized="1"
     inkscape:object-paths="true"
     inkscape:snap-intersection-paths="true"
     inkscape:object-nodes="true"
     inkscape:snap-midpoints="true"
     inkscape:snap-smooth-nodes="true"
     showguides="false"
     inkscape:snap-nodes="false" />
  <metadata
     id="metadata972">
    <rdf:RDF>
      <cc:Work
         rdf:about="">
        <dc:format>image/svg+xml</dc:format>
        <dc:type
           rdf:resource="http://purl.org/dc/dcmitype/StillImage" />
        <dc:title></dc:title>
      </cc:Work>
    </rdf:RDF>
  </metadata>
  <g
     inkscape:label="Layer 1"
     inkscape:groupmode="layer"
     id="layer1"
     transform="translate(0,-164.70832)">
    <g
       id="g2583">
      <g
         transform="matrix(0.27571439,0,0,0.27571439,-2.7574582,161.91012)"
         style="fill:none"
         id="g2555">
        <path
           style="fill:#ffffff"
           inkscape:connector-curvature="0"
           d="m 246.825,110.496 c -4.488,0 -9.141,0.1 -13.83,0.295 l -9.36,0.396 12.476,15.48 c -2.093,-0.059 -4.216,-0.083 -6.356,-0.083 -18.554,0 -55.633,2.25 -95.521,17.328 -18.004,6.804 -34.466,15.468 -48.916,25.739 -16.284,11.582 -30.179,25.325 -41.289,40.852 l -5.115,7.152 8.792,0.319 c 2.312,0.083 4.316,0.118 6.315,0.118 0.982,0 1.892,-0.006 2.726,-0.018 -8.526,10.908 -20.488,28.916 -30.208,51.229 -6.983,16.035 -11.826,32.028 -14.386,47.544 -3.069,18.61 -2.856,36.594 0.644,53.456 l 2.613,12.586 6.167,-11.286 c 23.35,-42.701 50.152,-75.131 81.951,-99.139 27.347,-20.642 53.611,-31.568 76.778,-41.206 1.632,-0.679 3.24,-1.347 4.831,-2.014 l 4.789,-2.002 -2.436,-4.571 c -1.697,-3.189 -4.914,-7.377 -7.882,-10.95 5.061,-0.213 10.123,-0.319 15.125,-0.319 69.268,0 137.324,20.163 202.271,59.934 l 10.341,6.331 -3.317,-11.653 c -1.307,-4.589 -2.542,-8.641 -3.743,-12.308 35.341,33.564 64.798,81.415 79.627,117.43 l 7.61,18.48 1.478,-19.921 c 2.034,-27.132 0.242,-54.389 -5.15,-78.834 -6.469,-29.353 -17.993,-54.814 -34.229,-75.656 -9.112,-13.235 -19.388,-25.16 -31.415,-36.434 -18.371,-17.24 -40.071,-32.082 -64.473,-44.106 l -0.16,-0.089 -0.177,-0.059 c -1.685,-0.679 -3.808,-1.66 -6.256,-2.782 -7.722,-3.555 -19.388,-8.924 -35.79,-13.342 -19.459,-5.233 -41.171,-7.896 -64.526,-7.896"
           id="path2547" />
        <path
           style="fill:#002a5e"
           inkscape:connector-curvature="0"
           d="m 233.196,115.51 c 4.701,-0.195 9.248,-0.289 13.629,-0.289 61.83,0 92.021,18.551 104.822,23.677 55.095,27.162 82.395,61.99 94.149,79.088 29.28,37.509 39.279,86.039 39.302,129.708 0,7.377 -0.29,14.617 -0.81,21.646 -17.727,-43.061 -54.232,-99.109 -95.598,-132.018 0.686,1.417 1.342,2.841 1.981,4.294 0.763,1.736 1.49,3.508 2.2,5.345 2.3,5.953 4.37,12.485 6.605,20.346 -60.257,-36.895 -129.183,-60.631 -204.742,-60.631 -8.278,0 -16.627,0.283 -25.052,0.868 0,0 1.307,1.417 3.146,3.526 0.272,0.301 0.55,0.62 0.834,0.957 3.288,3.803 7.716,9.213 9.65,12.857 -46.599,19.484 -110.622,43.362 -165.883,144.456 -1.88,-9.072 -2.708,-18.12 -2.702,-27.038 0.071,-55.038 32.29,-105.045 48.101,-124.263 0.302,-0.366 0.597,-0.726 0.887,-1.063 1.153,-1.37 2.2,-2.557 3.128,-3.55 -2.341,-0.094 -4.157,-0.118 -5.765,-0.118 -1.242,0 -2.365,0.012 -3.506,0.024 -1.118,0.018 -2.253,0.035 -3.548,0.035 -1.685,0 -3.636,-0.03 -6.143,-0.118 45.694,-63.868 128.432,-81.94 181.877,-81.94 3.559,0 6.995,0.077 10.282,0.23 0.556,0.03 1.123,0.059 1.667,0.083 1.614,0.089 3.187,0.201 4.724,0.319 L 233.198,115.51"
           id="path2549" />
        <path
           style="fill:#0080c6"
           inkscape:connector-curvature="0"
           d="m 255.434,123.82 -5.416,0.112 c 0,0 7.598,10.867 10.992,15.722 -25.892,-2.12 -125.416,-5.339 -192.207,61.122 l -4.736,4.731 c 0,0 17.177,0.549 19.157,0.602 -1.65,2.038 -3.311,4.081 -3.311,4.081 -20.062,24.292 -47.533,57.566 -56.987,121.859 l -1.815,12.444 7.089,-10.401 c 36.086,-52.954 82.85,-90.215 139.057,-110.703 l 3.577,-1.317 -2.229,-3.089 c -5.871,-8.144 -11.583,-13.365 -16.816,-17.836 98.395,-9.946 169.579,16.708 226.253,44.425 l 6.894,3.39 -2.95,-7.081 c -5.475,-13.224 -10.477,-22.136 -15.681,-30.44 42.537,25.213 72.426,62.256 103.166,109.728 l 6.333,9.745 -1.005,-11.576 C 463.653,190.84 338.03,122.165 255.435,123.819"
           id="path2551" />
        <path
           style="fill:#ffc20e"
           inkscape:connector-curvature="0"
           d="m 269.353,141.503 c 0,0 -4.878,-6.993 -8.213,-11.765 39.947,0.774 87.326,18.167 125.186,46.362 32.337,24.073 71.663,66.118 81.265,131.799 -31.379,-47.036 -62.823,-83.547 -108.914,-107.578 l -9.904,-5.162 6.197,9.379 c 6.504,9.857 12.275,18.882 18.501,32.495 C 318.707,210.952 244.129,184.316 144.333,196.01 l -6.616,0.78 7.911,6.692 c 4.914,4.146 10.401,8.9 15.976,15.97 C 109.56,239.261 65.628,273.386 30.73,320.865 41.408,265.957 66.047,236.072 84.389,213.871 l 10.738,-13.2 -5.931,-0.148 -11.187,-0.36 c 75.01,-69.006 187.394,-54.312 188.535,-54.152 l 6.676,1.022 -3.867,-5.528"
           id="path2553" />
      </g>
      <rect
         y="164.70831"
         x="0"
         height="132.29167"
         width="132.29167"
         id="rect2120"
         style="opacity:1;fill:none;fill-opacity:1;stroke:none;stroke-width:10.58333302;stroke-linejoin:round;stroke-miterlimit:4;stroke-dasharray:none;stroke-opacity:1;paint-order:stroke fill markers" />
    </g>
  </g>
</svg>
