<?xml version="1.0" encoding="UTF-8" standalone="no"?>
<!-- Created with Inkscape (http://www.inkscape.org/) -->

<svg
   xmlns:dc="http://purl.org/dc/elements/1.1/"
   xmlns:cc="http://creativecommons.org/ns#"
   xmlns:rdf="http://www.w3.org/1999/02/22-rdf-syntax-ns#"
   xmlns:svg="http://www.w3.org/2000/svg"
   xmlns="http://www.w3.org/2000/svg"
   xmlns:sodipodi="http://sodipodi.sourceforge.net/DTD/sodipodi-0.dtd"
   xmlns:inkscape="http://www.inkscape.org/namespaces/inkscape"
   width="500"
   height="500"
   viewBox="0 0 132.29166 132.29167"
   version="1.1"
   id="svg975"
   inkscape:version="0.92.4 (5da689c313, 2019-01-14)"
   sodipodi:docname="MIA.svg">
  <defs
     id="defs969" />
  <sodipodi:namedview
     id="base"
     pagecolor="#ffffff"
     bordercolor="#666666"
     borderopacity="1.0"
     inkscape:pageopacity="0.0"
     inkscape:pageshadow="2"
     inkscape:zoom="0.56895488"
     inkscape:cx="37.679845"
     inkscape:cy="208.41643"
     inkscape:document-units="mm"
     inkscape:current-layer="layer1"
     showgrid="false"
     units="px"
     inkscape:snap-bbox="true"
     inkscape:bbox-nodes="true"
     inkscape:snap-bbox-edge-midpoints="true"
     inkscape:snap-bbox-midpoints="true"
     inkscape:bbox-paths="true"
     inkscape:snap-page="true"
     inkscape:window-width="1600"
     inkscape:window-height="837"
     inkscape:window-x="-8"
     inkscape:window-y="-8"
     inkscape:window-maximized="1"
     inkscape:object-paths="true"
     inkscape:snap-intersection-paths="true"
     inkscape:object-nodes="true"
     inkscape:snap-midpoints="true"
     inkscape:snap-smooth-nodes="true"
     showguides="false"
     inkscape:snap-nodes="false" />
  <metadata
     id="metadata972">
    <rdf:RDF>
      <cc:Work
         rdf:about="">
        <dc:format>image/svg+xml</dc:format>
        <dc:type
           rdf:resource="http://purl.org/dc/dcmitype/StillImage" />
        <dc:title></dc:title>
      </cc:Work>
    </rdf:RDF>
  </metadata>
  <g
     inkscape:label="Layer 1"
     inkscape:groupmode="layer"
     id="layer1"
     transform="translate(0,-164.70832)">
    <g
       id="g2659">
      <g
         transform="matrix(0.2645653,0,0,0.2645653,-0.07035206,164.72606)"
         id="g2635">
        <path
           style="fill:#005778"
           inkscape:connector-curvature="0"
           d="m 432.2,152.4 c -3.8,0.9 -13.1,1.2 -17,1.2 -4,0 -9.6,-0.6 -18.2,3.2 -6.2,2.7 -10.3,8.1 -12.2,10.9 0.6,-0.8 1.1,-1.5 1.6,-1.8 0,0 6.3,-7.2 19.1,-6.3 -0.4,0.7 -0.8,1.6 -0.4,2.5 0.1,0.1 0.1,0.2 0.2,0.4 0,0 0,0.1 0.1,0.1 0,0 4.6,-1.5 7.8,-2.5 7,-1.8 11.4,-2.9 16.2,-4.9 6.5,-2.7 8.6,-3.8 8.4,-4.3 -0.3,-0.6 -1.9,0.6 -5.6,1.5"
           id="path2585" />
        <path
           style="fill:#ffffff"
           inkscape:connector-curvature="0"
           d="m 386.4,165.8 c -0.5,0.3 -1,1 -1.6,1.8 -2.3,3.3 -5.2,9.1 -5.2,9.1 4.3,-6.3 17.7,-11.7 25.7,-14.4 -0.1,-0.1 -0.2,-0.2 -0.2,-0.4 -0.4,-0.9 0,-1.8 0.4,-2.5 -12.8,-0.8 -19.1,6.4 -19.1,6.4"
           id="path2587" />
        <path
           style="fill:#f26a24"
           inkscape:connector-curvature="0"
           d="m 399.2,315.2 c -2.7,5.5 4.4,22.6 10.8,27.7 -4.7,-1.4 -29.5,-8.5 -33.5,0.7 -4.4,10.1 19.8,47 22.6,53.9 -11.1,-11.1 -41.7,-35.9 -46,-33 -4.3,2.8 -3.3,16.7 -2.1,23.7 -4.2,-5.1 -11.4,-13.3 -17.6,-10.8 -6.2,2.4 -5.5,26.2 -5.9,36.3 -5.1,-11.9 -13.5,-35.8 -21.3,-35 -7.8,0.9 -16.5,17.2 -18.1,23.4 -1.2,-6.2 -6.3,-19.9 -13.9,-19.9 -7.6,0 -25.5,36.3 -30.9,48.1 0,-9.1 2.2,-53.6 -2.7,-55.8 -4.8,-2.2 -21.2,7.9 -24.7,12.6 1.3,-5.8 2.4,-25.6 -1.9,-28 -4.4,-2.4 -16.8,-3.1 -39.2,17.6 3.7,-8 9.9,-16.6 11.4,-25 9.3,-0.5 18.5,-1.5 27.8,-3.3 20.3,14.7 45.1,23.3 72.1,23.3 68,0 123.1,-55.1 123.1,-123.1 0,-5.3 -0.3,-10.6 -1,-15.7 4.6,-4.3 8.9,-8.4 13,-12.3 -0.9,2.2 -1.4,4.9 -1.4,8.2 0.3,10.4 27.1,12.6 41.4,13.7 -16,2.2 -43.8,13.7 -38.5,19.9 5.3,6.2 20.7,14.7 22.9,15.8 -7.4,0 -31.6,2.5 -34.3,9.4 -2.7,6.9 35,29.8 48.8,35.2 -17.2,-5 -58.1,-13.1 -60.9,-7.6"
           id="path2589" />
        <path
           style="fill:#f26a24"
           inkscape:connector-curvature="0"
           d="m 378.4,138.4 c -8,1.6 -16.4,3.9 -24.9,7.1 -19.4,-12.7 -42.6,-20.1 -67.5,-20.1 -68,0 -123.1,55.1 -123.1,123 0,16.4 3.2,32 9,46.2 -7,5.2 -13.7,9.3 -20.6,12.5 5,-6 9.4,-17.5 3.7,-20.6 -3.9,-2.1 -21.9,-2.9 -21.9,-2.9 0,0 20.3,-13.6 19.8,-23.5 -0.5,-9.9 -32.8,-14.9 -45.6,-17.8 11.3,-2.4 47.9,-10.6 49.4,-18 1.6,-7.4 -11.4,-12.6 -16.9,-15.1 6.1,0.1 21.7,2.7 23.7,-4.9 2.4,-8.7 -35.8,-31.3 -44.6,-34.5 1.9,0.5 38.4,9 51.7,6.1 9.9,-2.1 -1.6,-15.5 -3.6,-17.1 2.9,1.4 19.6,4.9 24.4,-3.1 4.8,-7.9 -11.4,-39.5 -20.5,-52.9 8.1,8 44.9,34.2 50.4,29.8 5.5,-4.5 1.3,-18.9 -1.6,-23.6 5.9,5.6 11.8,13 19.3,12.8 3.8,-0.1 8.5,-12.6 9.3,-40.8 5.1,15.8 17.3,37.3 26.3,36 9,-1.3 12,-14.6 13.3,-20.3 1,6.1 5.7,21.7 11.7,22.3 7.3,1.1 21.4,-31.5 26.5,-46.3 0.8,7.3 -4.6,44.7 3.3,47.8 7.9,3.1 21,-12.6 28.4,-21.5 -4.5,8.5 -13.3,29.2 -8.1,34.1 5.2,4.9 23.3,-0.2 30.4,-6.1 -1.8,4.6 -2.2,8.1 -1.7,11.4"
           id="path2591" />
        <path
           style="fill:#008e97"
           inkscape:connector-curvature="0"
           d="m 475,137.8 c -9.4,0.9 -28.2,7.7 -28.2,7.7 -34.3,-8.9 -75.1,-9.9 -125.1,20.5 -9.3,5.7 -17.9,11.6 -25.7,17.6 -7.9,6 -15.1,12.1 -21.9,18.2 -2.9,2.6 -6.7,6 -9.9,9.3 -16.2,5.4 -23.4,0.4 -45.7,3.3 -17.6,2.3 -24.5,8.3 -28.4,13.1 -0.5,1.4 -0.4,2.6 0.5,3.3 2.1,1.7 5.4,0.8 11.5,0.4 6.2,-0.5 15.5,-0.3 21.7,3.6 4,2.5 5.8,8.4 6.4,11.8 -4.6,4.9 -9.2,9.7 -13.7,14.2 -28.2,27.9 -47.1,44.5 -68.3,52.8 -46,18 -71.9,-3.1 -82.3,-9.4 -12.6,-8.1 -29.3,-10.8 -38.3,-12.4 -9,-1.7 -13.9,-6 -15.8,-7.6 -1.9,-1.6 -3.4,-4.4 -5.6,-3.7 -0.6,0.2 -1,0.3 -1.4,0.7 0.3,-0.3 0.8,-0.5 1.4,-0.7 0.3,3.9 13.4,36.4 54.9,42.3 11.9,1.7 15.6,1.2 17.8,1 -7,-6.1 -12.7,-14.7 -13.2,-15.2 1.6,1.4 3.2,2.7 4.8,3.9 12.4,13.2 26.4,18.7 38.3,20.6 0.8,0.2 12.4,0.7 12.4,0.7 13.6,-0.3 31.9,-4.3 48.8,-9.2 49.8,-14.4 97.8,-57.6 97.8,-57.6 0,0 -2.7,11.6 -3.7,15.7 -0.7,3.3 -3.1,14.1 -7.7,25.5 0,0 -1.4,3.4 -3.4,7.6 -3,6.2 -7.1,14.1 -7.1,17.3 v 0.4 c 0,0 0,0.4 0.2,0.8 3.7,-2 8.8,-5.4 14.6,-10.3 9.1,-7.6 20.5,-19 33.8,-35.4 29.9,-36.8 34.6,-62 55.6,-81.7 8.9,-8.3 32.2,-21.2 44.2,-25.3 0.1,-0.1 0.2,-0.1 0.3,-0.1 20.2,-11.5 40,-20.5 43.2,-21.8 11.8,-4.8 53.4,-18.6 57.8,-11.7 -1.9,-8 -11.3,-11.1 -20.6,-10.2 m -45.6,17.3 c -4.8,1.9 -9.1,3.1 -16.2,4.9 -3.2,1 -7.8,2.5 -7.8,2.5 0,0 0,-0.1 -0.1,-0.1 -8,2.7 -21.4,8 -25.7,14.4 0.2,-0.4 2.9,-5.9 5.1,-9.1 1.9,-2.8 6,-8.2 12.2,-10.9 8.6,-3.8 14.2,-3.2 18.2,-3.2 4,0 13.3,-0.3 17,-1.2 3.8,-0.9 5.4,-2.1 5.6,-1.6 0.3,0.5 -1.8,1.7 -8.3,4.3"
           id="path2593" />
        <path
           style="fill:#ffffff"
           inkscape:connector-curvature="0"
           d="m 264,282.5 c -0.7,3.3 -3.1,14.1 -7.7,25.5 -16.3,8.6 -42.3,19.7 -65.8,25.2 -46.3,10.9 -76,1.4 -81,-0.2 l -0.7,-0.2 c 1.1,0.2 12.4,0.7 12.4,0.7 2.4,0.1 34,1.3 68.7,-11.7 28.4,-10.4 56.3,-27.3 74.1,-39.3"
           id="path2595" />
        <path
           style="fill:#005778"
           inkscape:connector-curvature="0"
           d="m 267.7,266.7 c 0,0 -2.7,11.6 -3.7,15.7 -17.8,12 -45.7,28.9 -74.1,39.3 -34.7,13 -66.3,11.8 -68.7,11.7 13.6,-0.3 31.9,-4.3 48.8,-9.2 49.7,-14.3 97.7,-57.5 97.7,-57.5"
           id="path2597" />
        <path
           style="fill:#008e97"
           inkscape:connector-curvature="0"
           d="m 385.8,246.4 c -3.5,10.9 -9,25.8 -15.6,38.4 -7.9,15 -18.3,25.3 -23.8,29.3 -0.9,-0.6 -1.3,-1.7 -1.3,-2.9 0,-2.1 4.6,-13.1 6.5,-36.3 5.9,-4.4 11.2,-8.7 15.9,-12.6 6,-5 12.2,-10.4 18.3,-15.9"
           id="path2599" />
        <path
           style="fill:#005778"
           inkscape:connector-curvature="0"
           d="m 112.2,298.3 c 0,1.5 -0.2,3 -0.6,4.5 -0.7,2.6 -2.1,5.8 -4.3,9 -1.3,2 -3.6,4.5 -3.6,4.5 -0.4,0 -2.1,0.1 -3.5,0 -1.5,-0.1 -3,-0.4 -3.6,-0.5 -0.4,-0.5 18.7,-13.5 13.5,-19.8 0.3,0 2,-0.4 2.1,2.3"
           id="path2601" />
        <path
           style="fill:#005778"
           inkscape:connector-curvature="0"
           d="m 493.1,156.2 c 0,0 -0.8,1.1 -3.3,3.4 -2.6,2.2 -6.9,5.6 -14.1,10 -6.9,4.2 -26,17.2 -40.7,30.7 -0.5,0.5 -39.8,37.6 -40.8,38.5 -0.1,0.3 -5.2,19.3 -17.4,44 -8.5,17.3 -21.3,28.1 -25.8,30.6 -0.3,0.1 -2.9,1.8 -4.7,0.7 5.5,-4 15.9,-14.3 23.8,-29.3 6.6,-12.6 12.1,-27.5 15.6,-38.4 -6.1,5.5 -12.3,10.9 -18.2,15.8 -4.7,3.9 -10,8.1 -15.9,12.6 0,0 -12.7,9.4 -19.9,14.1 -4,2.7 -22.5,14.2 -33.7,20.3 -9.5,5.2 -29.4,14.6 -29.5,14.6 -10.4,8.7 -18.5,12.8 -20.7,12.3 -1.3,-0.3 -1.8,-1.9 -1.8,-2 3.7,-2 8.8,-5.4 14.6,-10.3 9.1,-7.6 20.5,-19 33.8,-35.4 29.9,-36.8 34.6,-62 55.6,-81.6 8.9,-8.3 32.2,-21.2 44.2,-25.3 0.1,-0.1 0.2,-0.1 0.3,-0.1 -13.7,7.8 -27.6,16.8 -36.6,25.5 -17.5,16.4 -23.5,35.5 -40.9,61.7 l -0.4,0.7 c 58.5,-44.4 103.8,-95.8 150.5,-112.2 1.5,-0.5 2.9,-1 4.3,-1.5 0.1,0 0.1,0 0.2,-0.1 15.9,-5.4 22.3,-6.2 22.8,-3.2 0.2,1.3 -0.9,3.2 -1.3,3.9"
           id="path2603" />
        <path
           style="fill:#008e97"
           inkscape:connector-curvature="0"
           d="M 96.6,315.8 C 84.8,313.5 71,305.5 66.7,303.1 c 1.5,-1.4 5.1,-4 11.9,-3.6 9.4,0.6 19.8,1.3 24.7,-0.1 4.2,-1.3 5,-3.1 6.8,-3.3 5.2,6.2 -13.9,19.1 -13.5,19.7"
           id="path2605" />
        <path
           style="fill:#005778"
           inkscape:connector-curvature="0"
           d="m 218.5,214.3 c 22.3,-2.9 29.5,2.1 45.7,-3.3 3.2,-3.2 7,-6.6 9.9,-9.3 -4.6,1.5 -8.1,2.4 -11.5,2.9 -7.6,1.5 -13.1,1.1 -28.9,3.2 -24.8,3.3 -36.3,11 -39.6,14 -1,0.9 -1.7,1.7 -2.8,3.1 -0.7,1 -1.2,2.2 -1.3,2.4 4,-4.6 10.9,-10.7 28.5,-13"
           id="path2607" />
        <path
           style="fill:#005778"
           inkscape:connector-curvature="0"
           d="m 252.9,315.7 c -3,6.2 -7.1,14.1 -7.1,17.3 v 0.4 c -37.8,14.7 -68.5,14.1 -68.7,14.1 -51.9,2.5 -92.8,-18.7 -92.8,-18.7 0,0 0,0 0,0 -0.1,0 -0.4,0 -0.8,0 -4.9,0 -29,-0.4 -44.8,-7.7 -17.3,-8 -27.3,-20.6 -31.6,-30.1 -3.2,-7.1 -3.4,-9.3 -2.4,-10.2 0.1,-0.1 0.2,-0.2 0.3,-0.2 0.3,-0.2 0.7,-0.3 1.1,-0.4 0.3,3.9 13.4,36.4 54.9,42.3 11.9,1.7 15.6,1.2 17.8,1 -7,-6.1 -12.7,-14.7 -13.2,-15.2 1.6,1.4 3.2,2.7 4.8,3.9 12.4,13.2 26.4,18.7 38.3,20.6 l 0.7,0.2 c 5.1,1.7 34.7,11.1 81,0.2 23.5,-5.5 49.5,-16.6 65.8,-25.2 0.1,0 -1.3,3.5 -3.3,7.7"
           id="path2609" />
        <path
           style="fill:#ffffff"
           inkscape:connector-curvature="0"
           d="m 500,149.2 c -0.1,-1.9 -0.4,-3 -0.4,-3 -2.3,-7.9 -10.4,-12.8 -21.4,-12.8 -1.2,0 -2.4,0.1 -3.5,0.2 -8.5,0.8 -23.5,5.9 -28,7.5 -14,-3.5 -27.2,-5.3 -40.1,-5.3 -6.7,0 -13.4,0.5 -20,1.4 l -2.7,0.4 c 0,0 -1.1,-3.5 1.7,-11.6 1.4,-4.2 3.4,-8.1 3.4,-8.1 0,0 -30.5,15.9 -34.3,10.8 -3.8,-5.1 13.3,-45.3 13.3,-45.3 0,0 -29.4,32.7 -35.2,31.2 -2.3,-0.6 -2.5,-12.4 -2.6,-25.2 -0.1,-17.3 0.4,-37 0.4,-37 0,0 -24.2,60.2 -30.1,59.9 -5.1,-0.3 -12.6,-32.4 -12.6,-32.4 0,0 -4.7,27.7 -13.1,31.1 -8.4,3.4 -30,-48.4 -30,-48.4 0,0 -1,51.9 -7,53 -6,1.2 -25.2,-18.2 -25.2,-18.2 0,0 9,25.8 5.9,29.2 -1.8,2 -20.2,-9.4 -39.4,-23.1 -11.1,-7.9 -20.3,-14.6 -20.3,-14.6 0,0 10.8,17.9 19.4,36.7 5.9,12.9 9.5,25.3 8,27.7 -3.8,5.9 -32.2,-2.5 -32.2,-2.5 0,0 16.2,15.6 15.1,19.6 -0.5,1.9 -16.6,0.5 -32.9,-1.7 -17.3,-2.4 -35,-5.6 -35,-5.6 0,0 57.7,33.6 55.9,39.6 -1.4,4.8 -37.4,0.9 -37.4,0.9 0,0 31.2,14.3 31.1,19 -0.1,4.7 -61.1,20.2 -61.1,20.2 0,0 55.3,11.6 56.3,17.7 1.1,6.2 -21.8,25.9 -21.8,25.9 0,0 26.6,2.4 27.9,5.9 1.3,3.5 -6.5,17.2 -13.2,19.4 -8.4,2.7 -16,4.4 -25.2,4.4 -1.3,0 -2.6,0 -3.9,-0.1 0.5,-0.6 0.9,-1.2 1.3,-1.8 2.3,-3.3 4,-6.9 4.9,-10.3 0.5,-1.9 0.7,-3.7 0.7,-5.5 v -0.1 -0.1 c -0.1,-2 -0.7,-3.8 -1.9,-5 -2.3,-2 -4.4,-1.7 -5.9,-1.1 l -5.2,2.6 c -0.4,0.2 -0.8,0.3 -1.4,0.5 -1,0.3 -3.1,0.7 -7.5,0.7 -4.2,0 -9.1,-0.3 -13.9,-0.6 0,0 -2.9,-0.2 -3.5,-0.2 -5.7,0 -9.5,1.8 -11.8,3.5 l -1.2,-0.7 c -11.7,-6.2 -25.3,-8.7 -33.8,-10.3 -0.7,-0.1 -1.3,-0.2 -1.9,-0.3 -9.4,-1.8 -14.5,-7.4 -14.9,-7.9 -0.8,-0.9 -1.8,-2 -3.2,-2.8 0,0 -2.4,-1.5 -6.1,-0.4 -2.4,0.8 -3.4,2.7 -3.4,2.7 -2,3.4 -0.1,8.3 2.5,13.9 2.9,6.3 12,22.1 33.7,32.2 7.1,3.3 16.5,5.7 27.8,7 8.5,1 15.8,1.1 18.6,1.1 2.8,1.3 11.3,5.3 23.9,9.2 13.9,4.3 35.6,9.5 60.5,9.6 0,0 8.8,0.1 13.6,-0.2 0.5,2 -3,9.1 -7.1,17.4 -4.9,9.9 -11.2,21.6 -11.2,21.6 0,0 11.4,-10.1 22,-17.5 10.7,-7.5 22.6,-13.5 25.5,-10.1 5.3,6.6 -0.4,33.7 -0.4,33.7 0,0 21.6,-19.1 26.6,-16.5 2.3,1.2 2.5,15.5 2.5,30.5 0,17.8 -0.4,36.7 -0.4,36.7 0,0 29.7,-60.1 35.9,-58.4 6.2,1.7 13,29.1 13,29.1 0,0 11.3,-33.4 18.2,-32.6 2.8,-0.3 8.7,10.5 14,21.6 5.8,12.1 10.7,24 10.7,24 0,0 0.1,-12.4 1,-25.1 0.8,-11.5 2.2,-22.6 4.8,-23.3 5.3,-1.3 20.7,19.3 20.7,19.3 0,0 -5.4,-28.7 -1.2,-31.2 4.3,-2.4 55.5,41.8 55.5,41.8 0,0 -33.6,-62.3 -29.5,-67 4.1,-4.8 40,4.9 40,4.9 0,0 -5.3,-6.3 -9.9,-13.5 -4.8,-7.5 -8.8,-15.8 -6.9,-17.8 1.7,-1.8 20.4,0.1 39.7,3.8 22.3,4.3 36.8,7.4 36.8,7.4 0,0 -13.1,-7.1 -32.5,-18.8 -16.8,-10.1 -31.5,-21.4 -30.9,-23.3 1.4,-4 41.4,-7.8 41.4,-7.8 0,0 -6.7,-4 -13.9,-8.4 -7.8,-4.8 -16.2,-10.8 -16.2,-12.9 0,-1.9 10,-6.6 23.3,-10.7 15.9,-4.9 30.6,-8.1 30.6,-8.1 0,0 -54.6,-4.4 -58,-12.2 -2.3,-5.3 1.9,-12.2 5.1,-16.7 3.1,-4.5 7.6,-8.5 7.6,-8.5 14.9,-13.8 33.9,-26.4 39.9,-30.2 0.4,-0.3 0.8,-0.5 1.3,-0.8 0,0 14,-10.3 15.4,-11.5 1.3,-1.1 4.5,-4.4 5.2,-8.7 -0.5,0.3 -0.2,-0.8 -0.3,-2.7 M 155.1,286.5 c -3.9,-2.1 -21.9,-2.9 -21.9,-2.9 0,0 20.3,-13.6 19.8,-23.5 -0.5,-9.9 -32.8,-14.9 -45.6,-17.8 11.3,-2.4 47.9,-10.6 49.4,-18 1.6,-7.4 -11.4,-12.6 -16.9,-15.1 6.1,0.1 21.7,2.7 23.7,-4.9 2.4,-8.7 -35.8,-31.3 -44.6,-34.5 1.9,0.5 38.4,9 51.7,6.1 9.9,-2.2 -1.6,-15.5 -3.6,-17.1 2.9,1.4 19.6,4.9 24.4,-3.1 4.8,-7.9 -11.4,-39.5 -20.5,-52.9 8.1,8 44.9,34.2 50.4,29.8 5.5,-4.5 1.3,-18.9 -1.6,-23.6 5.9,5.6 11.8,13 19.3,12.8 3.8,-0.1 8.5,-12.6 9.3,-40.8 5.1,15.8 17.3,37.3 26.3,36 9,-1.3 12,-14.6 13.3,-20.3 1,6.1 5.7,21.7 11.7,22.3 7.3,1.1 21.4,-31.5 26.5,-46.3 0.8,7.3 -4.6,44.7 3.3,47.8 7.9,3.1 21,-12.6 28.4,-21.5 -4.5,8.5 -13.3,29.2 -8.1,34.2 5.2,4.9 23.3,-0.2 30.4,-6.1 -2,4.3 -2.4,7.8 -1.9,11 -8,1.6 -16.4,3.9 -24.9,7.1 -19.4,-12.7 -42.6,-20.1 -67.5,-20.1 -68,0 -123.1,55.1 -123.1,123.1 0,16.4 3.2,32 9,46.2 -7,5.2 -13.7,9.3 -20.6,12.5 5.2,-5.8 9.6,-17.3 3.9,-20.4 m -76.5,12.9 c 9.4,0.6 19.8,1.3 24.7,-0.1 4.2,-1.3 5,-3.1 6.8,-3.3 0.3,0 2,-0.4 2.1,2.3 0,1.5 -0.2,3 -0.6,4.5 -0.7,2.6 -2.1,5.8 -4.3,9 -1.3,2 -3.6,4.5 -3.6,4.5 -0.4,0 -2.1,0.1 -3.5,-0.1 -1.4,-0.1 -3,-0.4 -3.6,-0.5 C 84.8,313.5 71,305.5 66.7,303 c 1.4,-1.4 5.1,-4 11.9,-3.6 m 382.6,-57.1 c -16,2.2 -43.8,13.7 -38.5,19.9 5.3,6.2 20.7,14.7 22.9,15.8 -7.4,0 -31.6,2.5 -34.3,9.4 -2.7,6.9 35,29.9 48.8,35.3 -17.2,-4.8 -58.1,-12.9 -60.9,-7.4 -2.7,5.5 4.4,22.6 10.8,27.7 -4.7,-1.4 -29.5,-8.5 -33.5,0.7 -4.4,10.1 19.8,47 22.6,53.9 -11.2,-11.1 -41.7,-35.9 -46,-33 -4.3,2.8 -3.3,16.7 -2.1,23.7 -4.2,-5.1 -11.4,-13.3 -17.6,-10.8 -6.2,2.5 -5.5,26.2 -5.9,36.3 -5.1,-11.9 -13.5,-35.8 -21.3,-35 -7.8,0.9 -16.5,17.2 -18.1,23.4 -1.2,-6.2 -6.3,-19.9 -13.9,-19.9 -7.7,0 -25.5,36.3 -30.9,48.1 0,-9.1 2.2,-53.6 -2.7,-55.8 -4.8,-2.2 -21.2,7.9 -24.7,12.6 1.3,-5.8 2.4,-25.6 -1.9,-28 -4.4,-2.4 -16.8,-3.1 -39.2,17.6 3.7,-8 9.9,-16.6 11.4,-25 9.3,-0.5 18.5,-1.5 27.8,-3.3 20.3,14.7 45.1,23.3 72.1,23.3 68,0 123.1,-55.1 123.1,-123.1 0,-5.3 -0.3,-10.6 -1,-15.7 4.6,-4.3 8.9,-8.4 13,-12.3 -0.9,2.2 -1.5,4.9 -1.4,8.2 0.2,10 27.1,12.3 41.4,13.4 m 34.4,-94.4 c -4.4,-6.9 -46,6.9 -57.8,11.7 -3.2,1.3 -23,10.2 -43.2,21.8 -13.7,7.8 -27.6,16.8 -36.6,25.5 -17.5,16.4 -23.5,35.5 -40.9,61.7 l -0.4,0.7 c 58.5,-44.4 103.8,-95.8 150.5,-112.2 1.5,-0.5 2.9,-1 4.3,-1.5 0.1,0 0.1,0 0.2,-0.1 15.9,-5.4 22.3,-6.2 22.8,-3.2 0.2,1.3 -0.8,3.2 -1.2,4 0,0 -0.8,1.1 -3.3,3.4 -2.6,2.2 -6.9,5.6 -14.1,10 -6.9,4.2 -26,17.2 -40.7,30.7 -0.5,0.5 -39.8,37.6 -40.8,38.5 -0.1,0.3 -5.2,19.3 -17.4,44 -8.5,17.3 -21.3,28.1 -25.8,30.6 -0.3,0.1 -2.9,1.8 -4.7,0.7 -0.9,-0.6 -1.3,-1.7 -1.3,-2.9 0,-2.1 4.6,-13.1 6.5,-36.3 0,0 -12.7,9.4 -19.9,14.2 -4,2.7 -22.5,14.2 -33.7,20.3 -9.5,5.2 -29.4,14.6 -29.5,14.6 -10.4,8.7 -18.5,12.8 -20.7,12.3 -1.3,-0.3 -1.8,-1.9 -1.8,-2 -0.1,-0.5 -0.2,-0.8 -0.2,-0.8 -37.7,14.7 -68.5,14.1 -68.6,14.1 -51.9,2.5 -92.8,-18.7 -92.8,-18.7 -0.1,0 -0.4,0 -0.8,0 -4.9,0 -29,-0.4 -44.8,-7.7 -17.3,-8 -27.3,-20.6 -31.6,-30.1 -3.2,-7.1 -3.4,-9.3 -2.4,-10.2 0.3,-0.3 0.8,-0.5 1.4,-0.7 2.2,-0.6 3.6,2.1 5.6,3.7 1.9,1.6 6.8,6 15.8,7.6 9,1.7 25.7,4.4 38.3,12.4 10.4,6.2 36.3,27.4 82.3,9.4 21.2,-8.3 40.2,-24.9 68.3,-52.8 4.6,-4.5 9.1,-9.3 13.7,-14.2 -0.7,-3.3 -2.5,-9.3 -6.4,-11.8 -6.2,-3.9 -15.5,-4 -21.7,-3.6 -6.2,0.5 -9.4,1.3 -11.5,-0.4 -0.8,-0.6 -0.9,-1.6 -0.7,-2.5 0.2,-0.9 0.6,-1.8 1.1,-2.6 0.1,-0.2 0.3,-0.4 0.4,-0.6 1,-1.4 1.8,-2.2 2.8,-3.1 3.2,-3 14.8,-10.8 39.6,-14 15.8,-2.1 21.3,-1.7 28.9,-3.2 3.3,-0.6 6.9,-1.5 11.5,-2.9 6.8,-6.1 14,-12.2 21.9,-18.2 7.9,-6 16.4,-11.9 25.7,-17.5 50,-30.4 90.7,-29.4 125.1,-20.5 0,0 18.8,-6.8 28.2,-7.7 9.1,-0.9 18.5,2.2 20.4,10.1"
           id="path2611" />
      </g>
      <rect
         y="164.70831"
         x="0"
         height="132.29167"
         width="132.29167"
         id="rect2120"
         style="opacity:1;fill:none;fill-opacity:1;stroke:none;stroke-width:10.58333302;stroke-linejoin:round;stroke-miterlimit:4;stroke-dasharray:none;stroke-opacity:1;paint-order:stroke fill markers" />
    </g>
  </g>
</svg>
