<?xml version="1.0" encoding="UTF-8" standalone="no"?>
<!-- Created with Inkscape (http://www.inkscape.org/) -->

<svg
   xmlns:dc="http://purl.org/dc/elements/1.1/"
   xmlns:cc="http://creativecommons.org/ns#"
   xmlns:rdf="http://www.w3.org/1999/02/22-rdf-syntax-ns#"
   xmlns:svg="http://www.w3.org/2000/svg"
   xmlns="http://www.w3.org/2000/svg"
   xmlns:sodipodi="http://sodipodi.sourceforge.net/DTD/sodipodi-0.dtd"
   xmlns:inkscape="http://www.inkscape.org/namespaces/inkscape"
   width="500"
   height="500"
   viewBox="0 0 132.29166 132.29167"
   version="1.1"
   id="svg975"
   inkscape:version="0.92.4 (5da689c313, 2019-01-14)"
   sodipodi:docname="NO.svg">
  <defs
     id="defs969" />
  <sodipodi:namedview
     id="base"
     pagecolor="#ffffff"
     bordercolor="#666666"
     borderopacity="1.0"
     inkscape:pageopacity="0.0"
     inkscape:pageshadow="2"
     inkscape:zoom="0.56895488"
     inkscape:cx="37.679845"
     inkscape:cy="208.41643"
     inkscape:document-units="mm"
     inkscape:current-layer="layer1"
     showgrid="false"
     units="px"
     inkscape:snap-bbox="true"
     inkscape:bbox-nodes="true"
     inkscape:snap-bbox-edge-midpoints="true"
     inkscape:snap-bbox-midpoints="true"
     inkscape:bbox-paths="true"
     inkscape:snap-page="true"
     inkscape:window-width="1600"
     inkscape:window-height="837"
     inkscape:window-x="-8"
     inkscape:window-y="-8"
     inkscape:window-maximized="1"
     inkscape:object-paths="true"
     inkscape:snap-intersection-paths="true"
     inkscape:object-nodes="true"
     inkscape:snap-midpoints="true"
     inkscape:snap-smooth-nodes="true"
     showguides="false"
     inkscape:snap-nodes="false" />
  <metadata
     id="metadata972">
    <rdf:RDF>
      <cc:Work
         rdf:about="">
        <dc:format>image/svg+xml</dc:format>
        <dc:type
           rdf:resource="http://purl.org/dc/dcmitype/StillImage" />
        <dc:title></dc:title>
      </cc:Work>
    </rdf:RDF>
  </metadata>
  <g
     inkscape:label="Layer 1"
     inkscape:groupmode="layer"
     id="layer1"
     transform="translate(0,-164.70832)">
    <g
       id="g2819">
      <g
         transform="matrix(1.2483178,0,0,1.2483178,102.95545,-69.05036)"
         id="g2805">
        <path
           id="path2766"
           d="m 4.8999893,229.23219 c -7.8054728,-4.53046 -15.4884433,-3.48218 -21.3150973,-0.88927 -0.257175,-1.91346 -0.756973,-4.01399 -1.591469,-6.47197 -1.235604,-3.65575 -2.590006,-7.14931 -3.783277,-10.23276 -1.569244,-4.04945 -2.763573,-7.51919 -3.418946,-9.84012 l -4.246562,-14.53912 -4.408752,14.54865 c -0.673365,2.31113 -1.835944,5.79913 -3.396721,9.85255 -1.186656,3.08557 -2.531533,6.5831 -3.759465,10.23858 -0.824971,2.46169 -1.32371,4.56406 -1.575064,6.48044 -5.833269,-2.58154 -13.519944,-3.61447 -21.315098,0.93319 -6.372489,3.72268 -9.784556,10.19069 -8.906933,16.88306 0.800894,6.08859 4.969139,10.87199 10.874375,12.49336 l 4.398168,1.2065 1.076325,-4.42595 c 0.154517,-0.60087 1.740959,-6.1423 6.737086,-6.0415 3.465777,0.072 6.342591,3.13161 7.78166,5.11017 -0.465137,1.39911 -0.712787,3.07578 -0.475721,4.88209 l -1.956858,-2.60641 -3.538802,2.63498 c -3.186642,2.37067 -7.814204,8.23013 -4.954588,15.14581 1.246982,3.01546 3.928269,5.06995 7.548563,5.79067 2.214033,0.43974 4.729162,0.33735 7.060141,-0.17436 0.917046,2.94085 2.588948,6.4987 5.630069,9.67608 l 3.207808,3.34804 3.197225,-3.35571 c 3.035036,-3.18506 4.696619,-6.74873 5.610754,-9.69063 2.332038,0.50297 4.845315,0.60087 7.059348,0.15531 3.6184419,-0.72628 6.2939086,-2.78845 7.535069,-5.80681 2.8442708,-6.92309 -1.8004896,-12.77223 -4.990042,-15.13523 l -3.545416,-2.62466 -1.950244,2.60932 c 0.234156,-1.80631 -0.01932,-3.48113 -0.487362,-4.88315 1.435099,-1.97962 4.304241,-5.04693 7.7692244,-5.12551 4.9969208,-0.11219 6.5939458,5.42554 6.7608978,6.0579 l 1.0850563,4.4241 c -0.00661,-0.0336 4.3875853,-1.24963 4.3875853,-1.24963 5.9044416,-1.63275 10.0578712,-6.42885 10.8444772,-12.52114 0.862277,-6.69026 -2.565929,-13.15165 -8.9471501,-16.85714"
           inkscape:connector-curvature="0"
           style="fill:#000000;stroke-width:0.26458332" />
        <path
           id="path2768"
           d="m -30.919037,202.42963 c -0.538163,2.53154 -1.925373,6.13463 -3.531923,10.30949 -1.177131,3.05673 -2.509573,6.52066 -3.715279,10.11396 -1.156759,3.45255 -1.628775,6.02536 -1.628775,8.4246 0,0.76756 0.08837,1.51792 0.178329,2.27198 -4.448175,-3.05091 -13.213027,-7.22207 -22.772158,-1.64148 -5.309658,3.10171 -8.161602,8.42381 -7.444052,13.89433 0.638969,4.86596 3.967427,8.69501 8.688123,9.99041 l 1.400439,0.38338 0.348192,-1.41235 c 0.08731,-0.34581 2.189956,-8.49074 9.725025,-8.3394 6.064514,0.12171 10.028237,6.01107 11.098741,7.82108 -0.509323,0.94086 -0.932391,2.23838 -0.932391,3.72745 0,1.5965 0.543983,3.41233 1.931987,5.23293 -0.553508,0.7493 -1.459971,1.6682 -2.518039,1.75551 -1.508919,0.12356 -3.036094,-1.46314 -4.051036,-2.81808 l -0.846931,-1.12871 -1.132946,0.84429 c -2.317485,1.72587 -6.133571,6.36746 -3.974306,11.58875 0.864394,2.08703 2.715683,3.46577 5.354637,3.98991 2.728119,0.54055 6.171936,0.0489 8.618009,-1.06468 0.473868,2.75669 1.815835,7.42236 5.661554,11.43635 l 1.026318,1.07236 1.023673,-1.07421 c 3.836194,-4.02537 5.167577,-8.695 5.634832,-11.45355 2.450041,1.10781 5.89862,1.59253 8.626739,1.04246 2.634192,-0.52996 4.481777,-1.91453 5.3392916,-4.00156 2.1439187,-5.22526 -1.6777226,-9.85917 -3.9991766,-11.57922 l -1.13374,-0.84032 -0.845079,1.13268 c -1.01309,1.35493 -2.537354,2.94746 -4.047067,2.82575 -1.05701,-0.0863 -1.965589,-1.00145 -2.52095,-1.74784 1.378479,-1.81768 1.918494,-3.62691 1.918494,-5.21943 0,-1.49781 -0.426773,-2.79982 -0.941123,-3.74386 1.0668,-1.81107 5.018881,-7.71366 11.0804853,-7.84886 7.5340104,-0.16854 9.65782074,7.97242 9.74433949,8.31929 l 0.35216041,1.40679 1.4004396,-0.38338 c 4.7156687,-1.30598 8.0359252,-5.14085 8.6632522,-10.00866 0.705908,-5.47237 -2.1574127,-10.78971 -7.4736856,-13.87792 -9.5784457,-5.5634 -18.3393294,-1.36261 -22.7769204,1.69995 0.08255,-0.73396 0.167746,-1.46236 0.167746,-2.2106 0,-2.42517 -0.469107,-5.04031 -1.635654,-8.48889 -1.21338,-3.58669 -2.553494,-7.0448 -3.736446,-10.09676 -1.617398,-4.17222 -3.012017,-7.77505 -3.556,-10.30658 l -1.392767,-6.49103 -1.376627,6.49394"
           inkscape:connector-curvature="0"
           style="fill:#ffffff;stroke-width:0.26458332" />
        <path
           id="path2770"
           d="m -29.429433,286.83092 c 5.424752,-5.69198 5.489839,-12.87092 5.489839,-12.87092 2.400036,2.38972 11.727127,3.98806 13.818394,-1.10199 2.2936728,-5.58826 -3.531923,-9.906 -3.531923,-9.906 -5.646208,7.56047 -9.434512,0.16087 -9.434512,0.16087 4.299479,-4.64159 1.073414,-8.82624 1.073414,-8.82624 0.280988,-0.84031 5.049573,-9.1559 12.6843897,-9.3263 8.79951235,-0.19843 11.1505998,9.39351 11.1505998,9.39351 9.2273435,-2.55456 11.0095765,-15.40431 0.8556625,-21.30028 -12.884944,-7.48374 -24.111214,3.91715 -24.111214,3.91715 1.044575,-4.26693 1.341966,-7.45596 -0.764646,-13.68716 -2.855648,-8.44867 -6.356085,-15.9975 -7.334515,-20.55971 -0.969697,4.563 -4.454789,12.12453 -7.289535,20.57876 -2.090208,6.23702 -1.783292,9.42605 -0.732896,13.68928 0,0 -11.2522,-11.37312 -24.118887,-3.8608 -10.141479,5.92084 -8.328289,18.76398 0.90461,21.29737 0,0 2.328069,-9.5967 11.128375,-9.41732 7.636669,0.15135 12.422452,8.45529 12.705556,9.29376 0,0 -3.216539,4.19417 1.094582,8.82438 0,0 -3.772694,7.41177 -9.433454,-0.13599 0,0 -5.819775,4.33017 -3.511021,9.91288 2.10476,5.08529 11.425766,3.46498 13.820245,1.06944 0,0 0.08255,7.17894 5.517621,12.85743"
           inkscape:connector-curvature="0"
           style="fill:#000000;stroke-width:0.26458332" />
        <path
           id="path2772"
           d="m -6.3482418,232.65193 c -10.4857022,0.0106 -19.0838662,11.90598 -19.0838662,11.90598 0.373062,-1.94627 4.855898,-10.70345 0.799041,-21.1701 -4.056856,-10.46586 -4.884737,-14.682 -4.884737,-14.682 l -0.01931,0.11986 v -0.11695 c 0,0 -0.820208,4.2172 -4.851929,14.69443 -4.032779,10.47618 0.472017,19.22383 0.84799,21.16614 0,0 -8.625681,-11.87344 -19.111648,-11.85995 -10.48385,0.0114 -19.213247,11.93086 -9.524471,18.9701 0,0 2.83554,-8.79449 12.607661,-8.81274 7.186877,-0.0154 14.387247,7.68588 14.692312,11.50249 0,0 -3.290358,4.64079 1.284552,8.52435 0,0 -4.942152,10.38516 -11.794331,2.90433 0,0 -5.269177,6.58495 1.621102,8.17933 5.466821,1.26285 10.851356,-4.27646 10.851356,-4.27646 0,0 -0.58711,8.75056 3.462073,13.53291 v -0.0431 l 0.02011,0.0413 c 4.0386,-4.79107 3.430323,-13.54269 3.430323,-13.54269 0,0 5.397765,5.52794 10.864586,4.25079 6.8855162,-1.60972 1.599935,-8.1833 1.599935,-8.1833 -6.832865,7.49618 -11.797242,-2.87575 -11.797242,-2.87575 4.562211,-3.8952 1.260475,-8.52726 1.260475,-8.52726 0.29554,-3.8137 7.475538,-11.53424 14.6653252,-11.5361 9.77397284,0 12.6298853,8.78496 12.6298853,8.78496 9.6723725,-7.0612 0.9141354,-18.96427 -9.5697145,-18.95078"
           inkscape:connector-curvature="0"
           style="fill:#d3bc8d;stroke-width:0.26458332" />
      </g>
      <rect
         y="164.70831"
         x="0"
         height="132.29167"
         width="132.29167"
         id="rect2120"
         style="opacity:1;fill:none;fill-opacity:1;stroke:none;stroke-width:10.58333302;stroke-linejoin:round;stroke-miterlimit:4;stroke-dasharray:none;stroke-opacity:1;paint-order:stroke fill markers" />
    </g>
  </g>
</svg>
