<?xml version="1.0" encoding="UTF-8" standalone="no"?>
<!-- Created with Inkscape (http://www.inkscape.org/) -->

<svg
   xmlns:dc="http://purl.org/dc/elements/1.1/"
   xmlns:cc="http://creativecommons.org/ns#"
   xmlns:rdf="http://www.w3.org/1999/02/22-rdf-syntax-ns#"
   xmlns:svg="http://www.w3.org/2000/svg"
   xmlns="http://www.w3.org/2000/svg"
   xmlns:sodipodi="http://sodipodi.sourceforge.net/DTD/sodipodi-0.dtd"
   xmlns:inkscape="http://www.inkscape.org/namespaces/inkscape"
   width="500"
   height="500"
   viewBox="0 0 132.29166 132.29167"
   version="1.1"
   id="svg975"
   inkscape:version="0.92.4 (5da689c313, 2019-01-14)"
   sodipodi:docname="NYG.svg">
  <defs
     id="defs969" />
  <sodipodi:namedview
     id="base"
     pagecolor="#ffffff"
     bordercolor="#666666"
     borderopacity="1.0"
     inkscape:pageopacity="0.0"
     inkscape:pageshadow="2"
     inkscape:zoom="0.56895488"
     inkscape:cx="37.679845"
     inkscape:cy="208.41643"
     inkscape:document-units="mm"
     inkscape:current-layer="layer1"
     showgrid="false"
     units="px"
     inkscape:snap-bbox="true"
     inkscape:bbox-nodes="true"
     inkscape:snap-bbox-edge-midpoints="true"
     inkscape:snap-bbox-midpoints="true"
     inkscape:bbox-paths="true"
     inkscape:snap-page="true"
     inkscape:window-width="1600"
     inkscape:window-height="837"
     inkscape:window-x="-8"
     inkscape:window-y="-8"
     inkscape:window-maximized="1"
     inkscape:object-paths="true"
     inkscape:snap-intersection-paths="true"
     inkscape:object-nodes="true"
     inkscape:snap-midpoints="true"
     inkscape:snap-smooth-nodes="true"
     showguides="false"
     inkscape:snap-nodes="false" />
  <metadata
     id="metadata972">
    <rdf:RDF>
      <cc:Work
         rdf:about="">
        <dc:format>image/svg+xml</dc:format>
        <dc:type
           rdf:resource="http://purl.org/dc/dcmitype/StillImage" />
        <dc:title></dc:title>
      </cc:Work>
    </rdf:RDF>
  </metadata>
  <g
     inkscape:label="Layer 1"
     inkscape:groupmode="layer"
     id="layer1"
     transform="translate(0,-164.70832)">
    <g
       id="g2867">
      <g
         transform="matrix(1.2844563,0,0,1.2844563,171.39711,-54.620517)"
         id="g2855">
        <path
           id="path2827"
           d="m -30.450136,245.19166 c 0.0016,0.13203 0.005,3.41445 0.005,3.54463 0,8.9236 -6.01689,11.74697 -8.647377,12.5513 -1.921669,0.54372 -4.208727,0.81809 -6.637867,0.94324 h -79.8282 V 245.8264 l 73.650471,0.003 c 1.999456,-0.0492 3.258079,-0.69956 3.829844,-1.93754 0.230187,-0.65035 0.292629,-1.17211 0.292629,-2.00687 v -3.5007 c -1.175544,0.78422 -3.261519,1.44118 -3.261519,1.44118 -4.51485,1.59544 -12.879916,0.34555 -16.325585,-2.38469 -3.425561,-1.94759 -6.121929,-6.10208 -6.402652,-10.64445 v -27.58731 c 0,-1.18374 -0.957527,-2.14418 -2.136511,-2.14418 h -4.393141 v -14.10785 h 23.8125 l -0.02381,37.65735 c -0.0069,2.25081 2.002896,4.0648 4.376208,4.0648 0.8255,0 1.591734,-0.22199 2.249752,-0.60114 1.135063,-0.65193 1.930136,-1.77667 2.097617,-3.0943 0.01535,-0.16589 0.0254,-0.33205 0.03043,-0.50138 0.02381,-0.42678 0.03201,-0.86202 0.03201,-1.29911 v -36.22622 h 17.235752 l 0.04392,62.23344 z m -50.698929,-19.48497 h 3.657335 l 0.333375,0.002 v 13.571 h -15.792714 c -3.126052,0 -5.78194,-1.97802 -6.813815,-4.75218 -0.294216,-0.78925 -0.460106,-1.63935 -0.460106,-2.53365 V 201.4038 c -0.0524,-2.20689 -1.92855,-3.98172 -4.23916,-3.98172 -2.34632,0 -4.24762,1.82245 -4.24762,4.06797 h -0.002 l -0.003,0.3945 v 37.50336 h -16.8349 v -40.13676 c 0,-1.18216 -0.95409,-2.14419 -2.1381,-2.14419 h -5.74966 l 0.005,-14.14832 h 24.70918 v 2.69292 c 4.01928,-3.07551 9.931397,-4.17142 15.425735,-2.78103 3.472921,0.9062 6.050756,2.52174 8.082491,5.48561 0.972609,1.42266 1.456532,2.86041 1.7018,3.97483 0.143669,0.65379 0.202936,1.19565 0.224896,1.5531 v 12.22958 l -0.0034,3.23638 c 0,0 0.0034,0.77047 0.0034,2.01533 v 10.29044 c 0,0.51488 0,1.02632 -0.0034,1.52426 l 0.0034,0.0897 v 0.29633 c 0,1.18375 0.960702,2.14074 2.141538,2.14074 z"
           inkscape:connector-curvature="0"
           style="fill:#a71930;stroke-width:0.26458332" />
        <path
           id="path2829"
           d="m -66.200371,235.37218 c -2.882371,-1.63936 -4.966494,-5.12498 -5.196682,-8.68151 v -27.48041 c 0,-2.49291 -2.024856,-4.52359 -4.51485,-4.52359 h -2.016389 v -9.34693 h 19.057673 c -0.0034,4.17803 -0.0254,35.28986 -0.0254,35.29647 0,1.63936 0.661458,3.20437 1.853935,4.40505 1.278731,1.2872 3.065198,2.02036 4.9022,2.02036 1.204383,0 2.391833,-0.31671 3.434027,-0.91625 1.794669,-1.03637 3.019425,-2.8538 3.269985,-4.8641 l 0.01005,-0.0677 0.04048,-0.6096 0.03201,-1.41923 v -33.84523 h 12.485688 c 0.0034,4.4016 0.04233,63.39681 0.04233,63.39681 0,7.08104 -4.364302,9.47922 -6.964362,10.27853 -1.689894,0.47413 -3.789098,0.71967 -6.022182,0.83661 -0.155575,0 -72.907782,0.008 -77.372102,0 v -11.64008 h 71.275573 c 3.731684,-0.0915 5.309923,-1.85446 5.986463,-3.31602 l 0.0508,-0.10663 0.03545,-0.10848 c 0.355335,-1.00938 0.424656,-1.82059 0.424656,-2.79452 v -7.95999 l -3.699404,2.47782 c -0.641085,0.43365 -1.967442,0.93662 -2.655887,1.15517 l -0.07276,0.022 c -3.719777,1.31921 -11.213571,0.24739 -14.060487,-2.00686 l -0.140494,-0.11007 -0.160602,-0.0916 z m -19.465131,-11.80623 c 0,2.4929 2.026443,4.52358 4.516437,4.52358 h 1.610519 v 8.8085 h -13.412788 c -2.031735,0 -3.872177,-1.28534 -4.58417,-3.20092 -0.207963,-0.55563 -0.313002,-1.13136 -0.313002,-1.70366 v -30.59006 c -0.07937,-3.53113 -3.046674,-6.36112 -6.615904,-6.36112 -3.65205,0 -6.62252,2.89269 -6.62596,6.44764 -0.002,-0.0154 -0.003,0.381 -0.003,0.381 v 35.1356 h -12.08141 v -37.75577 c 0,-2.49476 -2.02327,-4.52358 -4.51485,-4.52358 h -3.37132 l 0.002,-9.38768 h 19.95911 v 5.13159 l 3.81952,-2.92814 c 3.48457,-2.66568 8.618805,-3.57532 13.399032,-2.36432 3.068638,0.80116 5.08,2.15609 6.702161,4.52543 0.641085,0.93319 1.091141,1.98835 1.343025,3.13822 0,0 0.153987,1.06019 0.17092,1.16682 v 12.10416 l -0.0034,3.23135 0.0034,2.02565 v 10.28541 l -0.0034,1.57163 0.0034,0.1016 v 0.23707 z"
           inkscape:connector-curvature="0"
           style="fill:#ffffff;stroke-width:0.26458332" />
      </g>
      <rect
         y="164.70831"
         x="0"
         height="132.29167"
         width="132.29167"
         id="rect2120"
         style="opacity:1;fill:none;fill-opacity:1;stroke:none;stroke-width:10.58333302;stroke-linejoin:round;stroke-miterlimit:4;stroke-dasharray:none;stroke-opacity:1;paint-order:stroke fill markers" />
    </g>
  </g>
</svg>
