<?xml version="1.0" encoding="UTF-8" standalone="no"?>
<!-- Created with Inkscape (http://www.inkscape.org/) -->

<svg
   xmlns:dc="http://purl.org/dc/elements/1.1/"
   xmlns:cc="http://creativecommons.org/ns#"
   xmlns:rdf="http://www.w3.org/1999/02/22-rdf-syntax-ns#"
   xmlns:svg="http://www.w3.org/2000/svg"
   xmlns="http://www.w3.org/2000/svg"
   xmlns:sodipodi="http://sodipodi.sourceforge.net/DTD/sodipodi-0.dtd"
   xmlns:inkscape="http://www.inkscape.org/namespaces/inkscape"
   width="500"
   height="500"
   viewBox="0 0 132.29166 132.29167"
   version="1.1"
   id="svg975"
   inkscape:version="0.92.4 (5da689c313, 2019-01-14)"
   sodipodi:docname="NYJ.svg">
  <defs
     id="defs969">
	
	
	
	
	
	

		
		
	</defs>
  <sodipodi:namedview
     id="base"
     pagecolor="#ffffff"
     bordercolor="#666666"
     borderopacity="1.0"
     inkscape:pageopacity="0.0"
     inkscape:pageshadow="2"
     inkscape:zoom="0.56895488"
     inkscape:cx="37.679845"
     inkscape:cy="208.41643"
     inkscape:document-units="mm"
     inkscape:current-layer="layer1"
     showgrid="false"
     units="px"
     inkscape:snap-bbox="true"
     inkscape:bbox-nodes="true"
     inkscape:snap-bbox-edge-midpoints="true"
     inkscape:snap-bbox-midpoints="true"
     inkscape:bbox-paths="true"
     inkscape:snap-page="true"
     inkscape:window-width="1600"
     inkscape:window-height="837"
     inkscape:window-x="-8"
     inkscape:window-y="-8"
     inkscape:window-maximized="1"
     inkscape:object-paths="true"
     inkscape:snap-intersection-paths="true"
     inkscape:object-nodes="true"
     inkscape:snap-midpoints="true"
     inkscape:snap-smooth-nodes="true"
     showguides="false"
     inkscape:snap-nodes="false" />
  <metadata
     id="metadata972">
    <rdf:RDF>
      <cc:Work
         rdf:about="">
        <dc:format>image/svg+xml</dc:format>
        <dc:type
           rdf:resource="http://purl.org/dc/dcmitype/StillImage" />
        <dc:title></dc:title>
      </cc:Work>
    </rdf:RDF>
  </metadata>
  <g
     inkscape:label="Layer 1"
     inkscape:groupmode="layer"
     id="layer1"
     transform="translate(0,-164.70832)">
    <g
       id="g2940">
      <g
         transform="matrix(2.6315783,0,0,2.6315783,9.8679102e-7,-242.06731)"
         id="g2923">
        <path
           style="fill:#125740;stroke-width:0.26458332"
           inkscape:connector-curvature="0"
           class="st0"
           d="m 26.220208,184.86957 c -0.105833,0 -0.185208,0 -0.291042,0 -0.02646,0.0265 -0.05292,0.0529 -0.07937,0.0794 0.02646,0.50271 0.02646,1.00542 0,1.50813 0.02646,0.0265 0.05292,0.0529 0.07937,0.0794 0.105834,0 0.185209,0 0.291042,0 0.02646,-0.0265 0.05292,-0.0529 0.07937,-0.0794 0.05292,-0.50271 0.05292,-1.00542 0,-1.50813 -0.02646,-0.0265 -0.05292,-0.0529 -0.07937,-0.0794 z"
           id="path2871" />
        <path
           style="fill:#125740;stroke-width:0.26458332"
           inkscape:connector-curvature="0"
           class="st0"
           d="m 24.4475,184.86957 c -0.105834,0 -0.185209,0 -0.291042,0 -0.02646,0.0265 -0.05292,0.0529 -0.07938,0.0794 -0.05292,0.50271 -0.05292,1.00542 0,1.50813 0.02646,0.0265 0.05292,0.0529 0.07938,0.0794 0.105833,0 0.185208,0 0.291042,0 0.02646,-0.0265 0.05292,-0.0529 0.07937,-0.0794 -0.02646,-0.50271 -0.02646,-1.00542 0,-1.50813 -0.05292,-0.0265 -0.07937,-0.0529 -0.07937,-0.0794 z"
           id="path2873" />
        <path
           style="fill:#125740;stroke-width:0.26458332"
           inkscape:connector-curvature="0"
           class="st0"
           d="m 25.320625,184.86957 c -0.105834,0 -0.185209,0 -0.291042,0 -0.02646,0.0265 -0.05292,0.0529 -0.07937,0.0794 0,0.50271 0,1.00542 0,1.50813 0.02646,0.0265 0.05292,0.0529 0.07937,0.0794 0.105833,0 0.185208,0 0.291042,0 0.02646,-0.0265 0.05292,-0.0529 0.07937,-0.0794 0,-0.50271 0,-1.00542 0,-1.50813 -0.02646,-0.0265 -0.05292,-0.0529 -0.07937,-0.0794 z"
           id="path2875" />
        <path
           style="fill:#125740;stroke-width:0.26458332"
           inkscape:connector-curvature="0"
           class="st0"
           d="m 29.342291,174.41853 c 0.07937,0 0.15875,-0.0265 0.238125,-0.0794 0.05292,-0.0529 0.105834,-0.13229 0.15875,-0.23812 l 0.3175,-0.60855 c 0.05292,-0.0794 0.07937,-0.15875 0.07937,-0.21166 0,-0.10584 -0.05292,-0.15875 -0.185208,-0.15875 -0.07937,0 -0.15875,0.0265 -0.211667,0.0794 -0.05292,0.0529 -0.105833,0.13229 -0.185208,0.23813 l -0.3175,0.60854 c -0.05292,0.0794 -0.07937,0.15875 -0.07937,0.21167 0,0.10583 0.07937,0.15875 0.185208,0.15875 z"
           id="path2877" />
        <path
           style="fill:#125740;stroke-width:0.26458332"
           inkscape:connector-curvature="0"
           class="st0"
           d="m 43.047708,179.18103 h -3.201459 c 0.07937,-0.15875 0.132292,-0.29105 0.132292,-0.47625 0,-0.23813 -0.264583,-0.39688 -0.740833,-0.39688 -0.582084,0 -0.873125,0.23813 -0.873125,0.50271 0,0.23812 0.264583,0.3175 1.640416,0.635 1.375834,0.3175 1.878542,0.635 1.878542,1.37583 0,0.60854 -0.264583,1.24354 -0.79375,1.77271 -0.661458,0.66146 -1.666875,1.08479 -4.101042,1.08479 -2.910416,0 -3.757083,-0.47625 -3.757083,-1.48166 0,-0.29105 0.05292,-0.60855 0.238125,-0.92605 h 3.254375 c -0.105833,0.18521 -0.132292,0.34396 -0.132292,0.52917 0,0.26458 0.238125,0.42333 0.740834,0.42333 0.555625,0 0.873125,-0.21166 0.873125,-0.55562 0,-0.3175 -0.291042,-0.39688 -1.74625,-0.76729 -1.375833,-0.34396 -1.772708,-0.60854 -1.772708,-1.34938 0,-0.50271 0.264583,-1.11125 0.767291,-1.61396 0.714375,-0.71437 1.719792,-1.08479 4.101042,-1.08479 2.645833,0 3.624791,0.42334 3.624791,1.42875 0.05292,0.3175 0,0.58209 -0.132291,0.89959 z m -13.149792,4.1275 c -0.3175,-0.23813 -0.687916,-0.4498 -1.11125,-0.68792 -0.79375,-0.42333 -1.5875,-0.635 -2.248958,-0.74083 L 28.2575,178.6254 h -2.196042 l 0.873125,-1.66687 H 35.2425 l -0.873125,1.66687 H 32.385 Z m -3.122083,3.14854 c 0.02646,0.0265 0.05292,0.0529 0.05292,0.0794 0.105833,0 0.185208,0 0.291041,0 0.02646,-0.0265 0.05292,-0.0529 0.105834,-0.0794 0.02646,-0.15875 0.05292,-0.3175 0.07937,-0.44979 0.291041,0 0.582083,0 0.873125,-0.0265 0.9525,-0.0265 1.878541,-0.0529 2.831041,-0.13229 l 0.15875,0.1852 v 0 0 c -0.211666,0.71438 -1.11125,1.5875 -2.513541,2.32834 -1.27,0.66146 -2.725209,0.84666 -3.439584,0.84666 0,0 0,0 -0.02646,0 0,0 0,0 0,0 0,0 0,0 0,0 v 0 c -0.714375,0 -2.169583,-0.1852 -3.439583,-0.84666 -1.402292,-0.74084 -2.301875,-1.5875 -2.513542,-2.32834 l 0.15875,-0.1852 c 0.9525,0.0529 1.878542,0.10583 2.831042,0.13229 0.3175,0 0.661458,0.0265 0.978958,0.0265 0,0.15875 0.02646,0.29104 0.07937,0.44979 0.02646,0.0265 0.05292,0.0529 0.105833,0.0794 0.105834,0 0.185209,0 0.291042,0 0.02646,-0.0265 0.05292,-0.0529 0.05292,-0.0794 -0.07938,-0.50271 -0.07938,-0.97896 0,-1.48167 -0.02646,-0.0265 -0.05292,-0.0529 -0.05292,-0.0794 -0.105833,0 -0.185208,0 -0.291042,0 -0.02646,0.0265 -0.05292,0.0529 -0.105833,0.0794 -0.02646,0.15875 -0.05292,0.29104 -0.07937,0.44979 -0.3175,0 -0.661458,0 -0.978958,0.0265 -0.9525,0.0265 -1.878542,0.0529 -2.831042,0.13229 l -0.15875,-0.21166 c 0,-0.0265 0,-0.0265 0,-0.0529 0.211667,-0.71438 1.11125,-1.5875 2.513542,-2.32833 1.27,-0.68792 2.725208,-0.84667 3.439583,-0.84667 0,0 0,0 0,0 0,0 0,0 0,0 0,0 0,0 0.02646,0 0.740834,0 2.169584,0.18521 3.439584,0.84667 1.402291,0.74083 2.301875,1.61395 2.513541,2.32833 0,0.0265 0,0.0529 0,0.0794 l -0.15875,0.21167 c -0.9525,-0.0529 -1.878541,-0.10583 -2.831041,-0.13229 -0.291042,0 -0.582084,-0.0265 -0.873125,-0.0265 0,-0.15875 -0.02646,-0.3175 -0.07937,-0.44979 -0.02646,-0.0265 -0.05292,-0.0529 -0.105834,-0.0794 -0.105833,0 -0.185208,0 -0.291041,0 -0.02646,0.0265 -0.05292,0.0529 -0.05292,0.0794 0.07938,0.44979 0.07938,0.9525 0,1.45521 z m -7.62,-0.44979 c 0,0 0,0 0,0 v 0 c 0,0 0,0 0,0 z m -0.608542,-9.0223 h 7.725834 L 25.4,178.6254 h -3.96875 l -0.449792,0.79375 h 3.995208 L 24.13,181.00665 h -3.96875 l -0.449792,0.82021 H 23.8125 l -0.02646,0.0265 c -0.661458,0.10583 -1.508125,0.34396 -2.301875,0.76729 -0.502708,0.26458 -0.9525,0.55562 -1.322916,0.84667 h -5.08 z m -7.77875,6.6675 c -2.6458328,0 -3.7306245,-0.635 -3.7306245,-1.82562 0,-0.60854 0.15875,-1.03188 0.5027084,-1.69333 l 0.4233333,-0.79375 h 3.4131248 l -0.846667,1.61395 c -0.105833,0.21167 -0.185208,0.42334 -0.185208,0.58209 0,0.23812 0.105833,0.39687 0.423333,0.39687 0.449792,0 0.661459,-0.29104 0.9525,-0.84666 l 2.169584,-4.15396 h 3.995208 l -1.825625,3.46604 c -0.529167,0.97896 -0.846667,1.50812 -1.349375,2.03729 -0.767292,0.82021 -2.037292,1.21708 -3.942292,1.21708 z m 1.217084,-11.08604 h 1.322916 l 0.238125,1.03188 0.529167,-1.03188 H 15.24 l -1.27,2.38125 H 12.7 l -0.238125,-1.11125 -0.582084,1.11125 h -1.164166 z m 6.641041,0 -0.3175,0.60854 h -1.455208 l -0.185208,0.29105 h 1.349375 l -0.291042,0.58208 h -1.349375 l -0.15875,0.29104 h 1.508125 l -0.3175,0.60854 h -2.910417 l 1.27,-2.38125 z m 1.640417,0 -0.291042,1.11125 0.820209,-1.11125 h 1.349375 l -0.3175,1.11125 0.873125,-1.11125 h 1.296458 l -2.143125,2.38125 h -1.42875 l 0.211667,-0.92604 -0.79375,0.92604 H 18.415 l 0.449791,-2.38125 z m 4.709583,0 h 1.455209 l -0.02646,0.74084 0.740834,-0.74084 h 1.349375 l -1.905,1.64042 -0.396875,0.74083 h -1.508125 l 0.423333,-0.79375 z m 6.244167,0.13229 c 0.238125,0.10584 0.343958,0.29105 0.343958,0.50271 0,0.15875 -0.05292,0.37042 -0.15875,0.60854 -0.15875,0.34396 -0.343958,0.60855 -0.502708,0.7673 -0.3175,0.3175 -0.846667,0.44979 -1.613958,0.44979 -0.555625,0 -0.9525,-0.0529 -1.190625,-0.18521 -0.238125,-0.10583 -0.343959,-0.29104 -0.343959,-0.50271 0,-0.15875 0.05292,-0.37042 0.15875,-0.60854 0.15875,-0.34396 0.343959,-0.60854 0.502709,-0.76729 0.3175,-0.3175 0.846666,-0.44979 1.613958,-0.44979 0.529167,0 0.926042,0.0529 1.190625,0.1852 z m 3.386667,-0.13229 c 0.291041,0 0.502708,0.0529 0.608541,0.15875 0.07938,0.0794 0.132292,0.21167 0.132292,0.34396 0,0.23813 -0.07937,0.42333 -0.238125,0.60854 -0.07937,0.0794 -0.185208,0.15875 -0.264583,0.18521 -0.07937,0.0265 -0.211667,0.0794 -0.370417,0.10583 0.238125,0.0794 0.343958,0.18521 0.343958,0.3175 0,0.0794 -0.02646,0.18521 -0.07938,0.29105 l -0.185208,0.37041 h -1.481667 l 0.238125,-0.47625 c 0.02646,-0.0529 0.05292,-0.10583 0.05292,-0.15875 0,-0.10583 -0.05292,-0.15875 -0.185208,-0.15875 h -0.211667 l -0.423333,0.76729 H 31.115 l 1.27,-2.38125 h 2.2225 z m 3.095624,0 -0.582083,1.08479 1.190625,-1.08479 h 1.349375 l -1.322917,1.16417 0.15875,1.21708 h -1.42875 l -0.07937,-1.05833 -0.555625,1.05833 h -1.481666 l 1.27,-2.38125 z m 11.1125,5.90021 c -0.846666,-2.83104 -4.550833,-6.19125 -9.895416,-9.02229 -4.736042,-2.48708 -10.31875,-3.36021 -13.678958,-3.36021 -0.02646,0 -0.05292,0 -0.05292,0 h -0.05292 c -0.02646,0 -0.02646,0 -0.05292,0 -3.386667,0 -8.995834,0.87313 -13.705417,3.36021 -5.3710415,2.80458 -9.0487497,6.16479 -9.9218747,9.02229 -0.079375,0.39688 -0.1058334,0.82021 -0.1058334,1.24354 v 0 0 c 0,0.42334 0.026458,0.84667 0.1058334,1.24354 0.8466666,2.83105 4.5508332,6.19125 9.8954167,9.0223 4.7625,2.51354 10.371666,3.38666 13.758333,3.3602 h 0.05292 c 0.02646,0 0.02646,0 0.05292,0 3.360209,0 8.969375,-0.87312 13.678958,-3.3602 5.344584,-2.80459 9.04875,-6.1648 9.895417,-9.0223 0.07937,-0.39687 0.105833,-0.8202 0.105833,-1.24354 v 0 c 0.02646,-0.42333 -0.02646,-0.84666 -0.07937,-1.24354 z"
           id="path2879" />
        <path
           id="path2881"
           d="m 33.760833,173.5454 0.05292,-0.10583 c 0.02646,-0.0529 0.02646,-0.10584 0.02646,-0.13229 0,-0.0794 -0.05292,-0.10584 -0.15875,-0.10584 h -0.211667 l -0.3175,0.55563 h 0.264584 c 0.15875,-0.0265 0.264583,-0.0794 0.343958,-0.21167 z"
           class="st0"
           inkscape:connector-curvature="0"
           style="fill:#125740;stroke-width:0.26458332" />
        <path
           id="path2883"
           d="m 21.484166,182.64707 c 0.820209,-0.42334 1.640417,-0.66146 2.301875,-0.76729 l 0.02646,-0.0529 h -4.101042 l 0.449792,-0.82021 h 3.995208 l 0.846667,-1.5875 h -3.995209 l 0.449792,-0.79375 h 3.96875 l 0.873125,-1.64042 h -7.752292 l -3.466041,6.50875 h 5.053541 c 0.396875,-0.29104 0.846667,-0.58208 1.349375,-0.84666 z m -2.328333,3.36021 c 0,0 0,0 0,0 v 0 c 0,0 0,0 0,0 z m -1.27,-9.0223 h -3.995208 l -2.169584,4.15396 c -0.291041,0.55563 -0.529166,0.84667 -0.9525,0.84667 -0.291041,0 -0.423333,-0.15875 -0.423333,-0.39688 0,-0.15875 0.07938,-0.39687 0.185208,-0.58208 l 0.846667,-1.61396 H 7.9639582 l -0.4233333,0.79375 c -0.3704167,0.66146 -0.5027084,1.08479 -0.5027084,1.69334 0,1.19062 1.0847917,1.82562 3.7306245,1.82562 1.905,0 3.175,-0.39687 3.942292,-1.16417 0.529167,-0.52916 0.846667,-1.05833 1.349375,-2.03729 z m 21.722291,-0.15875 c -2.407708,0 -3.386666,0.37042 -4.101041,1.0848 -0.502708,0.5027 -0.767292,1.11125 -0.767292,1.61395 0,0.74084 0.396875,1.00542 1.772708,1.34938 1.455209,0.37042 1.74625,0.44979 1.74625,0.76729 0,0.34396 -0.3175,0.55563 -0.873125,0.55563 -0.502708,0 -0.740833,-0.15875 -0.740833,-0.42334 0,-0.18521 0.05292,-0.34396 0.132292,-0.52916 h -3.254375 c -0.15875,0.34395 -0.238125,0.635 -0.238125,0.92604 0,1.00541 0.846667,1.48166 3.757083,1.48166 2.460625,0 3.439583,-0.42333 4.101042,-1.08479 0.529166,-0.52916 0.79375,-1.13771 0.79375,-1.77271 0,-0.74083 -0.502709,-1.05833 -1.878542,-1.37583 -1.375833,-0.3175 -1.640417,-0.42333 -1.640417,-0.635 0,-0.26458 0.291042,-0.50271 0.873125,-0.50271 0.47625,0 0.740834,0.15875 0.740834,0.39688 0,0.18521 -0.05292,0.3175 -0.132292,0.47625 h 3.201458 c 0.132292,-0.3175 0.185209,-0.58209 0.185209,-0.92604 -0.05292,-0.97896 -1.005417,-1.4023 -3.677709,-1.4023 z m -13.308541,9.63084 c -0.02646,0.0265 -0.05292,0.0529 -0.07937,0.0794 -0.105833,0 -0.185208,0 -0.291042,0 -0.02646,-0.0265 -0.05292,-0.0529 -0.07937,-0.0794 0.02646,-0.50271 0.02646,-1.00542 0,-1.50813 0.02646,-0.0265 0.05292,-0.0529 0.07937,-0.0794 0.105834,0 0.185209,0 0.291042,0 0.02646,0.0265 0.05292,0.0529 0.07937,0.0794 0.05292,0.50271 0.05292,1.00542 0,1.50813 z m -0.899583,0 c -0.02646,0.0265 -0.05292,0.0529 -0.07937,0.0794 -0.105834,0 -0.185209,0 -0.291042,0 -0.02646,-0.0265 -0.05292,-0.0529 -0.07937,-0.0794 0,-0.50271 0,-1.00542 0,-1.50813 0.02646,-0.0265 0.05292,-0.0529 0.07937,-0.0794 0.105833,0 0.185208,0 0.291042,0 0.02646,0.0265 0.05292,0.0529 0.07937,0.0794 0.02646,0.50271 0.02646,1.00542 0,1.50813 z m -0.899584,0 c -0.02646,0.0265 -0.05292,0.0529 -0.07938,0.0794 -0.105833,0 -0.185208,0 -0.291041,0 -0.02646,-0.0265 -0.05292,-0.0529 -0.07937,-0.0794 -0.05292,-0.50271 -0.05292,-1.00542 0,-1.50813 0.02646,-0.0265 0.05292,-0.0529 0.07937,-0.0794 0.105833,0 0.185208,0 0.291041,0 0.02646,0.0265 0.05292,0.0529 0.07938,0.0794 -0.02646,0.50271 -0.02646,1.00542 0,1.50813 z m 2.619375,-1.56104 c 0.02646,0.0265 0.05292,0.0529 0.105834,0.0794 0.02646,0.15875 0.05292,0.3175 0.07937,0.44979 0.291041,0 0.582083,0 0.873125,0.0265 0.9525,0.0265 1.878541,0.0529 2.831041,0.13229 l 0.15875,-0.21166 c 0,-0.0265 0,-0.0529 0,-0.0794 -0.211666,-0.71437 -1.11125,-1.5875 -2.513541,-2.32833 -1.27,-0.66146 -2.725209,-0.84667 -3.439584,-0.84667 0,0 0,0 -0.02646,0 0,0 0,0 0,0 0,0 0,0 0,0 -0.714375,0 -2.169583,0.18521 -3.439583,0.84667 -1.402292,0.74083 -2.301875,1.61396 -2.513542,2.32833 0,0.0265 0,0.0265 0,0.0529 l 0.15875,0.21166 c 0.9525,-0.0529 1.878542,-0.10583 2.831042,-0.13229 0.3175,0 0.661458,-0.0265 0.978958,-0.0265 0,-0.15875 0.02646,-0.29104 0.07937,-0.44979 0.02646,-0.0265 0.05292,-0.0529 0.105833,-0.0794 0.105834,0 0.185209,0 0.291042,0 0.02646,0.0265 0.05292,0.0529 0.05292,0.0794 -0.07938,0.50271 -0.07938,0.97896 0,1.48167 -0.02646,0.0265 -0.05292,0.0529 -0.05292,0.0794 -0.105833,0 -0.185208,0 -0.291042,0 -0.02646,-0.0265 -0.05292,-0.0529 -0.105833,-0.0794 -0.02646,-0.15875 -0.05292,-0.29104 -0.07937,-0.44979 -0.3175,0 -0.661458,0 -0.978958,-0.0265 -0.9525,-0.0265 -1.878542,-0.0529 -2.831042,-0.13229 l -0.15875,0.18521 c 0.211667,0.71437 1.11125,1.5875 2.513542,2.32833 1.27,0.68792 2.725208,0.84667 3.439583,0.84667 v 0 c 0,0 0,0 0,0 0,0 0,0 0,0 0,0 0,0 0.02646,0 0.740834,0 2.169584,-0.18521 3.439584,-0.84667 1.402291,-0.74083 2.301875,-1.61396 2.513541,-2.32833 v 0 0 l -0.15875,-0.18521 c -0.9525,0.0529 -1.878541,0.10583 -2.831041,0.13229 -0.291042,0 -0.582084,0.0265 -0.873125,0.0265 0,0.15875 -0.02646,0.3175 -0.07937,0.44979 -0.02646,0.0265 -0.05292,0.0529 -0.105834,0.0794 -0.105833,0 -0.185208,0 -0.291041,0 -0.02646,-0.0265 -0.05292,-0.0529 -0.05292,-0.0794 0.07938,-0.50271 0.07938,-0.97896 0,-1.48167 0.02646,-0.0265 0.05292,-0.0529 0.05292,-0.0794 0.07937,0.0265 0.185208,0.0265 0.291041,0.0265 z m 21.801667,-5.18584 c 0,0.42334 -0.02646,0.84667 -0.105834,1.24354 -0.846666,2.83105 -4.550833,6.19125 -9.895416,9.0223 -4.736042,2.48708 -10.31875,3.3602 -13.678958,3.3602 -0.02646,0 -0.02646,0 -0.05292,0 h -0.05292 c -3.360208,0 -8.995833,-0.87312 -13.758333,-3.3602 -5.3445831,-2.80459 -9.0487497,-6.1648 -9.8954164,-9.0223 -0.079375,-0.39687 -0.1058333,-0.8202 -0.1058333,-1.24354 v 0 0 c 0,-0.42333 0.026458,-0.84666 0.1058333,-1.24354 0.8466667,-2.8575 4.5243749,-6.21771 9.8954164,-9.02229 4.736042,-2.48708 10.31875,-3.36021 13.678958,-3.36021 0.02646,0 0.02646,0 0.05292,0 h 0.05292 c 0.02646,0 0.05292,0 0.05292,0 3.360209,0 8.942917,0.87313 13.678958,3.36021 5.344584,2.80458 9.04875,6.16479 9.895417,9.02229 0.07937,0.39688 0.132292,0.82021 0.132292,1.24354 z m 1.217083,-1.53458 -0.02646,-0.0794 c -0.9525,-3.22791 -4.815417,-6.82625 -10.583334,-9.86895 -4.947708,-2.59292 -10.794999,-3.51896 -14.313958,-3.51896 -0.02646,0 -0.05292,0 -0.05292,0 h -0.05292 c -0.02646,0 -0.02646,0 -0.05292,0 -3.518958,0 -9.36625,0.92604 -14.313958,3.51896 -5.7943748,3.0427 -9.6308331,6.64104 -10.58333305,9.86895 l -0.0264583,0.0794 C 0.05291662,178.67832 -5e-8,179.18103 -5e-8,179.71019 c 0,0.52917 0.05291667,1.03188 0.13229167,1.53459 l 0.0264583,0.0794 c 0.95249998,3.22792 4.81541668,6.82625 10.58333308,9.86896 4.947708,2.59292 10.795,3.51896 14.313958,3.51896 0.02646,0 0.05292,0 0.05292,0 h 0.05292 c 0.02646,0 0.02646,0 0.05292,0 3.518959,0 9.36625,-0.92604 14.313958,-3.51896 5.767917,-3.04271 9.630834,-6.64104 10.583334,-9.86896 l 0.02646,-0.0794 c 0.105833,-0.50271 0.132292,-1.03188 0.132292,-1.53459 0,-0.52916 -0.05292,-1.03187 -0.132292,-1.53458 z M 12.461875,173.8629 12.7,174.97415 h 1.243541 l 1.27,-2.38125 h -1.164166 l -0.529167,1.03188 -0.211667,-1.05834 h -1.322916 l -1.27,2.38125 h 1.164166 z m 22.807083,3.12208 h -8.307917 l -0.873125,1.66688 h 2.196042 l -1.719792,3.25437 c 0.661459,0.1323 1.455209,0.34396 2.248959,0.74084 0.396875,0.21166 0.767291,0.44979 1.11125,0.68791 l 2.487083,-4.65666 h 1.984375 z m 1.164166,-2.01083 0.555625,-1.05833 0.07937,1.05833 h 1.42875 l -0.15875,-1.21708 1.322917,-1.16417 h -1.349375 l -1.190625,1.08479 0.582083,-1.08479 h -1.455208 l -1.27,2.38125 z m -19.049999,0 0.3175,-0.60854 H 16.1925 l 0.15875,-0.29104 h 1.375833 l 0.3175,-0.58209 H 16.66875 l 0.15875,-0.29104 h 1.455208 l 0.3175,-0.60854 h -2.831042 l -1.27,2.38125 z m 8.784166,0 0.396875,-0.74083 1.905,-1.64042 h -1.349375 l -0.740833,0.74083 0.02646,-0.74083 H 24.95021 l 0.105833,1.61396 -0.423333,0.79375 h 1.534583 z m 3.069167,-0.9525 0.3175,-0.60854 c 0.05292,-0.10583 0.105833,-0.18521 0.185208,-0.23813 0.05292,-0.0529 0.132292,-0.0794 0.211667,-0.0794 0.132292,0 0.185208,0.0529 0.185208,0.15875 0,0.0529 -0.02646,0.13229 -0.07937,0.21167 l -0.3175,0.60854 c -0.05292,0.10583 -0.105833,0.18521 -0.15875,0.23812 -0.05292,0.0529 -0.132291,0.0794 -0.238125,0.0794 -0.132291,0 -0.185208,-0.0529 -0.185208,-0.15875 0,-0.0265 0.02646,-0.10584 0.07937,-0.21167 z m -1.322917,-0.29104 c -0.105833,0.23812 -0.15875,0.42333 -0.15875,0.60854 0,0.23813 0.105834,0.39688 0.343959,0.50271 0.238125,0.10583 0.635,0.18521 1.190625,0.18521 0.767291,0 1.296458,-0.15875 1.613958,-0.44979 0.15875,-0.15875 0.343958,-0.42334 0.502708,-0.7673 0.105834,-0.23812 0.15875,-0.42333 0.15875,-0.60854 0,-0.23812 -0.105833,-0.39687 -0.343958,-0.50271 -0.238125,-0.10583 -0.635,-0.1852 -1.190625,-0.1852 -0.767292,0 -1.296458,0.15875 -1.613958,0.44979 -0.15875,0.18521 -0.343959,0.42333 -0.502709,0.76729 z m -8.043333,1.24354 0.79375,-0.92604 -0.211667,0.92604 h 1.42875 l 2.143125,-2.38125 h -1.296458 l -0.873125,1.11125 0.3175,-1.11125 h -1.349375 l -0.820208,1.11125 0.291041,-1.11125 h -1.375833 l -0.449792,2.38125 z m 13.626042,-1.79917 h 0.211666 c 0.105834,0 0.15875,0.0265 0.15875,0.10584 0,0.0265 0,0.0794 -0.02646,0.13229 l -0.05292,0.10583 c -0.07938,0.13229 -0.15875,0.21167 -0.291041,0.21167 h -0.264584 z m -0.9525,1.79917 0.423333,-0.76729 h 0.211667 c 0.132291,0 0.185208,0.0529 0.185208,0.15875 0,0.0529 -0.02646,0.10583 -0.05292,0.15875 l -0.238125,0.47625 h 1.455209 l 0.185208,-0.37042 c 0.05292,-0.10583 0.07937,-0.21166 0.07937,-0.29104 0,-0.15875 -0.105833,-0.26458 -0.343958,-0.3175 0.15875,-0.0265 0.264583,-0.0529 0.370416,-0.10583 0.105834,-0.0529 0.185209,-0.10584 0.264584,-0.18521 0.15875,-0.15875 0.238125,-0.37042 0.238125,-0.60854 0,-0.15875 -0.05292,-0.26459 -0.132292,-0.34396 -0.105833,-0.10583 -0.3175,-0.15875 -0.608542,-0.15875 h -2.2225 l -1.27,2.38125 h 1.455209 z"
           class="st1"
           inkscape:connector-curvature="0"
           style="fill:#ffffff;stroke-width:0.26458332" />
      </g>
      <rect
         y="164.70831"
         x="0"
         height="132.29167"
         width="132.29167"
         id="rect2120"
         style="opacity:1;fill:none;fill-opacity:1;stroke:none;stroke-width:10.58333302;stroke-linejoin:round;stroke-miterlimit:4;stroke-dasharray:none;stroke-opacity:1;paint-order:stroke fill markers" />
    </g>
  </g>
  <style
     id="style2869"
     type="text/css">
	.st0{fill:#125740;}
	.st1{fill:#FFFFFF;}
</style>
</svg>
