<?xml version="1.0" encoding="UTF-8" standalone="no"?>
<!-- Created with Inkscape (http://www.inkscape.org/) -->

<svg
   xmlns:dc="http://purl.org/dc/elements/1.1/"
   xmlns:cc="http://creativecommons.org/ns#"
   xmlns:rdf="http://www.w3.org/1999/02/22-rdf-syntax-ns#"
   xmlns:svg="http://www.w3.org/2000/svg"
   xmlns="http://www.w3.org/2000/svg"
   xmlns:sodipodi="http://sodipodi.sourceforge.net/DTD/sodipodi-0.dtd"
   xmlns:inkscape="http://www.inkscape.org/namespaces/inkscape"
   width="500"
   height="500"
   viewBox="0 0 132.29166 132.29167"
   version="1.1"
   id="svg975"
   inkscape:version="0.92.4 (5da689c313, 2019-01-14)"
   sodipodi:docname="OAK.svg">
  <defs
     id="defs969">
	
	
	
	
	
	

		
		
	</defs>
  <sodipodi:namedview
     id="base"
     pagecolor="#ffffff"
     bordercolor="#666666"
     borderopacity="1.0"
     inkscape:pageopacity="0.0"
     inkscape:pageshadow="2"
     inkscape:zoom="0.56895488"
     inkscape:cx="37.679845"
     inkscape:cy="208.41643"
     inkscape:document-units="mm"
     inkscape:current-layer="layer1"
     showgrid="false"
     units="px"
     inkscape:snap-bbox="true"
     inkscape:bbox-nodes="true"
     inkscape:snap-bbox-edge-midpoints="true"
     inkscape:snap-bbox-midpoints="true"
     inkscape:bbox-paths="true"
     inkscape:snap-page="true"
     inkscape:window-width="1600"
     inkscape:window-height="837"
     inkscape:window-x="-8"
     inkscape:window-y="-8"
     inkscape:window-maximized="1"
     inkscape:object-paths="true"
     inkscape:snap-intersection-paths="true"
     inkscape:object-nodes="true"
     inkscape:snap-midpoints="true"
     inkscape:snap-smooth-nodes="true"
     showguides="false"
     inkscape:snap-nodes="false" />
  <metadata
     id="metadata972">
    <rdf:RDF>
      <cc:Work
         rdf:about="">
        <dc:format>image/svg+xml</dc:format>
        <dc:type
           rdf:resource="http://purl.org/dc/dcmitype/StillImage" />
        <dc:title></dc:title>
      </cc:Work>
    </rdf:RDF>
  </metadata>
  <g
     inkscape:label="Layer 1"
     inkscape:groupmode="layer"
     id="layer1"
     transform="translate(0,-164.70832)">
    <g
       id="g2991">
      <g
         transform="matrix(0.33708232,0,0,0.33708232,-17.993274,146.47183)"
         style="fill:none"
         id="g2959">
        <path
           style="fill:#ffffff"
           inkscape:connector-curvature="0"
           d="M 250.005,54.101 C 199.879,99.557 134.429,98.195 67.21,89.736 52.713,254.497 109.114,417.109 248.937,446.562 390.099,418.247 445.844,255.942 432.231,91.111 369.664,97.42 304.818,99.982 250.005,54.101"
           id="path2948" />
        <path
           style="fill:#000000"
           inkscape:connector-curvature="0"
           d="M 249.777,70.16 C 207.991,104.162 142.09,112.599 79.156,103.396 69.77,253.643 118.749,400.449 248.504,434.324 378.438,401.154 428.783,254.991 420.215,104.701 356.007,111.934 291.375,104.386 249.778,70.16"
           id="path2950" />
        <path
           style="fill:#ffffff"
           inkscape:connector-curvature="0"
           d="m 357.556,181.02 c 34.124,28.161 -4.791,61.497 -26.427,43.206 -7.588,-6.217 -19.245,-15.088 -21.77,-19.593 -3.68,-3.113 0.267,-7.089 4.94,-2.338 2.416,3.222 6.122,6.554 12.533,11.581 l -2.621,-5.779 c 0,0 15.324,-21.41 21.556,-28.792 l 3.403,-0.137 c -0.086,-0.283 -0.145,-0.594 -0.173,-0.936 -0.267,-3.196 2.184,-7.877 5.378,-8.148 3.194,-0.267 6.004,2.11 6.271,5.307 0.2,2.398 -1.085,4.577 -3.089,5.63 z m -212.498,-2.088 3.391,0.03 c 6.459,7.176 22.448,28.109 22.448,28.109 l -2.446,5.854 c 6.253,-5.232 9.85,-8.673 12.161,-11.97 4.533,-4.891 8.599,-1.042 5.015,2.185 -2.376,4.58 -13.758,13.809 -21.14,20.263 -21.059,18.962 -60.862,-11.281 -27.634,-40.491 -2.037,-0.99 -3.393,-3.128 -3.268,-5.53 0.171,-3.205 2.901,-5.67 6.109,-5.499 3.199,0.166 5.662,2.903 5.492,6.103 -0.017,0.324 -0.06,0.64 -0.126,0.946 z m 154.67,150.203 2.065,1.392 c 8.139,7.688 39.777,23.455 44.822,25.005 -28.33,6.909 -39.462,-0.385 -49.548,-8.157 -0.678,-3.455 -2.626,-6.979 -2.626,-6.979 1.392,-2.062 3.768,-6.642 5.286,-11.261 z m -104.348,4.343 c 0,0 4.73,7.509 6.393,8.459 0,0 2.039,1.813 1.278,8.183 -11.386,8.525 -39.212,11.979 -53.325,6.432 0,0 34.045,-13.428 43.461,-21.909 l 2.192,-1.165 z m 88.205,-2.693 -0.022,0.425 c 0.048,-0.425 0.801,-0.254 0.683,-0.819 0.473,0.495 1.072,0.828 0.936,1.537 -0.381,2.018 -1.44,3.765 -2.906,5.074 -0.516,0.46 -1.44,0.591 -1.873,1.239 -0.796,1.204 -2.026,0.587 -2.661,0.018 -0.744,-0.67 -0.127,-2.18 0.748,-2.736 0.853,-0.547 1.558,-1.103 2.35,-1.703 0.328,-0.25 0.543,-0.674 0.796,-0.915 0.718,-0.666 1.287,-1.41 1.947,-2.119 z m -72.207,2.049 c 0.81,2.259 2.709,3.227 3.278,4.133 0.897,1.445 1.313,2.969 2.188,4.343 -1.483,0.845 -2.621,3.24 -4.078,2.513 -0.735,-0.359 -0.958,-1.931 -1.396,-3.034 -1.116,-2.798 0.442,-5.11 0.009,-7.955 z m 79.554,-24.138 c -0.687,3.244 -1.098,6.607 -2.214,9.716 -1.041,2.863 -1.54,4.829 -5.115,7.846 -0.74,-6.23 -2.503,-9.317 -2.166,-11.655 -2.398,0.941 -2.074,4.518 -2.332,7.789 -0.407,5.21 1.006,9.037 0.678,7.513 0.158,0.722 -1.816,2.163 -2.525,3.288 -2.227,3.533 -4.695,6.826 -7.723,9.681 -0.455,0.429 -0.564,1.292 -1.041,1.497 -1.667,0.718 -2.105,1.804 -3.085,2.942 -0.796,0.933 -2.919,1.668 -4.017,2.268 -0.691,0.385 -2.787,0.946 -3.356,1.068 -1.269,0.254 -2.424,0.215 -4.337,0.109 -1.851,-0.092 -4.376,-2.373 -6.367,-2.855 -5.802,-1.419 -7.155,3.831 -16.173,1.887 -3.715,-0.797 -4.463,-3.288 -6.791,-5.915 -0.451,-0.512 -2.669,-3.209 -3.015,-3.581 0.941,1.007 -6.183,-5.696 -7.548,-10.863 -1.518,-5.779 -0.74,-6.244 -0.053,-11.117 0.254,-1.83 -0.092,-6.423 -1.785,-6.721 -1.58,1.624 -0.438,2.736 -0.91,5.079 -0.451,2.285 1.654,2.377 0.035,7.483 -0.459,1.462 -1.256,1.103 -1.711,0.123 -1.689,-3.63 -0.818,-11.498 -4.634,-14.567 -0.88,-0.701 -0.932,-2.828 -0.193,-3.384 1.168,-0.88 2.324,0.512 3.838,0.162 0.267,-0.061 0.105,-1.9 -0.101,-2.137 -1.252,-1.471 -4.026,-0.871 -4,-1.073 0.368,-2.964 0.311,-5.635 -0.7,-7.089 -1.392,-1.992 -3.431,-2.334 -4.258,-4.282 -1.759,-4.124 -1.155,-6.476 -1.313,-7.553 -0.214,-1.454 -0.564,-3.814 -0.144,-5.346 -0.424,0.096 -0.263,-3.419 -0.241,-3.652 0.263,-2.57 0.718,-2.426 1.111,-4.856 0.079,-1.489 3.755,-2.364 3.79,1.06 -0.901,4.514 0.442,8.065 0.56,12.623 0.013,0.547 0.91,1.073 1.518,1.248 9.925,2.85 17.359,1.756 27.227,1.559 2.643,-0.053 4.232,-3.354 4.796,-5.946 0.936,-4.265 0.941,-5.718 0.976,-10.42 0.494,-1.252 1.65,-0.911 2.556,0.136 1.693,1.948 0.381,2.675 0.796,5.171 0.328,1.944 -2.175,4.799 -2.175,4.799 l -0.56,6.598 c 0.512,0.031 -0.381,5.898 -0.516,5.74 -0.381,3.192 1.816,2.018 1.483,4.356 -0.057,1.068 -0.604,2.548 -0.573,2.741 0.319,2.159 -4.49,1.694 -3.72,1.734 -1.068,-0.057 -1.895,-0.525 -1.851,-1.379 0.061,-1.217 -0.271,-2.128 -0.258,-3.218 -2.345,-0.127 -1.374,1.764 -1.505,4.19 -0.053,1.068 0.648,1.966 2.446,2.268 1.908,0.315 2.109,0.539 2.997,-0.053 0.459,-0.315 1.974,-0.648 2.21,-1.384 0.884,3.472 1.925,3.949 4.49,3.87 1.098,-0.031 3.61,0.403 4.599,-2.11 0.245,-0.635 1.952,-0.539 2.197,-1.165 4.437,0.876 1.72,2.688 7.106,0.954 1.623,-0.517 2.949,-2.855 1.545,-4.707 -0.166,-0.223 -1.037,-0.206 -1.055,-0.088 -0.591,4.637 -2.407,3.266 -4.144,3.166 -5.715,-0.333 -2.634,-2.701 -7.478,0.035 -0.573,0.324 -2.275,2.658 -4.529,0.828 -3.063,-2.728 0.245,-4.685 0.617,-7.662 0.333,-2.701 0.206,-11.2 0.079,-13.674 -0.302,-5.823 1.186,-2.281 2.175,-4.794 -0.836,0.201 -0.389,-7.132 -0.464,-7.509 -0.503,-2.592 -3.553,-1.589 -4.35,-2.574 0,0 -0.354,-2.045 0.114,-2.137 3.453,-0.67 7.824,-2.574 10.966,-4.124 7.268,-3.573 11.355,-5.797 14.874,-7.977 1.041,-0.648 1.47,-2.027 2.03,-2.036 6.621,-0.079 13.01,-1.414 18.9,1.856 4.118,2.281 5.111,4.54 6.188,8.441 -0.473,0.074 0.394,4.164 0.407,4.514 0.079,2.566 -0.057,7.251 -0.026,8.542 0.201,8.468 0.683,11.366 -0.468,17.071 -0.009,0.053 -0.893,2.093 -1.177,2.075 -0.696,1.033 -1.899,2.566 -3.321,3.761 -0.446,0.377 -0.254,1.629 0.061,1.414 0.884,-0.6 2.612,-0.933 3.921,-1.506 -0.039,3.625 -0.411,7.885 -1.265,11.905 z m -113.209,-93.364 8.664,9.856 -0.674,4.672 c -3.641,0.241 -6.433,4.575 -8.091,7.697 -1.041,-0.486 -9.137,-13.096 -9.137,-13.096 z m 140.76,1.563 c 1.243,0.709 8.787,7.518 10.651,8.678 -1.098,4.645 -8.476,19.002 -10.1,21.485 -0.193,-8.56 -1.392,-18.236 -6.087,-18.266 l -0.884,-3.472 6.419,-8.424 z m -111.695,45.101 c -3.282,-0.223 -3.488,1.458 -4.547,2.925 -0.582,0.801 -3.461,0.889 -2.945,-0.797 0.175,-0.582 2.157,-7.115 0.858,-4.229 1.995,-4.431 1.392,-4.689 4.262,-7.894 0.722,-0.806 3.282,-1.235 3.282,-1.235 6.074,-1.813 36.828,-2.001 51.907,-0.35 1.181,0.127 -5.321,4.046 -6.223,4.584 -5.518,3.288 -6.174,3.739 -11.412,5.814 -1.4,0.556 -4.227,2.036 -5.837,1.401 -3.142,-1.239 -17.67,-1.143 -23.84,-1.169 0.083,0 -5.632,0.941 -5.505,0.95 z m 78.294,96.569 c 0.214,-0.144 0.451,3.997 0.499,3.84 -0.805,2.671 -4.035,4.961 -5.194,4.343 -5.045,-2.71 0.293,-5.25 4.695,-8.183 z m -15.075,13.805 c -0.779,0.635 -3.597,2.067 -3.208,1.856 -1.864,1.042 -4.03,1.624 -6.174,1.274 -1.921,-0.363 -1.129,-2.01 -0.713,-2.067 5.404,-0.714 6.441,-3.774 9.885,-5.123 1.002,0.245 1.203,1.764 1.063,2.207 -0.096,0.328 -0.328,1.208 -0.853,1.852 z"
           id="Combined-Shape" />
        <path
           style="fill:#a5acaf"
           inkscape:connector-curvature="0"
           d="m 238.513,172.964 -2.774,68.285 25.07,-0.083 -3.807,-68.201 c 27.87,0.569 37.103,8.209 43.225,23.906 l -0.853,0.569 c -7.176,-9.781 -0.258,8.249 -0.258,8.249 1.26,8.617 4.398,13.91 5.387,35.758 2.087,17.207 -2.569,63.556 -2.569,63.556 2.892,1.856 6.258,-25.613 6.258,-25.613 1.278,-13.936 -2.144,-62.501 -7.395,-77.116 l 1.422,-1.708 c 0,0 5.732,14.97 7.675,30.451 3.129,1.134 3.702,3.7 5.977,14.23 -0.473,8.949 -2.275,-3.704 -2.275,-3.704 0,0 1.072,4.12 0.569,2.272 -3.746,-10.022 -3.129,-3.126 -3.129,-3.126 2.446,18.512 1.707,39.269 1.707,39.269 -2.004,13.061 1.702,-0.569 1.702,-0.569 1.75,-8.884 1.991,-11.953 1.991,-11.953 -0.783,-17.566 1.995,0.854 1.995,0.854 -2.402,31.274 -22.238,54.011 -22.462,54.344 0.538,6.011 -3.295,13.932 -5.649,18.087 6.214,11.861 2.42,18.928 2.42,18.928 -0.766,6.173 -7.343,9.286 -10.887,11.664 -8.966,8.069 -23.626,10.723 -35.086,9.265 -1.413,2.491 -5.334,3.993 -5.334,3.993 -2.175,0.74 -3.212,-4.015 -3.212,-4.015 3.903,-1.077 6.118,-2.08 6.118,-2.08 -7.671,-8.525 11.815,-13.485 17.105,-16.625 5.242,-2.29 8.384,-5.114 9.82,-8.03 3.855,-8.345 11.832,-13.91 14.034,-15.075 2.691,-2.426 3.811,-7.496 3.811,-7.496 7.64,-23.529 9.828,-52.912 6.542,-67.61 -1.527,-11.624 -4.844,-13.796 -11.596,-15.429 -16.502,-3.008 -60.488,-2.027 -78.915,-0.854 -17.49,16.217 -10.1,60.023 -0.783,79.012 2.398,3.117 2.805,3.568 2.647,6.55 1.864,21.467 5.115,24.633 5.115,24.633 6.77,9.33 5.067,1.121 5.067,1.121 6.052,6.73 17.775,11.191 17.775,11.191 -0.871,0.381 -8.831,5.517 -8.831,5.517 -16.887,-11.997 -20.519,-24.155 -20.764,-35.71 -1.282,-11.913 -3.208,-4.011 -3.208,-4.011 -4.958,-3.257 -3.387,-8.73 -3.387,-8.73 0.494,-9.374 -2.219,-6.524 -2.219,-6.524 l -2.984,-0.166 c -4.638,-9.216 -14.979,-56.345 -14.979,-56.345 -2.897,-26.226 6.748,-30.854 11.517,-32.308 -0.578,-5.153 8.406,-38.026 8.406,-38.026 5.304,-16.327 22.934,-20.596 40,-20.596 z m 49.632,180.055 c 0.376,-2.592 -1.886,-5.013 -3.479,-2.969 -0.871,1.112 -0.945,3.166 -1.991,4.221 -2.831,2.859 -4.608,3.398 -6.258,5.162 -1.79,1.896 -2.341,3.135 -0.648,5.674 0.14,0.215 0.411,2.807 2.275,4.203 2.275,1.708 5.527,-0.088 8.962,-4.387 0.766,-0.959 0.626,-2.321 0.801,-3.406 0.446,-2.78 -0.074,-5.661 0.337,-8.498 z m -14.633,16.152 -0.092,-0.144 c 0.503,-1.992 -0.14,-2.666 -1.19,-3.498 -1.041,-0.819 -3.225,-0.99 -4.354,0.088 -1.974,1.878 -3.142,2.15 -4.835,3.652 -1.217,1.077 -2.315,0.648 -3.579,1.134 -1.12,0.429 -2.652,1.283 -3.098,2.609 -0.451,1.362 1.746,3.328 2.442,3.722 4.148,2.36 14.484,-0.477 14.707,-7.561 z"
           id="path2953" />
        <path
           style="fill:#000000"
           inkscape:connector-curvature="0"
           d="m 279.398,268.127 c 0.153,0.004 -2.258,-1.83 -4.332,-3.008 -0.95,-0.539 -4.914,2.154 -5.881,2.255 -4.083,0.429 -6.428,0.635 -10.734,0.744 -1.059,0.026 -2.582,0.044 -3.216,-0.941 -0.394,-0.604 -0.328,-1.778 0.127,-2.36 1.3,-1.668 3.851,1.178 5.422,-3.052 -0.009,0.018 4.866,-0.201 6.358,-0.271 5.098,-0.232 12.611,-0.193 11.937,0.416 0.617,-0.556 1.602,2.207 2.626,2.916 1.917,1.327 1.37,-0.429 2.232,2.255 l -0.057,1.064 c -0.018,0.285 -0.363,1.55 -0.516,1.686 -0.153,0.136 -2.035,-0.539 -2.319,-0.547 0.144,0 -1.794,-1.165 -1.645,-1.156 z m -24.531,3.411 c -0.048,0.849 -0.114,2.132 -0.249,2.483 -0.092,0.232 -1.142,-0.096 -1.063,0.385 -0.919,-5.123 4.288,-4.602 1.313,-2.868 z m -2.962,11.598 c 0.976,-2.303 1.798,-5.679 1.798,6.502 0,3.227 -2.464,2.561 -2.122,-0.324 0.385,-3.187 1.002,-2.723 0.324,-6.178 z m 33.905,17.443 c -0.031,0.709 0.066,1.471 -0.179,2.106 -0.123,0.324 -0.464,0.762 -0.827,0.766 -0.337,0.009 -0.84,-0.219 -0.954,-0.455 -0.214,-0.46 0.258,-1.064 0.678,-1.344 0.556,-0.363 0.998,-0.403 1.282,-1.073 z m -30.636,-4.444 c -0.411,-0.018 -0.731,-0.377 -0.713,-0.788 0.022,-0.42 0.376,-0.744 0.796,-0.718 0.416,0.026 0.735,0.377 0.713,0.797 -0.022,0.412 -0.381,0.731 -0.796,0.709 z m 26.921,-20.272 c -1.098,0.552 -2.061,0.429 -3.111,1.02 1.641,-0.915 -8.87,-1.497 -4.901,-1.13 -2.827,-0.263 -5.133,-0.871 -8.074,-0.854 l -0.547,0.289 c -1.462,0.346 -2.227,-0.784 -3.321,-1.493 -0.761,-0.49 -1.444,0.022 -2.149,-0.074 0.149,-0.276 -0.254,-0.46 -0.144,-0.63 0.179,-0.289 0.678,-0.442 0.866,-0.468 1.265,-0.162 2.739,-0.053 3.947,-0.468 4.258,-1.48 7.579,0.547 11.942,0.407 1.37,-0.039 3.26,-0.315 4.547,0.591 0.263,0.188 0.258,0.635 0.451,0.779 0.569,0.429 1.597,0.166 1.93,0.521 0.683,0.727 -0.674,1.13 -1.435,1.511 z m -4.179,6.178 c -1.501,0.101 -2.949,-0.333 -4.477,-0.276 -0.433,0.018 -0.853,-0.271 -1.273,-0.368 -1.567,-0.368 -3.256,-0.661 -4.595,0.236 -1.146,0.775 -2.573,0.849 -3.453,0.363 -0.573,-0.32 0.013,-1.344 0.696,-1.581 0.932,-0.333 2.061,0.109 3.138,-0.035 0.818,-0.105 1.575,-0.718 2.359,-0.381 2.289,0.981 4.507,1.62 6.988,1.62 0.236,0 0.341,0.359 0.617,0.42 z m -15.801,-4.037 -0.026,0.429 c -1.501,-0.898 -3.041,0.889 -4.45,0.271 -0.7,-0.306 -0.403,-1.427 -0.359,-2.237 0.551,0.289 0.893,0.88 1.453,1.099 0.993,0.412 1.947,-0.521 2.989,-0.219 -0.193,0.407 0.446,0.315 0.394,0.657 z M 137.187,190.122 c 3.654,-4.51 6.936,-1.983 4.026,0.639 -2.201,1.983 1.934,6.449 4.625,5.372 2.14,-0.854 4.695,2.566 4.074,3.849 -1.658,3.393 1.518,6.94 3.969,5.762 1.352,-0.644 4.183,1.598 3.225,3.59 -1.453,3.021 1.536,6.432 4.879,4.746 3.575,-1.813 1.549,3.074 1.549,3.074 -18.107,15.289 -44.555,-13.879 -26.347,-27.032 z m 3.833,-16.038 c 3.527,1.896 0.481,7.075 -1.838,6.528 -2.503,-0.591 -0.586,-1.103 -0.586,-1.103 2.332,0.342 4.45,-3.398 1.527,-4.619 -1.111,-0.464 0.897,-0.806 0.897,-0.806 z m 217.054,13.643 c 18.606,12.57 -7.614,44.935 -26.185,30.219 0,0 -2.433,-4.111 1.448,-3.117 3.002,0.766 6.236,-1.935 4.726,-4.895 -0.901,-1.769 1.798,-4.405 3.116,-3.687 2.385,1.3 5.304,-3.472 3.785,-5.889 -0.91,-1.445 1.527,-5.508 3.947,-3.971 1.834,1.165 5.501,-4.435 4.538,-7.386 -0.858,-2.636 1.588,-4.431 4.625,-1.274 z m -4.958,-15.403 c 0,0 2.022,0.28 0.923,0.784 -3.956,1.799 -1.588,5.145 1.667,4.571 0,0 1.934,0.442 -0.547,1.112 -3.326,0.898 -6.59,-3.84 -2.044,-6.467 z M 229.444,308.241 c 2.748,-3.49 4.45,-1.778 4.564,-1.471 -0.368,-1.007 -0.748,2.097 -2.577,4.352 0.473,-0.587 -5.811,4.501 -5.146,4.431 6.87,-0.709 12.983,1.309 18.497,1.296 3.387,-0.004 6.966,-1.611 10.205,-0.525 2.24,0.762 4.332,0.884 6.428,0.639 0.901,-0.101 1.562,-0.683 2.626,-0.495 -0.28,0.547 3.321,0.079 2.914,0.197 1.654,-0.477 -0.683,1.419 -4.516,1.856 -1.965,0.223 -3.151,-1.257 -9.351,-0.915 -5.172,0.28 -9.141,1.222 -13.438,0.342 -2.442,-0.495 -4.805,-1.292 -7.22,-1.257 -4.004,0.053 -7.802,1.703 -9.885,1.016 0.026,-0.574 0.009,-1.349 0.153,-1.546 0.84,-1.182 2.547,-1.839 3.488,-2.754 3.278,-3.179 1.904,-3.446 3.26,-5.166 z m 7.4,17.693 c 4.722,-0.394 13.57,2.001 17.705,0.508 -0.026,0.425 3.474,-1.095 3.383,0.604 -0.123,2.342 -5.833,1.883 -7.338,1.541 -4.118,-0.933 -5.584,0.368 -14.108,0.109 -0.363,-0.009 -4.302,0.63 -5.422,-2.421 -0.302,-0.806 2.184,-0.954 5.781,-0.342 z m 27.98,-14.755 c 0.136,-0.337 0.775,-0.267 0.67,-0.823 0.985,0.35 1.072,1.589 0.608,2.04 -0.595,0.582 -1.72,-0.118 -1.278,-1.217 z m -1.851,-2.259 c -0.433,-0.276 -0.884,-0.687 -1.265,-0.779 -1.466,-0.35 -2.647,-1.165 -4.157,-1.401 -0.368,-0.061 -0.538,-0.714 0.079,-1.011 0.941,-0.46 1.956,0.018 2.919,0.333 1.26,0.42 1.453,1.944 2.481,2.57 0.306,0.184 1.12,0.293 0.897,0.722 -0.228,0.438 -1.076,0.25 -1.168,-0.442 l 0.214,0.009 z"
           id="path2955" />
        <path
           style="fill:#ffffff"
           inkscape:connector-curvature="0"
           d="m 361.113,140.389 c 3.326,2.268 6.03,3.573 8.638,3.573 1.785,0 2.752,-0.679 2.752,-1.786 0,-1.594 -1.737,-1.786 -4.586,-2.417 -5.894,-1.252 -8.883,-4.492 -8.883,-9.519 0,-7.242 5.649,-12.557 14.436,-12.557 3.956,0 7.675,1.016 11.636,3.144 l -3.772,9.028 c -2.411,-1.786 -4.923,-2.706 -7.093,-2.706 -1.737,0 -2.704,0.63 -2.704,1.646 0,1.69 2.319,1.931 6.424,2.85 4.586,1.011 7.675,4.444 7.675,9.273 0,7.391 -5.89,12.995 -14.917,12.995 -4.538,0 -9.124,-1.305 -13.57,-3.866 l 3.965,-9.659 z M 115.445,118.458 h 15.591 c 9.224,0 13.955,4.251 13.955,11.642 0,4.926 -2.656,8.354 -6.665,8.84 l 9.224,14.054 h -13.907 l -6.034,-11.401 v 11.401 h -12.165 v -34.536 z m 12.165,15.648 h 1.934 c 2.363,0 3.667,-1.204 3.667,-3.328 0,-2.128 -1.256,-3.433 -3.667,-3.433 h -1.934 v 6.76 z m 41.304,-15.933 h 13.806 l 12.069,34.536 h -13.325 l -1.111,-4.348 h -9.364 l -1.063,4.348 h -13.325 l 12.314,-34.536 z m 9.316,21.979 -1.063,-3.914 c -0.481,-1.835 -1.208,-4.251 -1.4,-7.583 h -0.241 c -0.197,3.332 -0.919,5.749 -1.4,7.583 l -1.063,3.914 h 5.168 z m 27.656,12.842 v -34.536 h 12.603 v 34.536 z m 27.144,-34.536 h 10.043 c 5.982,0 10.472,0.578 13.662,2.172 5.934,2.999 9.268,8.551 9.268,15.118 0,5.701 -2.56,10.679 -7.146,13.818 -4.49,3.091 -9.802,3.428 -16.703,3.428 h -9.124 z m 18.703,17.29 c 0,-4.54 -2.512,-6.664 -7.531,-6.664 h -0.529 v 13.38 c 5.501,-0.096 8.06,-2.027 8.06,-6.716 z m 26.024,-17.29 h 23.074 v 9.374 h -10.909 v 3.328 h 9.898 V 140 h -9.898 v 3.625 h 11.202 v 9.37 h -23.367 v -34.536 z m 37.331,0 h 15.591 c 9.224,0 13.955,4.251 13.955,11.642 0,4.926 -2.656,8.354 -6.665,8.84 l 9.224,14.054 h -13.902 l -6.039,-11.401 v 11.401 h -12.165 v -34.536 z m 12.165,15.648 h 1.934 c 2.367,0 3.667,-1.204 3.667,-3.328 0,-2.128 -1.256,-3.433 -3.667,-3.433 h -1.934 v 6.76 z"
           id="path2957" />
      </g>
      <rect
         y="164.70831"
         x="0"
         height="132.29167"
         width="132.29167"
         id="rect2120"
         style="opacity:1;fill:none;fill-opacity:1;stroke:none;stroke-width:10.58333302;stroke-linejoin:round;stroke-miterlimit:4;stroke-dasharray:none;stroke-opacity:1;paint-order:stroke fill markers" />
    </g>
  </g>
  <style
     id="style2869"
     type="text/css">
	.st0{fill:#125740;}
	.st1{fill:#FFFFFF;}
</style>
</svg>
