<?xml version="1.0" encoding="UTF-8" standalone="no"?>
<!-- Created with Inkscape (http://www.inkscape.org/) -->

<svg
   xmlns:dc="http://purl.org/dc/elements/1.1/"
   xmlns:cc="http://creativecommons.org/ns#"
   xmlns:rdf="http://www.w3.org/1999/02/22-rdf-syntax-ns#"
   xmlns:svg="http://www.w3.org/2000/svg"
   xmlns="http://www.w3.org/2000/svg"
   xmlns:sodipodi="http://sodipodi.sourceforge.net/DTD/sodipodi-0.dtd"
   xmlns:inkscape="http://www.inkscape.org/namespaces/inkscape"
   width="500"
   height="500"
   viewBox="0 0 132.29166 132.29167"
   version="1.1"
   id="svg975"
   inkscape:version="0.92.4 (5da689c313, 2019-01-14)"
   sodipodi:docname="TEN.svg">
  <defs
     id="defs969">
	
	
	
	
	
	

		
		
	</defs>
  <sodipodi:namedview
     id="base"
     pagecolor="#ffffff"
     bordercolor="#666666"
     borderopacity="1.0"
     inkscape:pageopacity="0.0"
     inkscape:pageshadow="2"
     inkscape:zoom="0.57654095"
     inkscape:cx="153.79075"
     inkscape:cy="278.58096"
     inkscape:document-units="mm"
     inkscape:current-layer="layer1"
     showgrid="false"
     units="px"
     inkscape:snap-bbox="true"
     inkscape:bbox-nodes="true"
     inkscape:snap-bbox-edge-midpoints="true"
     inkscape:snap-bbox-midpoints="true"
     inkscape:bbox-paths="true"
     inkscape:snap-page="true"
     inkscape:window-width="1600"
     inkscape:window-height="837"
     inkscape:window-x="-8"
     inkscape:window-y="-8"
     inkscape:window-maximized="1"
     inkscape:object-paths="true"
     inkscape:snap-intersection-paths="true"
     inkscape:object-nodes="true"
     inkscape:snap-midpoints="true"
     inkscape:snap-smooth-nodes="true"
     showguides="false"
     inkscape:snap-nodes="false" />
  <metadata
     id="metadata972">
    <rdf:RDF>
      <cc:Work
         rdf:about="">
        <dc:format>image/svg+xml</dc:format>
        <dc:type
           rdf:resource="http://purl.org/dc/dcmitype/StillImage" />
        <dc:title></dc:title>
      </cc:Work>
    </rdf:RDF>
  </metadata>
  <g
     inkscape:label="Layer 1"
     inkscape:groupmode="layer"
     id="layer1"
     transform="translate(0,-164.70832)">
    <g
       id="g3577">
      <g
         transform="translate(-9.5751519,19.291267)"
         id="g3554">
        <path
           style="fill:#ffffff;stroke-width:0.26458332"
           inkscape:connector-curvature="0"
           d="m 52.305298,219.36482 c 0.132291,1.56104 0.687916,4.63021 2.460625,8.09625 2.196041,4.25979 6.82625,9.94833 16.377708,13.14979 1.508125,2.38125 3.307291,4.60375 5.318125,6.61459 7.249583,7.22312 16.880416,11.21833 27.119794,11.19187 10.23937,-0.0265 19.87021,-4.02167 27.09333,-11.27125 7.22312,-7.24958 11.21833,-16.88042 11.19187,-27.11979 -0.0264,-10.23938 -4.02166,-19.87021 -11.27124,-27.09333 -5.74146,-5.74146 -12.96459,-9.41917 -20.87563,-10.68917 -10.742083,-9.71021 -23.256874,-6.24417 -23.812499,-6.08542 -0.185209,0.0529 -0.449792,0.13229 -0.79375,0.23813 -3.862917,1.27 -5.847292,-0.18521 -7.14375,-1.19063 -1.42875,-1.11125 -2.989792,-2.24896 -4.497917,-3.12208 -5.132917,-2.88396 -12.408958,-2.98979 -18.520833,-0.50271 -4.048125,1.37583 -6.085417,-0.39687 -7.276042,-1.24354 -7.990416,-5.52979 -17.832916,-6.85271 -28.257499,-4.55083 -7.037917,1.53458 -9.8425001,2.96333 -9.8425001,2.96333 0,0 4.8154171,0.68792 9.8425001,2.80458 4.1275,1.71979 7.408333,3.94229 9.895416,7.91104 0,0 1.561042,2.30188 0.555625,2.96334 -1.137708,0.76729 -2.328333,-1.08479 -2.328333,-1.08479 -0.02646,1.32291 -0.02646,2.67229 0.05292,3.6777 0.582083,10.6098 2.751666,16.98625 7.858125,21.82813 2.328333,2.2225 6.244166,4.36562 12.329583,6.74687 2.751666,1.11125 4.233333,2.54 4.524375,5.76792"
           id="path3469" />
        <path
           style="fill:#002a5c;stroke-width:0.26458332"
           inkscape:connector-curvature="0"
           d="m 128.87571,194.65274 c -5.55625,-5.55625 -12.62062,-9.04875 -20.26708,-10.13354 -9.974791,-9.525 -22.013333,-6.0325 -22.013333,-6.0325 2.566459,0.37041 4.259792,1.905 3.598334,3.59833 -0.423334,1.11125 -2.275417,1.16417 -3.148542,1.19062 -2.69875,0.0265 -5.027083,-1.61395 -6.879167,-3.12208 -1.931458,-1.56104 -5.08,-4.36562 -7.884583,-5.92667 -5.23875,-2.96333 -13.599583,-2.59291 -19.632083,1.27 3.598333,0.23813 7.9375,1.29646 10.530417,3.43959 1.455208,1.19062 3.280833,3.59833 1.772708,4.73604 -1.322917,0.97896 -4.577292,0.47625 -6.244167,-0.47625 -2.619375,-1.53458 -5.000625,-3.83646 -6.429375,-5.50333 -9.498541,-11.29771 -23.045208,-11.93271 -34.184166,-9.18105 7.328958,2.06375 12.22375,6.21771 15.24,13.41438 3.01625,7.19667 5.371042,10.26583 10.345208,12.19729 3.122083,1.21708 3.96875,1.45521 3.704167,2.83104 -0.370417,2.01084 -4.048125,1.05834 -6.852708,-0.0529 -3.439584,-1.34938 -7.9375,-5.02709 -10.63625,-11.95917 0.502708,8.96937 2.196041,15.31937 7.249583,20.13479 2.143125,2.03729 6.085416,4.15396 12.276666,6.53521 3.942292,1.50812 7.064375,2.43417 10.00125,5.05354 3.413125,3.06917 1.957917,5.08 -0.3175,4.70958 -2.566458,-0.42333 -4.392083,-3.06916 -4.392083,-3.06916 0,0 0,14.605 18.071041,20.24062 1.508125,2.48709 3.33375,4.81542 5.450417,6.93209 6.799792,6.77333 15.822083,10.4775 25.399996,10.4775 9.57792,-0.0265 18.60021,-3.75709 25.37355,-10.55688 6.77333,-6.79979 10.50395,-15.82208 10.47749,-25.4 -0.0794,-9.57792 -3.83645,-18.57375 -10.60979,-25.34708"
           id="path3471" />
        <path
           style="fill:#4495d1;stroke-width:0.26458332"
           inkscape:connector-curvature="0"
           d="m 126.97071,196.47836 c -5.3975,-5.3975 -12.30312,-8.67833 -19.76437,-9.49854 -6.42938,-6.40292 -12.832293,-6.11187 -12.832293,-6.11187 2.804583,1.7727 1.349375,5.68854 -4.894791,6.56166 -6.19125,0.84667 -14.075834,-1.24354 -17.885834,-5.715 -3.942291,-4.60375 -6.932083,-4.81541 -6.932083,-4.81541 3.413125,2.14312 3.677708,4.70958 5.741458,8.62541 2.090209,3.91584 6.35,5.31813 10.080625,5.55625 3.942292,0.26459 4.021667,2.03729 0.846667,3.91584 -3.466042,2.03729 -6.50875,0.10583 -8.73125,-2.06375 -3.518958,-3.46605 -7.011458,-4.1275 -11.826875,-4.07459 -4.841875,0.0529 -11.218333,0.68792 -16.615833,-1.32291 -5.3975,-2.01084 -8.942916,-9.10167 -8.942916,-9.10167 2.672291,9.41917 8.598958,13.89062 14.075833,14.94896 7.276041,1.42875 12.276666,3.14854 15.345833,5.63562 2.989792,2.43417 4.60375,4.86834 5.715,8.20209 0.873125,2.59291 1.031875,6.00604 0.15875,6.2177 -1.005417,0.23813 -1.217084,-1.1377 -2.38125,-3.54541 -1.296458,-2.64584 -2.8575,-4.73604 -6.006042,-6.40292 -4.259791,-2.27542 -8.41375,-2.14312 -12.647083,-2.09021 -3.360208,0.0529 -5.344583,-0.34396 -5.344583,-0.34396 0,0 0.132291,0.4498 5.609166,1.69334 6.111875,1.37583 12.012084,4.81541 15.927917,13.20271 3.33375,7.14375 1.5875,12.14437 -5.794375,9.86895 0,0 3.466042,7.69938 14.76375,10.42459 1.455208,2.56646 3.280833,4.94771 5.423958,7.09083 6.270625,6.27063 14.578541,9.71021 23.442081,9.71021 8.86354,0 17.17146,-3.43958 23.44209,-9.71021 6.27062,-6.27062 9.7102,-14.57854 9.7102,-23.44208 0,-8.83709 -3.43958,-17.17146 -9.68375,-23.41563"
           id="path3473" />
        <path
           style="fill:#ffffff;stroke-width:0.26458332"
           inkscape:connector-curvature="0"
           d="m 103.52863,188.38211 c 8.41375,0 16.35125,3.28084 22.30438,9.23396 5.95312,5.95313 9.23395,13.86417 9.23395,22.30438 0,17.38312 -14.1552,31.53833 -31.53833,31.53833 -8.41375,0 -16.351249,-3.28083 -22.304374,-9.23396 -5.953125,-5.95312 -9.233959,-13.86417 -9.233959,-22.30437 0,-8.41375 3.280834,-16.35125 9.233959,-22.30438 5.953125,-5.95312 13.864166,-9.23396 22.304374,-9.23396"
           id="path3475" />
        <path
           style="fill:#002a5c;stroke-width:0.26458332"
           inkscape:connector-curvature="0"
           d="m 103.55509,248.70711 c -15.901459,0.0265 -28.813126,-12.85875 -28.839584,-28.76021 -0.02646,-15.90145 12.85875,-28.81312 28.760204,-28.83958 15.90146,-0.0265 28.81313,12.85875 28.83959,28.76021 0.0265,15.90146 -12.83229,28.83958 -28.76021,28.83958"
           id="path3477" />
        <path
           style="fill:#ffffff;stroke-width:0.26458332"
           inkscape:connector-curvature="0"
           d="m 96.464255,214.07315 h -8.519583 l -2.831041,5.02709 -3.783542,-10.74209 h 44.291251 l -3.78354,10.74209 -2.77813,-5.02709 h -8.41375 l -7.09083,31.115 z"
           id="path3479" />
        <path
           style="fill:#bbc4ca;stroke-width:0.26458332"
           inkscape:connector-curvature="0"
           d="M 125.62134,208.35815 H 81.330089 l 0.740833,2.0373 h 21.113748 l -6.720415,3.6777 7.090835,31.115 v -34.7927 h 21.35187 z"
           id="path3481" />
        <path
           style="fill:#da2128;stroke-width:0.26458332"
           id="path3483"
           d="m 81.779881,183.48732 c -6.429375,-0.18521 -9.04875,-2.72521 -13.0175,-5.92667 -4.868333,-3.91583 -10.292292,-2.83104 -10.292292,-2.83104 3.254375,-1.85208 9.604375,-1.93146 14.208125,2.09021 4.101042,3.59833 6.111875,5.55625 9.101667,6.6675"
           inkscape:connector-curvature="0" />
        <path
           style="fill:#da2128;stroke-width:0.26458332"
           id="path3485"
           d="m 26.984673,169.35857 c 0,0 6.006042,-0.13229 11.244792,9.28688 4.418541,7.91104 12.832291,9.49854 18.997083,7.75229 0,0 -8.122709,-0.21167 -12.567709,-8.06979 -4.524374,-8.0698 -10.530416,-10.2923 -17.674166,-8.96938"
           inkscape:connector-curvature="0" />
        <path
           style="fill:#da2128;stroke-width:0.26458332"
           id="path3487"
           d="m 60.983631,214.97274 c 0,0 -0.846667,-8.75771 -13.335,-11.29771 -12.567708,-2.56646 -14.181666,-9.10167 -14.181666,-9.10167 0,0 0.07937,9.41917 10.900833,12.32959 7.567083,2.01083 13.096875,3.175 16.615833,8.06979"
           inkscape:connector-curvature="0" />
        <path
           style="fill:#da2128;stroke-width:0.26458332"
           id="path3489"
           d="m 107.84134,205.60649 -1.69333,-5.05354 4.28625,-3.12209 h -5.31813 l -1.66687,-5.05354 -1.61396,5.05354 -5.318128,0.0794 4.339168,3.06916 -1.61396,5.08 4.28625,-3.175 z"
           inkscape:connector-curvature="0" />
        <path
           style="fill:#da2128;stroke-width:0.26458332"
           id="path3491"
           d="m 88.844256,223.46586 -3.518959,3.99521 -4.894791,-2.14312 2.725208,4.57729 -3.545417,3.96875 5.185834,-1.13771 2.69875,4.57729 0.502708,-5.29167 5.212292,-1.1377 -4.894792,-2.11667 z"
           inkscape:connector-curvature="0" />
        <path
           style="fill:#da2128;stroke-width:0.26458332"
           id="path3493"
           d="m 113.79446,230.98003 5.23875,1.05833 0.58209,5.29167 2.61937,-4.63021 5.21229,1.08479 -3.59833,-3.94229 2.64583,-4.60375 -4.84187,2.19604 -3.59833,-3.94229 0.60854,5.29167 z"
           inkscape:connector-curvature="0" />
      </g>
      <rect
         y="164.70831"
         x="0"
         height="132.29167"
         width="132.29167"
         id="rect2120"
         style="opacity:1;fill:none;fill-opacity:1;stroke:none;stroke-width:10.58333302;stroke-linejoin:round;stroke-miterlimit:4;stroke-dasharray:none;stroke-opacity:1;paint-order:stroke fill markers" />
    </g>
  </g>
  <style
     id="style2869"
     type="text/css">
	.st0{fill:#125740;}
	.st1{fill:#FFFFFF;}
</style>
</svg>
