<?xml version="1.0" encoding="UTF-8" standalone="no"?>
<!-- Created with Inkscape (http://www.inkscape.org/) -->

<svg
   xmlns:dc="http://purl.org/dc/elements/1.1/"
   xmlns:cc="http://creativecommons.org/ns#"
   xmlns:rdf="http://www.w3.org/1999/02/22-rdf-syntax-ns#"
   xmlns:svg="http://www.w3.org/2000/svg"
   xmlns="http://www.w3.org/2000/svg"
   xmlns:sodipodi="http://sodipodi.sourceforge.net/DTD/sodipodi-0.dtd"
   xmlns:inkscape="http://www.inkscape.org/namespaces/inkscape"
   width="500"
   height="500"
   viewBox="0 0 132.29166 132.29167"
   version="1.1"
   id="svg975"
   inkscape:version="0.92.4 (5da689c313, 2019-01-14)"
   sodipodi:docname="WAS.svg">
  <defs
     id="defs969">
	
	
	
	
	
	

		
		
	</defs>
  <sodipodi:namedview
     id="base"
     pagecolor="#ffffff"
     bordercolor="#666666"
     borderopacity="1.0"
     inkscape:pageopacity="0.0"
     inkscape:pageshadow="2"
     inkscape:zoom="0.57654095"
     inkscape:cx="153.79075"
     inkscape:cy="278.58096"
     inkscape:document-units="mm"
     inkscape:current-layer="layer1"
     showgrid="false"
     units="px"
     inkscape:snap-bbox="true"
     inkscape:bbox-nodes="true"
     inkscape:snap-bbox-edge-midpoints="true"
     inkscape:snap-bbox-midpoints="true"
     inkscape:bbox-paths="true"
     inkscape:snap-page="true"
     inkscape:window-width="1600"
     inkscape:window-height="837"
     inkscape:window-x="-8"
     inkscape:window-y="-8"
     inkscape:window-maximized="1"
     inkscape:object-paths="true"
     inkscape:snap-intersection-paths="true"
     inkscape:object-nodes="true"
     inkscape:snap-midpoints="true"
     inkscape:snap-smooth-nodes="true"
     showguides="false"
     inkscape:snap-nodes="false" />
  <metadata
     id="metadata972">
    <rdf:RDF>
      <cc:Work
         rdf:about="">
        <dc:format>image/svg+xml</dc:format>
        <dc:type
           rdf:resource="http://purl.org/dc/dcmitype/StillImage" />
        <dc:title></dc:title>
      </cc:Work>
    </rdf:RDF>
  </metadata>
  <g
     inkscape:label="Layer 1"
     inkscape:groupmode="layer"
     id="layer1"
     transform="translate(0,-164.70832)">
    <g
       id="g3632">
      <g
         transform="matrix(0.27771702,0,0,0.27771702,-3.2377372,161.47436)"
         style="fill:none"
         id="g3598">
        <path
           style="fill:#ffffff"
           inkscape:connector-curvature="0"
           d="m 166.461,373.536 c -1.529,0.517 -4.697,-0.336 -4.697,-0.336 1.057,8.338 2.215,11.2 2.215,11.2 l -1.838,2.245 2.215,1.701 c -2.387,16.512 4.629,27.876 7.865,38.944 -2.555,0.848 -5.482,0.712 -7.665,-0.481 0.853,9.363 0.073,27.404 -7.507,35.233 -1.448,-0.934 -2.487,-1.193 -3.05,-2.041 -1.139,2.64 -1.988,3.661 -4.289,10.384 -1.275,4.509 -2.383,10.81 -2.982,17.614 -6.231,-3.198 -13.025,-6.555 -19.157,-16.884 -1.362,-2.431 -2.315,-4.409 -5.65,-7.657 -0.767,1.529 -0.903,1.991 -2.437,3.434 -1.62,1.529 -5.841,3.402 -5.873,3.234 -0.853,-4.155 -1.874,-7.997 -4.343,-12.679 -2.365,-5.19 -10.475,-12.085 -17.114,-28.937 -2.723,-6.464 -4.08,-12.221 -5.21,-18.889 -0.508,0.254 -0.853,0.426 -1.194,0.513 -2.469,0.676 -4.239,0.508 -5.092,-1.361 -2.092,5.634 -4.679,8.764 -6.894,10.293 -1.021,3.234 -0.853,4.087 -3.063,6.727 -2.042,3.062 -2.728,3.829 -4.139,9.612 -2.301,5.874 -5.741,8.769 -6.249,10.297 -0.853,-1.873 -1.194,-1.529 -2.042,-2.89 -8.346,11.059 -9.367,13.954 -28.27,17.868 4.77,-9.363 8.006,-25.018 7.661,-28.252 -2.383,-21.956 -4.593,-26.555 -5.8,-43.576 -0.703,-8.51 -2.709,-29.441 -0.835,-57.357 2.042,-33.7 11.573,-62.805 19.747,-84.761 10.561,-30.638 34.737,-79.997 52.382,-110.155 l 0.068,-27.367 h 6.812 l 7.148,-16.34 3.236,2.386 12.263,-32.684 8.682,24.682 14.845,-9.372 c 5.932,-5.439 48.162,-66.366 137.587,-66.239 86.647,-0.127 175.873,67.609 175.873,175.863 0,98.374 -80.371,174.28 -173.145,174.289 -71.888,-0.009 -118.203,-36.599 -142.76,-70.131 1.566,16.852 -1.702,50.38 12.698,81.866"
           id="path3585" />
        <path
           style="fill:#ffb612"
           inkscape:connector-curvature="0"
           d="m 294.009,19.728 c 92.257,0 167.045,74.754 167.045,166.963 0,92.209 -74.789,166.967 -167.045,166.967 -92.248,0 -167.041,-74.758 -167.041,-166.967 0,-21.107 3.957,-41.298 11.106,-59.884 h -22.579 v -5.462 l 24.78,-0.036 C 165.726,61.598 224.975,19.728 294.009,19.728 Z m 0,310.627 c 79.381,0 143.732,-64.325 143.732,-143.664 0,-79.34 -64.35,-143.664 -143.732,-143.664 -79.377,0 -143.727,64.325 -143.727,143.664 0,79.34 64.35,143.664 143.727,143.664 z"
           id="Combined-Shape" />
        <path
           style="fill:#000000"
           inkscape:connector-curvature="0"
           d="m 203.531,173.086 c 0,0 0.513,-0.685 0.168,-1.533 -0.681,-0.34 -1.357,1.021 -1.357,1.021 -0.345,0.594 -1.026,1.361 -2.133,2.382 0.259,-5.103 0.849,-8.338 3.49,-13.273 -2.042,1.021 -9.195,10.379 -9.195,10.379 -3.404,4.087 -5.786,6.641 -5.786,6.641 -1.362,1.021 -4.597,6.977 -4.597,6.977 0.508,-4.423 1.362,-7.149 1.362,-7.149 -6.299,4.6 -13.111,19.402 -13.111,19.402 -0.849,-5.616 0.508,-10.551 1.021,-15.655 7.661,-33.528 23.155,-52.934 23.155,-52.934 6.136,-7.489 16.692,-19.402 28.951,-28.424 6.299,-4.255 17.713,-11.744 22.819,-16.848 4.765,-3.407 11.069,-8.682 15.326,-10.896 5.786,-3.575 11.065,-4.595 14.813,-5.784 0,0 7.025,-1.288 10.556,-2.046 10.901,-3.062 26.904,-2.554 32.014,-0.68 3.063,0.345 3.063,0.345 7.32,0.853 14.645,1.021 27.417,11.059 32.014,18.213 0.508,3.062 3.744,5.956 3.744,5.956 5.451,6.469 8.514,7.997 10.556,10.551 2.047,2.214 4.262,5.956 6.304,9.363 1.534,3.234 4.597,9.531 8.682,13.618 4.262,4.423 5.11,10.892 2.728,14.462 -3.068,3.071 -1.194,6.129 2.891,8.002 6.812,5.616 7.325,9.699 10.561,17.868 2.723,7.662 5.451,11.744 6.812,18.553 0.513,8.17 -3.068,9.876 -5.537,11.236 -2.805,1.356 -8.26,0.848 -8.26,0.848 -0.935,-0.34 -2.21,-0.68 -2.21,-0.68 4.429,5.788 3.835,12.416 3.744,13.79 -0.082,1.275 -0.681,1.529 -0.681,1.529 -1.107,0.599 -2.809,0.422 -2.809,0.422 -2.301,0.599 -0.935,2.132 -0.935,2.132 2.551,1.529 0.681,4.595 0.681,4.595 -2.641,2.636 -4.425,7.145 -4.425,7.145 -1.194,2.046 0.849,8.682 0.849,8.682 2.042,7.317 -1.021,10.551 -1.021,10.551 -2.728,2.554 -4.938,4.255 -6.985,4.935 -1.843,0.617 -7.829,-0.34 -7.829,-0.34 -2.56,0.172 -8.854,2.041 -8.854,2.041 -5.963,1.025 -10.293,2.813 -18.054,1.701 -3.576,-0.508 -2.882,4.749 -2.896,5.448 -0.168,8.682 -1.702,12.937 -1.702,12.937 -1.189,6.301 -2.723,15.487 -2.723,15.487 -1.362,19.828 0.168,25.104 0.168,25.104 0,0.767 -0.676,0.431 -0.676,0.431 -14.305,0 -34.742,-8.85 -34.742,-8.85 -9.195,-5.793 -28.106,-14.425 -35.931,-16.684 -20.532,-5.929 -33.884,-3.742 -54.143,0 l -1.194,-1.021 c 13.62,-12.425 24.517,-23.829 25.883,-45.104 0.168,-6.637 0.168,-17.356 -5.451,-24.337 l -1.362,-1.533 c -0.172,10.043 -6.812,16.512 -6.812,16.512 1.194,-6.977 -1.194,-6.637 -1.194,-6.637 -3.063,8.846 -11.065,18.553 -11.065,18.553 l -1.366,-0.685 c -1.194,3.407 -2.909,6.355 -3.576,9.018 -0.849,3.407 -4.765,8.342 -4.765,8.342 -0.513,-4.255 -1.366,-6.641 -1.366,-6.641 -1.702,5.62 -6.127,12.597 -6.127,12.597 -2.896,3.407 -4.597,9.023 -4.597,9.023 -8.006,-20.255 2.555,-55.656 2.555,-55.656 -1.28,-1.447 -4.938,6.981 -4.938,6.981 -0.513,-22.473 11.237,-50.893 11.237,-50.893 z m 101.13,62.134 c -0.44,-1.701 -3.2,-1.551 -5.156,-1.347 -3,0.318 -5.723,0.826 -8.623,2.359 1.92,-2.885 4.262,-3.067 8.723,-4.772 1.021,-0.39 0.776,-2.177 0.123,-3.225 -0.753,-1.198 -1.72,-1.257 -2.101,-1.334 -3.676,-0.712 -4.865,0.136 -6.799,0.635 -6.762,1.737 -13.393,6.823 -17.078,11.704 -1.071,1.424 -0.722,2.921 -0.495,3.234 0.676,0.93 1.747,3.497 2.038,3.189 2.737,-2.962 6.059,-5.689 9.635,-4.84 -1.534,0.517 -6.898,3.234 -8.6,7.176 -0.104,0.245 0.681,1.678 1.702,2.445 1.362,2.295 1.874,3.23 2.637,3.656 0.495,-0.041 1.489,-1.039 1.761,-1.465 3.776,-5.004 7.52,-8.061 17.909,-9.426 2.982,-0.508 4.684,-1.361 4.938,-4.087 0,0 0.595,-1.361 -0.599,-4.083 l -0.014,0.181 z m -12.413,15.814 c 0.168,2.558 -0.204,3.711 0.522,5.371 0.694,1.583 2.138,2.949 2.687,4.568 0.427,1.243 1.897,2.831 1.897,3.679 0.685,0.685 0.776,1.288 0.781,1.293 0.899,1.175 3.572,2.613 2.637,3.311 -1.116,0.844 -4.434,0.249 -6.435,-0.082 -2.564,-0.422 -1.076,1.91 -0.522,2.146 2.605,1.075 8.083,1.443 9.88,2.431 1.08,0.599 2.496,1.506 2.964,2.577 0.345,0.794 0.962,1.488 1.484,2.186 1.729,2.309 2.342,3.321 4.125,4.786 0.894,0.726 1.933,1.973 1.611,3.089 -0.377,1.306 -1.198,1.583 -2.451,1.411 -0.408,-0.054 -1.643,-0.426 -2.832,-0.934 -2.387,-0.767 -2.9,-1.638 -4.593,-0.767 -0.939,0.481 0.418,2.05 1.461,2.608 4.289,2.282 9.431,2.327 13.579,4.736 3.563,2.069 5.727,4.573 5.523,9.871 0,0.095 1.28,0.812 1.357,0.69 1.234,-1.905 4.298,0.463 5.786,-0.005 0.132,-0.041 0.191,-0.839 -0.027,-1.175 -0.713,-1.071 -2.237,-1.125 -2.882,-2.159 -0.685,-1.089 0.309,-2.282 -0.036,-3.234 -0.354,-0.975 -2.001,0.712 -2.619,0.073 -2.732,-2.835 -4.516,-6.197 -8.187,-7.83 1.534,-4.255 2.219,-9.023 1.874,-11.236 -1.021,-0.848 -1.448,0.513 -1.702,0.685 -0.844,0.798 -0.513,2.549 -1.498,3.888 -0.159,0.222 -1.475,-0.045 -1.856,-0.377 -2.51,-2.137 -4.838,-4.668 -6.009,-7.703 -0.045,-0.113 -0.549,-0.739 -0.658,-0.889 -1.847,-2.577 -1.729,-6.178 0.408,-8.773 0.231,-0.272 0.567,-1.869 0.34,-2.05 -0.359,-0.286 -1.221,0.318 -1.566,0.671 -1.166,1.189 -2.156,3.566 -4.134,3.357 -2.219,-0.236 -3.068,-2.477 -4.439,-3.951 -0.427,-1.452 -1.239,-2.382 -1.026,-2.554 -1.87,-2.726 -2.042,-4.94 -3.762,-8.338 -0.39,-0.771 -0.935,-1.143 -1.684,-1.37 z M 250.531,89.007 c 0,0 -3.408,-0.345 -11.41,5.784 -8.854,5.448 -20.604,13.278 -29.118,23.661 -6.218,6.21 -14.986,15.659 -18.222,22.296 0,0 -5.278,8.338 -8.687,21.956 0,0 1.194,4.423 4.602,-1.361 5.954,-10.116 28.606,-44.165 60.96,-69.02 l 1.534,-0.082 c -16.021,13.777 -36.784,32.335 -56.962,63.907 -0.749,1.179 -1.729,3.262 -1.82,3.425 -0.903,1.683 1.411,1.946 0.241,1.66 1.834,0.449 2.519,-2.105 3.699,-2.613 0.731,-0.313 1.026,1.869 2.192,1.306 4.116,-1.991 7.184,-6.246 8.886,-8.796 0.086,0.726 1.021,2.894 1.021,2.894 1.874,0.508 7.661,-7.494 10.729,-12.938 0.849,1.021 -0.213,3.516 0.921,2.445 3.504,-3.302 6.617,-6.845 8.482,-10.075 2.174,-3.774 4.557,-5.475 5.41,-12.112 1.362,0.848 1.334,1.22 1.706,1.529 0.849,-1.021 0.908,-2.087 2.269,-3.615 1.475,-1.66 1.77,-2.953 3.563,-4.137 0.635,-0.417 2.051,-3.076 2.333,-4.468 0.268,-1.32 3.204,-5.598 3.408,-7.013 2.387,-4.423 6.472,-6.809 9.367,-10.211 2.723,-2.382 0.681,-6.637 -5.106,-4.423 z m -29.972,132.927 c 1.194,1.361 2.215,-0.426 2.215,-0.426 1.956,-2.98 2.383,-3.747 3.749,-7.739 0.849,-2.64 1.87,-3.579 2.719,-14.643 2.387,3.575 2.728,10.384 2.728,10.384 l 0.681,-0.172 c 0,0 2.215,-6.296 5.959,-8.338 0,0 0.34,-4.255 4.085,-8.51 -0.508,-2.554 -0.849,-4.595 -1.362,-8.682 -1.529,-6.809 -2.383,-18.213 -0.849,-26.038 3.068,16.335 4.852,18.721 4.852,18.721 l 0.685,0.254 c 1.275,-1.955 1.616,-5.362 1.952,-8.424 1.534,-6.469 4.262,-5.784 4.262,-7.149 -0.853,-5.276 -2.215,-13.613 -1.362,-20.763 1.702,7.825 2.551,7.317 3.744,10.211 1.534,3.575 1.702,-0.853 1.702,-0.853 -0.34,-4.591 2.896,-9.191 -0.168,-19.91 -1.194,-7.322 -4.602,-22.981 -3.236,-26.555 0.853,-4.427 -0.681,-2.894 -0.681,-2.894 0,0 -4.429,1.025 -11.069,19.746 -9.703,31.146 -18.049,64.338 -27.072,91.229 2.719,-14.131 17.196,-63.998 21.453,-82.039 0,0 -0.599,-1.275 -1.534,0.168 -1.107,1.279 -2.215,2.894 -2.809,4.001 0.086,-0.073 -0.508,0.086 -1.194,0.426 l -2.124,3.234 c 0,0 -4.262,5.956 -15.925,18.041 -1.956,3.062 -2.8,4.477 -4.938,9.363 -0.767,1.783 0.427,2.041 1.702,1.016 3.15,-3.057 3.322,-3.057 7.661,-6.378 0.195,-0.15 3.699,-1.406 3.699,-1.465 -0.545,0.699 -1.275,1.161 -1.566,1.433 -1.194,1.134 -4.144,4.459 -4.951,5.861 -1.974,3.42 -4.144,7.671 -6.985,12.824 -3.563,6.446 -6.286,13.94 -6.286,13.94 -1.874,5.276 -1.362,5.784 -1.362,5.784 2.555,1.025 1.162,2.318 1.162,2.318 -1.162,2.109 -1.675,3.81 0.286,3.048 1.275,-0.259 1.961,-0.916 2.487,-1.57 1.003,-1.238 1.856,-2.091 2.542,-2.949 1.148,-1.424 0.935,-1.851 2.156,-3.266 1.588,-1.833 2.605,-3.366 4.225,-4.133 -2.809,3.829 -2.982,6.55 -2.982,6.55 l 0.681,0.857 0.513,0.336 c 0,0 -2.896,3.575 -4.257,11.676 -0.649,3.842 -0.513,4.323 -1.112,6.451 0.29,-0.277 1.961,0 3.467,-1.52 -0.654,2.368 -0.785,3.566 -0.785,3.566 -0.295,1.955 -0.295,1.615 -0.295,3.829 0,2.046 0,1.193 0.681,3.57 3.063,-1.361 3.744,-1.189 6.631,-4.586 1.375,-1.284 2.414,-4.396 2.818,-4.178 0.767,0.345 0.127,2.073 -0.213,2.844 -0.463,1.071 -0.88,1.864 -1.057,2.636 -0.091,0.39 -0.477,0.971 0.145,1.506 0.272,0.231 0.082,0.2 0.958,0.177 0.508,-0.009 0.985,-0.798 0.985,-0.798 0,0 0.29,-0.068 0.549,-0.662 0.213,-0.499 0.595,-0.767 0.935,-1.021 0,0 0.508,-0.513 1.107,-0.34 z M 301.002,89.787 c -0.522,-0.562 -2.355,-0.272 -2.682,-1.048 -0.222,-0.522 -0.481,-1.143 -0.803,-1.402 -0.567,-0.449 -1.352,0.168 -2.133,0.286 -1.067,0.168 -2.169,-0.059 -3.222,-0.404 -1.838,2.1 -6.712,0.712 -9.013,0.871 -0.281,0.014 1.448,0.998 1.756,1.266 1.62,1.374 4.271,1.252 6.24,1.32 0.318,0.009 0.967,-0.327 1.216,-0.358 2.115,-0.29 4.221,0.426 6.445,0.817 0.699,0.127 2.886,-0.603 2.197,-1.347 z m 45.411,1.923 c -1.366,-0.876 -1.525,-2.572 -2.265,-3.838 -0.567,-0.975 -1.307,-1.751 -2.197,-2.209 -4.003,-2.073 -8.668,-5.679 -11.65,-5.398 -0.939,0.082 -1.321,1.089 -0.785,1.61 1.026,1.003 2.841,1.338 3,2.962 3.989,1.987 10.983,3.316 10.661,7.671 -0.032,0.422 2.555,-0.894 3.236,-0.798 z m -12.322,1.039 -5.06,-2.894 c -0.295,-0.499 -0.69,-1.098 -1.175,-1.547 -1.135,-1.039 -1.734,-2.273 -3.041,-3.098 -1.743,-1.102 -3.177,-2.545 -5.074,-3.243 -0.204,-0.073 -0.449,0.009 -0.672,-0.041 -0.136,-0.036 -0.218,-0.159 -0.172,-0.322 -0.172,0 -0.404,0.059 -0.481,-0.032 -0.268,-0.29 -0.672,-0.463 -0.917,-0.54 -0.985,-0.322 -2.119,0.259 -2.986,-0.504 -0.508,-0.449 -1.085,-0.703 -1.629,-1.052 -1.516,-0.975 -3.231,-0.381 -4.865,-0.127 -0.318,0.05 -0.79,0.476 -1.139,0.776 -0.617,0.522 -1.616,-0.431 -2.433,-0.159 -0.708,0.236 -1.489,1.061 -0.817,1.746 0.726,0.735 1.706,1.234 2.696,1.483 2.936,0.739 6.004,0.018 8.777,1.238 0.79,0.349 1.765,0.748 2.088,1.765 -0.277,0.064 -0.572,0.318 -0.821,0.136 -0.676,-0.485 -1.425,-0.481 -2.079,-0.531 -4.665,-0.381 -9.313,-0.762 -13.956,-0.118 -0.005,1.184 0.477,2.436 1.552,2.586 1.439,0.191 3,-0.259 4.389,-0.159 1.52,0.118 3.122,1.098 4.643,1.955 0.218,0.127 0.567,0.109 0.812,0.009 0.681,-0.29 1.271,-1.27 2.024,-0.912 0.458,0.218 0.944,0.422 1.443,0.504 1.057,0.186 1.824,-0.009 2.841,0.141 2.147,0.322 3.971,1.76 6.113,1.447 1.588,-0.236 2.319,0.304 3.109,1.021 -0.449,-0.404 2.936,2.014 3.24,1.42 0.118,-0.236 3.54,-0.426 3.59,-0.948 z"
           id="path3588" />
        <path
           style="fill:#5b2b2f"
           inkscape:connector-curvature="0"
           d="m 333.778,92.999 c 0.576,0.157 1.235,0.201 2.061,0.089 2.047,0 2.555,-0.24 2.896,-0.322 1.743,-0.431 3.132,0.59 4.443,-0.259 -0.032,0.422 2.555,-0.894 3.236,-0.798 l -0.302,-0.222 c 1.314,0.67 3.197,0.739 3.951,0.834 3.318,0.426 9.703,0.041 11.341,0.631 3.213,1.157 4.488,2.123 7.493,5.049 0.449,0.44 3.095,3.121 3.504,3.656 1.811,2.332 3.054,4.01 4.475,6.528 1.362,2.436 3.749,6.519 4.325,9.59 0.472,2.518 2.841,3.452 4.679,5.289 1.43,1.424 3.091,3.212 4.18,5.285 0.903,1.719 1.157,4.178 0.263,5.639 -0.917,1.488 -2.886,1.651 -4.266,1.17 -0.445,-0.163 -1.325,-0.644 -1.775,-0.721 -2.601,-0.463 -2.124,-0.513 -4.23,-0.336 -0.513,0.041 -1.212,0.653 -1.611,0.812 -1.693,0.662 -3.354,1.406 -4.974,2.168 -0.431,0.204 -1.239,0.431 -1.38,1.043 -0.3,1.279 1.194,1.003 1.92,1.311 0.862,0.367 0.39,1.56 -0.009,2.382 -0.041,0.082 -0.44,0.181 -0.558,0.277 -1.38,1.048 -2.723,1.837 -3.594,3.352 l -0.15,0.944 c -0.93,0.504 -1.929,-0.113 -1.588,-1.048 -0.104,-0.163 -0.34,-0.767 -1.094,-0.318 -0.222,0.136 -0.803,1.211 -0.899,1.406 -0.241,0.504 -0.903,-0.748 -1.57,0.104 -0.794,1.012 0.241,1.565 0.926,1.783 -0.34,0.599 -0.286,0.739 -0.286,0.64 -0.014,-0.245 -0.799,1.592 0.182,1.678 0.781,0.068 0.699,0.068 1.38,-0.612 0.767,-0.34 0.876,0.526 1.116,1.052 0.3,0.644 -0.141,1.465 0.259,2.173 0.141,0.245 0.331,0.549 0.522,0.621 0.876,0.336 1.52,1.111 2.006,1.837 0.254,0.386 0.821,0.821 1.321,1.198 0.118,0.091 0.204,0.599 0.304,0.703 0.613,0.621 1.271,1.107 1.829,1.529 1.08,0.803 3.368,0.245 3.168,-1.306 -0.163,-1.22 -1.416,-1.851 -2.573,-2.722 -0.858,-0.644 -1.48,-1.511 -2.278,-2.232 -0.472,-0.426 -0.241,-1.229 0.318,-1.601 0.735,-0.485 1.697,-0.308 1.997,-0.145 0.953,0.508 1.548,2.128 2.791,2.717 0.994,0.476 0.735,0.395 1.865,0.585 0.408,0.068 0.962,0.154 1.175,-0.191 0.073,-0.118 0.154,-0.218 0.231,-0.476 -0.259,-0.34 0.168,-0.34 -0.263,-0.98 -0.413,-0.617 -0.849,-0.912 -0.304,-1.461 0.309,-0.308 0.595,-0.621 0.994,-0.621 0.595,-0.68 1.03,-1.279 1.602,-0.449 0.608,0.876 0.844,1.343 1.389,1.61 0.372,0.181 0.935,-0.113 1.121,-0.358 1.693,-2.209 1.702,-5.117 3.69,-6.446 0.032,-0.023 0.713,0.027 0.713,0.023 1.87,2.046 4.679,2.472 8.087,7.408 1.362,1.869 3.486,6.637 3.572,7.657 1.194,2.554 2.215,5.534 2.728,6.977 1.189,3.575 2.215,6.469 3.744,9.023 2.555,4.423 2.896,8.084 1.107,11.826 -0.595,1.198 -2.383,3.067 -5.705,3.665 -1.026,0 -3.068,0.168 -4.171,-0.685 -1.021,-0.508 -2.215,-1.615 -4.257,-4.001 -0.853,-0.68 -2.982,-1.955 -5.537,-1.443 -0.427,0.336 -1.239,0.975 -1.62,1.955 -0.758,1.787 -3.826,1.787 -5.868,0.082 -4.938,-3.57 -0.172,-9.354 1.529,-10.978 -0.849,-0.508 -1.021,-0.249 -2.124,-0.249 -2.301,1.016 -2.56,4.677 -3.495,6.292 -1.534,1.701 -3.236,5.108 -4.425,7.834 -2.728,3.402 -3.921,5.444 -3.921,5.444 l 1.366,0.172 c 0,0 2.637,-1.275 4.852,-5.022 0.853,-1.021 1.362,-1.701 2.982,-1.619 1.017,0.685 4.593,3.321 11.065,2.558 1.874,0.082 2.896,1.61 4.175,2.808 5.364,5.017 3.83,11.654 3.83,11.654 -3.068,-0.168 -4.257,-0.34 -6.812,-0.082 -1.48,0.576 -3.508,0.903 -5.278,1.701 -1.493,0.395 -4.339,0.172 -6.299,-0.168 -1.961,1.615 -2.896,4.341 -2.896,4.341 l 1.021,0.594 c 0.767,-0.685 2.129,-1.619 2.129,-1.619 2.042,-0.426 3.236,0.172 4.684,0.172 2.728,0.254 5.364,0 6.721,0.594 2.814,0.767 4.003,2.382 1.961,4.677 -0.935,1.533 -2.723,3.067 -4.252,6.133 -0.513,2.209 -0.617,3.765 0.849,5.87 0.508,2.382 1.534,5.026 1.702,7.576 0.508,3.402 -1.961,4.509 -2.301,5.357 l -2.637,1.96 c -1.702,0.508 -3.236,0.508 -4.77,-0.172 -2.21,-0.853 -3.576,-1.189 -8.169,-1.529 -5.283,0.853 -13.969,-2.382 -17.201,-4.087 -3.404,-2.554 -10.901,-4.595 -15.667,-4.595 -3.063,0 -5.11,-0.34 -8.346,-1.361 -9.195,-2.041 -14.473,-3.402 -20.945,-9.358 -3.063,-2.726 -1.362,-4.768 1.706,-8.51 8.174,-13.618 15.662,-34.04 14.645,-58.722 -1.026,-7.317 1.702,-17.873 1.702,-17.873 1.874,-6.637 2.383,-8.17 3.404,-16.34 0.73,-13.744 -1.063,-23.057 -2.145,-27.252 l 0.044,-0.052 c 0.097,-0.194 2.419,-0.357 3.276,-0.697 z m -4.46,-2.981 -0.432,-0.403 0.145,0.239 z m -25.774,-9.385 -0.033,0.035 c -0.592,0.658 -0.388,0.868 0.138,1.063 l -0.02,-0.02 c -0.349,-0.356 -0.306,-0.749 -0.085,-1.078 z m 13.132,5.752 -0.268,-0.026 c 0.085,0.046 0.176,0.047 0.268,0.026 z m 56.722,61.661 c -0.408,-0.218 -0.277,-0.54 -0.145,-0.835 0.3,-0.68 0.64,-0.934 1.203,-1.987 0.64,-1.198 2.079,-1.415 3.018,-3.194 0.041,-0.068 1.725,-1.438 1.924,-1.511 1.057,-0.372 1.765,0.426 1.929,0.876 0.318,0.885 0.295,1.638 0.399,2.463 0.517,3.897 0.118,-0.386 0.3,2.196 0.045,0.563 -1.357,1.27 -1.616,1.497 -1.661,1.447 -3.486,1.157 -3.486,1.157 -2.092,-0.304 -2.514,-0.132 -3.526,-0.662 z M 305.19,296.991 c -27.417,-13.958 -44.277,-22.976 -82.763,-15.827 20.781,-18.721 24.526,-36.59 21.798,-57.529 4.461,3.865 8.623,7.331 10.647,8.905 1.933,1.502 5.364,3.266 7.488,3.969 1.407,0.463 2.982,0.826 5.024,1.842 2.301,1.139 1.275,4.382 2.619,6.854 1.039,1.919 1.557,2.173 2.75,3.439 2.737,2.885 0.758,4.096 3.876,7.244 1.239,1.257 2.914,1.397 3.744,2.685 2.169,3.357 1.557,5.33 4.048,7.063 3.227,2.25 3.994,7.018 5.342,9.69 0.867,1.71 3,4.074 4.375,5.398 2.755,2.658 4.407,4.101 5.255,6.142 0.549,1.325 1.266,2.599 2.197,4.264 0.408,0.721 2.405,3.82 3.259,4.414 0,0 2.56,2.577 0.34,1.447 z m 14.55,-26.719 c -0.082,-1.193 -1.443,-2.046 -1.87,-3.661 -1.956,-6.723 -4.339,-8.936 -7.32,-11.744 -1.362,-1.533 -2.383,-7.916 -3.576,-10.81 1.793,-2.382 1.452,-4.083 1.452,-6.464 4.511,1.674 9.585,3.307 14.06,5.112 l 5.691,2.717 c 0,0 0.091,4.45 1.044,8.723 l 0.899,2.998 c 1.797,5.493 6.399,11.404 8.441,16.666 2.728,7.013 1.171,15.315 1.411,23.344 0.023,0.817 -0.218,3.411 -0.132,4.945 -0.513,-0.422 -4.171,-4.341 -4.684,-4.768 -1.366,-1.275 -1.598,-1.297 -2.029,-1.601 -2.514,-1.801 -2.655,-1.629 -2.846,-4.201 0.277,-5.262 -2.446,-10.365 -6.381,-13.663 -0.703,-0.581 -2.042,-2.663 -2.51,-3.824 -0.949,-2.372 -1.539,-2.059 -1.652,-3.77 z m 69.315,-96.573 c -0.744,0.245 -0.259,1.193 -0.118,1.22 3.095,0.549 4.012,0.563 6.848,3.275 0.168,0.168 0.785,0.213 1.062,0.027 0.803,-0.54 0.349,-1.538 -0.209,-1.919 -3.245,-2.2 -4.647,-3.566 -7.584,-2.604 z m -17.373,29.935 v 0.172 c 0.113,-0.268 -0.295,-0.408 -0.172,-0.68 -1.248,-0.417 -2.737,0.127 -3.318,1.234 -1.116,2.123 -1.407,4.577 -0.812,6.904 0.159,0.621 1.253,0.821 1.647,0.295 0.899,-1.193 0.626,-2.817 1.207,-4.142 0.563,-1.27 1.017,-2.459 1.448,-3.783 z m -29.286,-15.659 h -0.172 c 0.34,1.746 0.145,3.579 0.663,5.23 0.091,0.286 0.44,0.966 0.876,0.989 0.436,0.023 0.617,0.399 1.003,0.476 0.245,0.045 0.458,0.426 0.454,0.621 -0.027,0.93 0.463,1.969 0.926,1.982 2.596,0.073 4.103,1.651 5.215,3.752 0.086,0.172 0.817,0.195 1.021,-0.15 1.262,-2.123 2.877,-3.679 4.579,-5.317 0.322,-0.308 1.244,-0.132 1.498,-0.508 0.599,-0.898 0.885,-1.905 1.343,-2.881 0.772,-1.656 1.162,-3.52 2.315,-4.931 2.042,-2.509 2.673,-4.282 5.41,-6.328 0.263,-0.191 1.525,-1.538 1.697,-1.828 0.835,-1.433 2.033,-2.255 2.918,-3.071 0.413,-0.381 1.189,-1.229 0.808,-1.379 -1.348,-0.531 -1.18,0.494 -3.567,1.905 -1.647,0.966 -1.498,2.205 -3.703,2.699 -1.402,0.318 -3.023,0.758 -4.153,1.511 -2.523,1.678 -4.797,3.021 -7.416,4.264 -2.119,1.003 -4.448,1.443 -6.776,1.388 -2.02,-0.041 -3.921,-0.844 -5.963,-0.984 -0.281,-0.018 -0.014,0.449 -0.34,0.349 -0.118,0.989 0.395,1.901 1.366,2.209 z"
           id="path3590" />
        <path
           style="fill:#0a0a08"
           inkscape:connector-curvature="0"
           d="m 120.265,140.407 c -5.623,7.997 -9.708,20.595 -11.75,29.613 2.551,-1.361 2.723,-1.193 5.11,-2.041 0.849,-4.255 7.561,-28.887 6.64,-27.572 z m 33.035,277.43 c 3.467,8.32 3.912,16.34 0.849,31.827 -3.404,-3.234 -3.576,-6.129 -6.131,-7.662 -0.336,8.85 -0.676,11.577 -2.378,15.491 -3.581,6.977 -4.602,10.551 -4.77,17.356 -5.963,-4.935 -7.497,-11.74 -11.582,-15.655 -2.896,-2.899 -8.682,-8.342 -10.724,-11.917 -0.34,4.26 0,5.793 -1.702,9.876 -1.371,-4.718 -1.534,-6.129 -4.77,-10.043 -4.262,-5.956 -13.792,-19.234 -16.007,-33.355 -0.513,-2.386 -1.874,-9.367 -3.404,-18.894 -1.194,3.23 -3.236,5.784 -5.283,6.292 -1.021,0.513 -1.021,-0.848 -1.021,-0.848 0.849,-3.062 1.194,-6.469 0.849,-9.023 -0.508,-3.742 -1.529,-12.085 -3.404,-14.126 h -0.849 c 0.168,5.616 -2.042,8.17 -3.408,10.043 -0.168,-4.427 0,-7.834 -1.021,-10.043 -0.508,-1.533 -1.702,-2.894 -2.042,-1.361 -0.849,4.427 -1.194,5.276 -1.194,9.363 -0.34,6.124 -0.34,8.17 -1.021,13.278 -0.336,3.742 -1.529,8.333 -4.938,12.933 -0.676,-4.083 -3.236,-7.317 -3.236,-7.317 0,4.935 1.026,12.253 -2.042,16.167 -3.744,5.103 -4.257,7.657 -5.446,11.404 -0.517,-4.427 -1.874,-3.067 -2.56,-5.448 -2.719,11.577 -11.233,20.427 -14.301,22.468 2.042,-4.768 3.744,-10.216 4.085,-13.618 0,0 -0.508,-12.593 -2.383,-19.746 -4.665,-22.269 -6.917,-73.719 -3.404,-93.266 8.455,-69.646 44.454,-133.576 74.97,-191.137 h -3.794 v -13.45 h 4.089 l 5.532,-12.42 3.663,2.808 7.575,-23.063 3.322,16.934 14.473,-11.323 -11.75,26.728 h 4.035 c -0.644,1.402 -1.293,2.794 -1.902,4.219 l -24.78,0.036 v 5.462 h 22.579 c -0.513,1.334 -0.971,2.713 -1.452,4.069 h -8.069 l 6.603,4.264 c -0.431,1.32 -0.84,2.654 -1.239,3.992 l -2.945,-1.914 c -1.212,5.434 -5.106,24.051 -4.234,35.016 10.388,10.043 18.049,19.746 16.856,41.534 0,0 0.681,0.504 -3.749,-0.857 2.215,2.386 2.9,4.26 4.77,8.342 0.849,6.637 1.362,12.593 0.849,18.721 0,0 0.513,15.151 1.026,19.914 2.042,0.68 0.853,6.124 1.021,13.273 0,0 -0.168,4.427 -0.853,7.834 -4.252,-3.407 -3.912,-3.234 -5.106,-2.899 1.021,3.407 1.702,3.407 3.744,6.133 0,20.255 0.681,41.185 2.047,50.376 0.676,6.637 1.87,14.298 2.383,16.68 1.021,3.067 1.021,5.788 4.085,12.257 -1.021,0 -3.871,0.077 -5.791,-2.382 2.728,5.103 2.728,4.083 4.429,5.784 l 2.383,17.705 -2.723,3.057 3.744,2.386 c 0,0 -0.849,7.997 0.172,15.319 0.513,3.407 1.529,6.809 3.917,11.572 -4.938,0.172 -5.791,-3.915 -5.791,-3.915 -1.362,-1.533 -3.749,-4.935 -4.425,-4.935 -0.34,4.935 2.383,6.804 3.576,9.703 z"
           id="path3592" />
        <path
           style="fill:#ffffff"
           inkscape:connector-curvature="0"
           d="m 80.59,348.26 c -0.595,0.336 -1.362,-1.057 -1.529,2.518 -0.091,1.937 0.25,5.298 -1.126,6.709 -0.281,0.29 -1.035,0.1 -1.607,0.1 0.073,-1.166 -0.599,-2.858 -2.033,-2.663 -0.458,0.059 -0.263,0.721 -0.427,0.871 -0.88,0.798 -2.328,0.404 -2.419,-0.617 -0.268,-2.817 -2.101,-5.766 -3.086,-7.195 -0.713,-1.039 -0.731,-2.631 -0.549,-4.015 -2.982,2.522 -1.638,6.9 0.018,9.662 1.085,1.81 1.398,4.609 -0.104,5.893 -0.34,0.29 -1.153,0.272 -1.588,-0.259 -2.065,-2.536 -2.074,-5.634 -3.091,-8.487 -0.971,1.247 -1.534,1.701 -1.144,4.749 0.418,3.248 1.915,4.963 1.579,8.156 -0.204,1.914 0.377,4.237 -1.212,5.716 -0.713,0.667 -2.065,0.24 -2.451,-0.358 -1.126,-1.756 -0.785,-4.06 -1.638,-5.965 -0.231,-0.517 -1.225,-0.621 -1.484,-0.295 -1.298,1.633 -1.652,3.679 -2.029,5.72 -0.295,1.574 0.436,3.098 0.186,4.74 -0.082,0.517 -0.377,1.089 -0.717,1.257 -0.644,0.322 -1.62,0.313 -2.283,0.005 -0.858,-0.399 -1.23,-1.638 -1.484,-2.372 -1.216,-3.529 -0.495,-7.503 0.849,-11.232 0.826,-2.291 -2.074,-4.051 -2.337,-6.392 -0.204,-1.851 -0.917,-3.629 -0.654,-5.407 0.15,-1.025 0.431,-2.037 0.513,-3.089 -0.821,1.238 -2.369,1.443 -3.404,2.382 -0.939,-2.658 0.985,-5.18 0.34,-7.83 -0.077,0.871 -0.912,1.134 -1.366,1.706 -0.508,-1.316 -0.132,-2.849 -0.808,-4.01 -0.744,-1.275 -0.758,-0.327 -0.93,-1.851 2.764,-44.374 17.237,-89.31 39.716,-134.388 2.891,-10.039 32.182,-65.186 36.439,-70.975 h 3.576 c -7.665,10.896 -15.835,27.572 -19.243,42.383 -2.555,2.382 -7.325,12.765 -7.325,12.765 -1.189,-3.234 -0.849,-4.26 -1.357,-5.788 -2.387,3.742 -2.047,8.002 -2.047,10.892 -0.168,3.067 -0.168,6.296 -2.042,9.023 -0.849,3.234 -2.896,5.616 -3.744,7.997 -0.853,2.046 -1.026,1.021 -1.366,3.234 2.215,0.34 3.749,-3.234 6.985,-3.234 -0.849,6.981 -2.891,24.682 -5.959,28.257 -0.685,-3.234 -2.555,-6.301 -4.089,-6.981 l -0.513,0.513 c 3.576,16.68 2.728,26.891 2.387,32.167 0.513,-0.168 3.404,-2.382 4.085,-1.193 -0.681,1.193 -2.896,2.554 -4.765,3.919 -1.366,5.616 -2.215,12.253 -3.236,15.999 -2.215,-5.108 -4.257,-13.618 -6.472,-21.452 -0.34,10.728 3.236,25.19 5.106,31.831 -0.168,3.575 -0.676,8.002 -2.042,15.487 -1.189,-3.23 -3.576,-7.145 -7.32,-10.551 3.576,9.023 6.812,20.595 7.153,27.912 3.063,-2.041 3.917,-2.549 7.153,-4.768 0,2.558 -3.849,7.303 -4.089,7.494 -1.021,0.34 -1.738,0.68 -1.021,2.554 0.667,4.654 1.729,11.45 2.047,18.758 z m 61.813,16.571 c -0.88,-0.866 -1.938,-1.642 -2.097,-3.012 -0.713,1.606 -0.15,3.298 0.604,4.718 0.436,0.821 1.411,1.261 2.065,1.973 0.722,0.794 0.98,1.864 1.384,2.858 0.531,1.284 -0.735,2.019 -1.539,2.168 -2.483,0.467 -2.555,-3.098 -3.34,-4.84 -0.554,-1.234 -2.151,-1.719 -2.986,-2.867 -0.2,-0.272 -0.567,-0.549 -0.749,-0.866 -0.708,-1.252 -2.147,-2.15 -2.764,-3.484 -0.123,0.59 0.091,1.166 0.25,1.678 1.189,3.761 3.1,7.077 4.747,10.629 0.458,0.989 0.971,1.955 1.253,3.03 0.245,0.912 0.118,2.01 -0.413,2.59 -0.54,0.59 -1.788,-0.694 -2.033,-0.263 -0.912,1.592 0.508,3.488 1.307,5.058 0.563,1.093 1.593,2.196 1.112,3.461 -0.1,0.249 -0.436,0.585 -0.781,0.676 -1.203,0.322 -2.274,-0.458 -2.909,-1.125 -2.51,-2.636 -4.697,-5.267 -6.694,-8.428 -0.762,-1.207 -0.345,-2.781 -1.198,-3.965 -0.49,-0.685 -1.411,-1.787 -2.251,-1.034 -0.286,0.259 -0.608,0.603 -0.672,0.984 -0.268,1.551 -0.585,3.003 -1.525,4.16 -0.259,0.318 -0.785,0.844 -0.89,1.039 -1.298,2.377 -1.57,5.099 -1.992,7.88 -0.104,0.662 -0.263,1.497 -0.953,1.842 -0.617,0.313 -1.048,-0.186 -1.411,-0.649 -0.458,-1.542 -0.921,-3.071 -1.362,-4.518 -10.048,-38.894 -13.983,-80.365 -12.481,-122.421 1.362,-40.849 7.493,-73.529 20.772,-128.672 l 2.896,1.869 c 0,0 -5.278,22.636 -4.252,38.468 7.153,6.129 14.813,14.466 15.149,31.659 -0.59,0.249 -0.676,0.082 -1.189,-0.34 -2.042,-2.64 -7.493,-3.493 -11.577,-10.13 0.595,4.169 12.599,20.849 13.452,24.083 0.168,10.384 1.702,25.444 0.849,28.42 -2.891,-1.443 -4.425,-4.759 -4.085,-2.717 2.215,5.702 4.085,10.719 6.726,14.893 0,0 0.254,14.72 -0.254,12.679 h -0.685 c -2.383,-1.701 -4.761,-3.742 -6.553,-5.448 -1.103,-0.594 -1.275,-2.041 -3.318,-3.996 -3.068,-2.808 -4.77,-5.194 -6.045,-5.707 -3.236,-2.295 -5.451,-3.062 -7.325,-3.661 -0.599,0 -1.784,-0.168 -1.784,-0.168 0,0 6.127,5.194 10.044,11.069 4.684,5.611 6.64,8.927 8.26,12.334 1.784,3.407 4.339,6.809 6.386,9.703 0,4.681 -0.34,20.255 -0.086,22.89 l -1.28,-0.934 c -3.059,-1.873 -6.386,-6.042 -9.195,-11.486 -1.529,7.825 6.812,17.02 10.647,20.082 1.275,14.552 1.275,21.357 3.658,36.676 l -0.172,1.193 c -3.404,-2.382 -6.98,-6.124 -11.233,-12.253 -0.345,5.952 5.614,13.786 11.918,21.271 0.413,0.494 0.572,1.071 0.676,1.66 -0.717,-1.03 -3.15,0.213 -4.08,-0.708 z m -49.814,16.893 -0.422,0.367 c -0.681,0.508 -2.21,0.717 -2.383,-0.508 -1.874,-8.338 -2.896,-18.721 -2.896,-27.231 0.853,-2.214 3.236,-6.301 5.106,-10.724 l -0.168,-1.021 c -2.042,1.021 -5.451,4.427 -6.131,6.296 l -0.849,-1.193 c -0.681,-3.402 -1.366,-10.039 -1.366,-17.02 -0.34,-1.275 0.172,-2.041 0.685,-3.062 1.357,-3.234 2.9,-6.836 4.085,-10.384 1.026,-3.575 6.721,-14.634 8.428,-17.193 l -1.107,1.025 c -3.15,1.107 -11.237,10.892 -12.258,11.572 l -0.767,0.086 c 0.427,-9.785 3.15,-31.573 5.024,-44.932 1.874,-5.026 16.515,-20.345 13.111,-17.619 -6.644,2.382 -8.854,4.768 -10.221,5.448 l -2.042,0.68 c 2.038,-9.499 6.272,-43.848 10.729,-53.106 3.236,-5.616 6.472,-7.145 8.859,-13.273 l -1.702,0.848 c -1.194,1.198 -6.472,5.108 -9.712,9.535 l -1.021,0.168 c 1.534,-4.423 2.042,-9.191 5.11,-15.315 0.853,-2.558 2.215,-3.575 3.236,-5.788 2.555,-3.234 3.572,-4.427 5.959,-5.616 1.189,-0.513 3.408,-1.365 3.408,-1.365 -6.803,27.876 -9.199,50.543 -11.242,81.531 -1.738,41.992 1.035,91.452 12.136,128.041 l -0.159,0.231 c -0.69,1.179 -1.806,1.728 -3.023,2.2 -0.672,0.249 -1.434,-0.24 -1.579,-0.821 -0.821,-3.302 -3.104,-5.661 -4.021,-8.828 -1.407,0.014 -2.791,0.331 -3.722,-1.039 -2.038,-3.008 -1.62,-6.373 -1.897,-9.68 -0.454,0.395 -1.008,0.667 -1.343,1.202 -3.227,5.203 -4.466,10.61 -5.845,16.485 z m 43.682,-275.616 5.278,-4.595 -4.425,8.596 z m -16.175,11.069 2.378,-5.874 6.812,5.874 z m 7.829,-6.473 3.154,-11.232 2.21,15.832 z"
           id="path3594" />
        <path
           style="fill:#ffb612"
           inkscape:connector-curvature="0"
           d="m 149.074,421.648 c 2.387,4.423 3.236,13.446 1.702,16.684 -2.551,-4.26 -5.959,-9.195 -9.022,-10.56 1.534,5.108 1.702,11.622 1.702,17.365 0,7.489 -3.408,14.298 -5.278,18.145 -0.853,-1.365 -1.67,-2.146 -2.691,-3.847 -3.44,-4.94 -5.655,-5.961 -9.739,-10.724 -5.11,-4.26 -9.54,-11.912 -9.708,-17.873 l -0.853,0.168 c 0.345,3.407 -1.189,5.072 -0.681,9.499 -4.252,-2.69 -11.305,-13.509 -13.111,-24.133 -0.681,-3.234 -2.042,-9.703 -2.723,-16.172 -0.853,-6.637 -2.896,-10.551 -3.404,-14.466 -0.213,-0.64 0.218,-2.858 -1.874,-0.168 -1.194,1.533 -2.387,1.189 -1.62,-1.107 0.372,-1.111 0.536,-1.547 0.817,-2.735 1.38,-5.874 2.619,-11.282 5.845,-16.485 0.336,-0.535 0.89,-0.807 1.343,-1.202 0.277,3.307 -0.141,6.673 1.897,9.68 0.93,1.37 2.315,1.052 3.722,1.039 0.917,3.166 3.2,5.525 4.021,8.828 0.145,0.581 0.908,1.071 1.579,0.821 1.216,-0.472 2.333,-1.021 3.023,-2.2 l 0.159,-0.231 c 1.307,4.314 2.764,8.388 4.307,12.325 0.118,0.345 0.241,0.685 0.359,1.007 l 0.34,0.939 c 0.191,0.499 0.372,0.953 0.554,1.397 l 0.277,0.685 c 0.268,0.621 0.517,1.179 0.758,1.638 -0.05,-0.449 -0.168,-1.061 -0.322,-1.742 l -0.059,-0.286 c -0.154,-0.68 -0.349,-1.452 -0.576,-2.291 l -0.113,-0.435 c -0.236,-0.866 -0.49,-1.778 -0.762,-2.731 l -0.109,-0.367 c -0.29,-1.007 -0.595,-2.032 -0.903,-3.071 0.363,0.463 0.794,0.962 1.411,0.649 0.69,-0.345 0.849,-1.179 0.953,-1.842 0.422,-2.781 0.694,-5.503 1.992,-7.88 0.104,-0.195 0.631,-0.721 0.89,-1.039 0.939,-1.157 1.257,-2.608 1.525,-4.16 0.064,-0.381 0.386,-0.726 0.672,-0.984 0.84,-0.753 1.761,0.349 2.251,1.034 0.853,1.184 0.436,2.758 1.198,3.965 1.997,3.162 4.184,5.793 6.694,8.428 0.635,0.667 1.706,1.447 2.909,1.125 0.345,-0.091 0.681,-0.426 0.781,-0.676 0.481,-1.266 -0.549,-2.368 -1.112,-3.461 -0.799,-1.57 -2.219,-3.466 -1.307,-5.058 0.245,-0.431 1.493,0.853 2.033,0.263 0.531,-0.581 0.658,-1.678 0.413,-2.59 -0.281,-1.075 -0.794,-2.041 -1.253,-3.03 -1.647,-3.552 -3.558,-6.868 -4.747,-10.629 -0.159,-0.513 -0.372,-1.089 -0.25,-1.678 0.617,1.334 2.056,2.232 2.764,3.484 0.182,0.318 0.549,0.594 0.749,0.866 0.835,1.148 2.433,1.633 2.986,2.867 0.785,1.742 0.858,5.307 3.34,4.84 0.803,-0.15 2.07,-0.885 1.539,-2.168 -0.404,-0.993 -0.663,-2.064 -1.384,-2.858 -0.654,-0.712 -1.629,-1.152 -2.065,-1.973 -0.753,-1.42 -1.316,-3.112 -0.604,-4.718 0.159,1.37 1.216,2.146 2.097,3.012 1.003,0.998 3.799,-0.576 4.239,0.98 0.526,1.855 1.411,4.269 2.687,7.072 -0.254,0.771 2.133,4.681 0.939,9.621 l -2.555,4.935 c 0,0 2.383,2.209 3.408,4.083 -0.177,0.685 0.508,6.469 0,10.551 -2.728,-0.68 -3.921,-0.513 -5.623,-4.423 -2.723,11.059 1.194,18.553 3.576,23.997 z M 42.612,336.393 c 0.172,1.529 0.15,0.59 0.894,1.864 0.676,1.161 0.3,2.695 0.808,4.01 0.454,-0.572 1.289,-0.835 1.366,-1.706 0.644,2.649 -1.28,5.171 -0.34,7.83 1.035,-0.939 2.582,-1.143 3.404,-2.382 -0.082,1.052 -0.363,2.064 -0.513,3.089 -0.263,1.778 0.449,3.556 0.654,5.407 0.263,2.341 3.163,4.101 2.337,6.392 -1.343,3.729 -2.065,7.703 -0.849,11.232 0.254,0.735 0.626,1.973 1.484,2.372 0.663,0.308 1.638,0.318 2.283,-0.005 0.34,-0.168 0.635,-0.739 0.717,-1.257 0.25,-1.642 -0.481,-3.166 -0.186,-4.74 0.377,-2.041 0.731,-4.087 2.029,-5.72 0.259,-0.327 1.253,-0.222 1.484,0.295 0.853,1.905 0.513,4.21 1.638,5.965 0.386,0.599 1.738,1.025 2.451,0.358 1.588,-1.479 1.008,-3.801 1.212,-5.716 0.336,-3.194 -1.162,-4.908 -1.579,-8.156 -0.39,-3.048 0.172,-3.502 1.144,-4.749 1.017,2.853 1.026,5.952 3.091,8.487 0.436,0.531 1.248,0.549 1.588,0.259 1.502,-1.284 1.189,-4.083 0.104,-5.893 -1.657,-2.763 -3,-7.14 -0.018,-9.662 -0.182,1.384 -0.163,2.976 0.549,4.015 0.985,1.429 2.818,4.378 3.086,7.195 0.091,1.021 1.539,1.415 2.419,0.617 0.163,-0.15 -0.032,-0.812 0.427,-0.871 1.434,-0.195 2.106,1.497 2.033,2.663 0.572,0 1.325,0.191 1.607,-0.1 1.375,-1.411 1.035,-4.772 1.126,-6.709 0.168,-3.575 1.017,-2.218 1.611,-2.554 0,0 0.259,1.701 -0.082,6.637 0.508,6.129 -0.172,14.126 -1.879,15.999 -1.525,-1.529 -1.702,-2.894 -3.744,-3.407 -5.446,2.558 -5.106,25.875 -4.77,29.45 -0.082,0.848 -1.357,0 -1.357,0 -3.068,-3.067 -4.429,-6.809 -5.278,-8.85 0,0 -1.194,-1.365 -1.194,0 -1.534,4.931 -1.026,18.381 -0.34,21.615 0.681,3.91 0.168,6.124 -1.702,9.871 -0.345,1.021 -1.026,1.193 -1.026,-0.168 -0.168,-1.533 -1.194,-2.214 -1.702,-3.747 0,0 -1.194,-2.214 -1.534,0 -1.017,5.784 -4.252,12.765 -5.446,14.974 l -0.853,0.513 c 0.345,-5.444 -1.357,-13.954 -2.551,-20.255 -2.728,-16.34 -5.451,-31.659 -5.451,-53.955 0,-10.043 0.545,-20.849 0.545,-20.849 l 0.304,0.34 z m 21.321,-1.619 c -0.545,-2.382 0.309,-2.89 0.327,-4.722 0.014,-1.198 -0.717,-2.327 -0.735,-3.443 -0.005,-0.404 0.703,-1.302 1.107,-0.907 0.531,0.535 1.316,0.744 1.679,1.071 0.794,0.703 0.59,2.15 1.725,3.053 1.275,1.007 0.585,2.808 0.3,4.241 -0.077,0.408 -0.418,1.152 -0.89,1.293 -0.953,0.29 -2.011,0.1 -3.036,0.1 0.418,-0.499 -0.363,-0.195 -0.477,-0.685 z m -12.29,-15.655 c -0.118,-1.964 -0.767,-4.749 2.178,-3.969 0.926,0.249 1.135,1.624 1.153,2.273 0.05,1.787 0.458,3.225 1.216,4.781 0.427,0.885 -0.304,1.638 -0.749,2.286 -1.144,1.674 -3.481,2.631 -4.824,0.962 -0.812,-1.012 -1.802,-2.513 -1.067,-3.888 0.581,-1.093 1.03,-1.683 1.915,-2.617 l 0.177,0.172 z m 2.95,20.277 c -1.552,-2.227 -0.826,-4.282 0.989,-5.607 1.135,-0.835 2.523,-0.281 2.841,0.712 0.644,2.032 1.439,3.738 2.07,5.775 0.64,2.078 -1.979,4.101 -3.826,3.175 -1.321,-0.667 -1.23,-2.84 -2.074,-4.055 z m 1.588,8.075 -0.626,0.24 c 0.34,0 0.867,-0.086 0.926,0.045 0.808,1.774 0.036,5.058 2.228,6.342 1.684,0.984 0.041,5.09 -2.151,5.276 -1.402,0.122 -3.045,-1.479 -3.381,-2.577 -0.49,-1.61 -0.858,-3.978 0.386,-5.657 0.667,-0.903 0.676,-2.291 1.434,-2.949 0.368,-0.313 0.44,-0.962 1.185,-0.721 z m 14.051,-4.21 c -0.576,-0.753 -0.59,-1.76 0.054,-2.241 0.599,-0.44 1.625,-0.231 2.237,0.295 0.172,0.145 0.799,0.549 0.971,0.685 1.838,1.452 2.95,3.407 1.97,5.63 -0.281,0.635 -1.357,1.225 -2.119,0.658 -0.595,-0.449 -1.416,-0.472 -1.829,-1.234 -0.654,-1.22 -0.386,-2.613 -1.284,-3.792 z M 50.109,329.502 c 0,-0.113 0.508,0.68 0.431,1.198 0.118,-0.807 1.87,5.053 -0.572,6.582 -1.071,0.676 -3.268,0.39 -3.608,-1.143 0.172,-2.722 0.776,-4.532 1.983,-6.396 0.508,-0.794 1.425,-1.329 1.765,-0.24 z m 47.358,16.843 c 1.053,0.789 2.101,1.588 2.414,2.989 0.222,0.993 -0.399,1.964 -1.339,2.15 -2.66,0.531 -2.628,-2.772 -2.451,-4.527 0.059,-0.612 0.867,-0.989 1.375,-0.612 z m 6.358,6.224 c 1.008,1.034 1.666,2.314 1.988,3.752 0.363,1.61 -0.386,3.135 -1.189,4.251 -0.34,0.472 -1.634,-0.281 -2.256,-0.925 -0.971,-1.012 -1.416,-2.418 -1.793,-3.72 -0.345,-1.207 0.014,-2.794 0.994,-3.552 0.463,-0.358 1.62,-0.449 2.256,0.195 z m 24.353,-2.05 h -0.681 c 1.162,-0.027 2.151,0.667 2.782,1.452 0.985,1.243 -0.685,3.479 -2.02,2.813 -1.266,-0.64 -2.296,-2.372 -1.343,-3.86 0.182,-0.295 0.785,-0.367 1.262,-0.404 z m -11.691,15.659 c -0.486,-0.249 -1.257,-1.828 -0.876,-2.881 0.345,-0.948 1.421,-1.325 2.346,-1.161 1.035,0.186 1.72,0.939 2.324,1.715 1.552,1.996 1.988,5.131 -0.023,6.818 -0.826,0.69 -2.306,0.526 -2.896,-0.454 -0.731,-1.225 -0.195,-2.218 -0.762,-3.525 l -0.113,-0.513 z m 14.151,1.098 c 0.958,0.758 2.024,1.969 1.38,3.112 -0.209,0.363 -0.767,0.948 -1.044,0.78 -2.129,-1.293 -4.842,-1.361 -5.973,-3.656 -0.259,-0.517 -0.64,-1.052 -0.526,-1.665 0.209,-1.071 0.204,-2.128 1.035,-2.835 0.794,-0.676 1.933,-0.535 2.787,0.018 1.529,0.984 0.953,3.157 2.342,4.246 z m -22.529,-2.137 c 1.57,1.896 0.617,4.432 1.262,6.677 0.354,1.211 -0.3,2.472 -1.334,2.935 -1.461,0.653 -2.591,-0.88 -3.073,-2.146 -0.808,-2.109 -0.073,-4.387 -0.059,-6.596 0.005,-0.345 0.25,-0.776 0.504,-0.953 0.744,-0.499 1.974,-0.794 2.7,0.082 z m 9.081,-26.669 c -0.377,-1.061 -1.402,-1.837 -0.853,-2.885 0.154,-0.29 0.726,-0.218 1.13,-0.327 1.221,-0.331 2.646,-0.136 3.445,0.73 0.626,0.671 1.053,1.479 1.579,2.323 0.545,0.876 0.663,1.905 1.026,2.871 0.386,1.052 -0.045,2.232 -0.871,2.726 -0.958,0.576 -1.362,1.08 -2.778,0.458 -0.531,-0.236 -0.862,-1.384 -1.103,-1.819 -0.336,-0.59 -0.304,-2.259 -0.74,-2.799 -0.39,-0.481 -0.608,-0.64 -0.835,-1.279 z m -0.921,5.738 c 1.135,1.111 2.029,2.368 2.383,3.797 0.458,1.842 0.209,4.618 -1.765,5.217 -1.207,0.363 -2.778,0.993 -3.762,0.077 -1.234,-1.148 -2.732,-2.74 -1.992,-4.414 0.717,-1.638 3.113,-2.599 2.973,-4.668 -0.023,-0.372 0.576,-0.426 0.785,-0.413 0.427,0.023 0.98,0.018 1.38,0.404 z"
           id="path3596" />
      </g>
      <rect
         y="164.70831"
         x="0"
         height="132.29167"
         width="132.29167"
         id="rect2120"
         style="opacity:1;fill:none;fill-opacity:1;stroke:none;stroke-width:10.58333302;stroke-linejoin:round;stroke-miterlimit:4;stroke-dasharray:none;stroke-opacity:1;paint-order:stroke fill markers" />
    </g>
  </g>
  <style
     id="style2869"
     type="text/css">
	.st0{fill:#125740;}
	.st1{fill:#FFFFFF;}
</style>
</svg>
