<?xml version="1.0" encoding="UTF-8" standalone="no"?>
<!-- Created with Inkscape (http://www.inkscape.org/) -->

<svg
   xmlns:dc="http://purl.org/dc/elements/1.1/"
   xmlns:cc="http://creativecommons.org/ns#"
   xmlns:rdf="http://www.w3.org/1999/02/22-rdf-syntax-ns#"
   xmlns:svg="http://www.w3.org/2000/svg"
   xmlns="http://www.w3.org/2000/svg"
   xmlns:sodipodi="http://sodipodi.sourceforge.net/DTD/sodipodi-0.dtd"
   xmlns:inkscape="http://www.inkscape.org/namespaces/inkscape"
   width="500"
   height="500"
   viewBox="0 0 132.29166 132.29167"
   version="1.1"
   id="svg1323"
   inkscape:version="0.92.4 (5da689c313, 2019-01-14)"
   sodipodi:docname="BUF.svg">
  <defs
     id="defs1317" />
  <sodipodi:namedview
     id="base"
     pagecolor="#ffffff"
     bordercolor="#666666"
     borderopacity="1.0"
     inkscape:pageopacity="0.0"
     inkscape:pageshadow="2"
     inkscape:zoom="0.62040816"
     inkscape:cx="0.93279652"
     inkscape:cy="187.14286"
     inkscape:document-units="mm"
     inkscape:current-layer="layer1"
     showgrid="false"
     units="px"
     inkscape:snap-bbox="true"
     inkscape:bbox-paths="true"
     inkscape:bbox-nodes="true"
     inkscape:snap-bbox-edge-midpoints="true"
     inkscape:snap-bbox-midpoints="true"
     inkscape:snap-page="true"
     inkscape:snap-nodes="true"
     inkscape:window-width="1600"
     inkscape:window-height="837"
     inkscape:window-x="-8"
     inkscape:window-y="-8"
     inkscape:window-maximized="1" />
  <metadata
     id="metadata1320">
    <rdf:RDF>
      <cc:Work
         rdf:about="">
        <dc:format>image/svg+xml</dc:format>
        <dc:type
           rdf:resource="http://purl.org/dc/dcmitype/StillImage" />
        <dc:title></dc:title>
      </cc:Work>
    </rdf:RDF>
  </metadata>
  <g
     inkscape:label="Layer 1"
     inkscape:groupmode="layer"
     id="layer1"
     transform="translate(0,-164.70832)">
    <g
       id="g1025">
      <g
         transform="matrix(0.28148737,0,0,0.28148737,-4.2220289,160.3365)"
         style="fill:none"
         id="g994">
        <path
           style="fill:#ffffff"
           inkscape:connector-curvature="0"
           d="m 64.574,316.344 c 32.674,-20.866 42.952,-44.371 42.952,-44.371 l -92.527,13.282 39.321,-69.854 79.004,-6.653 c 0,0 30.736,-27.436 78.324,-47.108 0,0 4.963,-8.656 32.141,-24.303 0,0 24.927,-14.683 53.314,-24.078 0,0 19.24,-6.619 24.917,-6.952 l -1.669,-6.12 36.277,-3.109 0.935,-3.476 c 0,0 18.936,1.278 29.797,6.086 l 2.139,-2.849 c 0,0 25.343,11.652 44.205,40.283 0,0 18.295,-1.018 34.671,6.82 0,0 17.355,6.903 16.572,27.055 0,0 -0.117,25.713 -7.802,51.196 0,0 -1.18,3.99 -2.276,6.37 0,0 -1.596,3.246 -4.674,7.344 0,0 -8.594,8.852 -11.927,16.646 0,0 -1.806,5.185 -5.394,14.604 0,0 -2.76,12.954 -21.574,13.674 0,0 -18.31,23.177 -25.945,29.83 l -0.646,-5.63 c 0,0 -12.774,11.838 -23.86,18.829 l 3.744,-32.812 c 0,0 0.92,-5.86 -2.8,-6.281 l -9.568,-0.23 c 0,0 3.132,19.75 -0.651,28.881 0,0 -2.408,14.335 -24.643,21.16 0,0 -17.179,5.469 -36.835,7.006 l -4.224,-0.671 -30.942,12.685 9.045,-32.455 c 0,0 -11.595,1.175 -12.593,-0.279 l -34.456,14.776 13.543,-38.819 9.28,-5.141 -2.961,-4.024 -19.049,0.171 -7.009,5.454 c -16.181,-4.215 -31.911,-3.079 -31.911,-3.079 l -80.066,65.002 -20.062,44.361 -23.958,-32.043 7.498,-9.811 -2.848,-2.144 -10.86,8.548 -16.078,43.319 -23.679,-33.429 6.089,-13.586 -1.346,-8.323 c 7.048,-4.656 11.609,-7.775 15.172,-11.779 1.943,-2.507 3.015,-3.378 5.271,-7.593 2.129,-5.15 2.207,-10.727 4.581,-12.494 2.971,-2.017 5.242,-3.373 6.04,-3.882"
           id="path988" />
        <path
           style="fill:#c60c30"
           inkscape:connector-curvature="0"
           d="M 58.814,222.402 28.2,276.369 423.224,217.477 c 0,0 -13.729,-10.443 6.172,-26.957 L 58.814,222.402"
           id="path990" />
        <path
           style="fill:#00338d"
           inkscape:connector-curvature="0"
           d="m 459.794,183.005 -315.477,25.924 c 33.878,-27.73 80.433,-44.547 80.433,-44.547 l -4.136,-2.272 7.748,-3.647 1.111,-3.339 C 290.412,114.312 333.369,112.32 333.369,112.32 l -1.938,-5.767 c 20.83,-2.174 30.379,-2.105 30.379,-2.105 l 0.798,-2.184 c 15.716,-0.176 26.816,7.466 26.816,7.466 l 2.359,-3.515 c 32.483,22.492 37.182,38.898 37.182,38.898 23.566,-1.929 36.154,5.018 36.154,5.018 16.939,7.285 11.883,32.014 11.883,32.014 0.039,4.764 -4.664,29.762 -4.664,29.762 -3.896,17.248 -10.909,23.818 -10.909,23.818 -9.059,8.92 -11.257,17.987 -11.257,17.987 -4.689,12.905 -6.348,14.57 -6.348,14.57 -3.617,5.929 -18.28,5.635 -18.28,5.635 -3.426,8.279 -16.783,22.746 -16.783,22.746 l -1.224,-4.122 -17.629,15.711 2.76,-21.86 c 1.008,-7.456 -7.023,-9.17 -7.023,-9.17 l -38.543,1.684 c -5.638,26.237 -25.891,30.247 -25.891,30.247 -29.199,5.909 -48.605,4.705 -48.605,4.705 l -1.248,-0.94 -22.298,9.708 7.86,-21.791 11.883,-4.72 c 0.915,-0.294 0.582,-1.518 0.582,-1.518 l -1.135,-3.491 c 12.241,-1.106 23.414,-9.704 23.414,-9.704 1.424,-1.155 -0.71,-1.645 -0.71,-1.645 l -56.73,1.253 -4.473,4.294 c -49.002,-8.112 -82.562,6.213 -82.562,6.213 C 109.15,305.691 86.02,341.9 86.02,341.9 l -23.635,18.159 -11.937,32.234 -13.195,-18.952 5.389,-12.372 -0.822,-5.767 c 11.507,-7.363 16.474,-16.024 16.474,-16.024 4.008,-5.336 3.695,-9.748 3.695,-9.748 0.289,-3.535 3.519,-5.43 3.519,-5.43 44.044,-26.638 50.685,-54.77 50.685,-54.77 l 310.563,-47.01 c -5.056,23.618 14.061,15.011 14.061,15.011 -12.368,-8.729 -1.175,-14.932 -1.175,-14.932 -10.694,-18.198 20.15,-39.294 20.15,-39.294 z m -108.82,100.747 13.327,-0.152 c 0,0 2.667,17.596 1.087,25.444 0,0 -2.628,11.667 -14.536,16.23 0,0 -17.541,7.427 -43.843,9.111 l -1.273,-1.092 -19.939,8.416 6.549,-23.197 c 0,0 26.728,-2.066 34.803,-4.485 0,0 20.722,-4.073 23.825,-30.276 z m -164.17,6.888 -73.811,59.818 -15.946,35.343 -14.149,-18.967 7.973,-10.991 -0.622,-4.372 c 16.783,-9.39 16.871,-23.236 16.871,-23.236 32.391,-38.163 79.684,-37.595 79.684,-37.595 z"
           id="path992" />
      </g>
      <rect
         y="164.70831"
         x="0"
         height="132.29167"
         width="132.29167"
         id="rect1009"
         style="opacity:0.21199999;fill:none;fill-opacity:1;stroke:none;stroke-width:10.58333302;stroke-linejoin:round;stroke-miterlimit:4;stroke-dasharray:none;stroke-opacity:1;paint-order:stroke fill markers" />
    </g>
  </g>
</svg>
