<?xml version="1.0" encoding="UTF-8" standalone="no"?>
<!-- Created with Inkscape (http://www.inkscape.org/) -->

<svg
   xmlns:dc="http://purl.org/dc/elements/1.1/"
   xmlns:cc="http://creativecommons.org/ns#"
   xmlns:rdf="http://www.w3.org/1999/02/22-rdf-syntax-ns#"
   xmlns:svg="http://www.w3.org/2000/svg"
   xmlns="http://www.w3.org/2000/svg"
   xmlns:sodipodi="http://sodipodi.sourceforge.net/DTD/sodipodi-0.dtd"
   xmlns:inkscape="http://www.inkscape.org/namespaces/inkscape"
   width="500"
   height="500"
   viewBox="0 0 132.29166 132.29167"
   version="1.1"
   id="svg1323"
   inkscape:version="0.92.4 (5da689c313, 2019-01-14)"
   sodipodi:docname="DAL.svg"
   inkscape:export-filename="C:\Users\Katherine\Documents\my teams\DAL.png"
   inkscape:export-xdpi="96"
   inkscape:export-ydpi="96">
  <defs
     id="defs1317" />
  <sodipodi:namedview
     id="base"
     pagecolor="#ffffff"
     bordercolor="#666666"
     borderopacity="1.0"
     inkscape:pageopacity="0.0"
     inkscape:pageshadow="2"
     inkscape:zoom="0.62040816"
     inkscape:cx="262.85714"
     inkscape:cy="187.14286"
     inkscape:document-units="mm"
     inkscape:current-layer="layer1"
     showgrid="false"
     units="px"
     inkscape:snap-bbox="true"
     inkscape:bbox-paths="true"
     inkscape:bbox-nodes="true"
     inkscape:snap-bbox-edge-midpoints="true"
     inkscape:snap-bbox-midpoints="true"
     inkscape:snap-page="true"
     inkscape:snap-nodes="true"
     inkscape:window-width="1600"
     inkscape:window-height="837"
     inkscape:window-x="-8"
     inkscape:window-y="-8"
     inkscape:window-maximized="1" />
  <metadata
     id="metadata1320">
    <rdf:RDF>
      <cc:Work
         rdf:about="">
        <dc:format>image/svg+xml</dc:format>
        <dc:type
           rdf:resource="http://purl.org/dc/dcmitype/StillImage" />
        <dc:title></dc:title>
      </cc:Work>
    </rdf:RDF>
  </metadata>
  <g
     inkscape:label="Layer 1"
     inkscape:groupmode="layer"
     id="layer1"
     transform="translate(0,-164.70832)">
    <g
       id="g1959">
      <g
         transform="matrix(0.27615131,0,0,0.27615131,-2.7612365,161.81177)"
         style="fill:none"
         id="g1930">
        <path
           style="fill:#ffffff"
           inkscape:connector-curvature="0"
           d="M 489.054,196.69 H 307.393 L 249.526,23.638 191.654,196.69 H 9.999 L 158.833,303.244 101.698,476.395 249.526,370.798 397.365,476.192 340.213,303.25 489.053,196.691"
           id="path1922" />
        <path
           style="fill:#002244"
           inkscape:connector-curvature="0"
           d="M 249.527,44.232 196.301,203.15 H 30.097 l 136.353,97.609 -52.44,158.913 135.544,-96.801 135.5,96.801 L 332.592,300.759 468.95,203.15 H 302.746 L 249.526,44.232"
           id="path1924" />
        <path
           style="fill:#ffffff"
           inkscape:connector-curvature="0"
           d="m 249.527,88.031 -42.801,128.72 H 72.1 L 182.549,295.817 140.073,424.531 249.857,346.13 358.975,424.531 316.499,295.822 426.954,216.751 H 292.322 L 249.527,88.031"
           id="path1926" />
        <path
           style="fill:#002244"
           inkscape:connector-curvature="0"
           d="m 249.527,125.887 -33.64,101.688 H 109.545 l 87.245,62.463 -33.563,101.688 86.739,-61.941 85.854,61.941 -33.569,-101.683 87.251,-62.469 H 283.16 L 249.525,125.886"
           id="path1928" />
      </g>
      <rect
         y="164.70831"
         x="0"
         height="132.29167"
         width="132.29167"
         id="rect1951"
         style="opacity:0.21199999;fill:none;fill-opacity:1;stroke:none;stroke-width:1.96499991;stroke-linejoin:round;stroke-miterlimit:4;stroke-dasharray:none;stroke-opacity:1;paint-order:stroke fill markers" />
    </g>
  </g>
</svg>
