<?xml version="1.0" encoding="UTF-8" standalone="no"?>
<!-- Created with Inkscape (http://www.inkscape.org/) -->

<svg
   xmlns:dc="http://purl.org/dc/elements/1.1/"
   xmlns:cc="http://creativecommons.org/ns#"
   xmlns:rdf="http://www.w3.org/1999/02/22-rdf-syntax-ns#"
   xmlns:svg="http://www.w3.org/2000/svg"
   xmlns="http://www.w3.org/2000/svg"
   xmlns:sodipodi="http://sodipodi.sourceforge.net/DTD/sodipodi-0.dtd"
   xmlns:inkscape="http://www.inkscape.org/namespaces/inkscape"
   width="500"
   height="500"
   viewBox="0 0 132.29166 132.29167"
   version="1.1"
   id="svg975"
   inkscape:version="0.92.4 (5da689c313, 2019-01-14)"
   sodipodi:docname="DEN.svg">
  <defs
     id="defs969" />
  <sodipodi:namedview
     id="base"
     pagecolor="#ffffff"
     bordercolor="#666666"
     borderopacity="1.0"
     inkscape:pageopacity="0.0"
     inkscape:pageshadow="2"
     inkscape:zoom="0.57669377"
     inkscape:cx="281.42857"
     inkscape:cy="258.57143"
     inkscape:document-units="mm"
     inkscape:current-layer="layer1"
     showgrid="false"
     units="px"
     inkscape:snap-bbox="true"
     inkscape:bbox-nodes="true"
     inkscape:snap-bbox-edge-midpoints="true"
     inkscape:snap-bbox-midpoints="true"
     inkscape:bbox-paths="true"
     inkscape:snap-page="true"
     inkscape:window-width="1600"
     inkscape:window-height="837"
     inkscape:window-x="-8"
     inkscape:window-y="-8"
     inkscape:window-maximized="1" />
  <metadata
     id="metadata972">
    <rdf:RDF>
      <cc:Work
         rdf:about="">
        <dc:format>image/svg+xml</dc:format>
        <dc:type
           rdf:resource="http://purl.org/dc/dcmitype/StillImage" />
        <dc:title></dc:title>
      </cc:Work>
    </rdf:RDF>
  </metadata>
  <g
     inkscape:label="Layer 1"
     inkscape:groupmode="layer"
     id="layer1"
     transform="translate(0,-164.70832)">
    <g
       id="g2141">
      <g
         transform="matrix(0.27560764,0,0,0.27560764,-2.7560767,162.06264)"
         style="fill:none"
         id="g2100">
        <path
           style="fill:#002244"
           inkscape:connector-curvature="0"
           d="m 253.155,387.265 c 0.014,0.184 -0.203,1.411 -0.688,1.946 -0.489,0.54 -1.205,0.738 -1.897,0.89 -1.131,0.249 -2.248,0.009 -3.148,-0.673 -0.739,-0.558 -1.2,-1.342 -1.255,-2.103 l -0.005,-0.042 -0.005,0.005 -8.405,-27.339 C 233.044,345.929 225.927,330.89 212.121,317.581 195.444,301.509 170.861,290.39 136.964,283.611 107.419,277.699 87.973,272.612 73.909,267.129 60.408,261.867 52.446,256.388 44.645,249.789 24.761,232.961 10.9,211.507 10,184.482 c 0,0 19.783,27.933 41.527,14.592 10.279,-6.304 17.669,-5.405 17.669,-5.405 -6.688,-7.374 -11.622,-17.004 -12.942,-27.477 -1.052,-8.375 -0.365,-17.672 2.04,-27.629 4.094,-16.948 16.016,-29.368 16.132,-29.561 0,0 -4.69,40.713 14.793,55.157 12.015,6.756 24.343,4.031 24.343,4.031 0,0 -16.178,-7.485 -18.444,-31.512 -0.992,-10.561 0.568,-18.867 0.983,-20.988 0,0 21.357,30.124 42.755,17.751 4.786,-2.767 30.039,-15.809 40.927,-18.701 15.984,-4.238 31.802,-4.538 47.015,-0.885 12.629,3.03 24.957,8.804 36.649,17.156 20.84,14.891 34.336,34.224 39.169,41.847 0,0 41.943,-1.845 64.897,27.468 l 0.032,0.046 53.09,23.414 -6.019,3.846 -0.263,0.171 0.272,0.171 c 17.18,10.911 47.237,30.249 55.421,37.222 l 0.018,0.018 0.028,0.014 15.209,7.227 -2.774,7.356 v 0.005 c -0.185,0.493 -4.311,12.286 3.476,18.12 l 3.914,2.933 0.083,0.065 -0.037,0.092 -11.955,31.641 -3.028,-4.063 c -16.677,-22.967 -32.439,-27.209 -40.36,-27.371 -8.964,-0.189 -9.596,4.584 -8.484,6.641 3.605,6.655 23.697,10.104 31.142,10.861 -0.005,0 4.925,0.641 5.068,0.659 l -19.354,17.326 -35.089,-2.204 -0.143,-0.009 0.014,-0.143 0.591,-6.885 v -0.042 c -0.18,-1.305 -2.552,-13.061 -31.244,-24.862 l -0.083,-0.028 -0.083,0.037 c -4.879,2.251 -14.89,6.134 -27.159,6.793 -14.793,0.798 -28.52,-3.191 -40.803,-11.848 l -0.083,-0.051 -0.102,0.023 c -4.925,1.679 -14.641,5.47 -24.352,12.134 -18.024,12.383 -27.86,28.575 -29.231,48.133 0,0 -1.579,16.118 -2.068,29.501"
           id="path2084" />
        <path
           style="fill:#fb4f14"
           inkscape:connector-curvature="0"
           d="m 138.742,169.917 c 39.074,-11.99 65.52,-10.122 74.548,5.229 -33.175,3.791 -66.351,13.198 -98.603,27.973 -16.158,-1.098 -31.002,-7.687 -39.715,-17.643 -10.985,-12.552 -14.612,-31.261 -7.038,-54.858 0.54,20.355 6.466,32.303 16.297,39.031 11.534,7.895 29.363,7.978 54.512,0.267 z m 121.449,-31.944 c 13.389,10.011 25.957,23.8 36.369,39.903 -20.312,-3.749 -41.146,-5.229 -61.925,-4.395 -6.143,-12.28 -16.542,-21.282 -27.849,-24.09 -12.549,-3.113 -28.634,-0.71 -47.811,7.143 -17.22,7.051 -30.955,7.83 -40.828,2.32 -5.52,-3.08 -9.822,-8.116 -12.798,-14.96 -2.386,-5.483 -3.369,-10.846 -3.868,-13.807 l 0.24,0.244 c 5.234,5.423 19.14,19.829 40.643,8.693 8.178,-4.238 30.018,-14.95 39.678,-17.547 14.912,-4.007 29.7,-4.1 43.92,-0.42 11.774,3.048 23.289,8.739 34.228,16.915 z M 22.983,204.295 c 0,0 11.806,11.238 31.671,1.07 22.334,-11.432 26.142,1.19 44.797,7.079 -67.389,38.69 -76.468,-8.148 -76.468,-8.148 z"
           id="path2086" />
        <path
           style="fill:#ffffff"
           inkscape:connector-curvature="0"
           d="m 472.471,285.278 c 0.051,-5.188 1.44,-9.412 1.731,-10.224 l -9.051,-4.224 -0.037,-0.009 -0.018,-0.028 c -5.589,-6.041 -66.111,-44.072 -66.72,-44.459 l -0.231,-0.143 0.226,-0.143 4.472,-2.979 -41.017,-17.358 -0.046,-0.023 -0.032,-0.042 C 345.1,180.767 312.29,179.776 305.99,179.822 c 12.498,3.86 16.315,7.66 17.28,10.191 0.642,1.692 0,2.748 -0.028,2.79 l -0.069,0.111 -0.12,-0.032 C 181.531,154.339 65.759,243.018 60.908,246.808 c 5.557,5.603 18.046,13.152 62.94,23.113 10.02,-7.821 57.775,-41.748 129.854,-39.751 l -11.695,-17.653 c 0,0 44.645,11.593 70.131,25.741 -1.966,18.852 9.72,37.021 28.569,42.582 13.514,3.984 27.448,0.544 37.426,-7.941 l 32.026,20.42 -30.725,-11.911 c -13.066,9.444 -30.314,12.732 -46.823,7.369 -20.428,-6.627 -33.974,-24.639 -35.898,-44.727 -69.162,-17.353 -120.157,26.345 -130.348,35.965 8.238,2.605 15.84,5.566 22.735,8.863 8.4,4.021 15.965,8.637 22.597,13.793 5.123,-6.244 25.546,-27.692 64.712,-28.015 0,0 -38.455,9.942 -50.714,41.24 10.892,12.603 16.5,25.921 20.811,38.639 0.978,-12.087 4.846,-23.182 11.543,-32.981 5.478,-8.005 12.831,-15.172 21.858,-21.296 15.369,-10.427 30.471,-14.263 30.623,-14.3 l 0.083,-0.023 0.065,0.055 c 31.163,25.096 65.465,5.335 65.806,5.128 l 0.069,-0.037 0.083,0.028 c 9.591,3.661 17.695,7.766 24.069,12.207 5.109,3.546 9.134,7.323 11.963,11.21 4.389,6.036 4.514,10.376 4.486,11.28 l 23.238,1.522 6.817,-5.815 c -21.12,-2.735 -27.522,-9.292 -28.828,-14.909 -2.271,-13.553 11.575,-15.222 17.885,-14.402 14.709,1.918 32.594,15.084 39.328,24.242 l 4.985,-13.373 c -6.785,-5.151 -8.16,-12.52 -8.109,-17.796"
           id="path2088" />
        <path
           style="fill:#002244"
           inkscape:connector-curvature="0"
           d="m 390.534,230.858 c -0.402,2.707 -2.834,4.685 -5.612,4.469 -2.898,-0.217 -5.072,-2.748 -4.851,-5.649 0.111,-1.36 0.729,-2.564 1.652,-3.431 -15.535,-7.618 -23.663,-8.776 -23.663,-8.776 18.817,12.479 26.848,22.887 26.848,22.887 l 5.086,-3.468 47.58,26.534 c -18.928,-15.425 -34.68,-25.714 -47.04,-32.566"
           id="path2090" />
        <path
           style="fill:#fb4f14"
           inkscape:connector-curvature="0"
           d="m 380.071,229.677 c -0.222,2.901 1.952,5.432 4.851,5.649 2.778,0.217 5.211,-1.762 5.612,-4.469 -0.748,-0.415 -1.486,-0.821 -2.215,-1.208 l -5.192,3.809 1.445,-5.783 c -0.974,-0.503 -1.925,-0.978 -2.848,-1.43 -0.923,0.867 -1.542,2.071 -1.652,3.431"
           id="path2092" />
        <path
           style="fill:#002244"
           inkscape:connector-curvature="0"
           d="m 383.126,233.459 5.192,-3.809 c -1.288,-0.701 -2.538,-1.356 -3.748,-1.974 l -1.445,5.783"
           id="path2094" />
        <path
           style="fill:#002244"
           inkscape:connector-curvature="0"
           d="m 465.778,276.161 c -11.202,4.478 3.235,17.311 3.235,17.311 -31.394,-24.759 -3.235,-17.311 -3.235,-17.311"
           id="path2096" />
        <path
           style="fill:#002244"
           inkscape:connector-curvature="0"
           d="m 329.214,195.303 c 20.298,0.41 0.152,-8.195 0.152,-8.195 0,0 14.612,2.241 23.114,15.785 -8.022,-3.09 -16.795,-6 -23.266,-7.59"
           id="path2098" />
      </g>
      <rect
         y="164.70831"
         x="0"
         height="132.29167"
         width="132.29167"
         id="rect2120"
         style="opacity:1;fill:none;fill-opacity:1;stroke:none;stroke-width:10.58333302;stroke-linejoin:round;stroke-miterlimit:4;stroke-dasharray:none;stroke-opacity:1;paint-order:stroke fill markers" />
    </g>
  </g>
</svg>
