<?xml version="1.0" encoding="UTF-8" standalone="no"?>
<!-- Created with Inkscape (http://www.inkscape.org/) -->

<svg
   xmlns:dc="http://purl.org/dc/elements/1.1/"
   xmlns:cc="http://creativecommons.org/ns#"
   xmlns:rdf="http://www.w3.org/1999/02/22-rdf-syntax-ns#"
   xmlns:svg="http://www.w3.org/2000/svg"
   xmlns="http://www.w3.org/2000/svg"
   xmlns:sodipodi="http://sodipodi.sourceforge.net/DTD/sodipodi-0.dtd"
   xmlns:inkscape="http://www.inkscape.org/namespaces/inkscape"
   width="500"
   height="500"
   viewBox="0 0 132.29166 132.29167"
   version="1.1"
   id="svg975"
   inkscape:version="0.92.4 (5da689c313, 2019-01-14)"
   sodipodi:docname="GB.svg">
  <defs
     id="defs969" />
  <sodipodi:namedview
     id="base"
     pagecolor="#ffffff"
     bordercolor="#666666"
     borderopacity="1.0"
     inkscape:pageopacity="0.0"
     inkscape:pageshadow="2"
     inkscape:zoom="0.57669377"
     inkscape:cx="281.42857"
     inkscape:cy="258.57143"
     inkscape:document-units="mm"
     inkscape:current-layer="layer1"
     showgrid="false"
     units="px"
     inkscape:snap-bbox="true"
     inkscape:bbox-nodes="true"
     inkscape:snap-bbox-edge-midpoints="true"
     inkscape:snap-bbox-midpoints="true"
     inkscape:bbox-paths="true"
     inkscape:snap-page="true"
     inkscape:window-width="1600"
     inkscape:window-height="837"
     inkscape:window-x="-8"
     inkscape:window-y="-8"
     inkscape:window-maximized="1" />
  <metadata
     id="metadata972">
    <rdf:RDF>
      <cc:Work
         rdf:about="">
        <dc:format>image/svg+xml</dc:format>
        <dc:type
           rdf:resource="http://purl.org/dc/dcmitype/StillImage" />
        <dc:title></dc:title>
      </cc:Work>
    </rdf:RDF>
  </metadata>
  <g
     inkscape:label="Layer 1"
     inkscape:groupmode="layer"
     id="layer1"
     transform="translate(0,-164.70832)">
    <g
       id="g2221">
      <g
         transform="matrix(0.29413637,0,0,0.29413637,-7.3534096,157.36609)"
         style="fill:none"
         id="g2195">
        <path
           style="fill:#ffb612"
           inkscape:connector-curvature="0"
           d="M 248.689,102.258 C 127.44,102.269 25,170.2 25,250.609 c 0,83.703 96.171,146.82 223.689,146.82 74.424,0 144.985,-26.149 188.756,-69.942 24.094,-24.102 37.344,-51.413 37.318,-76.878 -0.032,-39.647 -23.362,-76.883 -65.691,-104.863 -42.44,-28.048 -99.392,-43.488 -160.383,-43.488"
           id="path2189" />
        <path
           style="fill:#203731"
           inkscape:connector-curvature="0"
           d="M 92.26,348.926 C 53.358,322.988 31.928,288.061 31.928,250.609 c 0,-75.331 101.293,-141.416 216.762,-141.426 120.775,-0.005 219.078,63.438 219.152,141.426 0.021,23.628 -12.513,49.187 -35.296,71.984 -42.497,42.52 -111.226,67.911 -183.855,67.911 -60.68,0 -116.238,-14.771 -156.429,-41.578"
           id="path2191" />
        <path
           style="fill:#ffffff"
           inkscape:connector-curvature="0"
           d="m 345.728,211.757 c -17.414,-25.928 -55.542,-43.909 -100.44,-43.909 -61.622,0 -111.589,33.884 -111.589,75.678 0,41.788 35.27,78.483 111.589,78.441 45.83,-0.021 82.679,-19.808 99.892,-45.798 l -130.177,0.226 -0.4,-33.805 225.969,-0.079 c 0.305,2.71 0.621,5.352 0.621,8.099 0,65.069 -86.19,117.814 -192.504,117.814 -106.309,0 -192.494,-52.745 -192.494,-117.814 0,-65.069 91.301,-119.808 192.494,-120.203 84.226,-0.321 155.824,34.468 181.934,81.298 l -84.895,0.053"
           id="path2193" />
      </g>
      <rect
         y="164.70831"
         x="0"
         height="132.29167"
         width="132.29167"
         id="rect2120"
         style="opacity:1;fill:none;fill-opacity:1;stroke:none;stroke-width:10.58333302;stroke-linejoin:round;stroke-miterlimit:4;stroke-dasharray:none;stroke-opacity:1;paint-order:stroke fill markers" />
    </g>
  </g>
</svg>
