<?xml version="1.0" encoding="UTF-8" standalone="no"?>
<!-- Created with Inkscape (http://www.inkscape.org/) -->

<svg
   xmlns:dc="http://purl.org/dc/elements/1.1/"
   xmlns:cc="http://creativecommons.org/ns#"
   xmlns:rdf="http://www.w3.org/1999/02/22-rdf-syntax-ns#"
   xmlns:svg="http://www.w3.org/2000/svg"
   xmlns="http://www.w3.org/2000/svg"
   xmlns:sodipodi="http://sodipodi.sourceforge.net/DTD/sodipodi-0.dtd"
   xmlns:inkscape="http://www.inkscape.org/namespaces/inkscape"
   width="500"
   height="500"
   viewBox="0 0 132.29166 132.29167"
   version="1.1"
   id="svg975"
   inkscape:version="0.92.4 (5da689c313, 2019-01-14)"
   sodipodi:docname="IND.svg">
  <defs
     id="defs969" />
  <sodipodi:namedview
     id="base"
     pagecolor="#ffffff"
     bordercolor="#666666"
     borderopacity="1.0"
     inkscape:pageopacity="0.0"
     inkscape:pageshadow="2"
     inkscape:zoom="0.57669377"
     inkscape:cx="281.42857"
     inkscape:cy="258.57143"
     inkscape:document-units="mm"
     inkscape:current-layer="layer1"
     showgrid="false"
     units="px"
     inkscape:snap-bbox="true"
     inkscape:bbox-nodes="true"
     inkscape:snap-bbox-edge-midpoints="true"
     inkscape:snap-bbox-midpoints="true"
     inkscape:bbox-paths="true"
     inkscape:snap-page="true"
     inkscape:window-width="1600"
     inkscape:window-height="837"
     inkscape:window-x="-8"
     inkscape:window-y="-8"
     inkscape:window-maximized="1" />
  <metadata
     id="metadata972">
    <rdf:RDF>
      <cc:Work
         rdf:about="">
        <dc:format>image/svg+xml</dc:format>
        <dc:type
           rdf:resource="http://purl.org/dc/dcmitype/StillImage" />
        <dc:title></dc:title>
      </cc:Work>
    </rdf:RDF>
  </metadata>
  <g
     inkscape:label="Layer 1"
     inkscape:groupmode="layer"
     id="layer1"
     transform="translate(0,-164.70832)">
    <g
       id="g2297">
      <g
         transform="matrix(0.34966058,0,0,0.34966058,-21.151063,143.37665)"
         style="fill:none"
         id="g2273">
        <path
           style="fill:#ffffff"
           inkscape:connector-curvature="0"
           d="m 249.659,439.348 c -36.435,0.163 -64.374,-10.241 -77.746,-17.299 -26.199,-13.752 -47.785,-31.959 -66.37,-57.229 -26.709,-36.226 -31.879,-65.395 -34.007,-81.28 -1.251,-8.271 -2.738,-28.15 0.053,-45.984 3.158,-25.732 9.006,-38.549 13.189,-51.092 3.253,-8.917 13.746,-30.378 19.973,-40.22 5.291,-7.714 14.954,-21.928 18.895,-26.946 1.077,-1.576 -0.321,-0.83 -0.914,-0.814 -1.445,0.352 -2.191,0.441 -3.305,0.352 -0.835,0 -2.506,-0.279 -3.436,-0.557 -5.202,-1.109 -12.637,-6.873 -11.707,-16.91 -0.184,-2.228 2.228,-21.36 4.088,-27.309 2.417,-8.355 7.43,-12.259 16.352,-13.005 4.456,0 23.22,-0.373 31.743,0.956 17.067,1.697 29.562,6.663 36.992,21.713 5.948,13.189 3.909,33.814 -4.267,49.605 -2.79,5.386 -8.36,15.423 -13.194,21.923 -4.456,6.5 -6.316,9.853 -10.22,17.094 -3.899,7.614 -16.904,36.042 -21.36,54.618 -8.481,34.671 -3.72,54.623 12.627,81.753 12.08,18.018 26.199,31.029 37.16,36.972 18.023,11.329 42.635,14.493 55.457,14.493 12.821,0 37.433,-3.163 55.462,-14.493 10.956,-5.943 25.075,-18.954 37.15,-36.972 16.352,-27.13 21.113,-47.082 12.637,-81.753 -4.456,-18.575 -17.466,-47.004 -21.365,-54.618 -3.899,-7.241 -5.759,-10.594 -10.22,-17.094 -4.824,-6.5 -10.404,-16.537 -13.194,-21.923 -8.171,-15.79 -10.21,-36.415 -4.267,-49.605 7.425,-15.05 19.931,-20.015 36.992,-21.713 8.518,-1.329 27.287,-0.956 31.743,-0.956 8.922,0.746 13.94,4.65 16.352,13.005 1.855,5.948 4.277,25.081 4.088,27.309 0.93,10.037 -6.5,15.801 -11.707,16.91 -0.92,0.279 -2.601,0.557 -3.436,0.557 -1.114,0.089 -1.855,0 -3.305,-0.352 -0.594,-0.016 -1.991,-0.762 -0.914,0.814 3.941,5.018 13.599,19.232 18.901,26.946 6.221,9.842 16.72,31.302 19.967,40.22 4.183,12.543 10.031,25.359 13.189,51.092 2.79,17.835 1.303,37.713 0.058,45.984 -2.133,15.885 -7.293,45.054 -34.013,81.28 -18.585,25.27 -40.171,43.478 -66.365,57.229 -13.373,7.057 -41.311,17.13 -77.752,17.299"
           id="path2269" />
        <path
           style="fill:#002c5f"
           inkscape:connector-curvature="0"
           d="m 249.459,403.537 c 2.412,0 4.372,-1.955 4.372,-4.367 0,-2.417 -1.96,-4.377 -4.372,-4.377 -2.417,0 -4.372,1.96 -4.372,4.377 0,2.412 1.955,4.367 4.372,4.367 z M 133.081,348.173 c 2.417,0 4.372,-1.955 4.372,-4.372 0,-2.417 -1.955,-4.377 -4.372,-4.377 -2.412,0 -4.372,1.96 -4.372,4.377 0,2.417 1.96,4.372 4.372,4.372 z M 107.076,247.109 c 2.412,0 4.372,-1.96 4.372,-4.372 0,-2.422 -1.96,-4.377 -4.372,-4.377 -2.417,0 -4.372,1.955 -4.372,4.377 0,2.412 1.955,4.372 4.372,4.372 z M 158.35,128.2 c 2.417,0 4.372,-1.955 4.372,-4.372 0,-2.417 -1.955,-4.372 -4.372,-4.372 -2.417,0 -4.377,1.955 -4.377,4.372 0,2.417 1.96,4.372 4.377,4.372 z m 212.295,215.602 c 0,-2.417 -1.96,-4.377 -4.372,-4.377 -2.412,0 -4.377,1.96 -4.377,4.377 0,2.417 1.965,4.372 4.377,4.372 2.412,0 4.372,-1.955 4.372,-4.372 z m 26.01,-101.064 c 0,-2.422 -1.96,-4.377 -4.377,-4.377 -2.412,0 -4.372,1.955 -4.372,4.377 0,2.412 1.96,4.372 4.372,4.372 2.417,0 4.377,-1.96 4.377,-4.372 z M 345.381,123.829 c 0,-2.417 -1.96,-4.372 -4.377,-4.372 -2.417,0 -4.372,1.955 -4.372,4.372 0,2.417 1.955,4.372 4.372,4.372 2.417,0 4.377,-1.955 4.377,-4.372 z M 168.192,409.781 c -23.777,-14.114 -45.331,-31.949 -66.139,-66.278 -9.29,-16.952 -30.839,-52.994 -20.214,-115.788 12.259,-57.413 36.94,-86.398 51.059,-106.277 6.684,-9.658 -0.189,-15.233 -5.58,-13.189 -4.514,1.713 -7.614,1.823 -7.614,1.823 -7.987,-1.082 -6.873,-6.279 -5.386,-19.847 l 1.86,-11.145 c 1.666,-9.847 6.127,-9.663 17.829,-9.437 18.58,0.368 21.922,0.52 31.958,2.375 13.378,2.974 30.839,16.353 17.093,53.136 -8.549,19.695 -17.466,26.379 -27.129,46.82 -10.404,22.669 -35.668,73.572 -18.575,117.049 23.409,58.338 68.74,79.147 111.843,79.893 43.103,-0.562 92.89,-26.016 112.805,-79.893 17.093,-43.478 -8.171,-94.38 -18.58,-117.049 -9.658,-20.441 -18.575,-27.125 -27.124,-46.82 -13.746,-36.783 3.72,-50.162 17.093,-53.136 10.031,-1.855 13.378,-2.007 31.958,-2.375 11.702,-0.226 16.168,-0.41 17.839,9.437 l 1.855,11.145 c 1.482,13.568 2.601,18.765 -5.386,19.847 0,0 -3.1,-0.11 -7.619,-1.823 -5.391,-2.044 -12.269,3.531 -5.58,13.189 14.124,19.879 38.794,48.864 51.059,106.277 10.625,62.794 -10.924,98.836 -20.214,115.788 -20.803,34.329 -42.357,52.164 -66.139,66.278 -32.552,22.674 -93.484,21.366 -81.782,20.63 12.264,0.93 -44.774,2.412 -81.188,-20.63 z"
           id="path2271" />
      </g>
      <rect
         y="164.70831"
         x="0"
         height="132.29167"
         width="132.29167"
         id="rect2120"
         style="opacity:1;fill:none;fill-opacity:1;stroke:none;stroke-width:10.58333302;stroke-linejoin:round;stroke-miterlimit:4;stroke-dasharray:none;stroke-opacity:1;paint-order:stroke fill markers" />
    </g>
  </g>
</svg>
