<?xml version="1.0" encoding="UTF-8" standalone="no"?>
<!-- Created with Inkscape (http://www.inkscape.org/) -->

<svg
   xmlns:dc="http://purl.org/dc/elements/1.1/"
   xmlns:cc="http://creativecommons.org/ns#"
   xmlns:rdf="http://www.w3.org/1999/02/22-rdf-syntax-ns#"
   xmlns:svg="http://www.w3.org/2000/svg"
   xmlns="http://www.w3.org/2000/svg"
   xmlns:sodipodi="http://sodipodi.sourceforge.net/DTD/sodipodi-0.dtd"
   xmlns:inkscape="http://www.inkscape.org/namespaces/inkscape"
   width="500"
   height="500"
   viewBox="0 0 132.29166 132.29167"
   version="1.1"
   id="svg975"
   inkscape:version="0.92.4 (5da689c313, 2019-01-14)"
   sodipodi:docname="JAX.svg">
  <defs
     id="defs969" />
  <sodipodi:namedview
     id="base"
     pagecolor="#ffffff"
     bordercolor="#666666"
     borderopacity="1.0"
     inkscape:pageopacity="0.0"
     inkscape:pageshadow="2"
     inkscape:zoom="0.57669377"
     inkscape:cx="281.42857"
     inkscape:cy="258.57143"
     inkscape:document-units="mm"
     inkscape:current-layer="layer1"
     showgrid="false"
     units="px"
     inkscape:snap-bbox="true"
     inkscape:bbox-nodes="true"
     inkscape:snap-bbox-edge-midpoints="true"
     inkscape:snap-bbox-midpoints="true"
     inkscape:bbox-paths="true"
     inkscape:snap-page="true"
     inkscape:window-width="1600"
     inkscape:window-height="837"
     inkscape:window-x="-8"
     inkscape:window-y="-8"
     inkscape:window-maximized="1" />
  <metadata
     id="metadata972">
    <rdf:RDF>
      <cc:Work
         rdf:about="">
        <dc:format>image/svg+xml</dc:format>
        <dc:type
           rdf:resource="http://purl.org/dc/dcmitype/StillImage" />
        <dc:title></dc:title>
      </cc:Work>
    </rdf:RDF>
  </metadata>
  <g
     inkscape:label="Layer 1"
     inkscape:groupmode="layer"
     id="layer1"
     transform="translate(0,-164.70832)">
    <g
       id="g2356">
      <g
         transform="matrix(0.32308042,0,0,0.32308042,-14.53876,150.12501)"
         style="fill:none"
         id="g2320">
        <path
           style="fill:#000000"
           inkscape:connector-curvature="0"
           d="m 177.992,248.869 c 0.977,0.762 4.691,3.049 5.452,3.811 0,0 2.499,-1.638 4.463,-2.07 0,0 -4.248,3.049 -5.224,4.698 0,0 1.851,-0.978 3.157,-0.978 0,0 3.373,2.07 5.542,2.07 2.181,0 6.315,-0.66 6.315,-0.66 0,0 2.396,-1.627 5.02,-1.854 0,0 -2.737,1.854 -3.384,2.73 0,0 1.09,-0.114 1.749,0.33 0.647,0.432 2.828,0.865 4.793,0.102 1.953,-0.762 3.907,-1.524 3.805,-3.925 -0.114,-2.4 -1.522,-5.233 -1.522,-5.233 0,0 2.567,-2.15 3.986,-2.821 -0.341,0.046 -3.123,0.466 -4.861,1.183 0,0 -2.169,-4.368 -4.463,-5.779 -2.294,-1.411 -4.577,-1.638 -7.076,-0.546 -2.51,1.092 -6.224,2.15 -6.224,2.15 0,0 -3.43,1.649 -3.884,2.309 0.068,-0.159 0.693,-1.456 1.613,-2.173 0,0 -3.146,0.011 -5.452,0.114 -2.283,0.102 -4.781,0.33 -5.111,2.503 -0.318,2.184 0.329,3.276 1.306,4.038 z m 32.539,26.71 c -2.385,-2.48 -4.713,-3.299 -6.11,-1.923 0,0 -0.704,-2.639 -2.317,-3.356 -1.624,-0.717 -2.726,-0.58 -2.726,-0.58 0,0 -6.315,1.263 -8.916,2.867 0.511,-0.33 4.691,-3.037 6.178,-3.993 l -3.509,0.808 c 0,0 -3.691,0.011 -7.121,-0.262 -3.419,-0.262 -11.323,-1.081 -12.788,-0.796 0,0 0.988,-0.683 1.579,-1.035 -0.159,0 -2.748,0.023 -4.463,1.411 0,0 -5.258,0.546 -6.269,4.095 -1.022,3.561 1.59,6.086 2.351,6.643 0,0 1.056,-1.661 3.191,-2.707 0,0 -1.215,1.968 -1.17,3.606 0,0 4.486,2.378 13.436,3.618 8.961,1.24 8.314,0.58 11.46,2.537 0,0 3.328,-2.355 5.168,-2.912 0,0 -2.589,3.686 -2.828,5.062 0,0 4.157,3.549 7.587,3.811 3.441,0.273 6.383,-1.058 6.019,-4.607 l 1.238,-1.524 -2.192,0.159 0.636,-1.194 c 0,0 -0.102,-1.809 -1.102,-3.208 0.17,0.091 1.885,1.024 3.509,0.58 l -0.477,0.899 c 0,0 1.874,-0.216 3.26,-2.594 l -1.136,-0.307 c 0,0 -0.091,-2.616 -2.487,-5.096 z m 143.795,77.924 c -2.465,4.653 -5.486,9.01 -9.006,12.923 -6.008,6.678 -13.402,11.967 -21.499,15.778 -8.416,3.959 -18.013,6.837 -27.371,7.201 1.67,-1.786 3.339,-3.561 4.986,-5.335 -9.211,1.604 -18.762,1.866 -27.984,0.046 1.124,-0.83 2.647,-2.093 2.817,-3.572 -0.636,-0.057 -1.317,-0.364 -1.908,-0.569 -1.579,-0.557 -3.112,-1.229 -4.611,-1.968 -5.531,-2.707 -10.63,-6.302 -15.287,-10.329 -8.155,-7.053 -15.026,-15.539 -20.795,-24.64 -3.487,-5.495 -6.303,-11.399 -10.165,-16.643 -3.316,-4.493 -7.166,-8.577 -11.403,-12.195 -6.621,-5.688 -14.185,-10.204 -22.147,-13.708 -12.857,-5.642 -25.611,-11.74 -37.684,-18.941 -3.396,-2.025 -6.724,-4.164 -9.983,-6.416 -6.917,-4.823 -13.663,-10.227 -19.398,-16.415 l -0.386,-0.421 c 0.159,-0.137 1.374,-1.183 1.999,-1.695 1.079,-0.865 2.203,-1.672 3.35,-2.446 1.079,-0.739 3.578,-2.07 3.578,-2.07 l 0.034,-0.023 v 0.034 c -0.034,0.353 -0.045,0.728 -0.011,1.16 0,0 1.249,-1.365 2.408,-2.002 0,0 -1.885,2.946 -2.101,5.153 0,0 -0.42,3.674 3.044,5.563 3.453,1.888 8.609,3.367 10.074,4.516 0,0 2.624,-1.888 4.089,-2.514 0,0 -3.464,3.356 -4.407,6.507 0,0 2.101,-1.991 3.26,-2.412 0,0 3.248,2.412 5.236,2.196 1.988,-0.205 4.827,-0.102 5.974,-2.73 1.158,-2.616 0.943,-3.037 1.476,-3.879 0,0 -1.897,1.16 -3.26,2.412 0,0 0.636,-2.616 3.26,-4.619 2.612,-1.991 3.884,-2.309 3.884,-2.309 0,0 6.19,-8.202 -1.045,-12.195 0,0 3.555,-1.786 5.554,-3.037 0,0 -5.781,1.467 -7.666,2.093 0,0 -4.293,-0.842 -6.599,-0.842 -2.317,0 -6.292,-0.307 -8.075,-0.842 -1.783,-0.523 -3.566,-1.149 -3.566,-1.149 0,0 1.045,-0.626 1.885,-0.842 0,0 -4.066,-0.307 -6.474,3.515 l -0.034,-0.011 c 0.011,-0.307 0.148,-1.786 1.261,-3.185 0,0 -2.135,0.978 -3.339,2.332 l -0.034,-0.011 c -0.795,-0.296 -1.601,-0.546 -2.408,-0.796 -1.283,-0.387 -2.589,-0.728 -3.896,-1.035 -0.863,-0.205 -1.738,-0.41 -2.624,-0.58 6.814,-4.516 14.356,-7.883 22.113,-10.511 2.589,-0.876 8.086,-2.446 8.086,-2.446 1.102,1.047 2.215,1.843 2.215,1.843 0,0 3.691,-0.887 5.463,-1.581 0,0 -3.702,2.605 -6.587,3.856 0,0 4.395,-0.148 5.906,-0.421 l -0.681,1.524 c 0,0 1.919,1.502 6.44,0.819 4.52,-0.683 7.405,-1.649 7.405,-3.993 0,-2.332 -0.557,-3.435 0.136,-5.768 0,0 -1.647,0.273 -2.885,0 0,0 2.612,-1.513 3.566,-3.151 0,0 -0.239,-1.479 -0.954,-2.946 l -0.011,-0.011 c 3.623,-0.387 7.269,-0.705 10.892,-0.921 -0.454,-0.535 -0.943,-1.035 -1.465,-1.513 -3.646,-3.367 -8.745,-5.529 -13.322,-6.996 9.109,-1.217 18.319,-1.581 27.485,-1.9 5.247,-0.193 10.494,-0.319 15.73,-0.375 -1.102,-0.921 -2.624,-1.456 -3.941,-1.979 3.078,-0.353 6.292,-0.057 9.37,0.171 -2.624,-1.32 -5.599,-2.07 -8.404,-2.901 -1.976,-0.58 -3.964,-1.138 -5.951,-1.661 l 0.239,0.011 0.227,0.023 0.045,0.011 c 7.223,0.956 14.889,2.173 23.283,3.674 53.811,9.613 89.314,24.162 104.783,31.454 4.089,1.854 6.871,3.265 8.291,4.004 1.283,0.375 3.066,0.58 3.964,-0.728 0.17,-0.239 0.295,-0.489 0.386,-0.728 l 0.011,-0.023 c 0.159,0.023 0.284,0.034 0.375,0.023 3.373,-0.205 6.667,-0.535 9.938,-1.433 0.92,-0.25 1.829,-0.535 2.737,-0.842 1.851,-0.637 3.646,-1.388 5.417,-2.207 -0.091,0 -2.998,-3.777 -3.339,-4.152 -2.612,-2.935 -5.542,-5.608 -8.768,-7.883 0.432,-0.125 0.897,-0.262 1.363,-0.375 0.466,-0.114 0.954,-0.182 1.42,-0.171 -2.589,-2.571 -5.792,-4.619 -8.836,-6.53 -1.124,-0.728 -2.283,-1.411 -3.43,-2.082 l -0.988,-0.592 -0.704,-0.421 c -1.317,-0.762 -2.646,-1.513 -3.986,-2.23 8.223,2.798 16.378,6.006 24.373,9.453 0.613,0.262 1.215,0.523 1.817,0.785 6.678,2.901 13.447,6.018 19.466,10.113 1.329,0.899 2.589,1.888 3.737,2.98 l 0.125,0.114 c 2.362,1.786 3.998,4.471 5.043,7.212 0.5,1.331 0.875,2.73 1.056,4.141 0.068,0.478 0.25,5.199 -0.068,5.187 -0.432,-0.023 -0.863,-0.034 -1.295,-0.046 -3.43,-0.046 -6.86,0.319 -10.222,0.978 -6.008,1.194 -11.607,3.47 -17.32,5.597 -4.134,1.547 -8.075,3.595 -12.277,5.005 -5.951,2.002 -12.232,2.969 -18.524,2.491 -6.496,-0.489 -12.845,-2.343 -18.319,-5.915 -4.145,-2.707 -7.712,-6.211 -10.733,-10.102 -2.157,-2.787 -4.055,-5.768 -5.656,-8.907 8.257,2.98 14.753,5.665 19.432,7.747 4.134,1.763 6.951,3.106 8.382,3.811 1.283,0.353 3.078,0.512 3.952,-0.808 1.817,-2.753 -1.511,-4.948 -1.511,-4.948 0,0 -40.875,-19.987 -115.799,-28.235 -8.802,-0.967 -16.957,-1.649 -24.475,-2.116 7.394,0.796 15.378,1.832 23.998,3.174 13.163,2.048 25.247,4.425 36.219,6.928 -1.204,0.159 -2.385,0.387 -3.555,0.694 -2.26,0.603 -4.418,1.524 -6.428,2.742 -3.737,2.275 -6.758,5.574 -9.052,9.271 -4.634,7.463 -6.826,16.688 -7.144,25.402 -0.386,10.853 2.351,21.614 5.872,31.784 4.18,12.058 9.574,23.673 16.275,34.537 3.328,5.404 6.962,10.625 11.062,15.448 4.35,5.096 9.324,10.056 15.322,13.15 6.382,3.288 13.457,3.265 20.374,2.218 4.872,-0.739 9.597,-2.685 14.231,-4.277 10.892,-3.731 22.294,-7.747 33.993,-6.484 3.861,0.421 7.973,1.217 11.448,3.037 0.534,0.25 0.466,0.273 0.17,0.842 z m 85.18,-147.806 c 0,0 -6.655,-14.629 -25.599,-27.097 4.747,-6.097 6.587,-13.423 4.395,-19.214 -2.271,-6.018 -18.217,-17.007 -24.225,-20.124 -6.008,-3.106 -14.299,-7.679 -14.299,-7.679 0,0 -21.306,-12.946 -38.047,-20.26 -20.182,-8.805 -56.537,-20.533 -96.072,-12.172 0,0 -23.725,-7.792 -66.622,5.483 -15.003,4.129 -40.478,10.909 -54.765,13.298 -21.17,3.538 -42.647,3.902 -59.285,5.665 -8.768,0.933 -14.606,-1.012 -17.456,3.936 -12.527,21.739 24.827,58.529 38.365,64.342 -4.009,22.604 1.079,49.348 24.77,76.07 25.758,29.077 61.398,34.594 82.295,50.054 23.453,17.348 28.314,39.258 47.905,59.757 18.024,18.861 53.255,34.946 84.817,19.544 34.231,-16.711 40.443,-44.605 41.681,-49.837 0.409,-2.673 -1.136,-5.381 -4.577,-7.042 -0.579,-0.273 -1.726,-0.842 -3.237,-1.638 1.363,-5.46 4.838,-21.887 1.408,-36.209 0,0 -9.676,14.186 -16.991,22.035 -2.044,-1.923 -11.437,-11.444 -9.881,-22.729 4.293,-1.706 9.279,-4.038 13.084,-6.905 2.192,-1.661 4.134,-3.31 5.894,-4.926 19.262,-5.529 23.589,-13.503 23.589,-13.503 0.716,1.957 3.146,4.459 3.146,4.459 2.839,-1.604 6.621,-4.459 6.621,-4.459 0.363,2.321 0.318,6.427 0.318,6.427 1.431,-0.535 2.828,-0.66 2.828,-0.66 -1.431,7.133 -9.767,19.225 -9.767,19.225 29.222,-8.384 41.522,-29.998 41.522,-29.998 l -0.011,-0.114 c 1.102,-0.228 1.874,-0.523 1.874,-0.523 0,0 19.614,-5.586 28.62,-24.845 9.006,-19.259 -7.28,-37.927 -12.3,-40.361 z m -252.258,36.516 c 0,0 -3.146,0.011 -5.452,0.114 -2.283,0.102 -4.781,0.33 -5.111,2.503 -0.318,2.184 0.329,3.276 1.306,4.038 0.977,0.762 4.691,3.049 5.452,3.811 0,0 2.499,-1.638 4.463,-2.07 0,0 -4.248,3.049 -5.224,4.698 0,0 1.851,-0.978 3.157,-0.978 0,0 3.373,2.07 5.542,2.07 2.181,0 6.315,-0.66 6.315,-0.66 0,0 2.396,-1.627 5.02,-1.854 0,0 -2.737,1.854 -3.384,2.73 0,0 1.09,-0.114 1.749,0.33 0.647,0.432 2.828,0.865 4.793,0.102 1.953,-0.762 3.907,-1.524 3.805,-3.925 -0.114,-2.4 -1.522,-5.233 -1.522,-5.233 0,0 2.567,-2.15 3.986,-2.821 -0.341,0.046 -3.123,0.466 -4.861,1.183 0,0 -2.169,-4.368 -4.463,-5.779 -2.294,-1.411 -4.577,-1.638 -7.076,-0.546 -2.51,1.092 -6.224,2.15 -6.224,2.15 0,0 -3.43,1.649 -3.884,2.309 0.068,-0.159 0.693,-1.456 1.613,-2.173 z m 23.283,33.365 c -2.385,-2.48 -4.713,-3.299 -6.11,-1.923 0,0 -0.704,-2.639 -2.317,-3.356 -1.624,-0.717 -2.726,-0.58 -2.726,-0.58 0,0 -6.315,1.263 -8.916,2.867 0.511,-0.33 4.691,-3.037 6.178,-3.993 l -3.509,0.808 c 0,0 -3.691,0.011 -7.121,-0.262 -3.419,-0.262 -11.323,-1.081 -12.788,-0.796 0,0 0.988,-0.683 1.579,-1.035 -0.159,0 -2.748,0.023 -4.463,1.411 0,0 -5.258,0.546 -6.269,4.095 -1.022,3.561 1.59,6.086 2.351,6.643 0,0 1.056,-1.661 3.191,-2.707 0,0 -1.215,1.968 -1.17,3.606 0,0 4.486,2.378 13.436,3.618 8.961,1.24 8.314,0.58 11.46,2.537 0,0 3.328,-2.355 5.168,-2.912 0,0 -2.589,3.686 -2.828,5.062 0,0 4.157,3.549 7.587,3.811 3.441,0.273 6.383,-1.058 6.019,-4.607 l 1.238,-1.524 -2.192,0.159 0.636,-1.194 c 0,0 -0.102,-1.809 -1.102,-3.208 0.17,0.091 1.885,1.024 3.509,0.58 l -0.477,0.899 c 0,0 1.874,-0.216 3.26,-2.594 l -1.136,-0.307 c 0,0 -0.091,-2.616 -2.487,-5.096 z m 211.451,-77.447 c 0,0 -5.781,7.144 -8.643,4.948 -2.873,-2.196 1.499,-5.13 0.579,-10.853 -0.909,-5.711 -19.614,-24.959 -43.237,-39.156 0,0 10.926,4.528 21.488,10.136 l 0.25,0.125 c 2.328,1.183 4.793,2.594 7.098,4.027 3.169,1.934 6.019,3.891 8.143,5.768 0,0 4.293,-5.244 1.726,-11.364 -0.136,-0.341 -0.318,-0.694 -0.511,-1.047 l -0.08,-0.137 c -0.398,-0.694 -0.875,-1.399 -1.42,-2.116 -0.477,-0.319 -1.158,-0.717 -1.919,-1.012 -1.488,-0.569 -2.896,-0.808 -3.884,-1.297 0,0 -2.271,-2.309 -3.032,-3.413 0,0 -0.239,1.012 0.386,2.207 0,0 -1.749,-1.536 -3.35,-1.877 -1.601,-0.33 -3.532,-0.978 -4.032,-1.354 -0.488,-0.375 -1.476,-1.24 -1.476,-1.24 0,0 0.045,0.785 0.284,1.365 0,0 -1.647,-0.125 -1.931,-1.854 -0.284,-1.729 1.068,-2.434 1.068,-2.434 0,0 -0.125,-0.489 0,-1.103 0,0 1.476,1.638 2.181,2.059 0,0 0.318,-1.047 -0.284,-2.844 l -0.545,-0.307 c -0.545,-0.296 -1.079,-0.569 -1.579,-0.796 -0.42,-0.193 -24.759,-14.015 -36.298,-19.817 -0.852,-0.08 -2.022,-0.262 -3.26,-0.683 0,0 -1.931,-0.899 -2.249,-1.82 0,0 -0.136,0.478 0.148,1.001 0.488,0.887 1.522,1.832 1.829,3.06 0,0 -1.919,-1.138 -3.498,-1.957 -1.386,-0.717 -4.293,-1.547 -5.94,-2.776 -0.341,-0.25 -0.602,-0.512 -0.784,-0.762 l -0.182,-0.228 c -0.17,-0.25 -0.273,-0.501 -0.341,-0.717 l -0.068,-0.284 -0.023,-0.125 -0.023,-0.307 0.011,-0.216 0.091,0.068 0.08,0.068 0.114,0.091 c 0.693,0.592 1.431,1.251 2.294,1.49 l 0.216,0.057 -0.08,-0.102 -0.091,-0.102 -0.216,-0.25 c -0.442,-0.489 -1.056,-1.274 -1.567,-2.275 -9.427,-4.675 -20.693,-9.647 -35.935,-12.65 -21.931,-4.334 -36.65,-0.683 -36.65,-0.683 0,0 4.327,0.262 13.345,3.424 0.568,-0.182 1.329,-0.489 1.999,-0.967 1.296,-0.933 2.135,-1.115 2.692,-1.115 0.557,0 2.953,2.867 2.953,2.867 0,0 -0.261,-2.218 -0.727,-4.084 0,0 2.362,-0.205 3.26,0 1.317,0.307 2.408,0.751 2.873,0.751 0.467,0 0.659,-0.557 0.659,-0.557 0,0 0.829,0.546 0.829,1.206 0,0 1.863,1.297 1.863,2.514 0,1.206 -0.284,2.787 0,3.538 0,0 -0.466,0.273 -1.215,-0.933 0,0 -1.204,1.024 -2.408,1.024 -0.568,0 -1.079,0.137 -1.476,0.296 4.157,1.866 8.859,4.152 14.151,6.985 0,0 0.602,0.421 1.045,0.751 0,0 0.432,-1.763 0.716,-2.036 0,0 0.545,0.489 0.659,0.774 0,0 0.102,-0.774 -0.057,-1.649 0,0 1.476,-1.206 2.624,-1.32 1.158,-0.114 1.601,-0.114 1.976,-0.33 0,0 0.261,-0.921 -0.125,-1.911 0,0 1.931,1.126 2.317,2.571 0,0 0.17,-0.876 0.114,-1.763 0,0 2.022,-0.33 3.509,0.057 1.476,0.375 2.476,0.887 2.805,1.433 0.329,0.546 1.249,2.389 0.738,2.787 -0.522,0.398 -1.454,0.557 -1.738,1.001 -0.273,0.432 -0.375,0.819 -0.761,1.092 -0.375,0.273 -0.886,0.341 -0.886,0.341 0,0 -0.102,1.524 0.284,2.298 0,0 -0.784,-0.102 -1.17,-1.035 0,0 0.182,0.865 -0.375,1.479 -0.545,0.603 -0.92,0.978 -1.464,1.138 0,0 -1.353,-1.285 -1.466,-1.786 0,0 0.148,3.037 -0.375,2.469 0,0 -2.851,-2.525 -3.419,-2.833 0,0 -1.227,0.182 -1.715,0.125 -0.5,-0.046 -2.192,-0.705 -2.521,-1.263 0,0 -0.057,0.66 0.875,1.32 0,0 -0.84,-0.137 -1.158,-0.284 0,0 -0.488,0.557 -1.363,0.785 0,0 0.875,0.99 1.261,1.365 0,0 -1.726,-0.307 -2.51,-1.138 0,0 -0.999,0.046 -2.101,-0.284 -1.09,-0.33 -1.76,-0.216 -2.748,-0.057 -0.988,0.159 -1.147,0.057 -1.863,-0.114 -0.716,-0.159 -2.68,-1.263 -2.68,-1.263 0,0 0.329,0.876 0.659,1.16 0,0 -0.169,0.717 -1.76,0.273 -1.59,-0.444 -1.647,-0.933 -2.465,-1.433 -0.829,-0.489 -1.374,-1.206 -1.204,-1.809 0.159,-0.603 0.659,-1.047 0.659,-1.047 0,0 0.488,0.444 1.363,0.83 0,0 -1.476,-1.866 -1.647,-2.525 0,0 0.772,0.159 1.158,0.216 0,0 0.273,-1.047 2.578,-1.536 0.772,-0.171 1.42,-0.273 1.942,-0.353 -6.349,-1.991 -15.219,-4.471 -25.463,-6.53 -0.17,0.193 -0.307,0.387 -0.432,0.592 -0.148,0.239 -0.273,0.489 -0.398,0.751 -0.375,0.774 -0.659,1.558 -1.261,2.07 0,0 -4.758,-1.49 -6.292,-2.252 0,0 2.408,1.979 4.09,2.878 0,0 -1.444,2.4 -6.486,1.843 0,0 -2.328,1.012 -4.157,0.819 -1.817,-0.193 -4.588,-1.399 -5.156,-2.332 -0.568,-0.956 -0.5,-2.912 1.454,-4.05 0,0 2.669,1.627 3.986,2.378 0,0 -2.351,-2.935 -2.169,-3.879 0,0 0.84,-0.694 1.84,-1.297 -1.17,-0.159 -2.351,-0.307 -3.543,-0.432 -10.778,-1.217 -20.307,-1.399 -28.95,-0.91 0.681,0.99 0.545,1.911 1.09,2.901 0.659,1.206 -0.307,1.752 -0.307,1.752 -0.727,-0.592 -3.725,-1.866 -3.725,-1.866 1.136,1.081 2.112,2.582 2.112,2.582 -0.727,0.421 -2.635,0.796 -4.691,0.899 -2.056,0.091 -4.975,1.797 -4.975,1.797 -1.227,-0.364 -2.271,-1.615 -3.305,-2.571 l -0.511,-0.444 -0.136,-0.114 -0.08,-0.068 -0.102,-0.068 c 0.045,0.046 0.091,0.216 0.125,0.33 l 0.011,0.034 0.011,0.034 0.204,0.523 c 0.148,0.341 0.307,0.694 0.488,1.024 0.522,1.001 1.147,1.945 1.772,2.878 l 0.034,0.057 c 0.261,0.421 0.5,0.808 0.704,1.126 0.091,0.125 0.17,0.239 0.239,0.364 l 0.045,0.08 0.08,0.125 0.091,0.137 0.045,0.08 0.057,0.091 c -0.261,-0.33 -1.079,-0.489 -1.476,-0.626 l -0.068,-0.023 c -0.681,-0.273 -1.317,-0.626 -1.942,-1.024 l -0.034,-0.023 c -0.284,-0.205 -1.113,-0.956 -1.454,-0.83 l -0.204,0.068 -0.136,0.034 -0.261,0.08 -0.329,0.08 -0.341,0.08 -0.488,0.091 c -0.295,0.046 -0.579,0.08 -0.875,0.102 h -0.045 c -0.363,0.011 -0.772,0.023 -1.181,0.011 -2.112,-0.125 -4.691,-1.923 -6.485,-3.743 -0.647,-0.637 -0.852,-1.342 -0.863,-1.991 -1.874,0.444 -3.714,0.91 -5.508,1.399 -2.68,0.626 -17.263,3.891 -32.164,7.246 0.091,1.035 -0.341,2.15 -0.341,2.73 0,1.035 0.829,1.82 0.829,1.82 -1.704,0.137 -4.713,-1.001 -4.713,-1.001 0.852,1.217 3.305,2.616 3.305,2.616 0,0 -0.352,1.354 -1.476,1.82 -1.124,0.466 -1.976,0.284 -3.373,0.182 -1.408,-0.091 -2.624,0.569 -4.407,0.66 -1.783,0.091 -3.964,-1.012 -3.964,-1.012 1.965,0.182 3.43,-1.149 3.43,-1.149 -2.521,-0.284 -3.305,-1.217 -3.589,-1.775 -0.204,-0.41 -0.829,-0.967 -1.408,-1.376 -10.937,2.446 -19.398,4.346 -19.398,4.346 -6.939,0.933 -12.539,1.638 -12.539,1.638 -2.056,0.148 -4.123,0.273 -6.178,0.387 -11.323,0.603 -22.658,0.341 -33.958,1.035 -1.681,0.102 -3.339,0.148 -5.02,0.148 h -0.068 c 0.92,0.205 1.84,0.455 2.748,0.705 1.238,0.33 2.465,0.683 3.691,1.058 4.134,1.24 8.234,2.639 12.277,4.209 1.999,0.774 3.986,1.593 5.951,2.446 2.09,0.921 4.157,1.888 6.19,2.912 0.557,-0.853 3.066,-0.853 3.066,-0.853 l -0.318,-0.66 c 0,0 0.704,0.444 1.579,0.387 l 0.17,-0.023 0.636,-0.239 c 0.284,-0.182 0.522,-0.432 1.079,-0.614 0.931,-0.33 2.226,-0.193 2.226,-0.193 0.352,-0.637 1.908,-1.251 1.908,-1.251 -0.307,-0.284 -0.681,-0.592 -0.681,-0.592 0.625,-0.102 2.056,0.193 2.658,0.262 0.409,-0.034 0.738,-0.068 0.863,-0.137 l 0.057,-0.034 c 0.17,-0.137 0.284,-0.421 0.125,-0.671 -0.295,-0.273 -0.954,-0.478 -1.408,-0.683 -0.522,-0.239 -0.579,-0.58 -0.591,-0.683 l -0.023,-0.046 c -0.545,0.114 -1.794,-0.421 -1.794,-0.421 0,0 1.045,-0.057 1.317,-0.239 0.125,-0.068 0.375,-0.193 0.693,-0.307 0.386,-0.182 0.875,-0.341 1.329,-0.398 0.829,-0.102 1.817,0.66 1.817,0.66 0,0 0.875,0.159 1.749,-0.171 0.897,-0.307 2.726,-0.273 2.635,-0.25 -0.568,0.102 -1.136,0.489 -1.681,0.489 0.443,0 1.045,0.307 1.397,0.557 1.624,1.103 -0.432,2.537 -1.488,3.049 -1.613,-0.182 -2.612,0.455 -2.612,0.455 0,0 2.078,0 1.976,0.603 -0.114,0.603 -1.045,0.99 -2.033,1.206 -0.988,0.216 -1.76,1.206 -1.76,1.206 0.443,0.057 0.829,0.489 0.829,0.489 0,0 -1.045,0.114 -1.204,0.228 -0.17,0.102 -0.716,1.32 -1.158,1.866 -0.432,0.546 -1.965,0.933 -1.965,0.933 0.704,0.387 2.953,0.66 2.953,0.66 -1.238,0.444 -2.692,0.523 -3.191,0.546 0.352,0.216 3.782,2.4 3.907,2.48 l 0.023,0.011 c 0.182,0.125 2.976,1.877 3.941,2.446 4.066,2.4 8.257,4.584 12.686,6.234 1.34,0.444 2.669,0.956 4.02,1.376 1.499,0.466 3.021,0.865 4.543,1.217 1.397,0.319 2.817,0.569 4.225,0.785 2.521,0.375 5.088,0.523 7.632,0.455 2.567,-0.057 5.122,-0.41 7.655,-0.876 2.93,-0.546 5.838,-1.183 8.7,-2.014 0.477,-0.125 0.943,-0.273 1.408,-0.41 3.952,-1.217 7.78,-2.969 11.471,-4.857 0.965,-0.478 1.931,-0.967 2.873,-1.479 l 0.068,-0.046 0.068,-0.023 c -0.057,0.068 -6.86,5.722 -10.199,7.77 -0.727,0.444 -1.465,0.887 -2.215,1.32 -1.215,0.694 -2.465,1.354 -3.714,1.991 -1.068,0.557 -2.135,1.069 -3.214,1.547 -0.568,0.25 -1.136,0.489 -1.715,0.717 l -0.091,0.046 c -7.087,2.821 -14.31,3.788 -21.942,4.334 -6.565,0.466 -16.127,0.728 -25.906,-0.489 -16.082,-2.014 -24.577,-7.428 -24.577,-7.428 14.685,2.582 22.453,2.127 25.986,1.536 -5.361,-3.413 -9.972,-7.713 -15.968,-11.478 -14.333,-8.964 -27.882,-14.584 -42.533,-13.23 0,0 4.804,1.183 8.189,5.722 -1.056,4.459 4.713,14.356 13.413,21.933 1.511,1.32 3.146,2.742 4.929,4.164 -1.567,-0.034 -6.553,-0.148 -6.553,-0.148 4.611,2.992 16.832,7.019 16.832,7.019 -2.68,0.899 -7.291,1.638 -7.291,1.638 0.295,0.341 9.12,4.926 25.565,5.608 9.018,0.364 17.99,-1.217 26.304,-4.744 l 0.193,-0.091 0.261,-0.148 0.068,-0.023 c -0.023,0.023 -0.227,0.25 -0.659,0.637 -4.997,4.584 -11.38,7.36 -17.876,9.146 -3.498,0.956 -7.076,1.649 -10.676,2.093 -0.557,0.068 -1.102,0.125 -1.67,0.182 -0.227,0.08 -0.386,0.182 -0.443,0.307 -1.772,5.54 -1.829,11.524 -1.522,17.28 0.17,3.094 0.545,6.177 1.102,9.237 l 0.011,0.046 c 0.398,-0.398 0.875,-0.83 1.42,-1.274 0,0 1.647,-1.365 4.52,-1.786 l -0.125,-0.114 -0.125,-0.114 c -0.613,-0.523 -1.556,-0.785 -2.385,-0.91 -0.227,-0.057 -0.443,-0.08 -0.636,-0.102 l 0.545,-0.091 c 1.794,-0.375 3.918,-0.705 5.656,-0.33 l 0.125,0.023 c 1.056,0.239 1.988,0.944 2.555,1.854 l 0.148,0.284 c 0.068,0.125 0.125,0.25 0.17,0.375 l 0.034,0.091 c 0.045,0.125 0.091,0.262 0.114,0.387 l 0.08,0.375 0.011,0.08 0.023,0.387 c 0,0.466 -0.091,0.933 -0.295,1.376 -0.681,1.513 -1.919,4.402 -1.919,5.495 0,0.501 -2.578,2.298 -3.271,3.003 l -0.114,0.125 0.216,-0.011 0.17,-0.023 c 0.761,-0.068 1.511,-0.205 2.271,-0.284 0.42,-0.034 0.806,-0.068 1.113,-0.068 h 0.034 c 0,0 1.772,3.299 3.146,4.402 1.374,1.092 2.601,3.424 3.021,5.21 l 0.045,0.011 c 0.17,0.011 0.363,-0.046 0.568,-0.125 l 0.068,-0.023 0.239,-0.102 0.511,-0.239 c 0.261,-0.102 0.511,-0.216 0.772,-0.33 l 0.738,-0.375 0.068,-0.034 c 0,0 -2.589,3.822 -5.611,5.62 0.193,0.034 2.601,0.387 3.793,-0.125 l 0.034,-0.011 c 0,0 0.204,4.562 -4.236,9.476 -0.307,0.341 3.305,4.63 5.52,7.144 l 0.25,0.296 0.193,0.228 0.466,0.512 0.295,0.341 c 0.159,-0.137 1.374,-1.183 1.999,-1.695 1.079,-0.865 2.203,-1.672 3.35,-2.446 1.079,-0.739 3.578,-2.07 3.578,-2.07 l 0.034,-0.023 v 0.034 c -0.034,0.353 -0.045,0.728 -0.011,1.16 0,0 1.249,-1.365 2.408,-2.002 0,0 -1.885,2.946 -2.101,5.153 0,0 -0.42,3.674 3.044,5.563 3.453,1.888 8.609,3.367 10.074,4.516 0,0 2.624,-1.888 4.089,-2.514 0,0 -3.464,3.356 -4.407,6.507 0,0 2.101,-1.991 3.26,-2.412 0,0 3.248,2.412 5.236,2.196 1.988,-0.205 4.827,-0.102 5.974,-2.73 1.158,-2.616 0.943,-3.037 1.476,-3.879 0,0 -1.897,1.16 -3.26,2.412 0,0 0.636,-2.616 3.26,-4.619 2.612,-1.991 3.884,-2.309 3.884,-2.309 0,0 6.19,-8.202 -1.045,-12.195 0,0 3.555,-1.786 5.554,-3.037 0,0 -5.781,1.467 -7.666,2.093 0,0 -4.293,-0.842 -6.599,-0.842 -2.317,0 -6.292,-0.307 -8.075,-0.842 -1.783,-0.523 -3.566,-1.149 -3.566,-1.149 0,0 1.045,-0.626 1.885,-0.842 0,0 -4.066,-0.307 -6.474,3.515 l -0.034,-0.011 c 0.011,-0.307 0.148,-1.786 1.261,-3.185 0,0 -2.135,0.978 -3.339,2.332 l -0.034,-0.011 c -0.795,-0.296 -1.601,-0.546 -2.408,-0.796 -1.283,-0.387 -2.589,-0.728 -3.896,-1.035 -0.863,-0.205 -1.738,-0.41 -2.624,-0.58 6.814,-4.516 14.356,-7.883 22.113,-10.511 2.589,-0.876 8.086,-2.446 8.086,-2.446 1.102,1.047 2.215,1.843 2.215,1.843 0,0 3.691,-0.887 5.463,-1.581 0,0 -3.702,2.605 -6.587,3.856 0,0 4.395,-0.148 5.906,-0.421 l -0.681,1.524 c 0,0 1.919,1.502 6.44,0.819 4.52,-0.683 7.405,-1.649 7.405,-3.993 0,-2.332 -0.557,-3.435 0.136,-5.768 0,0 -1.647,0.273 -2.885,0 0,0 2.612,-1.513 3.566,-3.151 0,0 -0.239,-1.479 -0.954,-2.946 l -0.011,-0.011 c 3.623,-0.387 7.269,-0.705 10.892,-0.921 -0.454,-0.535 -0.943,-1.035 -1.465,-1.513 -3.646,-3.367 -8.745,-5.529 -13.322,-6.996 9.109,-1.217 18.319,-1.581 27.485,-1.9 5.247,-0.193 10.494,-0.319 15.73,-0.375 -1.102,-0.921 -2.624,-1.456 -3.941,-1.979 3.078,-0.353 6.292,-0.057 9.37,0.171 -2.624,-1.32 -5.599,-2.07 -8.404,-2.901 -1.976,-0.58 -3.964,-1.138 -5.951,-1.661 l 0.239,0.011 0.227,0.023 0.045,0.011 c 7.223,0.956 14.889,2.173 23.283,3.674 53.811,9.613 89.314,24.162 104.783,31.454 4.089,1.854 6.871,3.265 8.291,4.004 1.283,0.375 3.066,0.58 3.964,-0.728 0.17,-0.239 0.295,-0.489 0.386,-0.728 l 0.011,-0.023 c 0.159,0.023 0.284,0.034 0.375,0.023 3.373,-0.205 6.667,-0.535 9.938,-1.433 0.92,-0.25 1.829,-0.535 2.737,-0.842 1.851,-0.637 3.646,-1.388 5.417,-2.207 -0.091,0 -2.998,-3.777 -3.339,-4.152 -2.612,-2.935 -5.542,-5.608 -8.768,-7.883 0.432,-0.125 0.897,-0.262 1.363,-0.375 0.466,-0.114 0.954,-0.182 1.42,-0.171 -2.589,-2.571 -5.792,-4.619 -8.836,-6.53 -1.124,-0.728 -2.283,-1.411 -3.43,-2.082 l -0.988,-0.592 -0.704,-0.421 c -1.317,-0.762 -2.646,-1.513 -3.986,-2.23 l -0.045,-0.023 0.057,-0.011 h 0.17 c 4.839,0 9.733,-0.205 14.594,-0.08 0.545,0.011 5.349,0.228 5.611,0.25 1.408,0.091 2.806,0.193 4.202,0.319 3.032,0.273 6.065,0.614 9.075,1.047 l 2.249,0.33 c 3.827,0.58 7.643,1.331 11.425,2.173 l 0.114,0.034 c 2.078,0.694 4.373,1.001 6.496,1.547 1.193,0.319 2.385,0.626 3.578,0.956 2.624,0.717 5.224,1.479 7.802,2.321 1.647,0.535 3.295,1.081 4.929,1.672 0.432,0.148 2.476,1.194 2.771,0.978 0.818,-0.58 5.406,-3.777 8.995,-4.471 3.952,-0.762 7.655,-2.252 7.655,-6.712 -0.386,-4.653 -4.055,-9.476 -8.052,-12.695 z m -40.796,19.18 c -4.6,-0.421 -8.234,1.649 -8.234,1.649 0,0 13.504,0 18.433,4.277 4.94,4.289 3.623,7.588 3.623,7.588 0,0 4.929,7.918 6.258,11.205 0,0 9.211,-8.566 9.87,-14.504 0,0 -17.888,-9.112 -29.949,-10.215 z m -56.083,105.215 0.693,7.645 5.304,3.458 c 1.522,-6.177 -5.997,-11.103 -5.997,-11.103 z M 299.38,267.888 c -5.044,-15.869 -23.761,-18.941 -23.761,-18.941 0,0 15.332,6.268 15.741,50.634 0.136,14.925 4.691,21.239 4.691,21.239 -7.734,-4.129 -9.767,-19.362 -10.46,-31.158 -0.352,-5.995 -2.783,-35.208 -25.088,-42.42 -13.549,-4.391 -20.057,-0.66 -20.057,-0.66 0,0 10.449,2.503 16.344,13.264 8.903,16.188 2.566,44.809 9.21,60.098 8.211,18.907 23.237,24.003 23.237,24.003 19.705,-10.602 23.93,-27.086 23.93,-27.086 -16.866,-8.759 -8.757,-33.092 -13.787,-48.973 z m 57.478,47.198 c 0,0 -11.948,19.168 -17.331,23.127 0,0 -1.295,-3.128 -2.873,-4.687 0,0 -6.553,4.437 -7.859,6.871 0.136,-0.25 -1.181,-2.07 -1.317,-2.309 -0.738,-1.217 -1.488,-2.412 -2.396,-3.504 -2.612,1.547 -5.645,3.8 -7.019,6.564 1.102,-2.218 1.931,-4.493 2.544,-6.894 0.363,-1.479 0.613,-2.992 0.772,-4.505 0.534,-5.21 -0.135,-10.511 -1.817,-15.46 0,0 -6.201,15.221 -13.345,22.672 -7.155,7.44 -11.062,9.34 -11.516,10.397 -0.454,1.035 -0.545,4.812 7.848,3.743 8.382,-1.092 14.299,-7.349 14.299,-7.349 0,0 11.482,-2.139 21.568,-0.762 0,0 2.805,3.049 6.792,2.764 3.986,-0.273 12.277,-15.915 11.653,-30.669 z m -18.217,-42.671 c 1.317,13.503 -10.653,25.698 -10.653,25.698 19.41,-5.46 29.598,-21.091 32.732,-26.71 0.329,-0.83 0.579,-1.513 0.727,-1.957 -7.235,1.729 -15.23,3.049 -22.806,2.969 z m 71.142,-12.047 c -2.805,-0.648 -6.258,1.194 -8.188,2.434 -0.365,-0.762 -1.057,-1.433 -2.363,-1.888 -3.941,-1.331 -8.802,2.423 -8.802,2.423 0.409,-2.867 -3.509,-2.048 -3.668,-2.025 -1.158,0.091 -6.019,1.638 -8.904,3.253 -4.259,1.49 -9.881,3.299 -16.093,4.801 1.17,6.643 0.806,11.308 0.806,11.308 6.599,-3.424 12.061,-10.466 15.389,-15.539 0.716,3.413 3.589,8.031 3.589,8.031 4.622,-2.878 8.734,-7.042 8.734,-7.042 1.42,2.571 1.181,7.974 1.181,7.974 3.248,-1.058 6.157,-3.162 8.03,-4.744 -2.078,11.023 -8.734,21.716 -8.734,21.716 7.791,-2.935 22.669,-18.793 23.635,-23.116 0.943,-4.311 -0.477,-6.655 -4.611,-7.588 z m 28.053,-20.613 -0.307,0.046 c -1.17,0.182 -3.453,-0.171 -3.146,-1.832 0.182,-1.024 1.59,-1.888 2.476,-2.252 2.521,-1.024 4.986,-1.991 7.246,-3.515 0.818,-0.546 1.59,-1.138 2.294,-1.832 0.193,-0.182 1.227,-1.012 1.194,-1.32 -0.308,-2.548 -0.978,-4.778 -1.796,-6.678 -0.273,0.637 -0.716,1.49 -1.34,2.434 -1.386,2.366 -3.101,3.458 -3.725,3.8 -0.909,0.512 -2.68,1.047 -3.487,-0.523 -0.818,-1.558 1.431,-2.901 1.431,-2.901 3.328,-2.4 4.668,-4.835 5.213,-6.427 -1.783,-2.764 -3.498,-4.22 -3.498,-4.22 0,0 -4.77,11.933 -17.275,18.008 -8.972,4.368 -17.206,9.442 -22.476,15.482 -0.738,0.865 -1.431,1.752 -2.067,2.662 l 0.102,0.011 c 12.675,1.411 18.899,6.78 20.943,9.385 0.149,0.182 0.261,0.341 0.363,0.489 l 0.045,-0.011 c 0.784,-0.137 13.504,-2.434 21.375,-11.126 -0.284,0.011 -0.568,0.011 -0.852,0 -1.942,-0.08 -9.37,0.125 -7.496,-3.618 0.626,-1.251 2.851,-0.91 3.964,-0.842 1.908,0.114 3.805,0.319 5.713,0.216 2.635,-0.148 3.123,-2.537 3.782,-4.721 0.625,-2.116 0.999,-4.107 1.17,-5.984 -2.907,3.709 -8.132,4.96 -9.847,5.267 z"
           id="path2305" />
        <path
           style="fill:#ffffff"
           inkscape:connector-curvature="0"
           d="m 195.744,239.928 c 2.499,-1.092 4.781,-0.865 7.076,0.546 2.294,1.411 4.463,5.779 4.463,5.779 1.738,-0.717 4.52,-1.138 4.861,-1.183 -1.42,0.671 -3.986,2.821 -3.986,2.821 0,0 1.408,2.833 1.522,5.233 0.102,2.4 -1.851,3.162 -3.805,3.925 -1.965,0.762 -4.145,0.33 -4.793,-0.102 -0.659,-0.444 -1.749,-0.33 -1.749,-0.33 0.647,-0.876 3.384,-2.73 3.384,-2.73 -2.624,0.228 -5.02,1.854 -5.02,1.854 0,0 -4.134,0.66 -6.315,0.66 -2.169,0 -5.542,-2.07 -5.542,-2.07 -1.306,0 -3.157,0.978 -3.157,0.978 0.977,-1.649 5.224,-4.698 5.224,-4.698 -1.965,0.432 -4.463,2.07 -4.463,2.07 -0.761,-0.762 -4.475,-3.049 -5.452,-3.811 -0.977,-0.762 -1.624,-1.854 -1.306,-4.038 0.329,-2.173 2.828,-2.4 5.111,-2.503 2.306,-0.102 5.452,-0.114 5.452,-0.114 -0.92,0.717 -1.545,2.014 -1.613,2.173 0.454,-0.66 3.884,-2.309 3.884,-2.309 0,0 3.714,-1.058 6.224,-2.15 z m 18.41,41.055 c -1.386,2.378 -3.26,2.594 -3.26,2.594 l 0.477,-0.899 c -1.624,0.444 -3.339,-0.489 -3.509,-0.58 0.999,1.399 1.102,3.208 1.102,3.208 l -0.636,1.194 2.192,-0.159 -1.238,1.524 c 0.363,3.549 -2.578,4.88 -6.019,4.607 -3.43,-0.262 -7.587,-3.811 -7.587,-3.811 0.239,-1.376 2.828,-5.062 2.828,-5.062 -1.84,0.557 -5.168,2.912 -5.168,2.912 -3.146,-1.957 -2.499,-1.297 -11.46,-2.537 -8.95,-1.24 -13.436,-3.618 -13.436,-3.618 -0.045,-1.638 1.17,-3.606 1.17,-3.606 -2.135,1.047 -3.191,2.707 -3.191,2.707 -0.761,-0.557 -3.373,-3.083 -2.351,-6.643 1.011,-3.549 6.269,-4.095 6.269,-4.095 1.715,-1.388 4.304,-1.411 4.463,-1.411 -0.591,0.353 -1.579,1.035 -1.579,1.035 1.465,-0.284 9.37,0.535 12.788,0.796 3.43,0.273 7.121,0.262 7.121,0.262 l 3.509,-0.808 c -1.488,0.956 -5.667,3.663 -6.178,3.993 2.601,-1.604 8.916,-2.867 8.916,-2.867 0,0 1.102,-0.137 2.726,0.58 1.613,0.717 2.317,3.356 2.317,3.356 1.397,-1.376 3.725,-0.557 6.11,1.923 2.396,2.48 2.487,5.096 2.487,5.096 l 1.136,0.307 z m 181.82,-35.686 c 0.068,0.478 0.25,5.199 -0.068,5.187 -0.432,-0.023 -0.863,-0.034 -1.295,-0.046 -3.43,-0.046 -6.86,0.319 -10.222,0.978 -6.008,1.194 -11.607,3.47 -17.32,5.597 -4.134,1.547 -8.075,3.595 -12.277,5.005 -5.951,2.002 -12.232,2.969 -18.524,2.491 -6.496,-0.489 -12.845,-2.343 -18.319,-5.915 -4.145,-2.707 -7.712,-6.211 -10.733,-10.102 -2.157,-2.787 -4.055,-5.768 -5.656,-8.907 8.257,2.98 14.753,5.665 19.432,7.747 4.134,1.763 6.951,3.106 8.382,3.811 1.283,0.353 3.078,0.512 3.952,-0.808 1.817,-2.753 -1.511,-4.948 -1.511,-4.948 0,0 -40.875,-19.987 -115.799,-28.235 -8.802,-0.967 -16.957,-1.649 -24.475,-2.116 7.394,0.796 15.378,1.832 23.998,3.174 13.163,2.048 25.247,4.425 36.219,6.928 -1.204,0.159 -2.385,0.387 -3.555,0.694 -2.26,0.603 -4.418,1.524 -6.428,2.742 -3.737,2.275 -6.758,5.574 -9.052,9.271 -4.634,7.463 -6.826,16.688 -7.144,25.402 -0.386,10.853 2.351,21.614 5.872,31.784 4.18,12.058 9.574,23.673 16.275,34.537 3.328,5.404 6.962,10.625 11.062,15.448 4.35,5.096 9.324,10.056 15.322,13.15 6.382,3.288 13.457,3.265 20.374,2.218 4.872,-0.739 9.597,-2.685 14.231,-4.277 10.892,-3.731 22.294,-7.747 33.993,-6.484 3.861,0.421 7.973,1.217 11.448,3.037 0.534,0.25 0.466,0.273 0.17,0.842 -2.465,4.653 -5.486,9.01 -9.006,12.923 -6.008,6.678 -13.402,11.967 -21.499,15.778 -8.416,3.959 -18.013,6.837 -27.371,7.201 1.67,-1.786 3.339,-3.561 4.986,-5.335 -9.211,1.604 -18.762,1.866 -27.984,0.046 1.124,-0.83 2.647,-2.093 2.817,-3.572 -0.636,-0.057 -1.317,-0.364 -1.908,-0.569 -1.579,-0.557 -3.112,-1.229 -4.611,-1.968 -5.531,-2.707 -10.63,-6.302 -15.287,-10.329 -8.155,-7.053 -15.026,-15.539 -20.795,-24.64 -3.487,-5.495 -6.303,-11.399 -10.165,-16.643 -3.316,-4.493 -7.166,-8.577 -11.403,-12.195 -6.621,-5.688 -14.185,-10.204 -22.147,-13.708 -12.857,-5.642 -25.611,-11.74 -37.684,-18.941 -3.396,-2.025 -6.724,-4.164 -9.983,-6.416 -6.917,-4.823 -13.663,-10.227 -19.398,-16.415 l -0.386,-0.421 c 0.159,-0.137 1.374,-1.183 1.999,-1.695 1.079,-0.865 2.203,-1.672 3.35,-2.446 1.079,-0.739 3.578,-2.07 3.578,-2.07 l 0.034,-0.023 v 0.034 c -0.034,0.353 -0.045,0.728 -0.011,1.16 0,0 1.249,-1.365 2.408,-2.002 0,0 -1.885,2.946 -2.101,5.153 0,0 -0.42,3.674 3.044,5.563 3.453,1.888 8.609,3.367 10.074,4.516 0,0 2.624,-1.888 4.089,-2.514 0,0 -3.464,3.356 -4.407,6.507 0,0 2.101,-1.991 3.26,-2.412 0,0 3.248,2.412 5.236,2.196 1.988,-0.205 4.827,-0.102 5.974,-2.73 1.158,-2.616 0.943,-3.037 1.476,-3.879 0,0 -1.897,1.16 -3.26,2.412 0,0 0.636,-2.616 3.26,-4.619 2.612,-1.991 3.884,-2.309 3.884,-2.309 0,0 6.19,-8.202 -1.045,-12.195 0,0 3.555,-1.786 5.554,-3.037 0,0 -5.781,1.467 -7.666,2.093 0,0 -4.293,-0.842 -6.599,-0.842 -2.317,0 -6.292,-0.307 -8.075,-0.842 -1.783,-0.523 -3.566,-1.149 -3.566,-1.149 0,0 1.045,-0.626 1.885,-0.842 0,0 -4.066,-0.307 -6.474,3.515 l -0.034,-0.011 c 0.011,-0.307 0.148,-1.786 1.261,-3.185 0,0 -2.135,0.978 -3.339,2.332 l -0.034,-0.011 c -0.795,-0.296 -1.601,-0.546 -2.408,-0.796 -1.283,-0.387 -2.589,-0.728 -3.896,-1.035 -0.863,-0.205 -1.738,-0.41 -2.624,-0.58 6.814,-4.516 14.356,-7.883 22.113,-10.511 2.589,-0.876 8.086,-2.446 8.086,-2.446 1.102,1.047 2.215,1.843 2.215,1.843 0,0 3.691,-0.887 5.463,-1.581 0,0 -3.702,2.605 -6.587,3.856 0,0 4.395,-0.148 5.906,-0.421 l -0.681,1.524 c 0,0 1.919,1.502 6.44,0.819 4.52,-0.683 7.405,-1.649 7.405,-3.993 0,-2.332 -0.557,-3.435 0.136,-5.768 0,0 -1.647,0.273 -2.885,0 0,0 2.612,-1.513 3.566,-3.151 0,0 -0.239,-1.479 -0.954,-2.946 l -0.011,-0.011 c 3.623,-0.387 7.269,-0.705 10.892,-0.921 -0.454,-0.535 -0.943,-1.035 -1.465,-1.513 -3.646,-3.367 -8.745,-5.529 -13.322,-6.996 9.109,-1.217 18.319,-1.581 27.485,-1.9 5.247,-0.193 10.494,-0.319 15.73,-0.375 -1.102,-0.921 -2.624,-1.456 -3.941,-1.979 3.078,-0.353 6.292,-0.057 9.37,0.171 -2.624,-1.32 -5.599,-2.07 -8.404,-2.901 -1.976,-0.58 -3.964,-1.138 -5.951,-1.661 l 0.239,0.011 0.227,0.023 0.045,0.011 c 7.223,0.956 14.889,2.173 23.283,3.674 53.811,9.613 89.314,24.162 104.783,31.454 4.089,1.854 6.871,3.265 8.291,4.004 1.283,0.375 3.066,0.58 3.964,-0.728 0.17,-0.239 0.295,-0.489 0.386,-0.728 l 0.011,-0.023 c 0.159,0.023 0.284,0.034 0.375,0.023 3.373,-0.205 6.667,-0.535 9.938,-1.433 0.92,-0.25 1.829,-0.535 2.737,-0.842 1.851,-0.637 3.646,-1.388 5.417,-2.207 -0.091,0 -2.998,-3.777 -3.339,-4.152 -2.612,-2.935 -5.542,-5.608 -8.768,-7.883 0.432,-0.125 0.897,-0.262 1.363,-0.375 0.466,-0.114 0.954,-0.182 1.42,-0.171 -2.589,-2.571 -5.792,-4.619 -8.836,-6.53 -1.124,-0.728 -2.283,-1.411 -3.43,-2.082 l -0.988,-0.592 -0.704,-0.421 c -1.317,-0.762 -2.646,-1.513 -3.986,-2.23 8.223,2.798 16.378,6.006 24.373,9.453 0.613,0.262 1.215,0.523 1.817,0.785 6.678,2.901 13.447,6.018 19.466,10.113 1.329,0.899 2.589,1.888 3.737,2.98 l 0.125,0.114 c 2.362,1.786 3.998,4.471 5.043,7.212 0.5,1.331 0.875,2.73 1.056,4.141 z M 109.188,136.129 c 0.159,0.251 0.045,0.536 -0.125,0.672 l -0.057,0.034 c -0.124,0.068 -0.453,0.102 -0.864,0.138 -0.601,-0.069 -2.033,-0.364 -2.658,-0.262 0,0 0.375,0.306 0.681,0.592 0,0 -1.557,0.614 -1.909,1.251 0,0 -1.295,-0.137 -2.227,0.193 -0.545,0.182 -0.785,0.433 -1.069,0.614 l -0.636,0.24 -0.17,0.022 c -0.875,0.057 -1.581,-0.386 -1.581,-0.386 l 0.319,0.659 c 0,0 -2.512,0 -3.068,0.854 -2.034,-1.024 -4.102,-1.992 -6.193,-2.913 -1.966,-0.854 -3.956,-1.672 -5.956,-2.447 -4.033,-1.56 -8.136,-2.961 -12.272,-4.2 -1.228,-0.377 -2.455,-0.729 -3.695,-1.059 -0.909,-0.25 -1.829,-0.502 -2.75,-0.706 h 0.068 c 1.681,0 3.342,-0.044 5.023,-0.148 11.307,-0.695 22.636,-0.433 33.955,-1.035 2.057,-0.114 4.125,-0.239 6.183,-0.388 -0.342,0.422 -0.797,1.116 -0.206,1.322 0,0 1.147,0.375 2.578,0.478 1.354,0.091 2.864,0 2.864,0 0,0 -5.534,2.585 -6.203,2.767 -0.67,0.192 -1.536,1.057 -1.536,1.057 l -0.044,0.035 -0.102,0.09 -0.057,0.046 -0.102,0.104 c -0.318,0.125 -0.569,0.25 -0.694,0.317 -0.271,0.173 -1.32,0.229 -1.32,0.229 0,0 1.252,0.535 1.797,0.432 l 0.022,0.044 c 0.014,0.092 0.069,0.435 0.592,0.672 0.454,0.206 1.114,0.411 1.409,0.683 z m 47.866,28.445 -0.898,0.468 c -1.953,1.218 -3.955,2.356 -6.046,3.334 l -0.091,0.047 c -0.693,0.329 -1.387,0.648 -2.091,0.954 l -0.045,0.023 -0.058,0.023 c -1.898,0.83 -3.841,1.582 -5.772,2.277 -1.522,0.535 -3.068,1.036 -4.636,1.479 -11.103,3.244 -17.864,3.165 -17.864,3.165 0.748,0.341 1.76,0.648 2.681,0.853 3.341,0.752 11.341,1.457 11.716,1.571 l -0.261,0.148 -0.194,0.092 c -8.318,3.528 -17.284,5.109 -26.308,4.745 -16.442,-0.681 -25.261,-5.269 -25.567,-5.612 0,0 4.613,-0.739 7.296,-1.637 0,0 -12.218,-4.029 -16.832,-7.013 0,0 4.99,0.115 6.558,0.148 -1.784,-1.422 -3.421,-2.846 -4.932,-4.165 -8.704,-7.581 -14.467,-17.472 -13.408,-21.935 -3.387,-4.54 -8.193,-5.725 -8.193,-5.725 14.646,-1.354 28.205,4.269 42.534,13.239 6.001,3.755 10.602,8.057 15.966,11.473 -3.534,0.592 -11.296,1.047 -25.99,-1.537 0,0 8.502,5.419 24.581,7.434 9.784,1.216 19.342,0.954 25.911,0.488 7.636,-0.546 14.852,-1.513 21.944,-4.336 z m 290.632,69.91 c -0.174,1.879 -0.546,3.871 -1.172,5.987 -0.66,2.185 -1.146,4.576 -3.784,4.724 -1.907,0.102 -3.805,-0.102 -5.715,-0.216 -1.105,-0.068 -3.33,-0.41 -3.955,0.842 -1.879,3.746 5.554,3.54 7.488,3.62 0.283,0.011 0.568,0.011 0.853,0 -7.864,8.685 -20.591,10.983 -21.376,11.122 l -0.047,0.01 -0.352,-0.489 c -2.044,-2.608 -8.273,-7.969 -20.953,-9.38 l -0.093,-0.011 c 0.626,-0.909 1.319,-1.797 2.068,-2.662 5.262,-6.045 13.499,-11.121 22.468,-15.481 12.509,-6.078 17.273,-18.018 17.273,-18.018 0,0 1.715,1.457 3.5,4.224 -0.546,1.593 -1.888,4.029 -5.206,6.432 0,0 -2.25,1.341 -1.432,2.901 0.808,1.571 2.579,1.036 3.487,0.524 0.616,-0.342 2.332,-1.436 3.72,-3.803 0.625,-0.945 1.068,-1.799 1.339,-2.436 0.82,1.901 1.488,4.132 1.797,6.682 0.035,0.306 -0.999,1.138 -1.193,1.32 -0.705,0.695 -1.48,1.287 -2.298,1.833 -2.26,1.525 -4.726,2.482 -7.239,3.506 -0.885,0.364 -2.293,1.229 -2.476,2.254 -0.308,1.662 1.977,2.015 3.148,1.833 l 0.296,-0.046 c 1.716,-0.306 6.943,-1.56 9.852,-5.27 z M 345.203,345.758 c -3.988,0.284 -6.783,-2.765 -6.783,-2.765 -10.09,-1.378 -21.569,0.762 -21.569,0.762 0,0 -5.921,6.261 -14.307,7.343 -8.386,1.08 -8.297,-2.698 -7.841,-3.735 0.454,-1.059 4.363,-2.96 11.511,-10.403 7.148,-7.444 13.343,-22.672 13.343,-22.672 1.682,4.951 2.351,10.255 1.818,15.468 -0.149,1.513 -0.41,3.017 -0.773,4.497 -0.602,2.4 -1.432,4.678 -2.535,6.896 1.375,-2.765 4.4,-5.019 7.011,-6.567 0.911,1.092 1.659,2.289 2.4,3.505 0.136,0.239 1.454,2.062 1.319,2.312 1.306,-2.434 7.865,-6.864 7.865,-6.864 1.576,1.549 2.863,4.678 2.863,4.678 5.385,-3.959 17.342,-23.128 17.342,-23.128 0.625,14.764 -7.672,30.403 -11.663,30.675 z m 69.196,-77.798 c -0.965,4.315 -15.84,20.181 -23.637,23.117 0,0 6.659,-10.698 8.739,-21.715 -1.875,1.581 -4.785,3.677 -8.033,4.735 0,0 0.237,-5.396 -1.185,-7.969 0,0 -4.112,4.167 -8.727,7.035 0,0 -2.873,-4.611 -3.59,-8.024 -3.329,5.077 -8.794,12.112 -15.398,15.536 0,0 0.363,-4.665 -0.806,-11.303 6.215,-1.502 11.841,-3.311 16.101,-4.802 2.876,-1.617 7.74,-3.166 8.9,-3.257 0.159,-0.022 4.08,-0.842 3.67,2.027 0,0 4.864,-3.755 8.797,-2.425 1.306,0.456 1.999,1.128 2.363,1.891 1.931,-1.241 5.385,-3.084 8.192,-2.436 4.139,0.933 5.558,3.279 4.613,7.591 z m -52.955,1.493 c -0.149,0.443 -0.398,1.126 -0.727,1.956 -3.126,5.614 -13.319,21.252 -32.727,26.704 0,0 11.976,-12.19 10.649,-25.7 7.579,0.09 15.579,-1.23 22.806,-2.959 z"
           id="Combined-Shape" />
        <path
           style="fill:#d7a22a"
           inkscape:connector-curvature="0"
           d="m 372.012,145.703 c 0.942,-0.24 1.397,-0.24 1.762,-0.205 0,0 0.045,-0.57 -0.41,-1.07 0,0 2.672,1.605 3.91,2.891 l -0.332,-1.16 c 0,0 2.137,0.535 3.126,1.49 0.989,0.945 1.478,2.016 1.773,2.505 0.283,0.501 1.07,2.151 0.739,2.64 -0.332,0.501 -0.819,0.501 -0.819,0.501 0,0 -2.967,-1.775 -3.749,-2.151 0,0 1.487,2.312 1.692,2.846 0,0 -2.555,-0.377 -3.216,-1.275 0,0 -2.876,-0.705 -3.908,-1.4 -1.024,-0.705 -1.854,-1.776 -1.854,-2.356 0,0 1.649,0.786 2.478,1.161 0,0 -2.227,-2.686 -2.921,-3.335 0,0 0.773,-0.83 1.729,-1.081 z m -2.522,-3.701 c 0,0 -2.377,-2.094 -3.206,-2.821 0,0 1.16,2.754 1.341,3.344 0,0 -2.239,0.08 -3.455,-0.863 -1.216,-0.944 -2.964,-2.06 -2.512,-2.06 0,0 0.546,0.033 1.002,0.102 0,0 -1.387,-1.673 -3.762,-1.811 0,0 -1.445,0.331 -3.105,-0.512 -1.658,-0.853 -2.349,-1.719 -2.349,-1.719 0,0 -0.91,-1.011 -1.081,-2.31 0,0 1.626,1.139 2.423,1.457 0,0 -1.434,-2.049 -1.434,-3.266 0,0 1.023,-0.206 2.307,0.284 1.297,0.489 1.65,0.102 1.65,0.102 0,0 -0.559,-0.729 -0.773,-1.469 0,0 1.635,1.366 2.331,1.673 0,0 2.023,-0.626 3.556,0.033 1.531,0.661 3.271,2.367 3.545,2.686 0.261,0.298 1.296,1.083 1.422,1.174 -0.103,-0.138 -0.909,-1.218 -1.128,-2.072 0.126,0.08 1.138,0.739 1.595,0.967 0.485,0.251 1.421,1.229 1.603,1.854 0.168,0.628 -0.843,1.64 -0.843,1.64 0,0 1.328,1.708 1.328,2.403 0,0.693 -0.452,1.182 -0.452,1.182 z m -11.808,9.892 c 0,0 -1.749,-0.728 -3.282,-0.728 0,0 -0.685,1.035 -2.308,0.693 -1.626,-0.329 -3.216,-1.569 -3.216,-1.569 0,0 1.455,0.066 2.611,0.066 0,0 -0.51,-0.58 -1.885,-0.875 -1.383,-0.284 -2.203,-0.524 -3.181,-1.288 0,0 -0.239,0.775 0.41,1.288 0,0 -2.183,0.58 -2.546,-1.605 -0.363,-2.185 -1.603,-2.037 -0.727,-3.643 0.863,-1.582 2.67,-1.593 2.727,-1.593 0,0 -1.558,-0.957 -2.579,-1.538 0,0 3.567,0.945 6.327,2.618 0,0 -0.214,-1.092 -0.871,-1.672 0,0 1.897,-0.581 4.009,0.877 2.101,1.456 2.182,2.765 3.785,3.858 1.603,1.093 0.647,2.777 -0.08,3.21 0,0 0.512,1.309 0.806,1.901 z m -15.068,-18.303 c -0.078,1.012 -0.808,1.821 -2.047,1.968 -1.239,0.138 -1.966,-0.363 -2.396,0.217 -0.433,0.58 -1.091,1.16 -1.751,1.308 0,0 -4.216,-2.618 -6.047,-3.573 0,0 1.537,1.969 1.898,2.776 0,0 -2.543,0.217 -4.295,-0.511 -1.748,-0.728 -2.919,-1.343 -4.148,-1.879 -1.237,-0.523 -2.545,-2.276 -2.545,-2.276 0,0 2.036,0.945 3.127,1.242 0,0 -1.818,-2.05 -1.888,-2.698 0,0 1.374,-0.365 2.033,-1.173 0.616,-0.751 2.419,-1.241 3.785,-1.308 h 0.294 c 1.388,0 4.81,1.821 6.478,3.061 0,0 -1.455,-2.037 -2.545,-3.061 0,0 2.614,0 3.273,-0.216 0.66,-0.229 2.182,-0.377 3.273,0.137 1.021,0.478 1.603,1.536 1.67,1.672 -0.136,-0.056 -1.216,-0.513 -2.033,-0.717 0,0 0,0.877 1.749,2.117 1.751,1.229 2.182,1.89 2.115,2.914 z m -12.172,14.956 c 0,0 1.911,1.743 2.41,2.687 0,0 -0.988,0.808 -1.306,1.388 -0.308,0.57 -1.16,1.89 -2.115,2.254 0,0 -1.013,1.309 -2.103,1.39 -1.09,0.067 -1.829,-0.183 -2.555,-0.217 -0.718,-0.034 -3.637,0 -5.817,-2.186 0,0 3.123,0.435 3.93,0.435 0,0 -2.773,-2.039 -3.352,-2.914 0,0 0.808,-0.513 0.726,-1.241 -0.068,-0.728 -0.293,-1.389 0.444,-2.185 0,0 2.546,0.877 4.069,1.092 0,0 -1.671,-1.685 -3.341,-3.061 0,0 1.035,-0.104 2.261,0.386 0,0 0.502,-0.102 1.668,-1.045 1.16,-0.945 3.422,-0.696 4.728,0.171 1.308,0.852 2.547,2.607 2.547,2.607 0,0 1.533,0.796 2.545,2.469 0,0 -2.647,-1.73 -4.739,-2.026 z m -15.931,-13.204 c 0,0 -1.514,-0.374 -2.102,-0.58 0.112,0.172 1.012,1.467 1.227,2.174 0,0 -1.375,0.911 -2.432,1.151 -1.056,0.238 -1.354,0.534 -1.932,1.182 -0.581,0.661 -2.047,1.457 -3.501,1.241 -1.398,-0.205 -4.181,-1.025 -4.419,-1.082 0.159,0.149 1.398,1.366 1.943,2.323 0,0 -1.59,0.795 -4.218,1.173 0,0 -2.396,0 -3.419,-0.297 -1.023,-0.296 -1.966,-0.809 -2.035,-1.457 -0.08,-0.66 0.502,-1.388 0.502,-1.388 0,0 2.112,0.808 3.353,1.024 0,0 -3.128,-2.914 -4.229,-3.722 0,0 2.193,0.364 3.5,0.808 0,0 -0.148,-0.808 -0.66,-1.685 -0.509,-0.865 0.444,-1.74 0.877,-1.967 0.442,-0.218 2.475,-1.014 2.987,-1.378 0,0 -1.306,-1.093 -2.773,-1.901 0,0 2.843,0.295 4.298,0.728 0,0 1.171,0.08 2.409,-0.433 1.238,-0.512 1.671,-0.512 2.692,-0.364 1.012,0.149 1.137,0.433 1.809,0.501 0.67,0.081 1.317,0.013 1.317,0.013 0,0 -0.432,-0.593 -1.523,-1.025 0,0 2.331,0.296 3.421,1.025 0,0 1.884,0.33 2.977,1.399 1.104,1.07 -0.067,2.538 -0.067,2.538 z m -31.15,-7.513 c -1.227,1.012 -2.726,1.606 -2.726,1.606 0,0 0.181,1.263 0.897,1.992 0,0 -1.375,-0.125 -2.525,-0.786 0,0 -1.021,1.149 -1.136,1.628 -0.124,0.479 -1.624,2.403 -2.522,3.061 -0.898,0.66 -2.761,1.379 -2.761,1.379 0,0 1.66,2.389 3.035,3.357 -0.353,-0.149 -4.977,-2.175 -6.875,-4.132 0,0 -0.182,1.445 0.295,2.163 0,0 -2.274,1.024 -4.853,0.42 -2.432,-0.568 -4.864,-2.31 -5.136,-2.515 0.284,0.047 2.533,0.468 3.988,0.468 0,0 -3.296,-1.618 -3.897,-3.243 -0.604,-1.617 -0.42,-3.483 1.384,-4.326 1.797,-0.842 3.354,-0.717 3.354,-0.717 0,0 4.328,2.036 6.839,2.639 0,0 -3.294,-2.163 -4.135,-3.549 0,0 2.341,0.068 2.999,-0.354 0.658,-0.422 1.136,-1.503 2.398,-1.924 1.262,-0.421 2.582,-0.546 2.582,-0.546 0,0 -1.195,-0.661 -1.5,-1.025 0,0 2.465,0.66 3.249,0.66 0,0 2.158,0.125 3.113,0.251 0.965,0.114 2.762,-0.49 4.262,-0.011 1.5,0.49 0.896,2.481 -0.33,3.505 z m -40.966,-3.3 c -0.149,1.069 -0.909,3.813 -2.352,4.429 -1.456,0.602 -1.842,0.716 -1.842,0.716 v 3.176 c 0,0 -2.159,-1.935 -2.612,-2.55 0,0 -0.58,0.024 -2.103,-0.204 -1.523,-0.228 -3.353,2.367 -6.17,2.141 0,0 -4.638,-0.992 -5.399,-2.904 -0.76,-1.901 -0.465,-3.505 -0.157,-4.04 0,0 1.601,2.059 2.737,2.662 0,0 -1.056,-2.434 -1.056,-3.96 0,0 0.91,-0.683 1.056,-1.378 0.159,-0.683 1.911,-1.753 2.978,-1.981 1.068,-0.229 2.114,0.228 2.114,0.228 0,0 1.25,2.846 2.16,3.916 0,0 -0.387,-5.589 0.067,-7.569 0,0 1.16,2.573 1.774,3.414 0,0 1.272,-0.135 3.102,-0.443 1.831,-0.307 3.421,-0.149 4.488,0.91 1.068,1.07 1.375,2.367 1.216,3.438 z m -42.683,2.891 c -0.227,1.969 -2.751,3.711 -3.432,4.154 -0.671,0.456 -1.931,1.354 -2.307,2.619 -0.375,1.274 -1.716,2.093 -2.546,2.174 -0.817,0.067 -1.931,1.263 -1.931,1.263 1.171,0.286 2.818,-0.215 3.035,-0.284 -0.171,0.149 -1.591,1.298 -2.218,1.787 -0.669,0.523 -2.907,1.048 -3.725,0.968 l -4.183,-0.068 c -2.544,-0.081 -5.454,-0.307 -6.329,-1.912 -0.829,-1.527 -1.182,-1.572 -1.216,-1.572 -1.794,0.82 -5.522,0.787 -5.522,0.787 3.591,-1.491 6.659,-4.861 6.659,-4.861 -1.932,0.82 -4.125,1.149 -4.125,1.149 -0.308,-0.523 -0.365,-1.069 -0.295,-2.196 0.081,-1.115 1.124,-1.72 1.124,-1.72 0,0 0.069,-0.59 0.818,-1.571 0.751,-0.967 3.285,-2.309 4.706,-2.39 1.42,-0.08 3.203,-0.818 4.181,-1.49 0.967,-0.672 4.398,-2.094 6.114,-1.948 1.715,0.149 2.399,0.445 2.399,0.445 0.967,-0.068 3.124,-0.445 3.124,-0.445 -2.829,2.243 -4.625,3.064 -4.625,3.064 3.283,-0.377 6.124,-1.719 6.124,-1.719 3.354,0.228 4.399,1.799 4.172,3.767 z m -53.921,9.071 c 0,0 1.375,0.775 1.455,2.641 0.08,1.868 -0.376,2.686 0.08,3.961 0.443,1.274 -0.308,2.163 -2.091,3.21 0,0 -1.797,0.375 -3.591,0.228 0,0 1.352,0.671 1.943,0.751 0,0 -1.943,1.639 -4.704,0.967 0,0 -3.353,2.017 -5.898,1.652 -2.535,-0.375 -3.126,-1.423 -3.126,-1.423 0,0 3.023,-0.547 5.181,-0.841 0,0 -3.943,-0.911 -5.215,-1.652 0,0 0.396,-1.844 1.227,-2.663 0.819,-0.832 0.626,-1.037 0.626,-1.037 0,0 -3.238,-0.761 -4.432,-1.205 0,0 3.806,-0.582 5,-1.025 0,0 -0.453,-0.923 1.045,-2.117 1.49,-1.196 2.762,-2.391 3.353,-3.074 0.603,-0.671 3.512,-0.739 5.148,-0.297 1.647,0.456 1.637,0.456 2.534,0.456 0.898,0 4.716,-0.374 4.716,-0.374 0,0 -0.75,1.183 -3.249,1.842 z m 276.188,61.636 c 4,3.222 7.67,8.047 8.056,12.702 0,4.451 -3.702,5.943 -7.659,6.705 -3.59,0.695 -8.169,3.894 -8.989,4.473 -0.293,0.215 -2.34,-0.83 -2.772,-0.979 -1.637,-0.592 -3.283,-1.138 -4.93,-1.672 -2.58,-0.843 -5.182,-1.606 -7.797,-2.322 -1.194,-0.331 -2.385,-0.638 -3.58,-0.957 -2.124,-0.546 -4.42,-0.854 -6.5,-1.548 l -0.112,-0.034 c -3.785,-0.832 -7.592,-1.582 -11.421,-2.163 0,0 -2.638,-2.39 -3.888,-4.335 -1.25,-1.96 -1.137,-4.03 -1.137,-4.03 3.16,-0.193 4.99,-1.651 5.457,-3.505 0.555,-2.232 -1.91,-4.052 -1.91,-4.052 l -0.149,-0.057 c -3.431,-3.064 -14.896,-5.43 -23.091,-5.327 -2.829,0.033 -5.908,0.511 -8.967,1.229 h -0.022 c 4.613,-2.197 17.999,-3.516 20.624,-3.301 2.637,0.229 6.149,0.661 6.149,-0.876 0,-1.537 -1.534,-7.035 -5.705,-15.379 -2.772,-5.542 -7.261,-10.185 -9.988,-12.69 -0.91,-0.945 -1.91,-1.879 -3.047,-2.846 l 0.069,0.137 0.111,0.205 0.092,0.195 0.126,0.226 0.228,0.479 0.135,0.284 0.271,0.614 c 0.284,0.661 0.603,1.456 0.91,2.346 0.308,0.888 0.592,1.855 0.83,2.879 0.08,0.341 0.148,0.683 0.204,1.035 l 0.056,0.388 c 0.455,2.788 0.365,5.816 -1.021,8.411 -0.092,0.195 -0.206,0.387 -0.318,0.569 v 0.011 c -0.204,0.307 -0.422,0.604 -0.65,0.899 -0.24,0.297 -0.5,0.581 -0.781,0.854 l -0.241,0.206 h -0.01 c -4.251,1.57 -8.808,2.083 -13.173,0.579 -0.723,-0.249 -1.475,-0.511 -2.201,-0.819 -0.275,-0.114 -0.537,-0.239 -0.808,-0.375 -4.377,-2.197 -8.34,-5.384 -12.218,-8.354 -6.647,-5.1 -13.6,-9.595 -21.328,-12.839 0.396,-0.274 0.67,-0.422 0.67,-0.422 -0.024,-0.206 -0.059,-0.432 -0.102,-0.671 -0.057,-0.273 -0.112,-0.557 -0.181,-0.796 l -0.047,-0.172 -0.044,-0.192 -0.069,-0.217 -0.057,-0.217 c 0.659,0.457 1.124,1.026 1.386,1.424 l 0.126,0.182 0.159,0.286 c 1.306,-0.446 3.612,-1.857 4.045,-2.778 0.419,-0.923 1.055,-3.209 0.853,-3.951 -0.217,-0.738 -2.535,-1.946 -3.821,-2.083 -1.283,-0.135 -3.011,0.719 -3.011,0.719 -1.271,-0.433 -2.999,-0.662 -2.999,-0.662 0,0 -7.556,-0.853 -12.933,3.04 l 0.444,0.274 0.148,0.09 0.308,0.206 0.145,0.09 0.319,0.217 0.101,0.068 0.4,0.273 0.023,0.01 0.304,0.218 0.116,0.09 0.148,0.102 0.1,0.069 0.024,0.022 c -1.739,-0.536 -3.478,-1.036 -5.228,-1.525 -0.057,-0.489 -0.202,-1.059 -0.544,-1.218 -0.592,-0.284 -2.454,-1.457 -2.785,-1.615 -0.328,-0.171 -1.648,-0.832 -2.387,-0.661 -0.736,0.16 -0.659,0.957 -0.818,1.32 -0.158,0.321 -0.363,0.388 -0.396,0.4 -3.183,-0.763 -6.387,-1.47 -9.581,-2.084 -12.966,-2.527 -26.239,-3.495 -39.42,-3.984 -2.353,-0.091 -4.704,-0.148 -7.056,-0.148 1.783,0.776 3.26,2.356 4.239,4.018 -2.625,-0.192 -5.252,-0.342 -7.876,-0.454 -1.59,-0.547 -3.83,-1.105 -6.182,-1.025 -1.271,0.044 -2.193,0.444 -2.909,0.909 -6.524,0.125 -13.035,0.742 -19.456,2.255 -10.239,2.414 -20.443,4.963 -30.658,7.478 l -0.251,0.067 c 1.729,-1.081 3.228,-2.606 4.601,-4.108 -3.021,0.751 -6.089,1.376 -9.17,1.912 -5.021,0.887 -10.191,1.661 -15.305,1.365 -8.466,-0.488 -16.922,-2.423 -25.172,-4.324 l -2.182,-0.514 -0.022,-0.009 c -0.125,-0.081 -3.558,-2.266 -3.91,-2.483 0.501,-0.022 1.953,-0.101 3.194,-0.546 0,0 -2.251,-0.272 -2.955,-0.66 0,0 1.533,-0.387 1.967,-0.934 0.443,-0.546 0.988,-1.764 1.16,-1.867 0.157,-0.114 1.204,-0.228 1.204,-0.228 0,0 -0.387,-0.432 -0.83,-0.488 0,0 0.773,-0.991 1.763,-1.208 0.988,-0.215 1.919,-0.603 2.033,-1.206 0.102,-0.603 -1.977,-0.603 -1.977,-0.603 0,0 1.002,-0.638 2.614,-0.456 1.055,-0.512 3.113,-1.946 1.488,-3.05 -0.352,-0.25 -0.955,-0.556 -1.398,-0.556 0.546,0 1.114,-0.388 1.682,-0.48 0.091,-0.022 -1.739,-0.066 -2.636,0.251 -0.875,0.33 -1.75,0.169 -1.75,0.169 0,0 -0.988,-0.772 -1.818,-0.66 -0.454,0.057 -0.942,0.217 -1.329,0.388 l 0.102,-0.104 0.057,-0.046 0.102,-0.09 0.044,-0.035 c 0,0 0.865,-0.865 1.536,-1.057 0.669,-0.182 6.203,-2.767 6.203,-2.767 0,0 -1.511,0.091 -2.864,0 -1.431,-0.102 -2.578,-0.478 -2.578,-0.478 -0.592,-0.206 -0.136,-0.9 0.206,-1.322 0,0 5.603,-0.705 12.533,-1.639 0,0 8.466,-1.9 19.41,-4.348 0.568,0.411 1.194,0.967 1.398,1.378 0.284,0.557 1.068,1.491 3.59,1.777 0,0 -1.464,1.331 -3.431,1.148 0,0 2.182,1.106 3.966,1.015 1.784,-0.092 2.999,-0.753 4.409,-0.661 1.397,0.102 2.25,0.284 3.374,-0.182 1.127,-0.468 1.479,-1.821 1.479,-1.821 0,0 -2.454,-1.4 -3.307,-2.619 0,0 3.011,1.139 4.716,1.002 0,0 -0.829,-0.785 -0.829,-1.821 0,-0.58 0.432,-1.695 0.342,-2.731 14.897,-3.347 29.477,-6.614 32.158,-7.24 1.796,-0.49 3.637,-0.956 5.512,-1.399 0.011,0.648 0.217,1.355 0.863,1.991 1.797,1.811 4.375,3.608 6.478,3.735 0.408,0.022 0.818,0.01 1.181,-0.011 h 0.047 c 0.294,-0.023 0.578,-0.047 0.873,-0.104 l 0.488,-0.091 0.342,-0.068 0.33,-0.09 0.26,-0.069 0.137,-0.046 0.204,-0.068 c 0.34,-0.125 1.171,0.637 1.455,0.832 l 0.033,0.022 c 0.625,0.399 1.263,0.752 1.943,1.025 l 0.069,0.023 c 0.398,0.137 1.215,0.296 1.475,0.627 l -0.056,-0.091 -0.045,-0.081 -0.091,-0.137 -0.08,-0.125 -0.047,-0.081 -0.237,-0.364 c -0.206,-0.317 -0.443,-0.705 -0.704,-1.125 l -0.034,-0.047 c -0.626,-0.934 -1.25,-1.878 -1.773,-2.879 -0.182,-0.33 -0.342,-0.684 -0.487,-1.025 l -0.207,-0.523 -0.011,-0.034 -0.011,-0.035 c -0.033,-0.113 -0.078,-0.283 -0.125,-0.328 l 0.103,0.067 0.078,0.068 0.135,0.114 0.513,0.444 c 1.035,0.956 2.08,2.207 3.307,2.572 0,0 2.921,-1.705 4.977,-1.799 2.057,-0.102 3.966,-0.477 4.683,-0.899 0,0 -0.967,-1.502 -2.103,-2.583 0,0 2.999,1.274 3.716,1.867 0,0 0.965,-0.547 0.307,-1.753 -0.546,-0.991 -0.408,-1.912 -1.091,-2.902 8.647,-0.49 18.182,-0.308 28.956,0.91 1.193,0.126 2.376,0.273 3.545,0.432 -1.001,0.603 -1.841,1.298 -1.841,1.298 -0.181,0.944 2.17,3.881 2.17,3.881 -1.317,-0.751 -3.986,-2.38 -3.986,-2.38 -1.956,1.139 -2.024,3.095 -1.455,4.042 0.569,0.944 3.341,2.14 5.156,2.332 1.832,0.196 4.16,-0.818 4.16,-0.818 5.034,0.568 6.478,-1.834 6.478,-1.834 -1.682,-0.898 -4.089,-2.878 -4.089,-2.878 1.532,0.761 6.294,2.251 6.294,2.251 0.601,-0.511 0.886,-1.296 1.261,-2.07 0.126,-0.262 0.25,-0.512 0.399,-0.751 0.124,-0.205 0.26,-0.398 0.432,-0.593 10.249,2.06 19.113,4.542 25.468,6.523 -0.524,0.08 -1.172,0.182 -1.946,0.353 -2.307,0.489 -2.578,1.535 -2.578,1.535 -0.387,-0.056 -1.16,-0.215 -1.16,-0.215 0.17,0.661 1.646,2.527 1.646,2.527 -0.873,-0.386 -1.362,-0.83 -1.362,-0.83 0,0 -0.5,0.445 -0.658,1.048 -0.173,0.604 0.374,1.321 1.202,1.809 0.818,0.501 0.877,0.99 2.468,1.434 1.589,0.445 1.762,-0.272 1.762,-0.272 -0.33,-0.284 -0.661,-1.163 -0.661,-1.163 0,0 1.966,1.105 2.683,1.265 0.716,0.169 0.877,0.272 1.863,0.113 0.988,-0.159 1.65,-0.273 2.751,0.057 1.094,0.331 2.091,0.284 2.091,0.284 0.785,0.832 2.513,1.139 2.513,1.139 -0.386,-0.375 -1.263,-1.366 -1.263,-1.366 0.877,-0.226 1.365,-0.786 1.365,-0.786 0.317,0.149 1.157,0.284 1.157,0.284 -0.932,-0.659 -0.873,-1.32 -0.873,-1.32 0.328,0.559 2.024,1.218 2.524,1.264 0.486,0.056 1.713,-0.125 1.713,-0.125 0.568,0.307 3.423,2.834 3.423,2.834 0.522,0.57 0.374,-2.47 0.374,-2.47 0.112,0.502 1.465,1.788 1.465,1.788 0.545,-0.159 0.922,-0.536 1.467,-1.14 0.555,-0.614 0.375,-1.479 0.375,-1.479 0.386,0.933 1.17,1.035 1.17,1.035 -0.386,-0.772 -0.284,-2.299 -0.284,-2.299 0,0 0.501,-0.068 0.876,-0.341 0.387,-0.273 0.5,-0.661 0.772,-1.093 0.273,-0.444 1.205,-0.602 1.727,-1.001 0.512,-0.397 -0.408,-2.242 -0.738,-2.788 -0.33,-0.546 -1.319,-1.048 -2.796,-1.433 -1.488,-0.388 -3.512,-0.058 -3.512,-0.058 0.057,0.888 -0.115,1.764 -0.115,1.764 -0.384,-1.434 -2.317,-2.561 -2.317,-2.561 0.386,0.978 0.124,1.901 0.124,1.901 -0.373,0.226 -0.815,0.215 -1.976,0.33 -1.147,0.114 -2.625,1.318 -2.625,1.318 0.159,0.878 0.057,1.653 0.057,1.653 -0.112,-0.284 -0.658,-0.775 -0.658,-0.775 -0.285,0.273 -0.718,2.036 -0.718,2.036 -0.443,-0.329 -1.045,-0.751 -1.045,-0.751 -5.286,-2.834 -9.99,-5.12 -14.149,-6.978 0.398,-0.159 0.909,-0.295 1.479,-0.295 1.206,0 2.409,-1.025 2.409,-1.025 0.75,1.207 1.216,0.934 1.216,0.934 -0.285,-0.752 0,-2.333 0,-3.54 0,-1.217 -1.864,-2.515 -1.864,-2.515 0,-0.661 -0.831,-1.208 -0.831,-1.208 0,0 -0.191,0.559 -0.658,0.559 -0.466,0 -1.556,-0.443 -2.876,-0.751 -0.898,-0.205 -3.262,0 -3.262,0 0.466,1.867 0.728,4.086 0.728,4.086 0,0 -2.398,-2.869 -2.955,-2.869 -0.555,0 -1.396,0.183 -2.693,1.116 -0.671,0.479 -1.421,0.786 -1.99,0.968 -9.021,-3.165 -13.353,-3.426 -13.353,-3.426 0,0 14.728,-3.654 36.649,0.683 15.25,3.005 26.513,7.979 35.944,12.644 0.502,1.003 1.115,1.789 1.557,2.279 l 0.218,0.25 0.09,0.102 0.078,0.102 -0.214,-0.058 c -0.864,-0.239 -1.603,-0.899 -2.285,-1.49 l -0.116,-0.091 -0.089,-0.068 -0.08,-0.068 -0.012,0.216 0.023,0.307 0.023,0.125 0.069,0.284 c 0.066,0.216 0.168,0.468 0.341,0.718 l 0.171,0.229 c 0.192,0.249 0.443,0.511 0.784,0.762 1.656,1.229 4.555,2.06 5.943,2.777 1.576,0.819 3.498,1.959 3.498,1.959 -0.307,-1.231 -1.34,-2.176 -1.829,-3.064 -0.283,-0.523 -0.148,-1.001 -0.148,-1.001 0.32,0.921 2.251,1.821 2.251,1.821 1.238,0.421 2.407,0.604 3.26,0.683 11.536,5.805 35.877,19.622 36.296,19.818 0.501,0.226 1.035,0.501 1.581,0.795 l 0.544,0.307 c 0.604,1.799 0.285,2.846 0.285,2.846 -0.703,-0.421 -2.182,-2.06 -2.182,-2.06 -0.125,0.615 0,1.105 0,1.105 0,0 -1.352,0.705 -1.068,2.436 0.285,1.73 1.931,1.855 1.931,1.855 -0.239,-0.581 -0.284,-1.366 -0.284,-1.366 0,0 0.988,0.866 1.478,1.241 0.499,0.375 2.433,1.024 4.033,1.354 1.604,0.332 3.353,1.868 3.353,1.868 -0.625,-1.196 -0.385,-2.198 -0.385,-2.198 0.751,1.103 3.022,3.403 3.022,3.403 0.989,0.49 2.396,0.729 3.888,1.299 0.761,0.296 1.441,0.693 1.917,1.012 0.549,0.718 1.026,1.424 1.422,2.116 -0.692,1.39 -3.716,4.759 -16.625,2.631 -10.558,-5.613 -21.49,-10.131 -21.49,-10.131 23.627,14.194 42.33,33.441 43.243,39.154 0.919,5.715 -3.456,8.652 -0.583,10.848 2.865,2.198 8.638,-4.951 8.638,-4.951 z m -54.353,36.804 c -1.772,0.819 -3.566,1.57 -5.417,2.207 -0.909,0.307 -1.817,0.592 -2.737,0.842 -3.271,0.899 -6.565,1.229 -9.938,1.433 -0.091,0.011 -0.216,0 -0.375,-0.023 l 0.08,-0.25 c 0.034,-0.159 0.068,-0.307 0.08,-0.444 0.204,-2.025 -1.952,-3.526 -1.952,-3.526 l -0.069,-0.034 -0.193,-0.091 -0.08,-0.034 c -1.397,-0.66 -2.805,-1.297 -4.214,-1.934 -2.453,-1.103 -4.918,-2.161 -7.405,-3.174 l -1.431,-0.58 c -0.352,-0.148 -0.704,-0.296 -1.056,-0.432 -5.712,-2.264 -11.505,-4.323 -17.365,-6.211 -3.532,-1.138 -7.076,-2.207 -10.63,-3.219 l -1.704,-0.489 c -5.985,-1.729 -12.55,-3.47 -19.682,-5.187 -4.679,-4.402 -9.29,-8.816 -14.242,-12.866 32.902,8.771 55.424,18.463 66.872,23.992 4.077,1.9 6.848,3.333 8.257,4.095 1.272,0.387 3.055,0.603 3.975,-0.694 1.897,-2.685 -1.352,-4.994 -1.352,-4.994 0,0 -28.859,-15.278 -83.022,-26.437 -5.338,-3.8 -10.994,-6.973 -16.548,-10.409 -1.919,-1.183 -3.896,-2.423 -5.542,-3.982 -0.84,-0.785 -1.738,-1.775 -1.851,-2.98 -0.023,-0.228 -0.023,-0.466 0,-0.694 l 0.011,-0.046 c 0.011,-0.148 0.034,-0.296 0.068,-0.444 l 0.034,-0.137 0.034,-0.102 0.125,-0.375 0.091,-0.216 c 0.488,-1.138 1.363,-2.173 2.237,-2.901 l 0.386,-0.341 0.273,-0.228 0.352,-0.296 0.375,-0.319 0.023,-0.011 0.136,-0.114 0.08,-0.068 0.023,-0.023 0.102,-0.091 0.057,-0.034 0.057,-0.011 h 0.011 l 0.011,-0.011 0.341,-0.08 0.488,-0.125 c 2.317,-0.58 4.77,-1.172 7.257,-1.57 0.829,-0.137 1.67,-0.239 2.499,-0.33 0.897,2.912 4.872,7.224 4.872,7.224 -1.885,0.137 -4.304,-0.535 -4.304,-0.535 3.498,4.71 13.186,10.636 20.716,12.115 7.541,1.479 14.39,1.206 14.39,1.206 -1.068,0.546 -2.817,1.217 -2.817,1.217 0,0 2.953,-0.137 6.985,0.671 0.522,0.102 1.09,0.239 1.704,0.41 2.681,0.694 5.985,1.797 7.927,2.48 0.227,0.068 0.443,0.148 0.625,0.216 l 0.034,0.011 0.023,0.011 c 0.603,0.398 1.181,0.785 1.749,1.183 3.362,2.241 6.565,4.732 9.62,7.372 0.886,0.762 1.76,1.536 2.612,2.321 1.387,1.274 2.635,2.651 3.998,3.936 -0.114,-0.102 -0.136,-0.626 -0.182,-0.785 -0.08,-0.296 -0.193,-0.592 -0.307,-0.887 -0.25,-0.614 -0.477,-1.24 -0.738,-1.843 -0.511,-1.217 -1.09,-2.412 -1.715,-3.572 -1.261,-2.332 -2.703,-4.562 -4.282,-6.7 -0.886,-1.194 -1.817,-2.378 -2.783,-3.526 -0.704,-0.819 -1.442,-1.615 -2.181,-2.423 -0.591,-0.648 -1.306,-1.82 -2.181,-2.105 l -0.023,-0.011 -0.045,-0.023 c 0.716,0.023 1.386,0.08 2.033,0.159 0.216,0.023 0.421,0.046 0.625,0.08 0.284,0.034 0.545,0.08 0.818,0.137 0.716,0.125 1.374,0.296 1.999,0.489 0.239,0.068 0.466,0.148 0.693,0.228 0.227,0.08 0.443,0.159 0.659,0.25 0.432,0.171 0.84,0.364 1.227,0.557 0.193,0.091 0.386,0.193 0.568,0.296 l 0.534,0.319 0.511,0.33 0.477,0.341 0.273,0.205 c 0.182,0.137 0.363,0.284 0.534,0.432 0.204,0.171 0.386,0.341 0.568,0.523 0.114,0.091 0.216,0.193 0.308,0.296 0.817,0.83 1.453,1.695 1.941,2.503 l 0.261,0.466 c 0.613,1.092 0.954,2.048 1.136,2.651 l 0.069,0.239 0.112,0.455 c 8.382,-0.307 14.481,8.407 16.105,10.602 h 0.068 l -0.057,0.011 0.045,0.023 c 1.34,0.717 2.669,1.467 3.986,2.23 l 0.704,0.421 0.988,0.592 c 1.147,0.671 2.306,1.354 3.43,2.082 3.044,1.911 6.247,3.959 8.836,6.53 -0.466,-0.011 -0.954,0.057 -1.42,0.171 -0.466,0.114 -0.931,0.25 -1.363,0.375 3.225,2.275 6.156,4.948 8.768,7.883 0.341,0.375 3.248,4.152 3.339,4.152 z"
           id="path2308" />
        <path
           style="fill:#0a0a08"
           inkscape:connector-curvature="0"
           d="m 375.488,198.892 c -2.023,4.178 -12.762,-1.434 -24.284,-2.47 -11.512,-1.035 -27.01,3.438 -27.01,3.438 l 0.373,-0.296 c 1.102,-0.819 2.308,-1.481 3.536,-2.094 1.011,-0.512 2.044,-0.99 3.089,-1.446 3.66,-1.582 7.491,-2.846 11.377,-3.768 h 0.022 c 3.059,-0.718 6.138,-1.196 8.967,-1.229 8.194,-0.102 19.66,2.264 23.091,5.327 0.91,0.808 1.262,1.661 0.842,2.537 z m -27.09,29.425 c -0.923,1.298 -2.708,1.081 -3.98,0.693 -1.408,-0.761 -4.18,-2.197 -8.249,-4.098 -11.455,-5.531 -33.98,-15.217 -66.879,-23.994 -11.316,-3.016 -23.839,-5.93 -37.578,-8.525 -8.58,-1.617 -16.525,-2.925 -23.887,-3.961 7.511,0.718 15.624,1.662 24.397,2.913 11.421,1.639 22.013,3.519 31.798,5.533 54.169,11.165 83.021,26.44 83.021,26.44 0,0 3.254,2.312 1.356,4.999 z m 0.919,10.383 c -0.011,0.137 -0.045,0.284 -0.08,0.444 l -0.08,0.25 -0.011,0.023 c -0.091,0.239 -0.216,0.489 -0.386,0.728 -0.897,1.308 -2.68,1.103 -3.964,0.728 -1.42,-0.739 -4.202,-2.15 -8.291,-4.004 -15.469,-7.292 -50.972,-21.842 -104.783,-31.454 -8.393,-1.502 -16.059,-2.719 -23.283,-3.674 l -0.045,-0.011 -0.227,-0.023 -0.102,-0.023 c 1.34,0.114 2.714,0.239 4.089,0.375 0.227,0.011 0.443,0.034 0.659,0.057 7.848,0.83 15.673,1.718 23.476,2.798 9.847,1.365 19.637,3.026 29.381,4.96 8.87,1.763 17.717,3.947 26.485,6.154 3.702,0.933 7.382,1.911 11.062,2.946 l 1.704,0.489 c 3.555,1.012 7.098,2.082 10.63,3.219 5.86,1.888 11.654,3.947 17.365,6.211 0.352,0.137 0.704,0.284 1.056,0.432 l 1.431,0.58 c 2.487,1.012 4.952,2.07 7.405,3.174 1.408,0.637 2.817,1.274 4.214,1.934 l 0.08,0.034 0.193,0.091 0.069,0.034 c 0,0 2.157,1.502 1.952,3.526 z m 4.331,-78.689 c 13.407,13.885 3.942,25.735 3.942,25.735 0,0 -16.887,-3.506 -29.705,-2.788 -6.115,0.352 -13.33,3.129 -19.217,5.93 l 0.16,0.022 0.09,0.035 c 0.876,0.286 1.592,1.456 2.182,2.106 0.739,0.809 1.478,1.604 2.182,2.424 0.968,1.149 1.898,2.322 2.786,3.516 1.578,2.141 3.011,4.371 4.273,6.705 0.624,1.16 1.205,2.356 1.714,3.573 0.262,0.604 0.5,1.23 0.742,1.844 0.111,0.297 0.225,0.593 0.306,0.887 0.043,0.162 0.067,0.684 0.179,0.786 -1.352,-1.285 -2.611,-2.664 -3.986,-3.938 -0.862,-0.785 -1.729,-1.56 -2.614,-2.322 -3.056,-2.641 -6.261,-5.133 -9.624,-7.376 l -1.806,-1.205 c -0.935,-0.625 -1.876,-1.242 -2.842,-1.822 -1.977,-1.241 -4.694,-2.88 -7.206,-4.2 -3.806,-2.015 -7.715,-3.892 -11.725,-5.487 -2.502,-1.274 -4.957,-2.618 -7.378,-4.018 -3.271,-1.901 -6.523,-3.904 -9.613,-6.101 -1.466,-1.035 -3.17,-1.902 -4.443,-3.175 -0.082,-0.081 -0.183,-0.171 -0.261,-0.182 -0.795,-0.125 -1.592,-0.184 -2.342,-0.206 -1.01,-0.034 -2.034,0 -3.045,0.068 -0.08,0.013 -1.238,0.138 -1.238,0.126 -0.831,0.09 -1.672,0.193 -2.501,0.329 -2.488,0.399 -4.943,0.992 -7.263,1.571 l -0.487,0.126 -0.341,0.078 c 0.296,-0.249 3.272,-2.81 5.089,-3.823 2.647,-1.48 5.604,-2.391 8.491,-3.268 2.999,-0.898 6.511,-1.604 9.624,-1.9 10.546,-1.001 20.979,0.762 30.764,4.085 9.522,3.234 18.284,8.185 28.045,10.802 1.244,0.334 2.496,0.635 3.755,0.902 l 0.701,0.143 0.012,0.002 c 4.072,0.842 8.392,1.523 12.477,0.501 2.455,-0.614 5.141,-1.832 7.062,-3.558 l 0.279,-0.243 c 0.832,-0.804 1.525,-1.779 2.001,-2.837 1.172,-2.591 1.012,-5.161 0.769,-7.907 l -0.056,-0.388 c -0.057,-0.353 -0.125,-0.694 -0.204,-1.035 -0.239,-1.024 -0.522,-1.991 -0.83,-2.879 -0.307,-0.89 -0.626,-1.685 -0.91,-2.346 -0.102,-0.216 -0.192,-0.421 -0.271,-0.614 l -0.135,-0.284 -0.228,-0.479 -0.126,-0.226 -0.092,-0.195 -0.111,-0.205 -0.069,-0.137 c 1.137,0.967 2.137,1.901 3.047,2.846 z"
           id="path2310" />
        <path
           style="fill:#9f792c"
           inkscape:connector-curvature="0"
           d="m 371.249,203.969 c 0,0 -0.114,2.07 1.137,4.03 1.249,1.945 3.888,4.335 3.888,4.335 -0.751,-0.113 -1.501,-0.229 -2.252,-0.33 -3.011,-0.431 -6.046,-0.775 -9.078,-1.048 -1.397,-0.125 -2.796,-0.228 -4.203,-0.317 -0.262,-0.023 -5.059,-0.239 -5.605,-0.251 -4.862,-0.126 -9.76,0.08 -14.6,0.08 h -0.24 c -1.625,-2.196 -7.718,-10.914 -16.101,-10.608 0,0 15.498,-4.473 27.01,-3.438 11.522,1.035 22.262,6.648 24.284,2.47 0.42,-0.876 0.068,-1.729 -0.842,-2.537 l 0.149,0.057 c 0,0 2.466,1.82 1.91,4.052 -0.467,1.854 -2.298,3.311 -5.457,3.505 z m -87.713,9.817 c 7.132,1.718 13.697,3.458 19.682,5.187 -3.68,-1.035 -7.36,-2.014 -11.062,-2.946 -8.768,-2.207 -17.615,-4.391 -26.485,-6.154 -9.745,-1.934 -19.535,-3.595 -29.381,-4.96 -7.802,-1.081 -15.628,-1.968 -23.476,-2.798 -0.216,-0.023 -0.432,-0.046 -0.659,-0.057 -1.374,-0.137 -2.748,-0.262 -4.089,-0.375 l 0.102,0.023 -0.239,-0.011 c 1.988,0.523 3.975,1.081 5.951,1.661 2.805,0.83 5.781,1.581 8.404,2.901 -3.078,-0.228 -6.292,-0.523 -9.37,-0.171 1.317,0.523 2.839,1.058 3.941,1.979 -5.236,0.057 -10.483,0.182 -15.73,0.375 -9.165,0.319 -18.376,0.683 -27.485,1.9 4.577,1.467 9.676,3.629 13.322,6.996 0.522,0.478 1.011,0.978 1.465,1.513 -3.623,0.216 -7.269,0.535 -10.892,0.921 -0.454,-0.944 -1.124,-1.9 -2.044,-2.423 -0.307,-0.182 -0.636,-0.319 -0.999,-0.398 l -0.602,-0.137 c -0.398,-0.08 -0.818,-0.182 -1.238,-0.296 -0.647,-0.171 -1.317,-0.387 -1.976,-0.66 -0.227,-0.091 -0.443,-0.193 -0.659,-0.296 -0.227,-0.091 -0.443,-0.205 -0.647,-0.341 -0.534,-0.307 -1.045,-0.671 -1.522,-1.092 l -0.034,-0.023 c -1.034,-0.967 -1.908,-2.252 -2.465,-4.027 0,0 -0.965,-2.742 -3.021,-3.435 l -0.045,-0.011 c -0.716,-0.239 -1.715,-0.546 -2.76,-0.83 -0.284,-0.08 -0.568,-0.148 -0.852,-0.216 -0.602,-0.148 -1.193,-0.262 -1.738,-0.341 -0.965,-0.137 -1.772,-0.137 -2.158,0.125 -1.034,0.694 -1.204,2.082 -1.227,2.23 v 0.011 c 0,0 2.385,-0.137 3.759,-0.398 l 0.068,-0.011 c 0,0 -2.601,1.923 -7.802,2.605 l 0.011,0.011 c 0.182,0.046 0.875,0.239 1.67,0.341 0.466,0.068 0.965,0.102 1.42,0.057 h 0.045 c 0,0 -0.545,1.934 -0.818,3.162 -0.273,1.24 0.273,3.572 1.635,4.664 l 0.011,0.011 c 0,0 2.294,-0.137 4.736,-0.671 l 0.057,-0.011 c 0,0 -0.818,1.365 -1.919,2.196 0,0 1.238,0.683 0.545,1.786 -0.681,1.092 -2.328,3.982 -1.363,5.904 0.386,0.785 1.147,1.627 1.919,2.343 0,0 -5.497,1.57 -8.086,2.446 -7.757,2.628 -15.298,5.995 -22.113,10.511 0.886,0.171 1.76,0.375 2.624,0.58 1.306,0.307 2.612,0.648 3.896,1.035 0.806,0.25 1.613,0.501 2.408,0.796 l 0.034,0.011 c 0,0 -0.579,0.648 -0.761,1.342 -0.102,0.41 -0.216,0.751 -0.341,1.035 l -0.114,0.273 -0.159,0.307 -0.136,0.216 c -0.08,0.114 -0.159,0.205 -0.239,0.284 -0.227,0.25 -0.466,0.387 -0.681,0.512 -0.522,0.307 -1.158,0.421 -1.579,0.944 -0.318,0.398 -0.693,1.047 -0.818,2.173 l -0.034,0.023 c 0,0 -2.499,1.331 -3.578,2.07 -1.147,0.774 -2.271,1.581 -3.35,2.446 -0.625,0.512 -1.84,1.558 -1.999,1.695 l -0.295,-0.341 -0.466,-0.512 -0.193,-0.228 -0.25,-0.296 c -2.215,-2.514 -5.826,-6.803 -5.52,-7.144 4.441,-4.914 4.236,-9.476 4.236,-9.476 l -0.034,0.011 c -1.193,0.512 -3.6,0.159 -3.793,0.125 3.021,-1.797 5.611,-5.62 5.611,-5.62 l -0.068,0.034 -0.738,0.375 c -0.261,0.114 -0.511,0.228 -0.772,0.33 l -0.511,0.239 -0.239,0.102 -0.068,0.023 c -0.204,0.08 -0.398,0.137 -0.568,0.125 l -0.045,-0.011 c -0.42,-1.786 -1.647,-4.118 -3.021,-5.21 -1.374,-1.103 -3.146,-4.402 -3.146,-4.402 h -0.034 c -0.307,0 -0.693,0.034 -1.113,0.068 -0.761,0.08 -1.511,0.216 -2.271,0.284 l -0.17,0.023 -0.216,0.011 0.114,-0.125 c 0.693,-0.705 3.271,-2.503 3.271,-3.003 0,-1.092 1.238,-3.982 1.919,-5.495 0.204,-0.444 0.295,-0.91 0.295,-1.376 l -0.023,-0.387 -0.011,-0.08 -0.08,-0.375 c -0.023,-0.125 -0.068,-0.262 -0.114,-0.387 l -0.034,-0.091 c -0.045,-0.125 -0.102,-0.25 -0.17,-0.375 l -0.148,-0.284 c -0.568,-0.91 -1.499,-1.615 -2.555,-1.854 l -0.125,-0.023 c -1.738,-0.375 -3.861,-0.046 -5.656,0.33 l -0.545,0.091 c 0.193,0.023 0.409,0.046 0.636,0.102 0.829,0.125 1.772,0.387 2.385,0.91 l 0.125,0.114 0.125,0.114 c -2.873,0.421 -4.52,1.786 -4.52,1.786 -0.545,0.444 -1.022,0.876 -1.42,1.274 l -0.011,-0.046 c -0.557,-3.06 -0.931,-6.143 -1.102,-9.237 -0.307,-5.756 -0.25,-11.74 1.522,-17.28 0.057,-0.125 0.216,-0.228 0.443,-0.307 0.568,-0.057 1.113,-0.114 1.67,-0.182 3.6,-0.444 7.178,-1.138 10.676,-2.093 6.496,-1.786 12.879,-4.562 17.876,-9.146 0.432,-0.387 0.636,-0.614 0.659,-0.637 l -0.068,0.023 c -0.375,-0.114 -8.37,-0.819 -11.709,-1.57 -0.931,-0.205 -1.942,-0.512 -2.692,-0.853 0,0 6.769,0.08 17.865,-3.174 1.567,-0.432 3.112,-0.944 4.645,-1.479 1.919,-0.694 3.873,-1.445 5.77,-2.275 l 0.057,-0.023 0.045,-0.023 c 0.704,-0.307 1.397,-0.626 2.09,-0.956 l 0.091,-0.046 c 2.09,-0.978 4.089,-2.116 6.042,-3.333 l 0.897,-0.466 0.091,-0.046 c 0.579,-0.228 1.147,-0.466 1.715,-0.717 1.079,-0.478 2.147,-0.99 3.214,-1.547 1.249,-0.637 2.499,-1.297 3.714,-1.991 0.75,-0.432 1.488,-0.876 2.215,-1.32 3.339,-2.048 10.142,-7.701 10.199,-7.77 l -0.068,0.023 -0.068,0.046 c -0.943,0.512 -1.908,1.001 -2.873,1.479 -3.691,1.888 -7.519,3.64 -11.471,4.857 -0.466,0.137 -0.931,0.284 -1.408,0.41 -2.862,0.83 -5.77,1.467 -8.7,2.014 -2.533,0.466 -5.088,0.819 -7.655,0.876 -2.544,0.068 -5.111,-0.08 -7.632,-0.455 -1.408,-0.216 -2.828,-0.466 -4.225,-0.785 -1.522,-0.353 -3.044,-0.751 -4.543,-1.217 -1.352,-0.421 -2.68,-0.933 -4.02,-1.376 -4.429,-1.649 -8.62,-3.834 -12.686,-6.234 -0.965,-0.569 -3.759,-2.321 -3.941,-2.446 l 2.181,0.512 c 8.245,1.9 16.707,3.834 25.168,4.323 5.122,0.296 10.29,-0.478 15.31,-1.365 3.078,-0.535 6.144,-1.16 9.165,-1.911 -1.374,1.502 -2.873,3.026 -4.6,4.107 l 0.25,-0.068 c 10.222,-2.514 20.42,-5.062 30.665,-7.474 6.417,-1.513 12.925,-2.127 19.455,-2.252 -0.488,0.319 -0.875,0.683 -1.181,0.967 -0.75,0.705 -2.362,0.99 -2.362,0.99 -0.886,0.08 -3.237,0.193 -3.237,0.193 3.373,0.944 4.327,2.105 6.383,2.889 -1.885,-0.284 -5.202,-0.921 -5.202,-0.921 -0.443,1.854 -1.76,2.446 -2.748,3.185 -0.988,0.751 -1.068,1.32 -1.068,1.32 1.76,0.375 6.247,2.912 6.247,2.912 -1.647,-0.455 -6.247,-0.466 -6.247,-0.466 -0.25,0.819 -0.454,0.819 0.863,2.343 1.306,1.524 1.193,2.15 0.738,2.639 -0.454,0.489 -1.488,1.729 0.488,3.299 1.988,1.558 5.69,1.274 6.883,1.103 1.193,-0.159 2.351,0.102 2.351,0.102 -0.897,-0.66 -2.306,-2.082 -2.306,-2.082 0.909,0.08 3.861,0.751 3.861,0.751 0,0 -0.909,-0.91 -0.329,-1.57 0.568,-0.66 2.385,-0.41 3.737,-1.479 1.363,-1.069 1.068,-3.504 1.363,-4.038 0.284,-0.535 1.681,-1.354 1.681,-1.354 0.534,-0.046 1.363,0 1.363,0 -1.238,-0.751 -5.315,-2.73 -5.315,-2.73 1.476,0.034 3.998,0.239 3.998,0.239 -0.125,-0.66 -0.954,-2.503 -1.238,-3.333 -0.284,-0.819 -0.034,-1.558 0.08,-2.059 0.125,-0.489 0.045,-1.354 0.045,-1.354 -0.409,-0.455 -1.147,-0.865 -1.147,-0.865 1.476,0.034 3.657,0.364 3.657,0.364 -0.216,-0.102 -1.056,-0.512 -2.271,-0.933 2.624,0.114 5.258,0.262 7.882,0.455 -0.988,-1.661 -2.453,-3.242 -4.248,-4.016 2.362,0 4.713,0.057 7.064,0.148 13.175,0.489 26.451,1.456 39.421,3.982 3.191,0.614 6.394,1.32 9.574,2.082 0.819,0.648 2.056,1.274 2.351,1.411 -0.818,-0.296 -3.578,-0.387 -3.578,-0.387 -0.409,0.33 -0.602,1.285 -0.193,2.935 l 0.034,0.171 c -1.227,-0.273 -4.418,-0.83 -6.962,0.068 0,0 2.306,1.49 4.259,4.232 0,0 -18.899,3.47 -26.451,17.041 l -0.307,0.626 -0.102,0.091 -0.023,0.023 -0.08,0.068 -0.136,0.114 -0.023,0.011 -0.375,0.319 -0.352,0.296 -0.273,0.228 -0.386,0.341 c -0.875,0.728 -1.749,1.763 -2.237,2.901 l -0.091,0.216 -0.125,0.375 -0.034,0.102 -0.034,0.137 c -0.034,0.148 -0.057,0.296 -0.068,0.444 l -0.011,0.046 c -0.023,0.228 -0.023,0.466 0,0.694 0.114,1.206 1.011,2.196 1.851,2.98 1.647,1.558 3.623,2.798 5.542,3.982 5.554,3.435 11.21,6.609 16.548,10.409 -9.789,-2.014 -20.375,-3.902 -31.801,-5.54 -8.768,-1.251 -16.888,-2.196 -24.396,-2.912 7.36,1.035 15.31,2.343 23.884,3.959 13.742,2.605 26.258,5.517 37.581,8.532 4.952,4.05 9.563,8.464 14.242,12.866 z m 85.805,-25.707 c 0,1.537 -3.512,1.105 -6.149,0.876 -2.625,-0.215 -16.01,1.105 -20.624,3.301 -3.885,0.921 -7.716,2.185 -11.377,3.768 -1.045,0.456 -2.078,0.934 -3.089,1.446 -1.228,0.613 -2.434,1.275 -3.536,2.094 l -0.373,0.296 c 0,0 -0.605,-3.324 -3.524,-6.306 -0.159,-0.173 -0.329,-0.341 -0.513,-0.501 -0.35,-0.331 -0.736,-0.648 -1.158,-0.957 -1.238,-0.921 -2.784,-1.742 -4.671,-2.321 -0.622,-0.196 -1.294,-0.355 -1.998,-0.49 -1.068,-0.206 -2.218,-0.331 -3.478,-0.377 h -0.023 l -0.16,-0.022 c 5.887,-2.801 13.102,-5.579 19.217,-5.93 12.818,-0.718 29.705,2.788 29.705,2.788 0,0 9.465,-11.85 -3.942,-25.735 2.727,2.505 7.215,7.147 9.988,12.69 4.17,8.344 5.705,13.842 5.705,15.379 z m -25.818,-7.581 c -4.085,1.023 -8.406,0.341 -12.477,-0.501 -0.97,-0.268 -2.237,-0.664 -3.355,-1.105 -1.533,-0.604 -3.068,-1.263 -4.237,-1.82 -0.275,-0.126 -0.533,-0.25 -0.775,-0.388 -3.781,-2.094 -6.248,-4.941 -7.385,-6.829 0,0 -0.182,1.706 0.191,3.027 0,0 -7.762,-3.415 -11.93,-6.829 -3.216,-2.629 -4.727,-7.012 -4.727,-9.105 v -0.172 c 0.727,-0.716 1.521,-1.308 2.057,-1.684 7.728,3.243 14.68,7.739 21.328,12.839 3.879,2.97 7.841,6.158 12.218,8.354 0.27,0.137 0.533,0.262 0.808,0.375 0.726,0.308 1.478,0.57 2.201,0.819 4.366,1.504 8.922,0.991 13.173,-0.579 l -0.033,0.033 0.005,0.005 c -1.921,1.727 -4.607,2.944 -7.062,3.558 z m 64.135,-7.364 c -2.124,-1.878 -4.976,-3.836 -8.136,-5.772 -2.307,-1.433 -4.77,-2.844 -7.101,-4.029 l -0.251,-0.124 c 12.909,2.127 15.933,-1.241 16.625,-2.631 l 0.08,0.138 c 0.194,0.353 0.377,0.706 0.512,1.048 2.569,6.122 -1.729,11.371 -1.729,11.371 z"
           id="path2312" />
        <path
           style="fill:#006778"
           inkscape:connector-curvature="0"
           d="m 331.103,333.627 -5.31,-3.451 -0.692,-7.648 c 0,0 7.522,4.93 6.001,11.099 z M 313.17,316.858 c 0,0 -4.228,16.484 -23.933,27.091 0,0 -15.023,-5.101 -23.238,-24.006 -6.637,-15.287 -0.308,-43.911 -9.206,-60.098 -5.897,-10.756 -16.341,-13.26 -16.341,-13.26 0,0 6.501,-3.734 20.047,0.66 22.307,7.216 24.737,36.423 25.092,42.422 0.694,11.792 2.727,27.022 10.466,31.153 0,0 -4.559,-6.315 -4.694,-21.237 -0.407,-44.369 -15.738,-50.629 -15.738,-50.629 0,0 18.716,3.073 23.752,18.941 5.032,15.878 -3.07,40.215 13.795,48.965 z m 97.97,-89.326 c -0.662,5.93 -9.877,14.5 -9.877,14.5 -1.32,-3.29 -6.251,-11.201 -6.251,-11.201 0,0 1.319,-3.299 -3.625,-7.591 -4.931,-4.28 -18.432,-4.28 -18.432,-4.28 0,0 3.637,-2.072 8.228,-1.652 12.069,1.106 29.957,10.223 29.957,10.223 z m -94.584,-47.08 c 0,0 -11.681,7.366 -20.137,5.181 -8.466,-2.186 -22.977,-13.682 -22.977,-13.682 0,0 5.555,-0.728 14.74,0.808 l 0.237,0.047 c 1.671,0.374 3.455,1.73 4.794,2.673 0.82,0.581 1.557,1.265 2.343,1.879 0.159,0.124 2.203,1.376 2.295,1.376 l -0.033,0.456 c 0,2.151 1.748,3.904 3.907,3.904 2.149,0 3.898,-1.753 3.898,-3.904 0,-0.854 -0.273,-1.639 -0.738,-2.279 7.705,2.2 11.671,3.54 11.671,3.54 z"
           id="path2314" />
        <path
           style="fill:#0a0a08"
           inkscape:connector-curvature="0"
           d="m 369.489,142.003 c 0,0 -2.377,-2.094 -3.206,-2.821 0,0 1.16,2.754 1.341,3.344 0,0 -2.239,0.08 -3.455,-0.863 -1.216,-0.944 -2.964,-2.06 -2.512,-2.06 0,0 0.546,0.033 1.002,0.102 0,0 -1.387,-1.673 -3.762,-1.811 0,0 -1.445,0.331 -3.105,-0.512 -1.658,-0.853 -2.349,-1.719 -2.349,-1.719 0,0 -0.91,-1.011 -1.081,-2.31 0,0 1.626,1.139 2.423,1.457 0,0 -1.434,-2.049 -1.434,-3.266 0,0 1.023,-0.206 2.307,0.284 1.297,0.489 1.65,0.102 1.65,0.102 0,0 -0.559,-0.729 -0.773,-1.469 0,0 1.635,1.366 2.331,1.673 0,0 2.023,-0.626 3.556,0.033 1.531,0.661 3.271,2.367 3.545,2.686 0.261,0.298 1.296,1.083 1.422,1.174 -0.103,-0.138 -0.909,-1.218 -1.128,-2.072 0.126,0.08 1.138,0.739 1.595,0.967 0.485,0.251 1.421,1.229 1.603,1.854 0.168,0.628 -0.843,1.64 -0.843,1.64 0,0 1.328,1.708 1.328,2.403 0,0.693 -0.452,1.182 -0.452,1.182 z m 13.09,10.791 c -0.332,0.501 -0.819,0.501 -0.819,0.501 0,0 -2.967,-1.775 -3.749,-2.151 0,0 1.487,2.312 1.692,2.846 0,0 -2.555,-0.377 -3.216,-1.275 0,0 -2.876,-0.705 -3.908,-1.4 -1.024,-0.705 -1.854,-1.776 -1.854,-2.356 0,0 1.649,0.786 2.478,1.161 0,0 -2.227,-2.686 -2.921,-3.335 0,0 0.773,-0.83 1.729,-1.081 0.942,-0.24 1.397,-0.24 1.762,-0.205 0,0 0.045,-0.57 -0.41,-1.07 0,0 2.672,1.605 3.91,2.891 l -0.332,-1.16 c 0,0 2.137,0.535 3.126,1.49 0.989,0.945 1.478,2.016 1.773,2.505 0.283,0.501 1.07,2.151 0.739,2.64 z m -97.49,10.096 c 0,0 -1.592,-1.024 -2.49,-1.274 0.181,0.182 2,2.049 0.978,2.287 0,0 -0.909,-1.057 -2.558,-1.797 -1.648,-0.741 -4.681,-2.232 -5.59,-3.05 -0.853,-0.775 -1.409,-2.414 -1.466,-2.619 0.101,0.137 0.603,0.808 1.055,0.887 0.457,0.08 1.796,0.945 1.967,1.059 -0.057,-0.135 -0.522,-1.264 -1.068,-1.718 -0.569,-0.502 -1.966,-1.163 -2.706,-2.061 l 0.819,-0.25 c 0,0 0.228,-1.617 -0.135,-3.21 l -0.033,-0.171 c -0.41,-1.649 -0.219,-2.605 0.192,-2.936 0,0 2.76,0.091 3.58,0.387 -0.296,-0.137 -1.536,-0.762 -2.352,-1.411 0.033,-0.013 0.239,-0.08 0.396,-0.4 0.159,-0.363 0.082,-1.159 0.818,-1.32 0.739,-0.171 2.059,0.49 2.387,0.661 0.33,0.158 2.193,1.331 2.785,1.615 0.342,0.159 0.487,0.729 0.544,1.218 1.75,0.489 3.489,0.99 5.228,1.525 l 0.102,0.081 0.023,0.01 0.057,0.046 c -1.035,-0.251 -3.17,-0.546 -4.169,-0.684 -0.298,0.297 -0.955,0.956 -1.229,1.298 0,0 -0.601,0.786 -0.954,2.8 -0.112,0.65 0.25,2.141 0.91,2.722 0.658,0.569 2.716,2.47 3.045,3.367 0.332,0.911 -0.271,2.323 -0.135,2.937 z m -1.729,-35.058 c -1.227,1.012 -2.726,1.606 -2.726,1.606 0,0 0.181,1.263 0.897,1.992 0,0 -1.375,-0.125 -2.525,-0.786 0,0 -1.021,1.149 -1.136,1.628 -0.124,0.479 -1.624,2.403 -2.522,3.061 -0.898,0.66 -2.761,1.379 -2.761,1.379 0,0 1.66,2.389 3.035,3.357 -0.353,-0.149 -4.977,-2.175 -6.875,-4.132 0,0 -0.182,1.445 0.295,2.163 0,0 -2.274,1.024 -4.853,0.42 -2.432,-0.568 -4.864,-2.31 -5.136,-2.515 0.284,0.047 2.533,0.468 3.988,0.468 0,0 -3.296,-1.618 -3.897,-3.243 -0.604,-1.617 -0.42,-3.483 1.384,-4.326 1.797,-0.842 3.354,-0.717 3.354,-0.717 0,0 4.328,2.036 6.839,2.639 0,0 -3.294,-2.163 -4.135,-3.549 0,0 2.341,0.068 2.999,-0.354 0.658,-0.422 1.136,-1.503 2.398,-1.924 1.262,-0.421 2.582,-0.546 2.582,-0.546 0,0 -1.195,-0.661 -1.5,-1.025 0,0 2.465,0.66 3.249,0.66 0,0 2.158,0.125 3.113,0.251 0.965,0.114 2.762,-0.49 4.262,-0.011 1.5,0.49 0.896,2.481 -0.33,3.505 z m 23.411,23.688 c -0.434,0.921 -2.739,2.332 -4.045,2.778 l -0.159,-0.286 -0.126,-0.182 c -0.261,-0.398 -0.727,-0.967 -1.386,-1.424 l 0.057,0.217 0.069,0.217 0.044,0.192 0.047,0.172 c 0.068,0.239 0.124,0.523 0.181,0.796 0.043,0.239 0.078,0.465 0.102,0.671 0,0 -0.274,0.148 -0.67,0.422 -0.536,0.375 -1.33,0.968 -2.057,1.684 -0.568,0.546 -1.091,1.161 -1.444,1.821 -1.148,2.117 -1.059,3.722 -1.059,3.722 0,0 -0.989,-0.421 -1.884,-1.115 0,0 0.453,1.911 2.068,2.72 0,0 0.92,1.218 0.522,2.139 0,0 -2.829,-0.226 -3.49,-0.761 -0.659,-0.547 -2.761,-1.309 -2.761,-1.309 0,0 0.704,-0.115 1.455,-0.068 0,0 -0.761,-1.854 -1.488,-2.48 -0.728,-0.617 -2.195,-1.743 -1.865,-3.177 0,0 1.727,0.124 2.555,0.455 0,0 -2.726,-2.367 -4.396,-2.743 l 2.285,-0.124 c 0,0 -0.309,-1.618 2.591,-3.029 2.91,-1.412 3.806,-2.31 4.421,-3.22 0.601,-0.911 0.852,-1.844 1.613,-2.39 0,0 1.422,0.808 2.545,1.661 0,0 -0.647,-1.924 -2.704,-3.335 0,0 1.729,0.229 2.999,0.662 0,0 1.727,-0.854 3.011,-0.719 1.286,0.137 3.604,1.345 3.821,2.083 0.202,0.742 -0.434,3.028 -0.853,3.951 z m 7.739,-16.175 c 0,0 -1.514,-0.374 -2.102,-0.58 0.112,0.172 1.012,1.467 1.227,2.174 0,0 -1.375,0.911 -2.432,1.151 -1.056,0.238 -1.354,0.534 -1.932,1.182 -0.581,0.661 -2.047,1.457 -3.501,1.241 -1.398,-0.205 -4.181,-1.025 -4.419,-1.082 0.159,0.149 1.398,1.366 1.943,2.323 0,0 -1.59,0.795 -4.218,1.173 0,0 -2.396,0 -3.419,-0.297 -1.023,-0.296 -1.966,-0.809 -2.035,-1.457 -0.08,-0.66 0.502,-1.388 0.502,-1.388 0,0 2.112,0.808 3.353,1.024 0,0 -3.128,-2.914 -4.229,-3.722 0,0 2.193,0.364 3.5,0.808 0,0 -0.148,-0.808 -0.66,-1.685 -0.509,-0.865 0.444,-1.74 0.877,-1.967 0.442,-0.218 2.475,-1.014 2.987,-1.378 0,0 -1.306,-1.093 -2.773,-1.901 0,0 2.843,0.295 4.298,0.728 0,0 1.171,0.08 2.409,-0.433 1.238,-0.512 1.671,-0.512 2.692,-0.364 1.012,0.149 1.137,0.433 1.809,0.501 0.67,0.081 1.317,0.013 1.317,0.013 0,0 -0.432,-0.593 -1.523,-1.025 0,0 2.331,0.296 3.421,1.025 0,0 1.884,0.33 2.977,1.399 1.104,1.07 -0.067,2.538 -0.067,2.538 z m 42.364,14.65 c 0,0 0.512,1.309 0.806,1.901 0,0 -1.749,-0.728 -3.282,-0.728 0,0 -0.685,1.035 -2.308,0.693 -1.626,-0.329 -3.216,-1.569 -3.216,-1.569 0,0 1.455,0.066 2.611,0.066 0,0 -0.51,-0.58 -1.885,-0.875 -1.383,-0.284 -2.203,-0.524 -3.181,-1.288 0,0 -0.239,0.775 0.41,1.288 0,0 -2.183,0.58 -2.546,-1.605 -0.363,-2.185 -1.603,-2.037 -0.727,-3.643 0.863,-1.582 2.67,-1.593 2.727,-1.593 0,0 -1.558,-0.957 -2.579,-1.538 0,0 3.567,0.945 6.327,2.618 0,0 -0.214,-1.092 -0.871,-1.672 0,0 1.897,-0.581 4.009,0.877 2.101,1.456 2.182,2.765 3.785,3.858 1.603,1.093 0.647,2.777 -0.08,3.21 z m -24.023,1.241 c 0,0 -0.988,0.808 -1.306,1.388 -0.308,0.57 -1.16,1.89 -2.115,2.254 0,0 -1.013,1.309 -2.103,1.39 -1.09,0.067 -1.829,-0.183 -2.555,-0.217 -0.718,-0.034 -3.637,0 -5.817,-2.186 0,0 3.123,0.435 3.93,0.435 0,0 -2.773,-2.039 -3.352,-2.914 0,0 0.808,-0.513 0.726,-1.241 -0.068,-0.728 -0.293,-1.389 0.444,-2.185 0,0 2.546,0.877 4.069,1.092 0,0 -1.671,-1.685 -3.341,-3.061 0,0 1.035,-0.104 2.261,0.386 0,0 0.502,-0.102 1.668,-1.045 1.16,-0.945 3.422,-0.696 4.728,0.171 1.308,0.852 2.547,2.607 2.547,2.607 0,0 1.533,0.796 2.545,2.469 0,0 -2.647,-1.73 -4.739,-2.026 0,0 1.911,1.743 2.41,2.687 z m 9.762,-17.643 c -0.078,1.012 -0.808,1.821 -2.047,1.968 -1.239,0.138 -1.966,-0.363 -2.396,0.217 -0.433,0.58 -1.091,1.16 -1.751,1.308 0,0 -4.216,-2.618 -6.047,-3.573 0,0 1.537,1.969 1.898,2.776 0,0 -2.543,0.217 -4.295,-0.511 -1.748,-0.728 -2.919,-1.343 -4.148,-1.879 -1.237,-0.523 -2.545,-2.276 -2.545,-2.276 0,0 2.036,0.945 3.127,1.242 0,0 -1.818,-2.05 -1.888,-2.698 0,0 1.374,-0.365 2.033,-1.173 0.616,-0.751 2.419,-1.241 3.785,-1.308 h 0.294 c 1.388,0 4.81,1.821 6.478,3.061 0,0 -1.455,-2.037 -2.545,-3.061 0,0 2.614,0 3.273,-0.216 0.66,-0.229 2.182,-0.377 3.273,0.137 1.021,0.478 1.603,1.536 1.67,1.672 -0.136,-0.056 -1.216,-0.513 -2.033,-0.717 0,0 0,0.877 1.749,2.117 1.751,1.229 2.182,1.89 2.115,2.914 z M 208.157,247.891 c 0,0 1.408,2.833 1.522,5.233 0.102,2.4 -1.851,3.162 -3.805,3.925 -1.965,0.762 -4.145,0.33 -4.793,-0.102 -0.659,-0.444 -1.749,-0.33 -1.749,-0.33 0.647,-0.876 3.384,-2.73 3.384,-2.73 -2.624,0.228 -5.02,1.854 -5.02,1.854 0,0 -4.134,0.66 -6.315,0.66 -2.169,0 -5.542,-2.07 -5.542,-2.07 -1.306,0 -3.157,0.978 -3.157,0.978 0.977,-1.649 5.224,-4.698 5.224,-4.698 -1.965,0.432 -4.463,2.07 -4.463,2.07 -0.761,-0.762 -4.475,-3.049 -5.452,-3.811 -0.977,-0.762 -1.624,-1.854 -1.306,-4.038 0.329,-2.173 2.828,-2.4 5.111,-2.503 2.306,-0.102 5.452,-0.114 5.452,-0.114 -0.92,0.717 -1.545,2.014 -1.613,2.173 0.454,-0.66 3.884,-2.309 3.884,-2.309 0,0 3.714,-1.058 6.224,-2.15 2.499,-1.092 4.781,-0.865 7.076,0.546 2.294,1.411 4.463,5.779 4.463,5.779 1.738,-0.717 4.52,-1.138 4.861,-1.183 -1.42,0.671 -3.986,2.821 -3.986,2.821 z m -53.31,-56.363 c -0.886,0.58 -0.965,1.194 -1.648,2.072 -0.693,0.887 -4.896,1.081 -4.896,1.081 -2.546,-0.887 -5.864,-0.887 -5.864,-0.887 1.659,0.489 3.907,1.184 3.907,1.184 0,0 -2.351,0.386 -4.306,0.192 -1.956,-0.192 -3.035,-2.356 -4.102,-3.825 -1.08,-1.467 0.193,-3.721 0.193,-3.721 -0.591,-0.398 -1.273,-0.594 -1.273,-0.594 2.148,-0.191 6.159,0.104 6.159,0.104 -1.851,-0.592 -3.953,-1 -3.953,-1 0,0 0.239,-1.06 0.727,-2.142 0.49,-1.069 2.84,-0.785 3.818,-0.683 0.977,0.102 2.25,-1.082 2.954,-1.307 0.705,-0.24 2.92,0.523 4.091,0.92 1.17,0.387 1.272,1.274 1.272,1.274 -1.079,-0.101 -2.647,0.196 -2.647,0.196 l 3.818,1.069 c 0,0 2.545,1.275 2.932,2.549 0.398,1.275 -0.285,2.947 -1.182,3.517 z m 22.975,34.35 c -0.693,2.332 -0.136,3.435 -0.136,5.768 0,2.343 -2.885,3.31 -7.405,3.993 -4.52,0.683 -6.44,-0.819 -6.44,-0.819 l 0.681,-1.524 c -1.511,0.273 -5.906,0.421 -5.906,0.421 2.885,-1.251 6.587,-3.856 6.587,-3.856 -1.772,0.694 -5.463,1.581 -5.463,1.581 0,0 -1.113,-0.796 -2.215,-1.843 -0.772,-0.717 -1.533,-1.558 -1.919,-2.343 -0.965,-1.923 0.681,-4.812 1.363,-5.904 0.693,-1.103 -0.545,-1.786 -0.545,-1.786 1.102,-0.83 1.919,-2.196 1.919,-2.196 l -0.057,0.011 c -2.442,0.535 -4.736,0.671 -4.736,0.671 l -0.011,-0.011 c -1.363,-1.092 -1.908,-3.424 -1.635,-4.664 0.273,-1.229 0.818,-3.162 0.818,-3.162 h -0.045 c -0.454,0.046 -0.954,0.011 -1.42,-0.057 -0.795,-0.102 -1.488,-0.296 -1.67,-0.341 l -0.011,-0.011 c 5.202,-0.683 7.802,-2.605 7.802,-2.605 l -0.068,0.011 c -1.374,0.262 -3.759,0.398 -3.759,0.398 v -0.011 c 0.023,-0.148 0.193,-1.536 1.227,-2.23 0.386,-0.262 1.193,-0.262 2.158,-0.125 0.545,0.08 1.136,0.193 1.738,0.341 0.284,0.068 0.568,0.137 0.852,0.216 1.045,0.284 2.044,0.592 2.76,0.83 l 0.045,0.011 c 2.056,0.694 3.021,3.435 3.021,3.435 0.557,1.775 1.431,3.06 2.465,4.027 l 0.034,0.023 c 0.477,0.421 0.988,0.785 1.522,1.092 0.204,0.137 0.42,0.25 0.647,0.341 0.216,0.102 0.432,0.205 0.659,0.296 0.659,0.273 1.329,0.489 1.976,0.66 0.42,0.114 0.84,0.216 1.238,0.296 l 0.602,0.137 c 0.363,0.08 0.693,0.216 0.999,0.398 0.92,0.523 1.59,1.479 2.044,2.423 l 0.011,0.011 c 0.716,1.467 0.954,2.946 0.954,2.946 -0.954,1.638 -3.566,3.151 -3.566,3.151 1.238,0.273 2.885,0 2.885,0 z m -32.031,-89.385 c 0,0 1.375,0.775 1.455,2.641 0.08,1.868 -0.376,2.686 0.08,3.961 0.443,1.274 -0.308,2.163 -2.091,3.21 0,0 -1.797,0.375 -3.591,0.228 0,0 1.352,0.671 1.943,0.751 0,0 -1.943,1.639 -4.704,0.967 0,0 -3.353,2.017 -5.898,1.652 -2.535,-0.375 -3.126,-1.423 -3.126,-1.423 0,0 3.023,-0.547 5.181,-0.841 0,0 -3.943,-0.911 -5.215,-1.652 0,0 0.396,-1.844 1.227,-2.663 0.819,-0.832 0.626,-1.037 0.626,-1.037 0,0 -3.238,-0.761 -4.432,-1.205 0,0 3.806,-0.582 5,-1.025 0,0 -0.453,-0.923 1.045,-2.117 1.49,-1.196 2.762,-2.391 3.353,-3.074 0.603,-0.671 3.512,-0.739 5.148,-0.297 1.647,0.456 1.637,0.456 2.534,0.456 0.898,0 4.716,-0.374 4.716,-0.374 0,0 -0.75,1.183 -3.249,1.842 z m 56.046,66.236 c -0.954,1.457 -4.808,1.957 -6.875,1.708 0,0 -3.863,1.74 -6.069,1.445 -2.193,-0.296 -6.193,-1.799 -6.193,-1.799 0,0 1.228,-0.638 2.433,-0.83 0,0 -0.74,-1.48 -2.535,-3.175 -1.796,-1.709 -4.102,-3.803 -4.5,-5.214 0,0 2.363,-0.992 4.068,-1.389 0,0 -2.851,0.08 -4.454,-0.615 0,0 -0.114,-2.994 0.488,-4.199 0.602,-1.196 1.001,-2.198 1.001,-2.801 0,-0.604 -0.114,-0.557 0.784,-0.854 0.897,-0.296 5.216,-1.047 5.216,-1.047 0,0 -0.399,-0.99 -3.103,-1.4 0,0 2.399,-0.899 5.103,-0.501 2.693,0.398 4.487,3.597 5.387,5.305 0.91,1.695 2.602,3.596 3.704,4.404 1.103,0.797 5.238,-0.204 5.238,-0.204 0,0 -2.612,2.595 -4.271,2.47 0,0 0.83,3.038 2.227,4.247 1.398,1.193 3.306,2.994 2.352,4.45 z m -62.559,18.814 c -1.227,0.967 -4.387,3.574 -6.033,5.498 -1.649,1.924 -3.421,3.983 -7.126,3.016 -3.705,-0.957 -4.262,-6.317 -4.262,-6.317 0.967,-1.366 5.354,-3.425 5.354,-3.425 -2.329,0 -5.286,0.523 -5.286,0.523 0.058,-1.116 0.216,-4.372 0.216,-6.99 0,-2.605 -1.374,-5.076 -1.374,-5.076 0.955,-0.967 3.295,-2.196 3.295,-2.196 -4.534,0.683 -6.862,0.137 -6.862,0.137 1.238,0 3.021,-0.967 3.021,-0.967 -0.271,-1.367 0.275,-3.291 0.955,-3.985 0.681,-0.684 2.751,-3.29 3.706,-3.984 0.954,-0.684 3.431,-0.273 5.897,0.138 2.467,0.408 2.876,1.924 2.876,1.924 1.237,0.272 2.477,0.135 2.477,0.135 -1.511,1.103 -5.353,2.333 -5.353,2.333 1.784,0.284 3.297,0.284 3.297,0.284 0,0 1.09,3.985 1.646,6.045 0.24,0.887 0.694,1.626 1.273,2.332 -1.068,0.638 -2.896,1.652 -4.432,2.198 0,0 2.649,-0.08 5.478,-1.06 0.545,0.547 1.148,1.106 1.796,1.742 1.921,1.925 0.683,6.74 -0.558,7.696 z m 110.389,-70.32 c 0,0 1.081,1.194 0.886,2.424 -0.191,1.229 -0.613,1.467 -0.965,2.276 -0.34,0.808 -1.374,1.502 -2.455,2.002 0,0 1.399,0.604 2.854,1.458 -0.341,-0.035 -3.069,-0.388 -3.852,-0.49 0,0 -1.546,0.923 -2.239,1.959 -0.694,1.047 -1.922,1.968 -3.693,2.048 0,0 -2.227,-0.661 -3.114,-0.852 0,0 1.16,1 1.613,1.502 0,0 -1.261,0.501 -2.5,0.238 -1.227,-0.273 -4.034,-1.433 -4.887,-1.695 0,0 2.047,0.147 2.661,0.228 0,0 -4.081,-3.279 -4.694,-4.008 0,0 1.763,0.297 2.546,0.49 -0.285,-0.171 -2.592,-1.582 -2.66,-3.425 -0.044,-1.116 0.727,-1.958 1.648,-2.458 0.932,-0.502 1.965,-0.547 2.352,-1.242 0.386,-0.695 0.454,-1.536 0.454,-1.536 0,0 3.035,0.579 4.375,0.887 0,0 -1.193,-1.776 -1.966,-2.083 0,0 0.251,-0.695 1.25,-1.161 1.001,-0.454 2.727,-0.921 3.773,-1.729 1.034,-0.808 2.193,-0.581 2.968,-0.421 0.76,0.148 2.26,1.081 4.032,1.617 0,0 -0.921,-0.775 -1.228,-1.424 0,0 1.923,0.115 2.888,0.536 0.954,0.421 1.453,1.422 0.998,2.163 -0.466,0.728 -1.045,0.809 -1.079,1.308 -0.045,0.502 1.307,1.39 1.886,1.891 0,0 -0.852,-0.274 -1.852,-0.501 z m -85.281,107.918 c 0,0 -1.272,0.319 -3.884,2.309 -2.624,2.002 -3.26,4.619 -3.26,4.619 1.363,-1.251 3.26,-2.412 3.26,-2.412 -0.534,0.842 -0.318,1.263 -1.476,3.879 -1.147,2.628 -3.986,2.525 -5.974,2.73 -1.988,0.216 -5.236,-2.196 -5.236,-2.196 -1.158,0.421 -3.26,2.412 -3.26,2.412 0.943,-3.151 4.407,-6.507 4.407,-6.507 -1.465,0.626 -4.089,2.514 -4.089,2.514 -1.465,-1.149 -6.621,-2.628 -10.074,-4.516 -3.464,-1.888 -3.044,-5.563 -3.044,-5.563 0.216,-2.207 2.101,-5.153 2.101,-5.153 -1.158,0.637 -2.408,2.002 -2.408,2.002 -0.034,-0.432 -0.023,-0.808 0.011,-1.16 v -0.034 c 0.125,-1.126 0.5,-1.775 0.818,-2.173 0.42,-0.523 1.056,-0.637 1.579,-0.944 0.216,-0.125 0.454,-0.262 0.681,-0.512 0.08,-0.08 0.159,-0.171 0.239,-0.284 l 0.136,-0.216 0.159,-0.307 0.114,-0.273 c 0.125,-0.284 0.239,-0.626 0.341,-1.035 0.182,-0.694 0.761,-1.342 0.761,-1.342 1.204,-1.354 3.339,-2.332 3.339,-2.332 -1.113,1.399 -1.249,2.878 -1.261,3.185 l 0.034,0.011 c 2.408,-3.822 6.474,-3.515 6.474,-3.515 -0.84,0.216 -1.885,0.842 -1.885,0.842 0,0 1.783,0.626 3.566,1.149 1.783,0.535 5.758,0.842 8.075,0.842 2.306,0 6.599,0.842 6.599,0.842 1.885,-0.626 7.666,-2.093 7.666,-2.093 -1.999,1.251 -5.554,3.037 -5.554,3.037 7.235,3.993 1.045,12.195 1.045,12.195 z m 49.768,21.842 c -1.386,2.378 -3.26,2.594 -3.26,2.594 l 0.477,-0.899 c -1.624,0.444 -3.339,-0.489 -3.509,-0.58 0.999,1.399 1.102,3.208 1.102,3.208 l -0.636,1.194 2.192,-0.159 -1.238,1.524 c 0.363,3.549 -2.578,4.88 -6.019,4.607 -3.43,-0.262 -7.587,-3.811 -7.587,-3.811 0.239,-1.376 2.828,-5.062 2.828,-5.062 -1.84,0.557 -5.168,2.912 -5.168,2.912 -3.146,-1.957 -2.499,-1.297 -11.46,-2.537 -8.95,-1.24 -13.436,-3.618 -13.436,-3.618 -0.045,-1.638 1.17,-3.606 1.17,-3.606 -2.135,1.047 -3.191,2.707 -3.191,2.707 -0.761,-0.557 -3.373,-3.083 -2.351,-6.643 1.011,-3.549 6.269,-4.095 6.269,-4.095 1.715,-1.388 4.304,-1.411 4.463,-1.411 -0.591,0.353 -1.579,1.035 -1.579,1.035 1.465,-0.284 9.37,0.535 12.788,0.796 3.43,0.273 7.121,0.262 7.121,0.262 l 3.509,-0.808 c -1.488,0.956 -5.667,3.663 -6.178,3.993 2.601,-1.604 8.916,-2.867 8.916,-2.867 0,0 1.102,-0.137 2.726,0.58 1.613,0.717 2.317,3.356 2.317,3.356 1.397,-1.376 3.725,-0.557 6.11,1.923 2.396,2.48 2.487,5.096 2.487,5.096 l 1.136,0.307 z m -1.692,-128.679 c 0,0 4.08,1.969 5.32,2.721 0,0 -0.831,-0.047 -1.366,0 0,0 -1.396,0.818 -1.68,1.354 -0.298,0.535 0,2.97 -1.365,4.041 -1.35,1.07 -3.17,0.82 -3.738,1.48 -0.579,0.66 0.329,1.571 0.329,1.571 0,0 -2.954,-0.671 -3.864,-0.752 0,0 1.408,1.422 2.308,2.083 0,0 -1.16,-0.262 -2.353,-0.101 -1.195,0.169 -4.897,0.454 -6.875,-1.106 -1.977,-1.57 -0.944,-2.811 -0.488,-3.301 0.453,-0.489 0.569,-1.114 -0.739,-2.639 -1.319,-1.527 -1.113,-1.527 -0.863,-2.345 0,0 4.591,0.01 6.239,0.466 0,0 -4.478,-2.527 -6.239,-2.903 0,0 0.078,-0.569 1.069,-1.321 0.987,-0.738 2.295,-1.331 2.739,-3.185 0,0 3.315,0.635 5.203,0.92 -2.056,-0.785 -3.012,-1.946 -6.374,-2.891 0,0 2.34,-0.113 3.237,-0.192 0,0 1.604,-0.286 2.353,-0.991 0.306,-0.286 0.693,-0.648 1.182,-0.969 0.716,-0.465 1.638,-0.865 2.909,-0.909 2.352,-0.08 4.592,0.478 6.182,1.025 1.215,0.42 2.056,0.83 2.273,0.932 0,0 -2.182,-0.33 -3.658,-0.364 0,0 0.738,0.41 1.147,0.866 0,0 0.08,0.865 -0.044,1.355 -0.116,0.499 -0.365,1.241 -0.08,2.059 0.284,0.832 1.113,2.674 1.238,3.334 0,0 -2.524,-0.204 -4.001,-0.238 z m 17.808,29.424 c -1.865,-0.387 -5.09,-0.66 -5.09,-0.66 2.408,0.934 4.214,1.638 4.214,1.638 0,0 -0.327,0.286 -0.76,0.331 -0.443,0.057 -1.216,-0.433 -1.865,-0.331 -0.658,0.113 -1.16,1.218 -1.874,1.821 -0.705,0.603 -1.637,0.432 -1.637,0.432 0,0 -0.228,0.888 -0.93,1.436 -0.718,0.546 -1.876,0.272 -3.354,0.056 -1.476,-0.229 -1.978,-3.357 -1.978,-3.357 -1.534,-1.366 -3.886,-2.63 -3.886,-2.63 0.99,0.046 2.251,0.273 2.251,0.273 -0.499,-0.832 -3.408,-2.196 -3.408,-2.196 -0.49,-0.229 -1.98,-1.048 -1.98,-1.048 1.49,0.114 6.036,1.15 6.036,1.15 -1.479,-0.934 -4.443,-2.083 -4.443,-2.083 0.226,-0.502 0.5,-0.877 1.215,-0.877 0.704,0 2.193,0.215 2.68,-0.171 0.501,-0.386 0.604,-1.378 1.489,-1.924 0.877,-0.547 2.467,-0.102 3.889,0.273 1.431,0.387 3.18,1.047 3.18,1.047 -1.647,0.114 -3.34,0.114 -3.34,0.114 2.022,0.49 4.001,1.481 5.863,2.63 1.909,1.183 1.16,2.312 2.751,2.914 1.59,0.603 0.978,1.16 0.978,1.16 z m -30.558,-54.306 c -0.227,1.969 -2.751,3.711 -3.432,4.154 -0.671,0.456 -1.931,1.354 -2.307,2.619 -0.375,1.274 -1.716,2.093 -2.546,2.174 -0.817,0.067 -1.931,1.263 -1.931,1.263 1.171,0.286 2.818,-0.215 3.035,-0.284 -0.171,0.149 -1.591,1.298 -2.218,1.787 -0.669,0.523 -2.907,1.048 -3.725,0.968 l -4.183,-0.068 c -2.544,-0.081 -5.454,-0.307 -6.329,-1.912 -0.829,-1.527 -1.182,-1.572 -1.216,-1.572 -1.794,0.82 -5.522,0.787 -5.522,0.787 3.591,-1.491 6.659,-4.861 6.659,-4.861 -1.932,0.82 -4.125,1.149 -4.125,1.149 -0.308,-0.523 -0.365,-1.069 -0.295,-2.196 0.081,-1.115 1.124,-1.72 1.124,-1.72 0,0 0.069,-0.59 0.818,-1.571 0.751,-0.967 3.285,-2.309 4.706,-2.39 1.42,-0.08 3.203,-0.818 4.181,-1.49 0.967,-0.672 4.398,-2.094 6.114,-1.948 1.715,0.149 2.399,0.445 2.399,0.445 0.967,-0.068 3.124,-0.445 3.124,-0.445 -2.829,2.243 -4.625,3.064 -4.625,3.064 3.283,-0.377 6.124,-1.719 6.124,-1.719 3.354,0.228 4.399,1.799 4.172,3.767 z m 42.683,-2.891 c -0.149,1.069 -0.909,3.813 -2.352,4.429 -1.456,0.602 -1.842,0.716 -1.842,0.716 v 3.176 c 0,0 -2.159,-1.935 -2.612,-2.55 0,0 -0.58,0.024 -2.103,-0.204 -1.523,-0.228 -3.353,2.367 -6.17,2.141 0,0 -4.638,-0.992 -5.399,-2.904 -0.76,-1.901 -0.465,-3.505 -0.157,-4.04 0,0 1.601,2.059 2.737,2.662 0,0 -1.056,-2.434 -1.056,-3.96 0,0 0.91,-0.683 1.056,-1.378 0.159,-0.683 1.911,-1.753 2.978,-1.981 1.068,-0.229 2.114,0.228 2.114,0.228 0,0 1.25,2.846 2.16,3.916 0,0 -0.387,-5.589 0.067,-7.569 0,0 1.16,2.573 1.774,3.414 0,0 1.272,-0.135 3.102,-0.443 1.831,-0.307 3.421,-0.149 4.488,0.91 1.068,1.07 1.375,2.367 1.216,3.438 z m -58.035,43.812 c -0.433,-0.035 -2.934,-0.24 -4.433,-0.047 0,0 -0.932,0.934 -1.977,0.99 -1.045,0.057 -1.261,0.832 -1.045,1.434 0.227,0.602 1.272,2.801 -0.047,4.338 -1.317,1.536 -4.385,1.012 -4.385,1.012 0,0 -3.08,2.288 -6.454,1.787 -3.377,-0.501 -6.058,-1.787 -6.058,-1.787 0,0 -3.068,-0.695 -4.762,-1.594 0,0 4.172,0.398 7.444,0.205 0,0 -3.512,-1.081 -4.535,-2.333 0,0 1.194,-0.751 0.979,-1.843 -0.228,-1.106 -0.558,-2.643 -0.057,-3.519 0,0 3.069,1.48 4.602,1.867 0,0 -1.967,-1.651 -2.683,-3.131 0,0 1.319,0 2.524,-0.99 1.204,-0.99 2.49,-2.765 4.728,-2.731 0,0 1.035,-1.059 2.08,-1.287 1.034,-0.216 1.908,-0.216 1.908,-0.216 0,0 1.215,0.546 3.295,0.933 0,0 -2.794,-1.867 -3.455,-2.685 0,0 1.263,0.432 2.308,0.375 0,0 1.147,-0.33 3.011,0.171 1.865,0.489 3.126,1.924 3.126,3.129 0,1.208 -1.693,2.801 -1.09,3.847 0.558,0.957 4.419,1.935 4.978,2.073 z"
           id="path2316" />
        <path
           style="fill:#ffffff"
           inkscape:connector-curvature="0"
           d="m 300.544,177.095 c -0.069,1.127 -0.819,1.811 -1.817,1.811 -0.285,0 -0.592,-0.069 -0.876,-0.172 -0.092,0 -2.136,-1.252 -2.295,-1.376 -0.786,-0.614 -1.523,-1.298 -2.343,-1.879 -1.339,-0.943 -3.111,-2.288 -4.784,-2.673 1.024,0.193 5.026,0.978 7.374,1.604 1.185,0.308 2.285,0.614 3.365,0.911 0,0 1.445,0.637 1.375,1.775 z m -5.341,12.828 c 2.512,1.32 5.229,2.959 7.206,4.2 0.965,0.58 1.907,1.198 2.842,1.822 l -0.626,-0.217 c -1.944,-0.683 -5.249,-1.787 -7.922,-2.471 -0.614,-0.169 -1.182,-0.306 -1.705,-0.408 -4.034,-0.809 -6.989,-0.672 -6.989,-0.672 0,0 1.75,-0.672 2.82,-1.218 0,0 -6.853,0.274 -14.387,-1.206 -7.534,-1.48 -17.217,-7.41 -20.717,-12.122 0,0 2.421,0.671 4.308,0.535 0,0 -3.977,-4.302 -4.875,-7.216 0,0.011 1.158,-0.114 1.238,-0.126 1.011,-0.068 2.035,-0.102 3.045,-0.068 0.75,0.022 1.547,0.081 2.342,0.206 0.078,0.011 0.179,0.101 0.261,0.182 1.273,1.273 2.977,2.14 4.443,3.175 3.09,2.197 6.342,4.2 9.613,6.101 2.42,1.4 4.876,2.744 7.378,4.018 4.01,1.595 7.919,3.472 11.725,5.487 z m -37.057,-23.961 c -2.887,0.877 -5.843,1.788 -8.491,3.268 -1.817,1.014 -4.793,3.574 -5.089,3.823 l -0.011,0.013 h -0.012 l -0.055,0.011 -0.161,0.124 0.102,-0.101 0.308,-0.626 c 7.557,-13.569 26.454,-17.04 26.454,-17.04 -1.952,-2.732 -4.261,-4.224 -4.261,-4.224 2.546,-0.899 5.739,-0.341 6.968,-0.068 0.363,1.594 0.135,3.21 0.135,3.21 l -0.819,0.25 c 0.74,0.899 2.137,1.56 2.706,2.061 0.545,0.454 1.011,1.582 1.068,1.718 -0.171,-0.114 -1.511,-0.979 -1.967,-1.059 -0.452,-0.08 -0.954,-0.751 -1.055,-0.887 0.057,0.205 0.613,1.844 1.466,2.619 0.909,0.818 3.942,2.309 5.59,3.05 1.649,0.741 2.558,1.797 2.558,1.797 1.022,-0.238 -0.797,-2.105 -0.978,-2.287 0.897,0.25 2.49,1.274 2.49,1.274 -0.136,-0.614 0.467,-2.026 0.135,-2.937 -0.329,-0.898 -2.387,-2.798 -3.045,-3.367 -0.66,-0.581 -1.022,-2.073 -0.91,-2.722 0.353,-2.014 0.954,-2.8 0.954,-2.8 0.274,-0.342 0.931,-1.001 1.229,-1.298 0.999,0.138 3.135,0.432 4.169,0.684 l -0.057,-0.046 -0.023,-0.01 -0.102,-0.081 -0.024,-0.022 -0.1,-0.069 -0.148,-0.102 -0.116,-0.09 -0.304,-0.218 -0.023,-0.01 -0.4,-0.273 -0.101,-0.068 -0.319,-0.217 -0.145,-0.09 -0.308,-0.206 -0.148,-0.09 -0.444,-0.274 c 5.377,-3.893 12.933,-3.04 12.933,-3.04 2.057,1.412 2.704,3.335 2.704,3.335 -1.123,-0.853 -2.545,-1.661 -2.545,-1.661 -0.761,0.546 -1.012,1.479 -1.613,2.39 -0.616,0.91 -1.512,1.809 -4.421,3.22 -2.9,1.412 -2.591,3.029 -2.591,3.029 l -2.285,0.124 c 1.671,0.375 4.396,2.743 4.396,2.743 -0.828,-0.331 -2.555,-0.455 -2.555,-0.455 -0.33,1.434 1.137,2.561 1.865,3.177 0.727,0.626 1.488,2.48 1.488,2.48 -0.751,-0.047 -1.455,0.068 -1.455,0.068 0,0 2.102,0.762 2.761,1.309 0.661,0.535 3.49,0.761 3.49,0.761 0.398,-0.92 -0.522,-2.139 -0.522,-2.139 -1.615,-0.809 -2.068,-2.72 -2.068,-2.72 0.895,0.694 1.884,1.115 1.884,1.115 0,0 -0.09,-1.605 1.059,-3.722 0.352,-0.66 0.876,-1.275 1.444,-1.821 v 0.172 c 0,2.093 1.511,6.476 4.727,9.105 4.168,3.414 11.93,6.829 11.93,6.829 -0.373,-1.321 -0.191,-3.027 -0.191,-3.027 1.137,1.888 3.604,4.735 7.385,6.829 0.242,0.138 0.5,0.262 0.775,0.388 1.17,0.557 2.704,1.216 4.237,1.82 1.114,0.439 2.374,0.834 3.342,1.102 l -0.701,-0.143 c -1.258,-0.267 -2.511,-0.568 -3.755,-0.902 -9.76,-2.618 -18.523,-7.568 -28.045,-10.802 -9.784,-3.323 -20.217,-5.086 -30.764,-4.085 -3.113,0.296 -6.625,1.002 -9.624,1.9 z"
           id="path2318" />
      </g>
      <rect
         y="164.70831"
         x="0"
         height="132.29167"
         width="132.29167"
         id="rect2120"
         style="opacity:1;fill:none;fill-opacity:1;stroke:none;stroke-width:10.58333302;stroke-linejoin:round;stroke-miterlimit:4;stroke-dasharray:none;stroke-opacity:1;paint-order:stroke fill markers" />
    </g>
  </g>
</svg>
