<?xml version="1.0" encoding="UTF-8" standalone="no"?>
<!-- Created with Inkscape (http://www.inkscape.org/) -->

<svg
   xmlns:dc="http://purl.org/dc/elements/1.1/"
   xmlns:cc="http://creativecommons.org/ns#"
   xmlns:rdf="http://www.w3.org/1999/02/22-rdf-syntax-ns#"
   xmlns:svg="http://www.w3.org/2000/svg"
   xmlns="http://www.w3.org/2000/svg"
   xmlns:sodipodi="http://sodipodi.sourceforge.net/DTD/sodipodi-0.dtd"
   xmlns:inkscape="http://www.inkscape.org/namespaces/inkscape"
   width="500"
   height="500"
   viewBox="0 0 132.29166 132.29167"
   version="1.1"
   id="svg975"
   inkscape:version="0.92.4 (5da689c313, 2019-01-14)"
   sodipodi:docname="KC.svg">
  <defs
     id="defs969" />
  <sodipodi:namedview
     id="base"
     pagecolor="#ffffff"
     bordercolor="#666666"
     borderopacity="1.0"
     inkscape:pageopacity="0.0"
     inkscape:pageshadow="2"
     inkscape:zoom="0.57669377"
     inkscape:cx="281.42857"
     inkscape:cy="258.57143"
     inkscape:document-units="mm"
     inkscape:current-layer="layer1"
     showgrid="false"
     units="px"
     inkscape:snap-bbox="true"
     inkscape:bbox-nodes="true"
     inkscape:snap-bbox-edge-midpoints="true"
     inkscape:snap-bbox-midpoints="true"
     inkscape:bbox-paths="true"
     inkscape:snap-page="true"
     inkscape:window-width="1600"
     inkscape:window-height="837"
     inkscape:window-x="-8"
     inkscape:window-y="-8"
     inkscape:window-maximized="1" />
  <metadata
     id="metadata972">
    <rdf:RDF>
      <cc:Work
         rdf:about="">
        <dc:format>image/svg+xml</dc:format>
        <dc:type
           rdf:resource="http://purl.org/dc/dcmitype/StillImage" />
        <dc:title></dc:title>
      </cc:Work>
    </rdf:RDF>
  </metadata>
  <g
     inkscape:label="Layer 1"
     inkscape:groupmode="layer"
     id="layer1"
     transform="translate(0,-164.70832)">
    <g
       id="g2404">
      <g
         transform="matrix(0.2950893,0,0,0.2950893,-7.6426431,156.90177)"
         style="fill:none"
         id="g2374">
        <path
           style="fill:#ffffff"
           inkscape:connector-curvature="0"
           d="m 43.108,340.48 c -2.709,-1.234 -6.269,-2.149 -9.414,-7.095 -3.533,-5.577 -2.286,-9.649 -1.152,-17.356 1.201,-8.167 1.066,-11.473 -1.228,-20.555 -1.881,-7.46 -2.943,-10.023 -4.109,-18.676 -0.72,-5.338 -1.247,-9.829 -1.296,-12.847 -0.072,-4.487 0.27,-8.689 0.76,-14.933 0.27,-3.469 1.116,-8.392 4.108,-17.406 0.986,-2.955 3.65,-9.942 5.279,-13.262 2.732,-5.541 5.661,-8.284 4.297,-18.059 -0.522,-3.757 -1.953,-5.775 -2.542,-10.816 -0.666,-5.716 -0.284,-8.401 0.787,-11.937 1.071,-3.518 2.349,-5.716 4.532,-8.419 1.269,-1.568 3.667,-4.613 9.184,-5.59 0,0 3.622,-1.036 6.588,-0.221 7.452,0.649 6.354,7.234 17.478,0.333 5.328,-2.978 14.468,-5.356 23.688,1.113 3.938,2.315 7.231,10.18 2.997,-2.788 -1.98,-7.707 -3.992,-11.55 -6.687,-23.681 -3.154,-11.473 -0.599,-23.181 8.748,-29.514 6.746,-5.928 20.434,-3.288 36.311,-0.311 13.932,2.617 17.226,-1.775 26.712,-1.369 5.333,0.23 9.859,0.248 14.252,1.279 6.057,1.428 9.472,3.198 12.82,5.023 9.504,5.185 8.955,0.063 22.23,1.811 4.248,0.559 5.917,-0.068 10.219,1.176 4.977,1.432 8.06,3.077 12.456,5.64 12.308,7.171 12.321,8.784 32.823,7.888 3.794,-0.167 10.557,2.761 14.216,5.153 4.068,2.662 13.954,8.415 22.689,8.973 11.124,0.712 20.655,-0.707 34.371,9.05 10.017,8.915 22.464,8.496 33.579,14.532 3.573,1.937 12.109,8.469 16.303,15.208 0.895,1.446 4.554,3.82 13.689,5.333 8.212,1.356 16.821,11.113 21.406,17.924 5.904,5.446 2.443,1.748 10.534,7.392 3.911,2.73 5.873,4.095 9.697,6.955 4.981,3.725 1.805,1.009 7.754,5.707 1.089,0.856 2.538,2.491 6.511,6.068 5.162,3.973 7.421,7.509 9.158,10.973 2.93,5.829 0.585,9.937 -2.12,14.771 -1.998,3.554 -5.197,9.275 -10.296,14.091 -5.661,5.347 -5.211,5.5 -10.377,8.595 -11.74,7.014 -20.511,4.64 -25.479,13.014 -7.339,12.37 -13.243,16.365 -18.783,18.96 -11.164,5.234 -18.657,5.05 -25.74,10.613 -5.773,4.532 -14.899,10.365 -21.069,13.118 -11.875,5.293 -13.338,2.18 -21.465,7.257 -2.758,1.725 -1.008,0.73 -7.947,6.451 -3.996,3.293 -10.368,6.086 -13.536,6.527 -4.144,0.581 -8.721,1.036 -12.587,2.072 -9.751,2.613 -10.813,6.041 -21.559,8.104 -12.542,2.41 -17.726,1.216 -29.696,6.928 -3.123,1.491 -6.534,2.982 -11.106,5.464 -3.762,2.05 -15.327,4.847 -24.26,5.293 -3.892,0.198 -7.546,-2.369 -16.965,2.122 -12.159,5.797 -12.33,5.207 -21.969,7.162 -3.505,0.712 -7.447,0.32 -11.115,0.306 -7.007,-0.018 -14.306,-2.442 -21.794,-2.212 -7.677,0.243 -5.895,-0.23 -12.285,0.496 l -4.527,0.739 -6.674,1.487 -2.425,0.644 c -6.12,1.342 -9.778,0.793 -13.361,0.09 -6.016,-1.194 -12.685,-4.788 -15.106,-8.086 -3.978,-4.752 -4.523,-9.325 -4.059,-15.559 2.245,-10.865 6.849,-26.334 8.986,-31.852 0,0 3.528,-8.023 -5.008,-3.527 -8.649,3.189 -15.408,-2.392 -20.655,-0.604 -5.175,2.604 -8.375,4.982 -14.846,5.928 -6.719,0.978 -11.93,-1.086 -11.93,-1.086"
           id="path2364" />
        <path
           style="fill:#000000"
           inkscape:connector-curvature="0"
           d="m 139.466,382.977 c 7.758,-0.874 9.612,-0.342 16.565,0.568 6.462,0.847 12.645,2.095 19.048,1.365 3.209,-0.365 6.376,-0.978 9.518,-1.982 8.977,-2.874 13.144,-6.775 23.963,-8.248 8.959,-1.216 8.964,0.279 16.816,-0.095 8.231,-0.392 12.807,-3.901 16.272,-5.784 4.203,-2.288 5.301,-2.473 8.114,-3.978 10.17,-5.446 22.113,-4.77 33.538,-7.563 8.032,-1.964 11.178,-5.752 20.151,-8.158 3.564,-0.955 7.474,-0.887 11.29,-1.423 2.921,-0.405 8.082,-3.005 10.971,-5.671 4.954,-4.59 4.406,-4.775 8.258,-6.946 6.421,-3.635 13.693,-3.523 20.151,-6.523 6.007,-2.788 12.186,-5.162 16.942,-9.964 6.93,-7.005 17.87,-8.964 26.865,-12.23 5.297,-1.932 12.254,-5.338 18.09,-15.437 5.728,-9.892 10.796,-11.311 20.979,-14.379 6.772,-2.045 9.697,-3.491 14.913,-8.415 4.698,-4.433 6.385,-7.284 8.496,-10.388 2.416,-3.563 7.164,-9.415 2.12,-13.892 -2.214,-1.969 -4.455,-5.622 -9.212,-9.284 -3.654,-3.293 -6.673,-5.131 -7.677,-5.924 -5.481,-4.324 -0.864,-0.91 -6.129,-4.243 -3.717,-2.351 -4.766,-4.243 -8.595,-6.406 -6.858,-3.874 -7.574,-5.018 -13.055,-11.608 -4.756,-8.78 -12.217,-10 -19.696,-11.672 -7.227,-1.613 -12.353,-7.383 -13.572,-9.37 -3.843,-6.221 -10.053,-9.307 -13.347,-11.095 -10.233,-5.554 -22.032,-4.667 -31.252,-12.874 -13.896,-9.879 -17.554,-8.05 -32.161,-8.5 -8.055,-0.243 -18.625,-5.397 -22.068,-8.262 -2.894,-2.41 -6.233,-3.996 -9.216,-4.915 -10.296,-3.176 -17.347,2.279 -31.743,-4.734 -4.208,-2.054 -8.006,-4.87 -12.141,-7.252 -2.574,-1.482 -4.536,-2.198 -8.568,-3.068 -7.619,-1.649 -14.251,-0.595 -23.481,0.189 -4.329,0.374 -6.899,-1.928 -10.877,-4.077 -3.654,-1.978 -7.555,-3.433 -12.388,-4.329 -6.255,-1.162 -13.356,-0.342 -20.628,1.117 -14.396,2.892 -27.608,-4.401 -41.49,-3.104 -2.353,0.221 -7.016,3.176 -8.577,6.487 -2.097,4.437 -2.097,7 -1.787,11.388 0.423,5.955 1.125,6.379 2.29,10.253 2.52,8.41 3.798,12.987 5.809,18.658 2.336,6.59 2.259,14.613 -3.289,17.172 -2.673,1.234 -7.119,1.266 -9.63,-0.653 -3.906,-2.978 -6.043,-7.171 -10.449,-8.036 -5.877,-1.162 -12.928,4.874 -19.174,6.518 -6.264,1.653 -7.061,-1.757 -11.412,-3.775 -2.894,-1.342 -5.675,0.613 -7.299,1.514 -2.93,1.635 -3.636,5.009 -4.32,8.604 -0.544,2.878 -0.779,5.559 -0.067,8.694 1.03,4.559 2.547,7.293 2.664,10.469 0.279,7.982 -0.999,13.838 -4.293,18.05 -2.092,2.68 -4.833,10.077 -5.697,12.811 -2.889,9.144 -2.543,7.55 -3.938,16.046 -0.716,4.333 -0.598,9.198 -0.981,13.257 -0.072,0.748 0.482,9.973 0.927,12.726 1.103,6.82 2.38,11.212 3.816,16.96 2.066,8.307 2.952,13.469 2.745,19.893 -0.207,6.577 -4.352,12.762 -0.414,17.406 2.448,2.883 8.825,5.487 14.013,3.198 5.256,-2.329 9.09,-5.072 13.221,-5.64 7.61,-1.05 12.501,2.212 15.804,1.824 2.911,-0.342 8.033,-3.27 10.444,-3.473 1.922,-0.162 6.088,-0.347 7.551,0.748 2.317,1.739 3.749,3.662 3.362,9.671 -0.009,0.09 -1.409,6.401 -1.422,6.455 -2.398,7.901 -4.986,15.235 -6.224,20.663 -1.291,5.662 -7.501,17.924 5.099,22.947 5.306,2.113 10.917,1.703 17.87,-0.086 3.523,-0.91 4.986,-1.059 8.276,-1.608 0,-0.248 4.936,-0.158 4.936,-0.401 l 4.383,-0.185"
           id="path2366" />
        <path
           style="fill:#ffffff"
           inkscape:connector-curvature="0"
           d="m 377.989,192.75 c 3.411,2.23 7.331,7.982 10.625,12.739 4.019,3.662 4.383,5.784 14.351,7.563 -1.926,-0.347 8.969,3.415 10.611,4.333 4.284,2.378 5.377,3.842 9.175,8.176 3.928,4.482 5.49,5.68 13.415,10.982 3.078,2.063 3.627,2.802 9.49,6.973 2.416,1.721 5.476,4.505 6.565,6.793 2.772,5.811 -1.098,7.879 -7.123,11.072 -9.905,5.257 -18.103,3.757 -27.023,12.874 -7.443,7.599 -15.575,16.87 -21.078,18.537 -2.399,0.73 -8.752,2.721 -13.091,5.419 -4.298,2.676 -5.512,2.59 -9.365,6.027 -4.576,4.081 -7.132,7.009 -15.547,9.919 -5.189,1.788 -11.313,2.622 -16.749,4.252 -4.023,1.212 -7.24,2.887 -10.818,4.919 -5.463,3.099 -12.038,10.352 -21.074,12.032 -17.892,3.333 -13.14,2.969 -25.897,8.748 -3.168,1.437 -9.707,3 -14.297,3 -7.672,0 -13.657,1.27 -20.412,4.865 -4.918,2.622 -9.927,7.437 -19.579,8.721 -11.925,1.586 -12.587,0.09 -27.392,3.257 -4.491,0.968 -10.161,4.243 -14.445,5.793 -4.81,1.743 -16.142,1.96 -24.147,1.225 -7.821,-0.716 -13.563,-0.73 -24.862,1.32 -8.748,1.586 -13.464,1.766 -21.96,1.55 -1.912,-0.054 -3.352,-1.396 -4.59,-3.415 -1.476,-2.396 -1.651,-4.5 -1.328,-7.144 0.68,-5.554 0.563,-5.825 1.872,-10.969 0.401,-1.563 2.363,-11.757 2.709,-13.316 2.192,-9.807 2.867,-19.694 -4.851,-24.158 -2.412,-1.392 -8.406,-2.288 -12.744,-1.518 -13.068,2.32 -10.328,4.518 -18.679,1.563 -1.404,-0.496 -4.955,-1.14 -7.02,-1.054 -4.18,0.167 -10.138,3.099 -15.408,3.928 -3.699,0.586 -4.667,-3.541 -4.568,-6.491 0.153,-4.572 0.63,-8.964 0.427,-14.077 -0.54,-13.383 -2.875,-14.104 -4.486,-22.172 -1.462,-7.32 -1.04,-19.744 -1.39,-19.392 0.364,-10.248 5.004,-21.289 7.646,-25.104 2.763,-4 3.357,-5.631 5.458,-10.523 2.223,-5.176 1.926,-9.748 0.797,-15.559 -0.027,-0.14 -1.373,-4.437 -0.886,-4.437 -0.387,-2.739 0.274,-5.739 1.148,-7.599 1.413,-3.014 2.511,-4.473 4.761,-5.446 1.391,-0.608 2.862,-1.338 4.343,-1.441 4.855,-0.342 5.837,2.775 14.913,-1.036 4.698,-1.978 9.369,0.671 11.678,1.518 6.295,2.293 5.202,2.293 9.212,2.423 3.811,0.122 7.479,-0.842 11.016,-2.991 2.034,-1.243 3.573,-1.923 4.779,-3.68 1.035,-1.514 2.407,-5.689 2.776,-7.847 0.45,-2.626 1.184,-4.275 0.45,-10.496 -2.011,-7.685 -2.74,-9.334 -4.117,-14.199 -1.116,-3.964 -2.466,-7.757 -3.033,-11.397 -0.009,-0.068 -0.162,-4.415 -0.162,-4.415 -0.49,-3.635 1.98,-6.243 5.121,-6.27 11.25,-0.09 21.802,3.117 33.692,3.041 9.81,-0.063 13.981,-2.072 25.528,2.135 4.023,1.464 6.399,4.757 12.695,6.532 11.975,3.378 21.488,-4.703 31.73,0.122 8.514,4.014 6.723,1.59 14.728,6.698 3.731,2.383 10.674,6.41 20.632,7.874 6.894,1.018 17.829,-1.829 29.097,6.347 6.336,4.599 12.127,6.46 20.232,7.298 9.544,0.987 10.471,-0.36 17.995,5.095 5.535,4.018 4.01,3.122 9.594,7.284 2.529,1.883 4.513,3.802 8.172,5.446 2.093,0.941 10.116,2.063 9.869,2.05 7.132,0.365 9.139,-0.221 14.805,1.797 -0.122,-0.131 7.313,4.752 6.016,3.906"
           id="path2368" />
        <path
           style="fill:#000000"
           inkscape:connector-curvature="0"
           d="m 131.537,260.604 v 15.154 h 56.921 l 5.666,-5.311 v -18.185 h -8.406 l 0.031,-4.613 31.37,-18.005 2.632,2.707 c -7.02,4.942 -12.465,9.554 -16.673,16.874 -6.156,10.266 -8.406,24.514 -4.752,35.861 2.38,7.685 5.301,12.262 10.422,17.604 4.932,5.086 9.135,8.014 17.181,11.856 6.579,3.293 22.118,8.014 34.182,9.293 11.695,0.914 26.321,0.734 36.009,-0.55 10.598,-1.095 21.569,-4.937 28.152,-7.649 5.297,-2.559 11.147,-4.937 15.642,-8.451 11.336,-8.158 23.288,-20.46 23.472,-35.83 h -21.132 c -6.656,23.604 -70.632,34.402 -96.219,16.14 -18.648,-14.676 -13.347,-27.668 -5.486,-33.704 l 2.38,2.563 -3.987,4.207 0.292,15.19 h 53.887 l 6.944,-6.586 v -16.473 h -4.131 l -18.643,-20.127 c 35.825,-7.68 53.559,8.05 64.013,25.249 h 14.036 l 7.092,-6.951 v -39.889 l -14.949,-0.036 -8.955,5.559 c -31.81,-14.086 -55.386,-12.473 -80.064,-4.279 l -4.023,-4.095 22.779,-13.618 13.743,-0.072 6.727,-6.406 0.036,-13.577 h -54.985 l -5.846,5.933 v 9.253 l -51.543,29.501 v -22.726 l 8.329,-8.419 v -13.685 h -54.032 l -7.38,8.635 v 10.829 h 8.847 v 58.484 h -2.709 c 0,0 -7.236,8.198 -6.872,8.343"
           id="path2370" />
        <path
           style="fill:#e31837"
           inkscape:connector-curvature="0"
           d="m 141.118,177.678 h 49.347 v 8.856 l -8.406,0.077 v 38.348 l 67.266,-38.425 h -5.922 v -8.856 l 50.891,-0.072 v 8.856 l -11.335,0.149 -34.452,20.343 46.368,50.137 1.611,0.036 v 10.212 h -51.179 v -10.32 l 7.128,0.072 -31.77,-33.884 -38.241,21.956 v 11.928 h 8.042 v 10.176 h -49.347 v -10.176 h 8.406 v -70.556 h -8.406 v -8.856 z m 218.394,96.98 c -1.976,10.428 -6.728,14.636 -12.613,21.406 -7.862,7.32 -9.468,8.239 -17.329,12.442 -13.523,6.77 -27.599,9.694 -43.686,10.068 -22.486,0.914 -42.403,-3.847 -54.652,-8.969 -7.497,-2.743 -18.648,-9.698 -25.591,-21.591 -5.666,-11.527 -2.889,-23.789 -0.877,-29.825 2.524,-7.32 6.543,-14.825 18.279,-22.834 l 14.769,15.955 c -7.493,6.509 -12.978,18.406 -1.242,31.947 14.04,17.564 46.026,22.505 79.295,12.622 17.181,-5.117 24.673,-12.257 30.123,-21.221 h 13.527 z m -98.487,-59.65 c 10.048,-3.113 38.385,-12.811 78.232,4.757 l 8.411,-5.491 h 11.767 l -0.144,35.425 -13.086,0.149 C 332.858,229.757 302.519,222.69 274.187,229.464 l -13.162,-14.455 z"
           id="path2372" />
      </g>
      <rect
         y="164.70831"
         x="0"
         height="132.29167"
         width="132.29167"
         id="rect2120"
         style="opacity:1;fill:none;fill-opacity:1;stroke:none;stroke-width:10.58333302;stroke-linejoin:round;stroke-miterlimit:4;stroke-dasharray:none;stroke-opacity:1;paint-order:stroke fill markers" />
    </g>
  </g>
</svg>
