<?xml version="1.0" encoding="UTF-8" standalone="no"?>
<!-- Created with Inkscape (http://www.inkscape.org/) -->

<svg
   xmlns:dc="http://purl.org/dc/elements/1.1/"
   xmlns:cc="http://creativecommons.org/ns#"
   xmlns:rdf="http://www.w3.org/1999/02/22-rdf-syntax-ns#"
   xmlns:svg="http://www.w3.org/2000/svg"
   xmlns="http://www.w3.org/2000/svg"
   xmlns:sodipodi="http://sodipodi.sourceforge.net/DTD/sodipodi-0.dtd"
   xmlns:inkscape="http://www.inkscape.org/namespaces/inkscape"
   width="500"
   height="500"
   viewBox="0 0 132.29166 132.29167"
   version="1.1"
   id="svg975"
   inkscape:version="0.92.4 (5da689c313, 2019-01-14)"
   sodipodi:docname="LAR.svg">
  <defs
     id="defs969" />
  <sodipodi:namedview
     id="base"
     pagecolor="#ffffff"
     bordercolor="#666666"
     borderopacity="1.0"
     inkscape:pageopacity="0.0"
     inkscape:pageshadow="2"
     inkscape:zoom="0.57669377"
     inkscape:cx="281.42857"
     inkscape:cy="258.57143"
     inkscape:document-units="mm"
     inkscape:current-layer="layer1"
     showgrid="false"
     units="px"
     inkscape:snap-bbox="true"
     inkscape:bbox-nodes="true"
     inkscape:snap-bbox-edge-midpoints="true"
     inkscape:snap-bbox-midpoints="true"
     inkscape:bbox-paths="true"
     inkscape:snap-page="true"
     inkscape:window-width="1600"
     inkscape:window-height="837"
     inkscape:window-x="-8"
     inkscape:window-y="-8"
     inkscape:window-maximized="1" />
  <metadata
     id="metadata972">
    <rdf:RDF>
      <cc:Work
         rdf:about="">
        <dc:format>image/svg+xml</dc:format>
        <dc:type
           rdf:resource="http://purl.org/dc/dcmitype/StillImage" />
        <dc:title></dc:title>
      </cc:Work>
    </rdf:RDF>
  </metadata>
  <g
     inkscape:label="Layer 1"
     inkscape:groupmode="layer"
     id="layer1"
     transform="translate(0,-164.70832)">
    <g
       id="g2451">
      <g
         transform="matrix(0.27570356,0,0,0.27570356,-2.7573111,161.80502)"
         style="fill:none"
         id="g2421">
        <path
           style="fill:#ffffff"
           inkscape:connector-curvature="0"
           d="m 477.719,235.312 c -0.413,1.175 -0.761,2.399 -1.222,3.539 -5.595,13.914 -14.587,29.556 -34.834,39.795 0.252,1.467 0.479,2.96 0.687,4.467 0.753,5.385 1.201,10.993 1.201,16.713 0,1.606 -0.139,3.256 -0.209,4.88 -0.07,1.624 -0.065,3.226 -0.209,4.88 l -0.487,4.841 -0.822,0.762 c 0,0 -1.475,1.341 -3.367,3.056 -1.623,1.476 -3.524,3.209 -5.177,4.719 -0.713,0.644 -1.388,1.263 -1.94,1.768 -1.64,8.028 -3.637,15.603 -5.786,22.625 -8.048,26.317 -18.272,44.684 -20.351,48.289 l -0.344,0.596 -1.949,3.252 -0.783,0.379 -2.636,1.267 c -5.125,2.442 -14.039,4.667 -27.203,7.967 l -5.677,1.458 -5.677,1.454 -4.716,1.302 -56.116,-31.55 1.379,-2.508 c 0,-0.009 2.38,-4.367 3.624,-7.357 0.887,-2.177 1.518,-3.326 1.888,-5.22 0.204,-1.088 0.331,-2.447 0.361,-4.371 l 0.009,-0.226 v -0.004 c -0.004,-0.544 -0.113,-1.08 -0.174,-1.624 -0.165,-1.567 -0.487,-3.117 -1.222,-4.562 -0.535,-0.631 -1.035,-1.189 -1.518,-1.707 -2.88,-3.069 -5.099,-4.506 -8.34,-7.318 -1.479,-1.302 -2.823,-2.499 -4.046,-3.596 l -0.004,0.004 c -1.971,3.296 -4.537,6.569 -7.831,9.508 l -0.487,0.457 -10.306,8.859 -3.402,-4.636 -4.638,-6.304 C 265.038,350.691 201.378,265.903 58.841,254.445 L 43.436,253.2 28.035,251.955 h -0.004 l 23.775,-19.76 c 3.48,-2.852 74.958,-61.637 169.949,-85.394 9.828,-2.455 19.903,-4.541 30.183,-6.147 0.526,-0.083 1.392,-0.239 2.515,-0.457 1.053,-1.689 2.236,-3.287 3.393,-4.906 0.609,-0.853 1.149,-1.759 1.792,-2.59 25.18,-32.76 63.829,-45.659 99.22,-45.659 10.837,0.009 21.348,1.258 31.162,3.487 6.339,1.441 12.39,3.274 17.998,5.525 4.577,1.842 8.879,3.927 12.825,6.252 h 0.009 l -0.009,0.004 c 4.05,2.39 7.809,4.959 11.429,7.601 21.422,15.664 35.382,35.429 43.043,55.755 4.994,13.261 7.37,26.743 7.365,39.447 0,10.827 -1.766,21.049 -4.959,30.2 z m 5.603,-68.55 C 476.335,146.27 460.369,117.359 424.465,96.166 406.515,85.565 383.04,79.906 358.9,79.901 c -6.295,0 -12.642,0.383 -18.933,1.184 -35.347,4.441 -65.948,21.188 -85.977,47.257 -1.331,1.737 -2.589,3.548 -3.798,5.385 -111.31,17.558 -199.045,89.791 -202.934,92.986 l -37.257,30.949 48.264,3.879 c 71.978,5.808 122.834,30.988 152.817,51.045 32.841,21.972 48.594,42.821 48.625,42.856 l 6.134,8.363 6.391,8.729 16.153,-13.87 c 1.736,-1.489 3.354,-3.13 4.859,-4.885 l 1.327,1.101 c 1.971,1.589 3.398,2.773 5.234,4.811 0.265,0.714 0.413,1.485 0.422,2.399 -0.061,3.548 -0.244,3.539 -1.209,5.925 l -0.483,1.123 c -0.535,1.306 -1.375,2.986 -2.062,4.336 l -0.874,1.685 -0.265,0.492 h 0.009 l -4.872,8.89 64.821,36.452 1.162,-0.327 c 0.052,-0.004 5.103,-1.411 6.234,-1.741 1.022,-0.244 11.333,-2.899 11.381,-2.912 13.93,-3.478 22.805,-5.729 28.504,-8.42 l 5.334,-2.599 3.067,-5.081 c 0.835,-1.411 18.102,-30.579 26.851,-71.436 3.137,-2.847 10.841,-9.865 10.841,-9.865 l 0.822,-0.753 0.365,-3.87 0.361,-3.74 c 0.318,-3.461 0.47,-6.948 0.47,-10.422 0,-5.629 -0.426,-11.45 -1.227,-17.34 19.638,-11.558 28.408,-27.958 33.651,-40.958 4.507,-11.11 6.726,-23.513 6.726,-36.347 0,-12.664 -2.167,-25.751 -6.508,-38.419 z"
           id="path2412" />
        <path
           style="fill:#ffffff"
           inkscape:connector-curvature="0"
           d="m 457.642,247.488 c -5.825,9.695 -13.321,17.005 -21.026,21.284 -2.145,1.189 -4.29,2.138 -6.434,2.86 -0.887,0.309 -1.771,0.553 -2.654,0.766 v 0.004 c 0.518,2.159 0.97,4.393 1.401,6.661 0.213,1.11 0.413,2.233 0.596,3.365 0,0.126 0.022,0.226 0.048,0.353 0.461,2.965 0.827,6.021 1.07,9.125 0.039,0.583 0.104,1.167 0.131,1.759 0.044,0.653 0.061,1.341 0.091,2.007 0.039,0.788 0.07,1.572 0.087,2.36 l 0.013,1.794 v 0.052 c 0,0.91 -0.009,1.833 -0.052,2.738 -0.009,0.47 -0.017,0.953 -0.035,1.432 v 0.035 c -0.061,1.437 -0.152,2.873 -0.291,4.31 l -10.763,9.795 -0.004,0.004 c -4.616,25.089 -13.186,46.182 -19.172,58.842 -1.979,4.192 -3.694,7.501 -4.868,9.669 -1.088,2.016 -1.731,3.087 -1.731,3.087 -5.917,2.834 -27.36,7.518 -36.517,10.104 l -41.085,-22.512 c 0.013,-0.022 2.414,-4.737 3.224,-11.197 0.183,-1.437 0.278,-2.96 0.257,-4.541 -0.052,-3.944 -0.883,-8.224 -3.163,-12.329 -1.431,-2.586 -9.514,-9.369 -16.318,-15.411 -0.239,-0.226 -0.474,-0.422 -0.709,-0.618 -0.548,-0.488 -1.949,-1.82 -3.563,-3.422 -2.693,-2.66 -5.991,-6.056 -6.995,-7.479 -3.785,-5.446 -7.578,-13.078 -9.636,-23.461 0,0 -0.144,0.509 -0.318,1.437 -0.753,4.018 -2.045,15.912 5.603,28.437 -1.54,4.784 -4.263,10.596 -9.297,14.919 -0.022,-0.044 -5.838,-9.7 -18.955,-23.522 -25.098,-26.439 -76.916,-68.075 -165.991,-86.582 0.078,-0.074 62.872,-58.776 159.878,-79.76 -0.97,2.225 -1.888,4.488 -2.71,6.774 -2.11,3.252 -5.077,8.498 -7.57,15.477 -5.486,15.346 -8.692,39.064 4.494,68.284 23.262,51.541 86.939,53.57 108.347,21.323 0.653,-0.993 1.257,-1.981 1.836,-2.973 0.7,-1.197 1.357,-2.394 1.953,-3.587 1.231,-2.077 2.319,-4.327 3.254,-6.713 0.792,-2.05 1.436,-4.066 1.94,-6.051 7.552,-29.778 -16.375,-51.976 -36.317,-50.287 26.472,13.522 19.259,38.776 8.492,47.031 -11.481,8.803 -29.97,7.797 -41.325,-7.889 -23.466,-32.342 -3.593,-71.906 29.252,-85.098 14.639,-5.868 31.845,-6.504 48.942,1.08 5.699,2.529 11.381,5.973 16.958,10.44 2.162,1.728 4.111,3.57 5.943,5.468 15.94,16.552 19.694,38.82 15.496,53.783 -0.117,0.427 -0.27,0.832 -0.405,1.241 -0.135,0.414 -0.252,0.836 -0.405,1.236 l -0.091,0.287 c -0.566,1.498 -1.244,2.86 -1.979,4.158 -0.492,0.858 -0.992,1.707 -1.557,2.473 -0.483,0.662 -0.97,1.306 -1.501,1.872 l -0.287,0.296 -0.135,0.152 -0.117,0.113 -0.104,0.109 h -0.004 c -0.439,0.457 -0.866,0.888 -1.344,1.323 0,0 1.771,1.902 4.015,4.589 1.466,1.759 3.128,3.84 4.642,5.973 5.769,8.097 6.626,11.11 9.136,12.277 0.396,0.165 0.827,0.3 1.283,0.379 h 0.013 c 0.448,0.087 0.927,0.131 1.44,0.131 0.666,0 1.383,-0.07 2.145,-0.226 l 0.035,-0.013 c 1.527,-0.313 3.232,-0.945 5.042,-1.959 0.887,-0.496 1.797,-1.075 2.728,-1.754 3.476,-2.529 8.218,-8.01 11.459,-12.965 0.966,-1.476 1.818,-2.912 2.436,-4.205 2.006,-4.179 7.974,-17.514 8.283,-37.344 l 0.009,-1.606 v -0.013 c 0,-5.168 -0.409,-10.771 -1.344,-16.735 -0.235,-1.493 -0.474,-2.991 -0.783,-4.532 -1.41,-7.079 -3.828,-13.757 -6.922,-20.013 -7.97,-16.086 -20.682,-29.203 -34.142,-38.163 -5.238,-3.478 -10.572,-6.373 -15.779,-8.524 -27.116,-11.21 -54.193,-9.634 -58.861,-9.264 l -0.539,0.048 -0.165,0.009 c 0.257,-0.044 28.46,-4.915 59.17,4.532 l 0.914,0.266 0.139,0.048 c 11.363,3.609 23.005,9.251 33.685,17.797 12.099,9.682 22.949,23.095 30.662,41.75 14.074,34.005 9.162,63.287 -2.575,82.834 z m -39.741,-140.169 -0.004,-0.013 c -15.109,-8.938 -36.43,-14.467 -59.04,-14.449 -29.809,0 -61.685,9.491 -85.125,32.621 -3.345,3.304 -6.526,6.887 -9.497,10.762 -1.362,1.776 -2.636,3.64 -3.863,5.533 -0.548,0.845 -1.105,1.676 -1.623,2.538 l -0.661,1.084 -0.626,0.131 -0.631,0.126 -1.444,0.279 c -1.044,0.205 -1.953,0.37 -2.545,0.466 -42.708,6.639 -82.001,21.754 -114.125,37.758 -48.899,24.358 -81.135,50.779 -83.189,52.507 l -12.829,10.653 16.593,1.337 c 94.909,7.649 155.536,47.27 186.32,74.035 l 0.144,0.122 c 1.731,1.506 3.332,2.952 4.877,4.367 12.803,11.767 19.155,20.161 19.433,20.548 l 4.329,5.895 5.56,-4.767 c 3.972,-3.422 6.726,-7.471 8.701,-11.48 l 0.848,-1.724 0.848,-1.733 2.867,2.595 c 1.914,1.754 4.098,3.679 6.721,5.99 3.354,2.956 6.417,4.828 10.68,9.891 l 0.191,0.235 0.139,0.248 c 0.409,0.762 0.757,1.537 1.04,2.316 0.848,2.329 1.17,4.697 1.17,6.896 v 0.004 c 0.057,5.407 -1.079,8.32 -2.214,10.94 l -0.487,1.11 c -0.74,1.785 -1.749,3.801 -2.545,5.372 l 49.064,27.566 2.454,-0.675 11.437,-2.934 c 11.459,-2.834 19.786,-5.011 24.371,-6.826 0.653,-0.257 1.231,-0.509 1.731,-0.758 l 1.849,-0.871 1.062,-1.754 c 0.17,-0.283 1.51,-2.569 3.506,-6.443 2.197,-4.249 5.19,-10.457 8.392,-18.224 4.999,-12.094 10.463,-27.915 14.056,-45.929 l 0.183,-0.932 0.705,-0.64 2.153,-1.972 c 2.741,-2.508 6.552,-5.969 8.222,-7.479 l 0.244,-2.599 c 0.274,-3.1 0.418,-6.173 0.418,-9.216 l -0.03,-1.128 c -0.078,-7.296 -0.892,-14.454 -2.18,-21.149 l -0.409,-2.212 2.027,-0.958 c 12.394,-5.89 20.277,-13.639 25.828,-21.963 l 0.178,-0.253 0.561,-0.892 c 3.05,-4.78 5.381,-9.721 7.374,-14.602 3.472,-8.555 5.403,-18.541 5.66,-29.173 0.017,-0.805 0.1,-1.576 0.1,-2.386 v -0.004 c -0.013,-33.544 -17.106,-73.06 -58.97,-97.788 z"
           id="path2414" />
        <path
           style="fill:#002244"
           inkscape:connector-curvature="0"
           d="m 411.388,310.205 c -2.98,22.534 -11.268,44.867 -17.55,59.425 -2.571,5.969 -4.82,10.666 -6.208,13.478 -2.332,1.145 -10.454,1.519 -10.454,1.519 l 0.004,-0.004 h -0.009 c 0,0 6.265,-7.009 5.686,-14.68 -0.091,-1.245 -0.348,-2.499 -0.853,-3.748 -0.557,-1.367 -1.762,-2.555 -3.302,-3.078 -0.587,-0.2 -1.209,-0.322 -1.888,-0.296 -1.658,0.052 -3.024,0.557 -4.259,1.911 -2.397,2.625 -2.371,6.091 -0.479,10.474 0.587,-0.405 1.131,-0.975 1.623,-1.559 0.483,-0.583 0.914,-1.175 1.279,-1.633 0.265,1.637 0.6,3.261 -0.178,5.368 -1.257,3.404 -3.485,6.321 -6.269,8.616 -2.984,2.46 -6.617,4.197 -10.432,4.967 h -0.004 c 0.039,0.161 -4.572,-2.294 -5.447,-2.869 l -0.178,-0.126 -0.004,-0.004 c 0.3,-0.736 0.657,-1.554 1.04,-2.434 1.144,-2.647 2.549,-5.834 3.585,-8.968 4.633,-13.996 2.414,-23.822 -1.897,-29.773 -3.328,1.397 -9.606,4.806 -14.087,7.384 -1.253,0.723 -2.388,1.393 -3.254,1.924 1.523,2.647 3.215,5.181 4.529,8.041 1.897,4.127 2.915,9.003 1.557,15.807 -0.209,1.054 -0.392,2.085 -0.722,3.239 0.078,0.152 -1.919,-0.901 -4.446,-2.273 -4.211,-2.281 -9.906,-5.464 -9.923,-5.477 1.114,-3.731 2.11,-8.533 1.849,-14.671 -0.096,-2.142 -0.335,-4.441 -0.787,-6.922 -0.139,-0.81 -0.679,-2.46 -1.344,-4.131 -0.674,-1.676 -1.475,-3.37 -2.145,-4.288 v -0.004 c 3.285,-3.64 7.583,-7.022 11.881,-9.987 5.686,-3.927 11.376,-7.105 14.744,-9.012 2.032,0.488 4.768,1.502 7.857,2.978 5.294,2.521 11.663,6.421 17.589,11.476 5.347,4.558 10.319,10.03 13.778,16.286 3.228,-7.079 5.338,-13.866 6.765,-20.139 2.649,-11.654 2.854,-21.48 2.784,-27.658 l 2.223,-2.064 4.285,-3.988 c 0.487,-6.147 0.122,-12.116 -0.757,-17.81 -4.142,-26.761 -20.356,-47.048 -20.356,-47.048 l 0.013,0.009 -0.009,-0.009 c 0,0 28.643,22.843 31.436,57.875 0.183,2.338 0.252,4.728 0.196,7.17 l -7.461,6.704 z m -62.211,65.28 c -0.035,-5.62 0.309,-13.705 -2.889,-16.604 0.348,-1.659 5.12,-1.998 5.12,-1.998 h 0.004 c 3.38,11.998 -1.879,19.7 -2.184,20.84 -0.03,-0.683 -0.048,-1.432 -0.052,-2.238 z m 45.732,-69.786 0.165,-0.161 c 0,0 0.122,1.215 -0.383,2.63 -0.07,0.2 -0.148,0.396 -0.239,0.596 -1.557,0.631 -4.189,0.052 -5.216,-2.399 0.713,0.422 1.388,0.623 2.01,0.679 0.927,0.087 1.727,-0.148 2.358,-0.453 0.626,-0.309 1.079,-0.688 1.305,-0.892 z m -7.748,-13.6 c 0.444,-1.75 0.622,-3.609 0.692,-5.15 0.083,-1.898 0,-3.309 0,-3.309 v 0.009 -0.013 c 1.792,2.29 3.163,4.597 4.198,6.861 1.04,2.273 1.74,4.506 2.197,6.639 h -0.004 v 0.004 l -0.378,-0.03 -0.026,-0.004 c -1.423,0 -2.728,0.409 -3.872,1.075 -2.28,1.337 -3.82,3.779 -3.82,6.617 0,2.843 1.54,5.289 3.82,6.626 1.144,0.666 2.449,1.08 3.872,1.08 l 0.03,-0.004 h 0.004 c -0.496,1.82 -0.944,2.882 -0.944,2.882 h -0.004 v 0.004 c -6.817,0 -12.351,-5.529 -12.351,-12.351 0,-4.75 2.68,-8.864 6.587,-10.936 z m 42.395,-169.194 c 12.099,9.682 22.949,23.095 30.662,41.75 14.074,34.005 9.162,63.287 -2.575,82.834 -5.825,9.695 -13.321,17.005 -21.026,21.284 -2.145,1.189 -4.29,2.138 -6.434,2.86 -0.887,0.309 -1.771,0.553 -2.654,0.766 v 0.004 c 0.518,2.159 0.97,4.393 1.401,6.661 0.213,1.11 0.413,2.233 0.596,3.365 0,0.126 0.022,0.226 0.048,0.353 0.461,2.965 0.827,6.021 1.07,9.125 0.039,0.583 0.104,1.167 0.131,1.759 0.044,0.653 0.061,1.341 0.091,2.007 0.039,0.788 0.07,1.572 0.087,2.36 l 0.013,1.794 v 0.052 c 0,0.91 -0.009,1.833 -0.052,2.738 -0.009,0.47 -0.017,0.953 -0.035,1.432 v 0.035 c -0.061,1.437 -0.152,2.873 -0.291,4.31 l -10.763,9.795 -0.004,0.004 c -4.616,25.089 -13.186,46.182 -19.172,58.842 -1.979,4.192 -3.694,7.501 -4.868,9.669 -1.088,2.016 -1.731,3.087 -1.731,3.087 -5.917,2.834 -27.36,7.518 -36.517,10.104 l -41.085,-22.512 c 0.013,-0.022 2.414,-4.737 3.224,-11.197 0.183,-1.437 0.278,-2.96 0.257,-4.541 -0.052,-3.944 -0.883,-8.224 -3.163,-12.329 -1.431,-2.586 -9.514,-9.369 -16.318,-15.411 l -0.022,-0.205 c 0,0 -0.252,-0.131 -0.687,-0.414 -0.548,-0.488 -1.949,-1.82 -3.563,-3.422 -2.693,-2.66 -5.991,-6.056 -6.995,-7.479 -3.785,-5.446 -7.578,-13.078 -9.636,-23.461 0,0 -0.144,0.509 -0.318,1.437 -0.753,4.018 -2.045,15.912 5.603,28.437 -1.54,4.784 -4.263,10.596 -9.297,14.919 -0.022,-0.044 -5.838,-9.7 -18.955,-23.522 -25.098,-26.439 -76.916,-68.075 -165.991,-86.582 0.078,-0.074 62.872,-58.776 159.878,-79.76 -0.97,2.225 -1.888,4.488 -2.71,6.774 -2.11,3.252 -5.077,8.498 -7.57,15.477 -5.486,15.346 -8.692,39.064 4.494,68.284 23.262,51.541 86.939,53.57 108.347,21.323 0.653,-0.993 1.257,-1.981 1.836,-2.973 0.7,-1.197 1.357,-2.394 1.953,-3.587 1.231,-2.077 2.319,-4.327 3.254,-6.713 0.792,-2.05 1.436,-4.066 1.94,-6.051 7.552,-29.778 -16.375,-51.976 -36.317,-50.287 26.472,13.522 19.259,38.776 8.492,47.031 -11.481,8.803 -29.97,7.797 -41.325,-7.889 -23.466,-32.342 -3.593,-71.906 29.252,-85.098 14.639,-5.868 31.845,-6.504 48.942,1.08 5.699,2.529 11.381,5.973 16.958,10.44 2.162,1.728 4.111,3.57 5.943,5.468 15.94,16.552 19.694,38.82 15.496,53.783 -0.117,0.427 -0.27,0.832 -0.405,1.241 -0.135,0.414 -0.252,0.836 -0.405,1.236 l -0.091,0.287 c -0.566,1.498 -1.244,2.86 -1.979,4.158 -0.492,0.858 -0.992,1.707 -1.557,2.473 -0.483,0.662 -0.97,1.306 -1.501,1.872 l -0.287,0.296 -0.135,0.152 -0.117,0.113 -0.104,0.109 h -0.004 c -0.439,0.457 -0.866,0.888 -1.344,1.323 0,0 1.771,1.902 4.015,4.589 1.466,1.759 3.128,3.84 4.642,5.973 5.769,8.097 6.626,11.11 9.136,12.277 0.396,0.165 0.827,0.3 1.283,0.379 h 0.013 c 0.448,0.087 0.927,0.131 1.44,0.131 0.666,0 1.383,-0.07 2.145,-0.226 l 0.035,-0.013 c 1.527,-0.313 3.232,-0.945 5.042,-1.959 0.887,-0.496 1.797,-1.075 2.728,-1.754 3.476,-2.529 8.218,-8.01 11.459,-12.965 0.966,-1.476 1.818,-2.912 2.436,-4.205 2.006,-4.179 7.974,-17.514 8.283,-37.344 l 0.009,-1.606 v -0.013 c 0,-5.168 -0.409,-10.771 -1.344,-16.735 -0.235,-1.493 -0.474,-2.991 -0.783,-4.532 -1.41,-7.079 -3.828,-13.757 -6.922,-20.013 -7.97,-16.086 -20.682,-29.203 -34.142,-38.163 -5.238,-3.478 -10.572,-6.373 -15.779,-8.524 -27.116,-11.21 -54.193,-9.634 -58.861,-9.264 l -0.539,0.048 -0.165,0.009 c 0.257,-0.044 28.46,-4.915 59.17,4.532 l 0.914,0.266 0.139,0.048 c 11.363,3.609 23.005,9.251 33.685,17.797 z M 299.735,333.287 c 0.435,0.283 0.683,0.414 0.683,0.414 l 0.026,0.205 c -0.239,-0.226 -0.474,-0.422 -0.709,-0.618 z"
           id="Combined-Shape" />
        <path
           style="fill:#002244"
           inkscape:connector-curvature="0"
           d="m 476.87,205.112 c 0,0.81 -0.083,1.58 -0.1,2.386 -0.257,10.631 -2.188,20.618 -5.66,29.173 -1.992,4.88 -4.324,9.821 -7.374,14.602 l -0.561,0.892 -0.178,0.253 c -5.551,8.324 -13.434,16.073 -25.828,21.963 l -2.027,0.958 0.409,2.212 c 1.288,6.696 2.101,13.853 2.18,21.149 l 0.03,1.128 c 0,3.043 -0.144,6.117 -0.418,9.216 l -0.244,2.599 c -1.671,1.511 -5.482,4.972 -8.222,7.479 l -2.153,1.972 -0.705,0.64 -0.183,0.932 c -3.593,18.015 -9.058,33.835 -14.056,45.929 -3.202,7.767 -6.195,13.975 -8.392,18.224 -1.997,3.875 -3.337,6.16 -3.506,6.443 l -1.062,1.754 -1.849,0.871 c -0.5,0.248 -1.079,0.501 -1.731,0.758 -4.585,1.815 -12.912,3.992 -24.371,6.826 l -11.437,2.934 -2.454,0.675 -49.064,-27.566 c 0.796,-1.572 1.805,-3.587 2.545,-5.372 l 0.487,-1.11 c 1.135,-2.621 2.271,-5.533 2.214,-10.94 v -0.004 c 0,-2.199 -0.322,-4.567 -1.17,-6.896 -0.283,-0.779 -0.631,-1.554 -1.04,-2.316 l -0.139,-0.248 -0.191,-0.235 c -4.263,-5.063 -7.326,-6.935 -10.68,-9.891 -2.623,-2.312 -4.807,-4.236 -6.721,-5.99 l -2.867,-2.595 -0.848,1.733 -0.848,1.724 c -1.975,4.01 -4.729,8.058 -8.701,11.48 l -5.56,4.767 -4.329,-5.895 c -0.278,-0.387 -6.63,-8.781 -19.433,-20.548 -1.544,-1.415 -3.145,-2.86 -4.877,-4.367 l -0.144,-0.122 C 214.828,295.924 154.201,256.303 59.292,248.654 l -16.593,-1.337 12.829,-10.653 c 2.053,-1.728 34.29,-28.15 83.189,-52.507 32.124,-16.003 71.417,-31.119 114.125,-37.758 0.592,-0.096 1.501,-0.261 2.545,-0.466 l 1.444,-0.279 0.631,-0.126 0.626,-0.131 0.661,-1.084 c 0.518,-0.862 1.075,-1.694 1.623,-2.538 1.227,-1.894 2.501,-3.757 3.863,-5.533 2.971,-3.875 6.152,-7.458 9.497,-10.762 23.44,-23.13 55.316,-32.621 85.125,-32.621 22.609,-0.017 43.931,5.512 59.04,14.449 l 0.004,0.013 c 41.864,24.728 58.957,64.244 58.97,97.788 v 0.004 z M 432.269,109.91 c -3.62,-2.643 -7.378,-5.211 -11.429,-7.601 l 0.009,-0.004 h -0.009 c -3.946,-2.325 -8.248,-4.41 -12.825,-6.252 -5.608,-2.251 -11.659,-4.084 -17.998,-5.525 -9.815,-2.229 -20.325,-3.478 -31.162,-3.487 -35.391,0 -74.04,12.899 -99.22,45.659 -0.644,0.832 -1.183,1.737 -1.792,2.59 -1.157,1.619 -2.341,3.217 -3.393,4.906 -1.122,0.218 -1.988,0.374 -2.515,0.457 -10.28,1.606 -20.356,3.692 -30.183,6.147 -94.992,23.757 -166.469,82.542 -169.949,85.394 l -23.775,19.76 h 0.004 l 15.401,1.245 15.405,1.245 c 142.537,11.458 206.197,96.247 206.554,96.721 l 4.638,6.304 3.402,4.636 10.306,-8.859 0.487,-0.457 c 3.293,-2.939 5.86,-6.212 7.831,-9.508 l 0.004,-0.004 c 1.222,1.097 2.567,2.294 4.046,3.596 3.241,2.812 5.46,4.249 8.34,7.318 0.483,0.518 0.983,1.075 1.518,1.707 0.735,1.445 1.057,2.995 1.222,4.562 0.061,0.544 0.17,1.08 0.174,1.624 v 0.004 l -0.009,0.226 c -0.03,1.924 -0.157,3.283 -0.361,4.371 -0.37,1.894 -1.001,3.043 -1.888,5.22 -1.244,2.991 -3.624,7.349 -3.624,7.357 l -1.379,2.508 56.116,31.55 4.716,-1.302 5.677,-1.454 5.677,-1.458 c 13.164,-3.3 22.078,-5.525 27.203,-7.967 l 2.636,-1.267 0.779,-0.379 1.953,-3.252 0.344,-0.596 c 2.08,-3.605 12.303,-21.972 20.351,-48.289 2.149,-7.022 4.146,-14.597 5.786,-22.625 0.553,-0.505 1.227,-1.123 1.94,-1.768 1.653,-1.511 3.554,-3.243 5.177,-4.719 1.892,-1.715 3.367,-3.056 3.367,-3.056 l 0.822,-0.762 0.487,-4.841 c 0.144,-1.654 0.139,-3.256 0.209,-4.88 0.07,-1.624 0.209,-3.274 0.209,-4.88 0,-5.72 -0.448,-11.328 -1.201,-16.713 -0.209,-1.506 -0.435,-3 -0.687,-4.467 20.247,-10.239 29.239,-25.881 34.834,-39.795 0.461,-1.141 0.809,-2.364 1.222,-3.539 3.193,-9.151 4.959,-19.373 4.959,-30.2 0.004,-12.703 -2.371,-26.186 -7.365,-39.447 -7.661,-20.326 -21.622,-40.091 -43.043,-55.755 z"
           id="path2417" />
        <path
           style="fill:#ffffff"
           inkscape:connector-curvature="0"
           d="m 391.245,307.044 c 0.927,0.087 1.727,-0.148 2.358,-0.453 0.626,-0.309 1.079,-0.688 1.305,-0.892 l 0.165,-0.161 c 0,0 0.122,1.215 -0.383,2.63 -0.07,0.2 -0.148,0.396 -0.239,0.596 -1.557,0.631 -4.189,0.052 -5.216,-2.399 0.713,0.422 1.388,0.623 2.01,0.679 z m -39.833,49.839 c 3.38,11.998 -1.879,19.7 -2.184,20.84 -0.03,-0.683 -0.048,-1.432 -0.052,-2.238 -0.035,-5.62 0.309,-13.705 -2.889,-16.604 0.348,-1.659 5.12,-1.998 5.12,-1.998 h 0.004 z m 35.804,-118.428 c 0,0 28.643,22.843 31.436,57.875 0.183,2.338 0.252,4.728 0.196,7.17 l -7.461,6.704 c -2.98,22.534 -11.268,44.867 -17.55,59.425 -2.571,5.969 -4.82,10.666 -6.208,13.478 -2.332,1.145 -10.454,1.519 -10.454,1.519 l 0.004,-0.004 h -0.009 c 0,0 6.265,-7.009 5.686,-14.68 -0.091,-1.245 -0.348,-2.499 -0.853,-3.748 -0.557,-1.367 -1.762,-2.555 -3.302,-3.078 -0.587,-0.2 -1.209,-0.322 -1.888,-0.296 -1.658,0.052 -3.024,0.557 -4.259,1.911 -2.397,2.625 -2.371,6.091 -0.479,10.474 0.587,-0.405 1.131,-0.975 1.623,-1.559 0.483,-0.583 0.914,-1.175 1.279,-1.633 0.265,1.637 0.6,3.261 -0.178,5.368 -1.257,3.404 -3.485,6.321 -6.269,8.616 -2.984,2.46 -6.617,4.197 -10.432,4.967 h -0.004 c 0.039,0.161 -4.572,-2.294 -5.447,-2.869 l -0.178,-0.126 -0.004,-0.004 c 0.3,-0.736 0.657,-1.554 1.04,-2.434 1.144,-2.647 2.549,-5.834 3.585,-8.968 4.633,-13.996 2.414,-23.822 -1.897,-29.773 -3.328,1.397 -9.606,4.806 -14.087,7.384 -1.253,0.723 -2.388,1.393 -3.254,1.924 1.523,2.647 3.215,5.181 4.529,8.041 1.897,4.127 2.915,9.003 1.557,15.807 -0.209,1.054 -0.392,2.085 -0.722,3.239 0.078,0.152 -1.919,-0.901 -4.446,-2.273 -4.211,-2.281 -9.906,-5.464 -9.923,-5.477 1.114,-3.731 2.11,-8.533 1.849,-14.671 -0.096,-2.142 -0.335,-4.441 -0.787,-6.922 -0.139,-0.81 -0.679,-2.46 -1.344,-4.131 -0.674,-1.676 -1.475,-3.37 -2.145,-4.288 v -0.004 c 3.285,-3.64 7.583,-7.022 11.881,-9.987 5.686,-3.927 11.376,-7.105 14.744,-9.012 2.032,0.488 4.768,1.502 7.857,2.978 5.294,2.521 11.663,6.421 17.589,11.476 5.347,4.558 10.319,10.03 13.778,16.286 3.228,-7.079 5.338,-13.866 6.765,-20.139 2.649,-11.654 2.854,-21.48 2.784,-27.658 l 2.223,-2.064 4.285,-3.988 c 0.487,-6.147 0.122,-12.116 -0.757,-17.81 -4.142,-26.761 -20.356,-47.048 -20.356,-47.048 l 0.013,0.009 -0.009,-0.009 z m 5.708,76.93 c -6.817,0 -12.351,-5.529 -12.351,-12.351 0,-4.75 2.68,-8.864 6.587,-10.936 0.444,-1.75 0.622,-3.609 0.692,-5.15 0.083,-1.898 0,-3.309 0,-3.309 v 0.009 -0.013 c 1.792,2.29 3.163,4.597 4.198,6.861 1.04,2.273 1.74,4.506 2.197,6.639 h -0.004 v 0.004 l -0.378,-0.03 -0.026,-0.004 c -1.423,0 -2.728,0.409 -3.872,1.075 -2.28,1.337 -3.82,3.779 -3.82,6.617 0,2.843 1.54,5.289 3.82,6.626 1.144,0.666 2.449,1.08 3.872,1.08 l 0.03,-0.004 h 0.004 c -0.496,1.82 -0.944,2.882 -0.944,2.882 h -0.004 v 0.004 z"
           id="path2419" />
      </g>
      <rect
         y="164.70831"
         x="0"
         height="132.29167"
         width="132.29167"
         id="rect2120"
         style="opacity:1;fill:none;fill-opacity:1;stroke:none;stroke-width:10.58333302;stroke-linejoin:round;stroke-miterlimit:4;stroke-dasharray:none;stroke-opacity:1;paint-order:stroke fill markers" />
    </g>
  </g>
</svg>
