<?xml version="1.0" encoding="UTF-8" standalone="no"?>
<!-- Created with Inkscape (http://www.inkscape.org/) -->

<svg
   xmlns:dc="http://purl.org/dc/elements/1.1/"
   xmlns:cc="http://creativecommons.org/ns#"
   xmlns:rdf="http://www.w3.org/1999/02/22-rdf-syntax-ns#"
   xmlns:svg="http://www.w3.org/2000/svg"
   xmlns="http://www.w3.org/2000/svg"
   xmlns:sodipodi="http://sodipodi.sourceforge.net/DTD/sodipodi-0.dtd"
   xmlns:inkscape="http://www.inkscape.org/namespaces/inkscape"
   width="500"
   height="500"
   viewBox="0 0 132.29166 132.29167"
   version="1.1"
   id="svg975"
   inkscape:version="0.92.4 (5da689c313, 2019-01-14)"
   sodipodi:docname="PHI.svg">
  <defs
     id="defs969">
	
	
	
	
	
	

		
		
	</defs>
  <sodipodi:namedview
     id="base"
     pagecolor="#ffffff"
     bordercolor="#666666"
     borderopacity="1.0"
     inkscape:pageopacity="0.0"
     inkscape:pageshadow="2"
     inkscape:zoom="0.56895488"
     inkscape:cx="37.679845"
     inkscape:cy="208.41643"
     inkscape:document-units="mm"
     inkscape:current-layer="layer1"
     showgrid="false"
     units="px"
     inkscape:snap-bbox="true"
     inkscape:bbox-nodes="true"
     inkscape:snap-bbox-edge-midpoints="true"
     inkscape:snap-bbox-midpoints="true"
     inkscape:bbox-paths="true"
     inkscape:snap-page="true"
     inkscape:window-width="1600"
     inkscape:window-height="837"
     inkscape:window-x="-8"
     inkscape:window-y="-8"
     inkscape:window-maximized="1"
     inkscape:object-paths="true"
     inkscape:snap-intersection-paths="true"
     inkscape:object-nodes="true"
     inkscape:snap-midpoints="true"
     inkscape:snap-smooth-nodes="true"
     showguides="false"
     inkscape:snap-nodes="false" />
  <metadata
     id="metadata972">
    <rdf:RDF>
      <cc:Work
         rdf:about="">
        <dc:format>image/svg+xml</dc:format>
        <dc:type
           rdf:resource="http://purl.org/dc/dcmitype/StillImage" />
        <dc:title></dc:title>
      </cc:Work>
    </rdf:RDF>
  </metadata>
  <g
     inkscape:label="Layer 1"
     inkscape:groupmode="layer"
     id="layer1"
     transform="translate(0,-164.70832)">
    <g
       id="g3038">
      <g
         transform="matrix(0.27604241,0,0,0.27604241,-2.7604251,162.01387)"
         style="fill:none"
         id="g3008">
        <path
           style="fill:#ffffff"
           inkscape:connector-curvature="0"
           d="m 289.196,108.898 -23.361,24.47 c 38.267,-15.89 121.712,-43.172 121.712,-43.172 l -26.736,26.138 C 433.788,94.74 489.244,84.509 489.244,84.509 c 0,0 -16.07,37.375 -40.077,74.803 4.644,-0.501 34.957,-4.031 34.957,-4.031 0,0 -27.298,45.191 -58.819,77.764 l 17.642,4.387 c 0,0 -27.488,39.589 -63.766,71.903 -52.17,46.464 -79.015,39.326 -79.015,39.326 -38.728,28.032 -69.768,13.826 -69.768,13.826 0,0 13.41,-33.825 -0.445,-37.416 -12.489,-3.244 -31.489,6.515 -33.861,10.429 -2.465,8.535 -12.849,30.21 -23.575,43.329 -20.568,25.148 -43.375,35.428 -43.375,35.428 0,0 -17.965,-15.321 -18.083,-41.402 0,0 -12.339,13.063 -32.427,17.332 -14.061,2.989 -33.251,0.561 -52.91,-15.842 C 12.522,363.334 10,326.33 10,326.33 c 0,0 12.404,-23.682 36.327,-44.436 -5.295,-4.54 -8.54,-10.252 -9.559,-13.778 C 100.356,240.378 100.4,213.901 150.954,181.712 200.76,150 232.059,135.418 289.196,108.896"
           id="path2999" />
        <path
           style="fill:#004c54"
           inkscape:connector-curvature="0"
           d="m 258.221,131.36 -19.978,20.927 c 39.455,-17.454 122.775,-45.801 122.775,-45.801 l -24.181,23.642 C 422.266,103.695 476.449,94.74 476.449,94.74 c 0,0 -17.707,39.439 -41.27,72.941 11.41,-1.095 35.207,-3.857 35.207,-3.857 0,0 -23.798,39.847 -58.968,73.599 3.908,0.574 19.869,4.213 19.869,4.213 0,0 -21.211,31.454 -58.075,63.715 -47.057,41.176 -67.933,36.301 -67.933,36.301 0,0 0.453,-1.608 0.408,-4.108 -0.032,-1.381 -0.327,-2.634 -0.34,-2.735 -36.226,34.071 -66.405,22.575 -66.405,22.575 0,0 13.398,-32.419 -7.154,-38.963 -15.92,-5.065 -40.308,7.957 -42.252,14.933 -2.114,7.586 -12.226,28.638 -22.254,40.974 -17.395,21.404 -36.65,31.171 -36.65,31.171 0,0 -17.505,-13.459 -11.434,-52.85 1.326,-8.583 -0.376,-11.936 -1.314,-13.378 -2.874,-4.395 -25.269,0.4 -30.733,12.885 -3.856,8.818 18.398,16.27 18.398,16.27 0,0 -10.27,11.322 -28.219,14.99 -11.288,2.306 -28.769,1.571 -47.122,-14.311 -10.86,-9.395 -13.111,-41.188 -13.111,-41.188 0,0 13.414,-24.559 39.544,-45.769 -5.157,-3.373 -9.074,-9.088 -10.064,-11.334 52.651,-22.664 59.87,-54.712 119.307,-90.524 27.702,-16.69 56.879,-33.114 92.337,-48.932"
           id="path3001" />
        <path
           style="fill:#000000"
           inkscape:connector-curvature="0"
           d="m 398.124,241.939 c 2.11,0.436 10.759,1.999 15.577,3.995 -18.087,29.317 -72.144,86.884 -102.356,89.251 -0.34,-5.049 -2.3,-9.355 -4.668,-12.324 -11.337,20.709 -45.954,33.421 -60.326,30.096 17.452,-63.893 -56.588,-39.548 -62.266,-22.01 -14.74,45.543 -52.158,66.971 -52.158,66.971 0,0 -11.959,-13.616 -6.83,-44.282 3.783,-22.608 -10.529,-21.905 -10.529,-21.905 -5.707,-0.263 -27.362,2.347 -34.193,17.45 -5.509,12.162 13.774,20.701 13.774,20.701 0,0 -27.843,22.216 -60.056,-5.32 -7.902,-6.754 -10.84,-35.271 -10.84,-35.271 15.492,-25.665 35.91,-41.988 44.37,-48.055 -8.969,-3.437 -11.761,-8.091 -11.761,-8.091 43.25,-19.821 60.213,-52.765 97.033,-77.247 40.575,-26.978 71.635,-40.227 71.635,-40.227 l -11.721,14.743 c 0,0 9.813,-4.193 14.093,-6.289 38.639,-18.952 104.106,-39.605 104.106,-39.605 l -20.415,19.764 c 0,0 33.845,-11.585 76.489,-20.689 22.71,-4.851 70.16,-14.832 70.16,-14.832 0,0 -11.147,32.75 -34.827,65.997 14.304,-1.006 29.723,-1.846 29.723,-1.846 0,0 -16.579,33.328 -54.013,69.023 z m -248.265,21.574 c 1.968,3.28 0.012,8.054 -4.373,10.672 -4.385,2.613 -9.534,2.076 -11.507,-1.208 -0.303,-0.501 -0.485,-1.046 -0.606,-1.608 -0.833,0.59 -1.693,1.135 -2.583,1.632 0.186,0.638 0.449,1.264 0.796,1.846 2.789,4.633 9.898,5.501 15.888,1.927 5.99,-3.567 8.585,-10.215 5.8,-14.856 -1.411,-2.343 -3.933,-3.708 -6.851,-4.035 -0.671,0.836 -1.423,1.789 -2.243,2.799 2.425,0.028 4.567,0.977 5.679,2.832 z"
           id="Combined-Shape" />
        <path
           style="fill:#ffffff"
           inkscape:connector-curvature="0"
           d="m 271.546,274.681 c -39.536,-4.803 -69.016,15.991 -79.165,28.961 5.719,-11.54 14.158,-18.98 14.158,-18.98 -2.033,1.002 -4.042,2.153 -6.03,3.425 -8.144,4.686 -41.496,21.614 -70.459,3.631 -1.799,-1.115 -3.31,-2.157 -4.62,-3.134 9.631,5.041 25.523,5.469 32.119,-1.018 -23.094,5.954 -27.197,-4.585 -27.69,-11.14 -1.491,0.283 -3.888,0.101 -5.679,-0.315 0,0 3.779,-1.604 5.654,-2.573 0.323,-0.166 0.635,-0.355 0.954,-0.537 0.186,0.638 0.449,1.264 0.796,1.846 2.789,4.633 9.898,5.501 15.888,1.927 5.99,-3.567 8.585,-10.215 5.8,-14.856 -1.411,-2.343 -3.933,-3.708 -6.851,-4.035 2.077,-2.411 6.075,-7.743 12.246,-12.178 -4.543,5.445 -5.994,9.129 -6.168,9.593 2.785,0.436 5.226,1.628 6.402,3.837 2.316,4.33 0.74,7.731 -0.101,9.472 l -0.012,-0.004 c -1.544,3.264 -4.414,6.483 -8.277,8.919 -5.23,3.3 -10.961,4.334 -15.177,3.147 0,0 0.756,1.377 1.98,2.189 2.037,1.361 8.055,3.345 16.757,-0.586 3.225,-1.458 5.646,-3.114 7.493,-4.795 6.544,-4.908 7.255,-11.185 9.591,-16.694 5.509,-13.01 16.886,-24.276 30.143,-28.953 -12.602,1.535 -28.013,12.889 -27.564,7.82 0.21,-2.359 6.968,-24.837 48.363,-42.037 0.756,-0.275 1.504,-0.549 2.28,-0.82 0,0 -20.099,3.11 -50.388,21.158 -11.911,7.101 -22.613,16.916 -28.029,24.373 0.238,-4.9 2.886,-9.65 4.494,-13.394 -11.272,7.255 -8.463,17.353 -16.955,27.196 -3.718,3.963 -7.635,7.755 -11.79,10.454 -24.004,15.624 -47.7,5.901 -47.7,5.901 32.168,-17.377 31.206,-21.291 52.401,-43.753 23.761,-25.173 38.36,-38.139 78.348,-57.737 -2.615,3.369 -13.422,12.845 -15.755,15.539 0,0 8.023,-4.29 23.216,-11.496 53.884,-25.568 93.666,-35.089 93.666,-35.089 0,0 -9.854,7.049 -16.664,11.564 -9.239,6.128 -17.42,12.049 -17.42,12.049 0,0 0.36,-0.162 1.027,-0.444 77.568,-24.296 141.641,-16.698 141.641,-16.698 -41.933,4.039 -75.842,12.005 -93.836,20.221 0,0 24.844,-4.265 37.475,-4.265 12.355,0 22.46,1.2 22.46,1.2 -79.035,12.324 -121.546,35.154 -131.909,41.301 -4.312,1.834 -6.572,2.977 -6.572,2.977 0,0 12.889,-4.035 29.226,-8.083 28.749,-4.407 70.819,-2.036 111.409,10.005 0,0 -28.142,-1.49 -40.441,-1.216 -36.727,0.816 -74.577,15.575 -74.577,15.575 23.907,-6.023 50.113,-1.587 50.113,-1.587 -10.189,0.586 -35.244,7.275 -47.817,12.449 -18.115,7.456 -36.424,18.076 -49.765,27.883 -5.396,3.199 -8.281,5.308 -8.281,5.308 0,0 6.847,-3.676 18.37,-8.119 19.643,-6.604 52.91,-12.497 89.863,-0.093 -56.952,-11.338 -101.944,15.321 -101.944,15.321 32.616,-10.652 53.302,-0.61 53.302,-0.61 z m -135.061,-2.46 c -0.962,-0.711 -1.374,-1.551 -1.544,-2.036 1.14,-0.905 2.219,-1.87 3.245,-2.864 -0.113,1.854 0.311,4.209 2.595,5.934 0,0 -2.603,0.214 -4.296,-1.034 z"
           id="path3004" />
        <path
           style="fill:#a5acaf"
           inkscape:connector-curvature="0"
           d="m 165.65,246.156 c -2.95,-11.379 16.995,-33.853 54.931,-47.998 0.081,-0.032 1.095,-0.396 1.52,-0.545 -41.395,17.199 -48.153,39.678 -48.363,42.037 -0.449,5.069 14.962,-6.285 27.564,-7.82 -13.257,4.677 -24.634,15.943 -30.143,28.953 -2.336,5.51 -3.047,11.787 -9.591,16.694 5.792,-5.263 5.731,-10.708 5.731,-10.708 0,0 -3.043,1.834 -5.642,2.117 -0.857,0.093 -1.875,-0.053 -2.853,-0.279 1.322,-2.585 1.297,-4.423 1.322,-4.928 4.021,-9.169 14.061,-17.664 14.061,-17.664 0,0 -7.425,4.415 -8.536,0.141 z M 382.725,209.77 c -40.591,-12.041 -82.661,-14.412 -111.409,-10.005 9.765,-2.411 20.758,-4.835 30.976,-6.402 47.373,-7.283 112.8,-0.263 112.8,-0.263 0,0 -3.027,9.617 -17.25,25.205 -13.41,14.707 -18.446,18.581 -18.446,18.581 -77.071,-16.411 -137.802,13.334 -159.158,25.989 13.342,-9.807 31.651,-20.427 49.765,-27.883 12.574,-5.174 37.628,-11.863 47.817,-12.449 0,0 -26.206,-4.435 -50.113,1.587 0,0 37.85,-14.759 74.577,-15.575 12.299,-0.275 40.441,1.216 40.441,1.216 z m -150.994,77.639 c -22.577,5.594 -32.366,12.586 -41.52,21.206 0.655,-1.729 1.39,-3.385 2.17,-4.972 10.149,-12.97 39.629,-33.764 79.165,-28.961 0,0 -20.685,-10.042 -53.302,0.61 0,0 44.992,-26.659 101.944,-15.321 -36.953,-12.405 -70.22,-6.511 -89.863,0.093 29.573,-11.415 89.948,-27.911 144.656,-0.505 -3.254,6.976 -11.487,17.341 -24.622,30.262 -12.509,12.3 -20.819,15.842 -22.985,17.017 l -0.525,0.275 C 322.383,290.225 285.215,274.149 231.732,287.41 Z M 414.472,146.415 c 0,0 -64.073,-7.598 -141.641,16.698 5.428,-2.298 32.641,-13.273 74.747,-21.085 40.49,-7.509 76.162,-10.385 76.162,-10.385 0,0 -8.043,24.963 -28.526,44.739 -14.368,1.43 -50.048,2.941 -80.757,9.02 -32.556,6.447 -55.294,15.022 -65.795,19.469 10.363,-6.148 52.873,-28.978 131.909,-41.301 0,0 -10.104,-1.2 -22.46,-1.2 -12.63,0 -37.475,4.265 -37.475,4.265 17.994,-8.216 51.903,-16.181 93.836,-20.221 z M 201.628,308.833 c 0,0 20.277,-19.768 65.33,-11.815 17.278,3.05 26.833,12.162 26.833,12.162 -7.703,13.39 -22.937,19.938 -22.937,19.938 0,0 0.97,-21.307 -32.871,-26.744 -22.876,-3.676 -36.355,6.459 -36.355,6.459 z m -92.474,-24.587 c 0,0 29.298,36.992 75.984,18.605 -2.146,3.789 -3.092,7.973 -4.49,12.909 -10.783,50.127 -47.118,71.846 -47.118,71.846 -6.616,-15.01 -2.914,-29.515 -1.786,-34.948 2.562,-12.376 -3.383,-21.59 -3.383,-21.59 23.903,1.135 0.469,30.892 9.348,43.85 16.062,-9.347 25.75,-42.226 28.142,-53.969 0.166,-0.44 -2.267,-2.169 -4.236,-2.892 -23.078,-7.416 -61.773,-1.066 -75.762,7.392 -43.812,26.498 -2.825,44.674 -2.825,44.674 0,0 -26.978,9.012 -42.422,-15.365 -3.787,-6.463 -4.741,-18.249 -5.569,-27.459 16.062,-27.172 41.31,-37.973 48.323,-42.804 6.083,1.648 17.104,2.407 25.794,-0.25 z m -21.183,12.833 c -3.435,5.146 3.795,4.12 7.142,3.126 2.712,-0.808 14.926,-4.354 14.926,-4.354 -6.802,-0.65 -9.401,-2.08 -11.903,-4.128 -5.816,3.013 -10.165,5.356 -10.165,5.356 z"
           id="path3006" />
      </g>
      <rect
         y="164.70831"
         x="0"
         height="132.29167"
         width="132.29167"
         id="rect2120"
         style="opacity:1;fill:none;fill-opacity:1;stroke:none;stroke-width:10.58333302;stroke-linejoin:round;stroke-miterlimit:4;stroke-dasharray:none;stroke-opacity:1;paint-order:stroke fill markers" />
    </g>
  </g>
  <style
     id="style2869"
     type="text/css">
	.st0{fill:#125740;}
	.st1{fill:#FFFFFF;}
</style>
</svg>
