<?xml version="1.0" encoding="UTF-8" standalone="no"?>
<!-- Created with Inkscape (http://www.inkscape.org/) -->

<svg
   xmlns:dc="http://purl.org/dc/elements/1.1/"
   xmlns:cc="http://creativecommons.org/ns#"
   xmlns:rdf="http://www.w3.org/1999/02/22-rdf-syntax-ns#"
   xmlns:svg="http://www.w3.org/2000/svg"
   xmlns="http://www.w3.org/2000/svg"
   xmlns:sodipodi="http://sodipodi.sourceforge.net/DTD/sodipodi-0.dtd"
   xmlns:inkscape="http://www.inkscape.org/namespaces/inkscape"
   width="500"
   height="500"
   viewBox="0 0 132.29166 132.29167"
   version="1.1"
   id="svg8"
   inkscape:version="0.92.4 (5da689c313, 2019-01-14)"
   sodipodi:docname="PIT.svg">
  <defs
     id="defs2" />
  <sodipodi:namedview
     id="base"
     pagecolor="#ffffff"
     bordercolor="#666666"
     borderopacity="1.0"
     inkscape:pageopacity="0.80784314"
     inkscape:pageshadow="2"
     inkscape:zoom="0.84444444"
     inkscape:cx="358.75"
     inkscape:cy="250"
     inkscape:document-units="px"
     inkscape:current-layer="layer1"
     showgrid="false"
     units="px"
     inkscape:pagecheckerboard="true"
     inkscape:showpageshadow="false"
     inkscape:snap-page="true"
     inkscape:window-width="1600"
     inkscape:window-height="837"
     inkscape:window-x="-8"
     inkscape:window-y="-8"
     inkscape:window-maximized="1"
     inkscape:snap-bbox="true"
     inkscape:bbox-paths="true"
     inkscape:bbox-nodes="true"
     inkscape:snap-bbox-edge-midpoints="true"
     inkscape:snap-bbox-midpoints="true" />
  <metadata
     id="metadata5">
    <rdf:RDF>
      <cc:Work
         rdf:about="">
        <dc:format>image/svg+xml</dc:format>
        <dc:type
           rdf:resource="http://purl.org/dc/dcmitype/StillImage" />
        <dc:title></dc:title>
      </cc:Work>
    </rdf:RDF>
  </metadata>
  <g
     inkscape:label="Layer 1"
     inkscape:groupmode="layer"
     id="layer1"
     transform="translate(0,-164.70829)">
    <g
       id="g858">
      <g
         transform="matrix(0.34847343,0,0,0.34847343,-20.908405,143.67025)"
         style="fill:none;stroke-width:0.75926405"
         id="g828">
        <path
           style="fill:#000000;stroke-width:0.75926405"
           inkscape:connector-curvature="0"
           d="M 60,250.184 C 60,354.851 145.15,440 249.816,440 354.478,440 439.632,354.85 439.632,250.184 439.632,145.522 354.478,60.372 249.816,60.372 145.149,60.372 60,145.522 60,250.184"
           id="path814" />
        <path
           style="fill:#a5acaf;stroke-width:0.75926405"
           inkscape:connector-curvature="0"
           d="m 249.816,435.837 c 102.527,0 185.649,-83.122 185.649,-185.653 0,-102.527 -83.122,-185.649 -185.649,-185.649 -102.532,0 -185.653,83.122 -185.653,185.649 0,102.532 83.122,185.653 185.653,185.653"
           id="path816" />
        <path
           style="fill:#fffffe;stroke-width:0.75926405"
           inkscape:connector-curvature="0"
           d="m 249.816,405.51 c 85.53,0 154.869,-69.339 154.869,-154.869 0,-85.53 -69.339,-154.873 -154.869,-154.873 -85.534,0 -154.873,69.344 -154.873,154.873 0,85.53 69.339,154.869 154.873,154.869"
           id="path818" />
        <path
           style="fill:#ffb612;stroke-width:0.75926405"
           inkscape:connector-curvature="0"
           d="m 250.619,250.85 c 1.789,-63.434 61.709,-78.327 76.764,-76.961 -37.112,-2.015 -73.737,-17.698 -76.568,-76.384 -4.47,54.575 -26.369,70.091 -76.837,76.568 36.049,1.827 72.537,16.092 76.64,76.777"
           id="path820" />
        <path
           style="fill:#c60c30;stroke-width:0.75926405"
           inkscape:connector-curvature="0"
           d="m 327.597,329.364 c 1.789,-63.434 60.655,-79.087 75.714,-77.721 -37.236,-1.375 -73.101,-19.073 -75.927,-77.755 -4.47,54.579 -26.297,70.484 -76.764,76.961 36.049,1.827 72.87,17.83 76.978,78.515"
           id="path822" />
        <path
           style="fill:#00539b;stroke-width:0.75926405"
           inkscape:connector-curvature="0"
           d="m 251.55,404.865 c 1.785,-63.443 60.988,-76.867 76.047,-75.5 -37.112,-2.02 -74.147,-19.824 -76.978,-78.515 -4.47,54.579 -25.72,70.975 -76.184,77.447 36.044,1.836 73.007,15.887 77.114,76.568"
           id="path824" />
        <path
           style="fill:#000000;stroke-width:0.75926405"
           inkscape:connector-curvature="0"
           d="m 207.47,237.289 6.046,-0.064 0.026,2.916 c 0.909,-1.601 1.456,-2.558 3.514,-3.019 h 1.503 v 7.075 c -5.205,-0.367 -4.859,1.456 -4.927,2.856 v 13.462 h -6.161 v -23.227 z m 27.24,7.574 -5.397,-0.026 c 0,-0.559 0.013,-1.05 -0.09,-1.477 -0.149,-0.598 -0.948,-1.166 -1.759,-1.174 -0.956,0 -1.695,0.307 -2.015,1.234 -0.384,1.119 -0.205,2.767 2.707,3.096 l 1.482,0.367 c 1.652,0.555 3.249,1.016 4.492,3.386 0.209,0.406 0.243,0.538 0.576,1.699 0.704,2.408 0.239,4.244 -0.547,5.679 -0.478,0.858 -1.652,1.926 -2.071,2.186 -2.284,1.409 -5.367,1.558 -8.168,0.709 -1.375,-0.418 -2.873,-1.469 -3.616,-2.912 -0.769,-1.49 -0.786,-2.711 -0.884,-4.727 l 5.218,-0.034 c -0.107,0.816 0.397,1.759 1.204,2.067 0.816,0.32 2.852,0.333 3.211,-0.581 0.252,-0.645 0.414,-0.995 -0.145,-1.836 -1.02,-1.541 -3.202,-1.793 -5.119,-2.276 -3.429,-0.867 -4.261,-4.189 -4.112,-6.708 0.073,-1.191 0.286,-2.566 1.038,-3.493 1.584,-1.96 2.276,-1.862 3.224,-2.318 3.155,-1.533 7.079,-0.444 9.171,1.678 1.174,1.183 1.558,3.36 1.601,5.461 z m -100.081,-7.438 h -4.278 l -2.327,0.017 c -0.056,-1.02 -0.209,-2.344 -0.884,-2.963 -0.999,-0.909 -3.262,-0.406 -3.86,0.858 -1.084,2.271 0.303,4.406 3.796,5.521 l 0.961,0.478 c 3.3,1.61 4.214,2.4 5.448,4.142 0.371,0.525 1.097,1.896 1.392,3.569 0.628,3.578 -0.273,5.798 -1.08,7.758 0,0 -0.307,0.927 -1.157,1.716 -3.467,3.236 -8.27,3.377 -11.831,1.687 -1.64,-0.786 -2.903,-1.546 -3.804,-3.569 -0.888,-1.985 -1.089,-3.787 -0.833,-6.716 l 6.648,-0.038 c -0.124,0.931 0.149,3.283 0.773,3.937 0.619,0.649 3.138,1.281 4.107,-0.436 0.342,-0.602 0.427,-3.219 -0.632,-4.227 -1.994,-1.917 -3.715,-2.109 -6.063,-3.578 -3.352,-2.092 -5.132,-5.845 -4.919,-9.406 0.102,-1.687 0.564,-2.861 1.383,-4.338 0.82,-1.46 1.981,-2.792 3.659,-3.527 4.466,-1.96 9.923,-0.841 12.327,3.403 0.632,1.11 1.264,2.767 1.174,5.713 z m 3.394,-0.12 v -2.143 l 6.225,-3.416 0.026,5.636 2.37,-0.051 0.026,5.495 -2.395,-0.038 v 9.146 c 0,1.251 -0.226,1.751 2.284,1.712 l -0.004,6.96 c -2.963,-0.073 -8.573,0.935 -8.599,-5.61 l -0.047,-12.327 -2.323,0.077 -0.026,-5.363 2.464,-0.077 z m 43.986,-9.321 6.272,0.017 v 32.714 h -6.272 z m 13.257,25.96 c 0.009,2.084 4.56,2.511 4.671,-0.115 v -0.662 l 5.124,-0.026 0.009,2.737 c 0.051,1.819 -0.704,3.796 -3.779,4.855 -3.262,1.016 -5.299,0.406 -7.207,0 -2.506,-0.918 -3.723,-2.912 -3.838,-5.721 V 243.68 c -0.115,-2.126 1.067,-3.979 3.121,-5.329 3.501,-1.529 5.414,-1.119 8.044,-0.209 2.506,1.366 3.638,3.057 3.663,5.418 v 7.19 h -9.829 z m 0.222,-8.048 4.637,0.017 c 0.956,-4.06 -5.414,-4.586 -4.637,-0.017 z m -25.178,8.048 c 0.013,2.084 4.564,2.511 4.68,-0.115 v -0.662 l 5.119,-0.026 0.013,2.737 c 0.043,1.819 -0.709,3.796 -3.783,4.855 -3.262,1.016 -5.299,0.406 -7.207,0 -2.506,-0.918 -3.723,-2.912 -3.838,-5.721 V 243.68 c -0.115,-2.126 1.072,-3.979 3.121,-5.329 3.501,-1.529 5.418,-1.119 8.04,-0.209 2.511,1.366 3.638,3.057 3.668,5.418 v 7.19 h -9.803 l -0.009,3.194 z m 0.226,-8.048 4.637,0.017 c 0.956,-4.06 -5.414,-4.586 -4.637,-0.017 z m -17.22,8.048 c 0.013,2.084 4.564,2.511 4.68,-0.115 v -0.662 l 5.119,-0.026 0.013,2.737 c 0.047,1.819 -0.709,3.796 -3.783,4.855 -3.262,1.016 -5.303,0.406 -7.207,0 -2.506,-0.918 -3.723,-2.912 -3.838,-5.721 V 243.68 c -0.115,-2.126 1.072,-3.979 3.121,-5.329 3.497,-1.529 5.418,-1.119 8.04,-0.209 2.511,1.366 3.638,3.057 3.668,5.418 v 7.19 h -9.803 l -0.009,3.194 z m 0.226,-8.048 4.637,0.017 c 0.956,-4.06 -5.414,-4.586 -4.637,-0.017 z"
           id="path826" />
      </g>
      <rect
         y="164.70828"
         x="0"
         height="132.29167"
         width="132.29167"
         id="rect847"
         style="opacity:1;fill:none;fill-opacity:1;stroke:none;stroke-width:15.875;stroke-linecap:round;stroke-linejoin:round;stroke-miterlimit:4;stroke-dasharray:none;stroke-opacity:1;paint-order:stroke fill markers" />
    </g>
  </g>
</svg>
