<?xml version="1.0" encoding="UTF-8" standalone="no"?>
<!-- Created with Inkscape (http://www.inkscape.org/) -->

<svg
   xmlns:dc="http://purl.org/dc/elements/1.1/"
   xmlns:cc="http://creativecommons.org/ns#"
   xmlns:rdf="http://www.w3.org/1999/02/22-rdf-syntax-ns#"
   xmlns:svg="http://www.w3.org/2000/svg"
   xmlns="http://www.w3.org/2000/svg"
   xmlns:sodipodi="http://sodipodi.sourceforge.net/DTD/sodipodi-0.dtd"
   xmlns:inkscape="http://www.inkscape.org/namespaces/inkscape"
   width="500"
   height="500"
   viewBox="0 0 132.29166 132.29167"
   version="1.1"
   id="svg975"
   inkscape:version="0.92.4 (5da689c313, 2019-01-14)"
   sodipodi:docname="SF.svg">
  <defs
     id="defs969">
	
	
	
	
	
	

		
		
	</defs>
  <sodipodi:namedview
     id="base"
     pagecolor="#ffffff"
     bordercolor="#666666"
     borderopacity="1.0"
     inkscape:pageopacity="0.0"
     inkscape:pageshadow="2"
     inkscape:zoom="0.57654095"
     inkscape:cx="153.79075"
     inkscape:cy="278.58096"
     inkscape:document-units="mm"
     inkscape:current-layer="layer1"
     showgrid="false"
     units="px"
     inkscape:snap-bbox="true"
     inkscape:bbox-nodes="true"
     inkscape:snap-bbox-edge-midpoints="true"
     inkscape:snap-bbox-midpoints="true"
     inkscape:bbox-paths="true"
     inkscape:snap-page="true"
     inkscape:window-width="1600"
     inkscape:window-height="837"
     inkscape:window-x="-8"
     inkscape:window-y="-8"
     inkscape:window-maximized="1"
     inkscape:object-paths="true"
     inkscape:snap-intersection-paths="true"
     inkscape:object-nodes="true"
     inkscape:snap-midpoints="true"
     inkscape:snap-smooth-nodes="true"
     showguides="false"
     inkscape:snap-nodes="false" />
  <metadata
     id="metadata972">
    <rdf:RDF>
      <cc:Work
         rdf:about="">
        <dc:format>image/svg+xml</dc:format>
        <dc:type
           rdf:resource="http://purl.org/dc/dcmitype/StillImage" />
        <dc:title></dc:title>
      </cc:Work>
    </rdf:RDF>
  </metadata>
  <g
     inkscape:label="Layer 1"
     inkscape:groupmode="layer"
     id="layer1"
     transform="translate(0,-164.70832)">
    <g
       id="g3190">
      <g
         transform="matrix(0.27589906,0,0,0.27589906,-2.7587154,161.9903)"
         style="fill:none"
         id="g3158">
        <path
           style="fill:#ffffff"
           inkscape:connector-curvature="0"
           d="m 251.024,392.328 c 81.738,0 162.272,-27.711 205.168,-70.61 21.786,-21.783 33.3,-46.938 33.3,-72.761 0,-25.633 -11.364,-50.539 -32.853,-72.03 -42.565,-42.559 -123.275,-70.059 -205.615,-70.059 -57.659,0 -116.497,13.57 -161.429,37.232 -51.33,27.027 -79.596,64.268 -79.596,104.856 0,25.453 11.403,50.307 32.982,71.879 21.566,21.559 52.9,39.702 90.624,52.458 36.816,12.455 77.423,19.033 117.418,19.033"
           id="path3146" />
        <path
           style="fill:#000000"
           inkscape:connector-curvature="0"
           d="m 93.154,150.86 c -48.696,25.642 -75.516,60.482 -75.516,98.097 0,23.383 10.633,46.366 30.749,66.484 20.736,20.729 51.05,38.235 87.664,50.617 36.041,12.188 75.8,18.633 114.974,18.633 79.811,0 158.227,-26.842 199.768,-68.377 20.318,-20.311 31.059,-43.604 31.059,-67.357 0,-23.564 -10.585,-46.603 -30.615,-66.63 -41.201,-41.199 -119.793,-67.818 -200.211,-67.818 -56.454,0 -113.997,13.247 -157.87,36.35"
           id="path3148" />
        <path
           style="fill:#b3995d"
           inkscape:connector-curvature="0"
           d="m 250.882,371.152 c 70.456,0 137.225,-22.992 174.238,-59.996 18.67,-18.672 28.537,-39.982 28.537,-61.635 0,-21.649 -9.867,-42.959 -28.537,-61.627 -37.018,-37.009 -103.782,-59.996 -174.238,-59.996 -51.734,0 -103.236,12.769 -141.295,35.038 -39.647,23.198 -61.485,53.947 -61.485,86.584 0,21.654 9.871,42.963 28.546,61.635 37.009,37.004 103.774,59.996 174.234,59.996"
           id="path3150" />
        <path
           style="fill:#aa0000"
           inkscape:connector-curvature="0"
           d="m 251.248,366.833 c 103.275,0 187.001,-53.499 187.001,-117.961 0,-64.462 -83.726,-116.718 -187.001,-116.718 -103.279,0 -187.001,52.256 -187.001,116.718 0,64.462 83.722,117.961 187.001,117.961"
           id="path3152" />
        <path
           style="fill:#000000"
           inkscape:connector-curvature="0"
           d="m 397.517,234.209 h -0.516 v -4.259 h -74.195 c -1.592,-8.342 -6.39,-16.086 -13.244,-22.131 -6.751,-7.757 -16.553,-13.591 -27.719,-15.807 l -4.621,-0.955 c -10.71,-2.25 -19.17,-4.031 -53.197,-3.855 0,-0.004 -6.545,-0.224 -12.9,-1.067 -1.609,-0.409 -3.016,-0.895 -4.225,-1.42 0.469,-2.831 5.645,-6.733 11.493,-7.486 0.602,-0.112 37.431,-6.888 75.336,17.661 l 0.929,0.598 h 24.914 v -38.119 h -4.26 v -4.259 h -34.187 l -5.762,4.401 c -9.845,-2.465 -58.051,-13.015 -99.686,5.21 -17.496,7.228 -28.352,20.871 -27.577,34.728 0.392,6.987 3.735,13.079 9.518,17.803 4.251,5.309 10.938,9.448 19.647,11.96 12.324,3.549 22.762,5.012 32.883,5.593 v 17.377 h 4.256 v 4.259 h 13.003 c 5.383,0 6.769,2.982 7.1,4.092 -16.592,-1.084 -41.82,-5.804 -60.392,-22.987 l -0.697,-0.753 h -0.133 c -1.024,-0.981 -2.031,-1.996 -3.016,-3.055 l -1.114,-1.2 h -18.692 v 54.257 h 4.26 v 4.251 h 15.25 c 2.233,0.159 9.316,-0.628 14.208,-14.916 7.93,2.766 27.474,8.648 51.54,9.302 v 33.756 c -0.835,11.337 -25.809,14.882 -34.505,15.226 l -3.597,0.142 v 16.783 h 4.256 v 4.251 h 109.643 v -16.056 l -2.793,-0.74 c -0.503,-0.129 -0.985,-0.262 -1.467,-0.396 v -3.674 l -3.421,-0.293 c -6.166,-0.546 -10.908,-1.613 -14.583,-2.926 -6.898,-3.863 -8.077,-6.996 -8.227,-7.503 v -17.997 h 32.134 c 3.395,0.512 6.304,2.001 8.769,3.932 4.626,5.696 6.738,12.21 6.769,12.318 l 0.822,2.637 2.758,0.009 h 0.09 c 0.383,0.968 0.581,1.579 0.594,1.613 l 0.818,2.642 2.762,0.004 h 14.505 v -65.288 h -4.26 v -4.259 h -17.194 l -0.615,2.982 c -4.501,21.697 -29.596,21.378 -51.906,18.126 4.376,-1.187 8.769,-2.633 13.15,-4.371 11.945,-4.745 20.908,-11.199 26.497,-18.762 h 48.163 c 3.356,0.108 6.209,0.951 8.61,2.521 5.047,7.4 4.544,18.311 4.535,18.435 l -0.211,3.95 h 4.479 l -0.004,0.301 -0.215,3.95 3.954,0.009 h 15.237 V 234.21 h -3.748"
           id="path3154" />
        <path
           style="fill:#ffffff"
           inkscape:connector-curvature="0"
           d="m 320.701,247.577 c 3.507,-4.242 3.67,-13.879 3.67,-13.879 h 68.881 v 43.049 h -11.485 c 0,0 1.639,-28.438 -21.153,-29.17 H 320.7 Z m -81.235,36.763 c 15.499,0.331 28.645,-2.956 28.645,-2.956 3.946,-0.873 57.311,14.787 64.531,-20.023 h 10.392 v 57.793 h -10.757 c 0,0 -6.381,-20.789 -22.969,-23.159 h -36.291 v 22.067 c 0,0 0.138,15.471 30.491,18.1 v 9.431 H 201.361 v -9.431 c 0,0 36.928,-1.437 38.107,-18.762 v -33.059 z m 31.867,-56.864 c -4.94,-1.502 -12.087,-1.824 -20.31,-2.138 -29.423,-1.123 -47.939,2.383 -76.984,-5.989 -32.965,-9.5 -27.048,-40.717 3.141,-53.194 44.914,-19.662 99.006,-4.556 99.006,-4.556 l 6.205,-4.741 h 29.174 v 30.628 h -20.06 c -39.746,-25.745 -77.857,-18.233 -77.857,-18.233 -12.401,1.605 -24.436,15.278 -3.287,20.565 6.751,0.912 13.679,1.132 13.679,1.132 38.378,-0.202 43.696,2.087 57.074,4.737 34.768,6.892 54.002,50.853 3.464,70.924 -52.173,20.716 -107.035,-1.609 -107.035,-1.609 -4.557,17.14 -11.665,16.048 -11.665,16.048 h -11.67 v -46.762 h 13.305 c 31.188,33.717 84.608,27.948 84.608,27.948 0,0 15.865,-0.404 26.256,-10.209 8.115,-9.904 6.829,-20.488 -7.044,-24.549 z m -43.584,18.965 h -13.855 v -12.417 c 10.74,0 32.651,0.095 48.154,0 15.594,0 17.681,9.018 11.106,15.118 -6.196,5.748 -19.174,9.839 -34.54,7.043 0,0 -1.269,-9.745 -10.865,-9.745 z"
           id="path3156" />
      </g>
      <rect
         y="164.70831"
         x="0"
         height="132.29167"
         width="132.29167"
         id="rect2120"
         style="opacity:1;fill:none;fill-opacity:1;stroke:none;stroke-width:10.58333302;stroke-linejoin:round;stroke-miterlimit:4;stroke-dasharray:none;stroke-opacity:1;paint-order:stroke fill markers" />
    </g>
  </g>
  <style
     id="style2869"
     type="text/css">
	.st0{fill:#125740;}
	.st1{fill:#FFFFFF;}
</style>
</svg>
