<?xml version="1.0" encoding="UTF-8" standalone="no"?>
<!-- Created with Inkscape (http://www.inkscape.org/) -->

<svg
   xmlns:dc="http://purl.org/dc/elements/1.1/"
   xmlns:cc="http://creativecommons.org/ns#"
   xmlns:rdf="http://www.w3.org/1999/02/22-rdf-syntax-ns#"
   xmlns:svg="http://www.w3.org/2000/svg"
   xmlns="http://www.w3.org/2000/svg"
   xmlns:sodipodi="http://sodipodi.sourceforge.net/DTD/sodipodi-0.dtd"
   xmlns:inkscape="http://www.inkscape.org/namespaces/inkscape"
   width="500"
   height="500"
   viewBox="0 0 132.29166 132.29167"
   version="1.1"
   id="svg975"
   inkscape:version="0.92.4 (5da689c313, 2019-01-14)"
   sodipodi:docname="TB.svg">
  <defs
     id="defs969">
	
	
	
	
	
	

		
		
	</defs>
  <sodipodi:namedview
     id="base"
     pagecolor="#ffffff"
     bordercolor="#666666"
     borderopacity="1.0"
     inkscape:pageopacity="0.0"
     inkscape:pageshadow="2"
     inkscape:zoom="0.57654095"
     inkscape:cx="153.79075"
     inkscape:cy="278.58096"
     inkscape:document-units="mm"
     inkscape:current-layer="layer1"
     showgrid="false"
     units="px"
     inkscape:snap-bbox="true"
     inkscape:bbox-nodes="true"
     inkscape:snap-bbox-edge-midpoints="true"
     inkscape:snap-bbox-midpoints="true"
     inkscape:bbox-paths="true"
     inkscape:snap-page="true"
     inkscape:window-width="1600"
     inkscape:window-height="837"
     inkscape:window-x="-8"
     inkscape:window-y="-8"
     inkscape:window-maximized="1"
     inkscape:object-paths="true"
     inkscape:snap-intersection-paths="true"
     inkscape:object-nodes="true"
     inkscape:snap-midpoints="true"
     inkscape:snap-smooth-nodes="true"
     showguides="false"
     inkscape:snap-nodes="false" />
  <metadata
     id="metadata972">
    <rdf:RDF>
      <cc:Work
         rdf:about="">
        <dc:format>image/svg+xml</dc:format>
        <dc:type
           rdf:resource="http://purl.org/dc/dcmitype/StillImage" />
        <dc:title></dc:title>
      </cc:Work>
    </rdf:RDF>
  </metadata>
  <g
     inkscape:label="Layer 1"
     inkscape:groupmode="layer"
     id="layer1"
     transform="translate(0,-164.70832)">
    <g
       id="g3255">
      <g
         transform="matrix(0.30780727,0,0,0.30780727,-10.77233,153.82132)"
         style="fill:none"
         id="g3213">
        <path
           style="fill:#b1babf"
           inkscape:connector-curvature="0"
           d="m 366.436,339.102 c -9.75,14.761 -19.023,28.37 -26.57,39.288 8.733,7.225 8.211,16.328 8.211,18.055 -0.168,9.679 -5.317,16.904 -10.033,21.127 -5.866,5.003 -13.882,7.429 -22.341,7.491 -0.248,0 -6.3,-0.186 -8.379,-0.664 -0.894,1.31 -2.619,2.904 -5.424,4.047 -0.309,0.885 -0.734,1.771 -1.292,2.612 -2.309,3.471 -6.14,5.401 -10.042,5.401 0,0 -3.955,-0.115 -6.689,-2 -3.504,-2.312 -5.433,-6.155 -5.433,-10.069 v -0.106 c 0.009,-1.868 0.46,-3.763 1.363,-5.481 -0.407,-0.965 -1.831,-6.73 -1.831,-6.73 l 3.725,-3.285 c 0.301,-0.177 1.221,-1.567 2.256,-5.118 1.097,-3.462 2.407,-8.607 5.149,-14.601 3.495,-7.615 8.343,-15.496 11.883,-20.95 -0.345,-1.744 -2.177,-2.55 -3.495,-2.869 -1.478,-0.398 -3.3,-1.257 -4.75,-2.949 -1.523,-1.771 -2.69,-4.268 -2.036,-7.491 0.646,-3.179 2.637,-5.472 4.964,-6.544 v -0.009 c 2.637,-1.372 5.893,-0.717 5.893,-0.717 7.759,0.717 13.493,7.925 13.493,7.925 7.724,-10.785 25.694,-37.535 26.074,-38.119 -23.553,4.507 -47.884,5.118 -68.092,1.762 -36.745,-6.101 -65.013,-25.679 -83.275,-34.604 -18.262,-8.917 -53.051,-18.055 -88.937,-8.917 -35.878,9.138 -59.572,42.219 -59.572,42.219 10.715,-75.548 57.475,-88.281 61.961,-89.556 6.813,-6.384 15.749,-25.864 -5.415,-39.005 -7.229,-4.489 -13.298,-10.174 -13.298,-10.174 4.433,0.522 14.829,-0.85 20.598,-3.135 6.928,-2.736 13.298,-3.648 13.298,-3.648 -5.468,-5.215 -13.82,-7.828 -13.82,-7.828 8.343,-0.522 21.385,-3.391 29.463,-7.048 8.078,-3.648 12.511,-10.174 11.201,-13.043 -1.301,-2.878 -8.6,-1.302 -8.6,-1.302 2.61,-3.914 8.865,-5.481 8.865,-5.481 -17.987,-1.045 -31.091,8.757 -31.091,8.757 2,-4.295 8.573,-12.016 8.573,-12.016 -2.495,0.823 -9.405,2.984 -9.839,3.117 28.162,-21.765 59.598,-40.9 103.642,-41.183 44.035,-0.292 86.938,19.463 115.525,28.618 28.605,9.156 43.779,13.778 74.666,9.209 14.785,-2.196 27.73,-8.261 37.214,-13.946 0,0 6.636,-16.886 7.141,-41.13 0,0 7.953,14.274 7.989,36.499 0.08,76.274 -36.851,131.979 -48.654,152.257 -11.281,19.949 -26.11,43.839 -44.239,71.332 z m 81.213,-280.1 c 0,0 1.001,18.338 -2.46,35.126 -3.344,16.222 -5.185,22.402 -5.185,22.402 -7.078,4.153 -18.536,9.262 -35.285,12.051 -31.259,5.215 -59.625,-3.188 -90.592,-15.354 -30.976,-12.166 -72.419,-25.271 -110.871,-20.853 -37.284,4.286 -63.96,19.401 -78.143,29.256 -14.183,9.846 -16.793,12.45 -28.95,15.93 0,0 9.556,3.763 14.475,3.763 0,0 -2.318,9.572 -1.451,12.751 0,0 20.261,-9.271 22.579,-4.923 2.318,4.348 -7.237,7.252 -13.891,8.979 -6.653,1.744 -24.03,1.443 -24.03,1.443 0,0 8.149,6.313 11.024,10.696 0,0 -15.36,6.694 -32.445,4.374 0,0 -0.566,6.331 13.475,16.7 -2.991,1.071 -6.777,2.807 -9.122,5.313 0,0 14.714,-3.037 23.96,7.27 2.433,3.055 3.229,5.791 2.955,9.244 -0.504,6.26 -2.902,8.651 -8.795,12.547 -3.371,1.372 -6.954,3.09 -10.414,5.207 -16.271,10.006 -28.171,25.236 -36.523,42.635 -3.619,7.535 -6.512,16.293 -8.556,24.235 -2.044,7.987 -2.796,15.08 -3.274,19.507 -0.478,4.418 -1.133,18.347 -1.133,18.347 0,0 7.299,-10.236 10.723,-15.141 3.406,-4.888 24.995,-32.054 56.44,-39.926 10.06,-2.559 20.076,-3.63 29.649,-3.63 23.013,-0.018 43.566,6.234 55.732,12.193 17.66,8.554 46.672,28.742 84.708,35.056 8.955,1.479 18.607,2.214 28.614,2.214 9.6,0 19.536,-0.7 29.463,-2.054 -5.609,8.377 -10.989,16.204 -16.103,23.456 -5.185,-4.941 -12.219,-5.454 -12.219,-5.454 -8.529,-0.806 -12.802,4.392 -12.802,4.392 -1.726,1.868 -3.018,4.295 -3.522,7.155 -0.602,2.648 0.115,5.73 0.611,7.296 1.627,5.171 6.042,7.526 7.759,8.279 -12.466,16.62 -16.085,35.756 -16.085,35.764 l -5.689,5.021 2.053,8.323 c -3.167,10.209 1.805,17.869 8.255,21.039 6.547,3.223 12.661,1.355 12.661,1.355 3.849,-1.08 7.335,-3.506 9.706,-7.066 0.364,-0.54 0.681,-1.089 0.964,-1.638 1.327,-0.717 2.469,-1.523 3.442,-2.391 1.796,0.204 6.397,0.345 6.397,0.345 9.432,-0.08 18.651,-2.754 25.685,-8.731 5.539,-4.959 11.635,-13.415 11.847,-24.97 0,-2.169 0.398,-10.918 -6.822,-18.542 45.558,-66.941 75.135,-110.037 94.016,-153.885 50.025,-116.226 7.352,-164.688 7.167,-165.104 z"
           id="path3198" />
        <path
           style="fill:#000000"
           inkscape:connector-curvature="0"
           d="m 297.486,399.154 -0.027,0.062 -0.009,0.027 0.027,-0.053 0.009,-0.035 z m 90.99,-104.786 c -20.049,9.351 -66.313,24.855 -112.384,16.248 -16.032,-2.993 -37.134,-8.005 -65.04,-24.935 -18.306,-11.095 -38.072,-21.703 -84.151,-21.499 -38.169,0.186 -62.686,17.497 -70.49,23.934 20.713,-67.632 81.939,-57.741 81.939,-57.741 -11.175,-5.366 -24.588,-3.312 -24.588,-3.312 19.182,-30.203 -11.723,-44.344 -11.723,-44.344 2.601,0 14.333,-3.391 20.323,-5.481 5.999,-2.081 17.005,-3.524 17.005,-3.524 -3.84,-3.533 -15.705,-6.384 -15.705,-6.384 11.21,0 21.358,-5.437 28.419,-12.795 2.46,-2.559 9.193,-15.372 1.557,-20.339 -7.025,-4.569 -20.96,0.505 -20.969,0.514 0.018,-0.018 41.717,-44.982 127.77,-25.767 40.823,9.12 86.841,33.046 129.327,33.302 14.28,0.089 45.787,-4.551 64.588,-23.491 -0.991,35.985 -7.689,86.386 -65.88,175.615 z m -54.166,79.178 -0.177,-0.133 c -1.088,-0.992 -2.494,-2.187 -4.052,-3.489 2.539,-3.622 31.631,-46.912 40.16,-60.336 2.983,-1.054 5.884,-2.205 8.75,-3.409 -5.768,9.129 -37.24,56.59 -44.681,67.366 z m -1.522,37.898 c -3.946,3.444 -10.653,5.64 -17.66,5.508 -6.247,-0.124 -10.635,-1.133 -14.608,-3.294 l -0.035,0.133 c -0.311,0.266 -0.939,1.709 -5.53,2.391 -3.08,0.505 -4.866,-0.115 -5.053,-0.177 5.415,5.481 10.316,2.028 10.316,2.028 0.231,0.956 0.566,1.638 0.566,1.638 0,0 -1.627,2.392 -6.583,1.567 -0.602,-0.097 -1.115,-0.266 -1.619,-0.452 l 0.283,0.151 c 1.902,1.249 2.415,3.808 1.169,5.702 -1.266,1.904 -3.814,2.417 -5.716,1.169 -1.894,-1.257 -2.416,-3.816 -1.16,-5.711 1.026,-1.558 2.902,-2.169 4.592,-1.665 -3.716,-1.789 -4.672,-5.525 -4.672,-5.525 4.751,-4.215 4.601,-11.848 9.449,-22.455 0.221,-0.487 0.469,-0.983 0.708,-1.479 l -0.018,0.053 c -1.053,2.639 -2.062,7.172 -1.646,10.475 0.088,0.717 0.231,1.372 0.398,2.01 v 0.009 c 0.071,0.292 1.699,6.889 6.149,5.818 l -0.699,1.567 c 1.947,1.213 6.406,3.329 13.997,3.427 10.662,0.142 16.492,-6.879 18.094,-12.104 1.257,-4.064 -0.69,-8.58 -4.707,-12.538 1.177,-1.364 1.893,-3.266 1.106,-5.888 0.363,1.213 -1.911,3.374 -4.309,3.161 -0.221,-0.018 -0.434,-0.053 -0.655,-0.115 -3.619,-1.009 -7.742,-5.419 -11.237,-8.031 -3.477,-2.612 -4.495,-6.659 -4.424,-9.528 0.053,-2.869 -0.92,-6.269 -3.654,-8.846 -2.734,-2.576 -5.184,-2.825 -5.963,-3.028 -0.787,-0.212 -1.009,-0.7 -0.929,-1.222 0.16,-0.859 1.266,-0.7 1.266,-0.7 6.636,1.328 11.483,7.908 12.554,9.838 0.991,1.771 11.467,9.962 15.519,13.548 1.893,1.381 10.095,7.677 11.564,14.132 1.743,7.704 -2.919,15 -6.857,18.435 z m -11.821,-17.515 c 1.301,0.646 3.167,1.913 4.043,3.746 0.23,0.487 0.336,0.956 0.336,1.479 0.134,2.143 -2.371,5.277 -4.592,6.101 -1.61,0.664 -3.743,0.992 -5.804,0.983 -0.655,0 -1.301,-0.027 -1.929,-0.089 0.584,-0.983 1.292,-2.178 2.079,-3.462 1.77,-2.895 3.965,-6.269 5.866,-8.757 z m -18.474,-12.742 c 1.753,-2.975 3.592,-5.897 5.459,-8.802 l 0.265,-0.398 c -0.08,0.611 -0.292,3.931 0.823,7.225 0.646,1.576 1.672,3.17 3.291,4.658 1.451,1.337 2.663,2.408 3.672,3.25 -4.901,6.34 -11.847,18.196 -11.847,18.196 -2.973,0.177 -4.459,-0.806 -6.139,-4.392 -0.24,-0.514 -0.426,-1.08 -0.567,-1.674 v -0.009 c -0.885,-3.692 -0.08,-8.447 -0.061,-8.58 0.123,-0.248 3.423,-6.623 5.104,-9.474 z m 48.972,-66.065 c 4.07,-0.992 8.096,-2.072 12.051,-3.312 l 0.345,-0.115 c -4.043,6.136 -35.878,51.72 -38.072,54.678 -0.177,-0.142 -5.645,-4.826 -5.839,-4.994 8.112,-11.281 31.055,-45.557 31.515,-46.257 z m 99.874,-236.11 c -0.505,24.244 -7.141,41.13 -7.141,41.13 -9.484,5.685 -22.429,11.75 -37.214,13.946 -30.887,4.569 -46.061,-0.053 -74.666,-9.209 -28.587,-9.156 -71.49,-28.911 -115.525,-28.618 -44.044,0.283 -75.48,19.418 -103.642,41.183 0.434,-0.133 7.344,-2.293 9.839,-3.117 0,0 -6.574,7.721 -8.573,12.016 0,0 13.103,-9.802 31.091,-8.757 0,0 -6.255,1.567 -8.865,5.481 0,0 7.299,-1.576 8.6,1.302 1.309,2.869 -3.123,9.395 -11.201,13.043 -8.078,3.657 -21.12,6.526 -29.463,7.048 0,0 8.352,2.612 13.82,7.828 0,0 -6.37,0.912 -13.298,3.648 -5.769,2.285 -16.165,3.657 -20.598,3.135 0,0 6.07,5.685 13.298,10.174 21.164,13.14 12.228,32.621 5.415,39.005 -4.486,1.275 -51.246,14.008 -61.961,89.556 0,0 23.694,-33.081 59.572,-42.219 35.886,-9.138 70.676,0 88.937,8.917 18.262,8.926 46.53,28.503 83.275,34.604 20.208,3.356 44.54,2.745 68.092,-1.762 -0.38,0.584 -18.35,27.334 -26.074,38.119 0,0 -5.733,-7.208 -13.493,-7.925 0,0 -3.256,-0.655 -5.893,0.717 v 0.009 c -2.327,1.071 -4.318,3.365 -4.964,6.544 -0.654,3.223 0.513,5.72 2.036,7.491 1.45,1.691 3.273,2.55 4.75,2.949 1.318,0.319 3.15,1.125 3.495,2.869 -3.539,5.454 -8.388,13.335 -11.883,20.95 -2.743,5.995 -4.052,11.139 -5.149,14.601 -1.035,3.551 -1.955,4.941 -2.256,5.118 l -3.725,3.285 c 0,0 1.424,5.764 1.831,6.73 -0.902,1.718 -1.354,3.613 -1.363,5.481 v 0.106 c 0,3.914 1.929,7.757 5.433,10.069 2.734,1.885 6.689,2 6.689,2 3.902,0 7.733,-1.93 10.042,-5.401 0.557,-0.841 0.983,-1.727 1.292,-2.612 2.805,-1.142 4.53,-2.736 5.424,-4.047 2.079,0.478 8.131,0.664 8.379,0.664 8.458,-0.062 16.474,-2.488 22.341,-7.491 4.716,-4.224 9.865,-11.448 10.033,-21.127 0,-1.727 0.522,-10.829 -8.211,-18.055 7.547,-10.918 16.82,-24.527 26.57,-39.288 18.129,-27.494 32.958,-51.384 44.239,-71.332 11.803,-20.278 48.733,-75.983 48.654,-152.257 -0.035,-22.225 -7.989,-36.499 -7.989,-36.499 z m -153.881,320.203 -0.009,0.027 0.027,-0.053 0.009,-0.035 -0.027,0.062 z"
           id="path3200" />
        <path
           style="fill:#d50a0a"
           inkscape:connector-curvature="0"
           d="m 358.182,245.313 c -20.598,14.584 -52.848,19.038 -52.848,19.038 -0.363,1.399 -2.495,2.869 -2.495,2.869 0,0 3.3,1.222 11.405,7.323 8.096,6.101 5.901,5.8 8.485,7.544 2.584,1.736 4.052,1.249 4.052,1.249 0.779,1.567 0.877,3.896 0.877,3.896 1.079,1.018 6.361,6.065 1.45,11.29 -4.919,5.224 -10.6,0.372 -10.6,0.372 -2.008,0.425 -3.964,-0.239 -3.964,-0.239 0,0 -10.511,6.623 -20.951,-0.593 -8.495,-5.862 -7.982,-12.813 -7.485,-15.212 -2.868,1.647 -5.947,2.931 -9.104,3.923 -8.521,2.674 -19.395,3.781 -30.198,0.186 -7.096,-2.391 -12.971,-6.535 -17.607,-11.13 -4.645,-4.604 -8.078,-9.687 -10.316,-14.265 -0.336,-0.7 -0.655,-1.39 -0.938,-2.063 -0.743,1.771 -4.3,8.493 -15.315,8.013 -12.679,-0.549 -17.076,-12.175 -17.076,-12.175 0,0 -1.955,-0.655 -3.3,-2.196 0,0 -7.45,0.443 -8.228,-6.694 -0.77,-7.137 6.494,-7.969 7.972,-8.129 0,0 1.469,-1.806 3.035,-2.586 0,0 0.885,1.284 3.99,1.452 3.106,0.168 1.177,-0.921 11.316,-0.894 10.14,0.018 13.502,1.045 13.502,1.045 0,0 -0.814,-2.462 -0.257,-3.799 0,0 -23.031,-23.022 -30.666,-47.089 -7.636,-24.067 -5.3,-32.993 3.973,-58.37 0,0 6.875,43.237 27.977,70.404 12.042,15.505 25.588,27.591 35.01,35.118 l 0.646,0.009 c -2.008,-2.24 -3.539,-4.87 -4.3,-7.881 -1.885,-7.438 -4.972,-14.353 -6.388,-19.861 -1.416,-5.516 1.734,-16.541 1.734,-16.541 -4.229,-6.783 -2.168,-17.948 -2.168,-17.948 0,0 2.292,-1.089 4.035,-3.205 1.734,-2.125 1.133,-8.394 2.548,-17.621 1.416,-9.227 7.414,-18.772 20.704,-24.2 13.219,-5.401 33.073,1.682 33.25,1.744 0.177,0.053 20.288,6.384 27.578,18.675 7.326,12.352 6.353,23.598 1.92,31.806 -4.432,8.217 -8.697,12.848 -8.582,15.593 0.106,2.736 1.283,4.985 1.283,4.985 0,0 -5.079,10.156 -12.555,13.025 0,0 -4.132,10.688 -8.591,14.229 -4.442,3.542 -11.077,7.19 -17.067,11.989 -2.362,1.895 -5.079,3.064 -7.972,3.657 l 0.575,0.425 c 12.042,-0.319 30.056,-1.78 48.91,-6.854 33.206,-8.943 64.748,-39.279 64.748,-39.279 -7.891,25.838 -11.414,34.374 -32.001,48.966 z m 31.586,-103.068 c -42.487,-0.257 -88.504,-24.182 -129.327,-33.302 -86.053,-19.215 -127.752,25.749 -127.77,25.767 0.009,-0.009 13.944,-5.083 20.969,-0.514 7.636,4.967 0.902,17.78 -1.557,20.339 -7.06,7.358 -17.209,12.795 -28.419,12.795 0,0 11.865,2.851 15.705,6.384 0,0 -11.007,1.443 -17.005,3.524 -5.99,2.09 -17.722,5.481 -20.323,5.481 0,0 30.905,14.141 11.723,44.344 0,0 13.413,-2.054 24.588,3.312 0,0 -61.226,-9.891 -81.939,57.741 7.804,-6.437 32.321,-23.748 70.49,-23.934 46.079,-0.204 65.845,10.404 84.151,21.499 27.906,16.93 49.008,21.942 65.04,24.935 46.071,8.607 92.335,-6.898 112.384,-16.248 58.192,-89.229 64.889,-139.629 65.88,-175.615 -18.801,18.94 -50.308,23.58 -64.588,23.491 z"
           id="path3202" />
        <path
           style="fill:#ffffff"
           inkscape:connector-curvature="0"
           d="m 363.861,311.7 c -4.043,6.136 -35.879,51.714 -38.073,54.671 -0.178,-0.142 -5.646,-4.826 -5.84,-4.994 8.114,-11.281 31.056,-45.551 31.516,-46.251 4.071,-0.992 8.097,-2.072 12.052,-3.312 l 0.345,-0.115 z m -66.641,79.325 c -1.054,2.639 -2.062,7.171 -1.647,10.476 0.088,0.716 0.231,1.372 0.399,2.009 v 0.01 c -2.487,11.431 -7.3,11.617 -8.574,11.449 l -0.319,-0.063 c 4.75,-4.214 4.6,-11.847 9.449,-22.455 0.221,-0.487 0.47,-0.983 0.709,-1.479 l -0.018,0.053 z m 11.821,-11.813 c -0.009,0.008 -6.142,8.033 -11.591,20.039 l 0.007,-0.032 -0.009,0.023 c -0.882,-3.692 -0.078,-8.447 -0.06,-8.58 0.123,-0.248 3.423,-6.623 5.105,-9.476 1.752,-2.974 3.592,-5.896 5.46,-8.801 l 0.265,-0.398 c -0.074,0.612 -0.294,3.931 0.823,7.225 z M 245.195,201.06 c 1.386,-1.161 4.505,-0.62 4.505,-0.62 0,0 1.4,1.473 1.73,2.574 0.321,1.109 -0.011,7.149 2.374,11.306 v -0.098 c 0,0 0.118,-0.439 0.624,-1.194 0.511,-0.755 1.502,-1.825 2.097,-1.403 0.595,0.421 0.515,1.609 0.501,2.881 -0.01,1.272 -0.439,2.631 -0.76,3.016 0,0 0.495,1.014 1.84,1.656 0,0 -0.057,-0.484 0.042,-1.175 0.212,-1.219 0.825,-2.225 1.217,-3.334 0.119,-0.388 0.498,-0.787 1.063,-0.484 0.011,0 1.124,0.581 2.11,1.074 0.114,0.083 0.8,0.607 0.434,1.591 l -0.031,0.084 -0.049,0.128 c -0.37,0.929 -0.684,1.778 -1.157,2.758 0,0 -0.242,0.905 -0.667,0.943 0,0 0.829,0.545 1.202,0.702 0.571,0.242 1.281,0.548 1.632,0.635 0,0 -0.379,-0.586 -0.283,-1.424 0.227,-1.194 0.58,-2.836 0.881,-4.211 0.104,-0.323 0.394,-0.87 1.057,-0.661 0.747,0.308 1.507,0.6 2.268,0.878 0.639,0.268 0.633,0.9 0.608,1.112 -0.349,1.519 -0.74,3.338 -1.155,4.791 -0.095,0.221 -0.227,0.532 -0.338,0.646 0,0 0.684,0.481 1.144,0.602 0.456,0.12 1.324,0.296 1.324,0.296 0,0 -0.166,-0.588 0.044,-1.214 l 0.004,-0.038 1.024,-2.924 c 0.082,-0.251 0.325,-0.804 0.463,-1.164 0.074,-0.182 0.37,-0.738 1.047,-0.595 0.893,0.268 1.79,0.515 2.691,0.74 0.667,0.197 0.285,1.221 0.285,1.221 0,0 -0.967,2.378 -1.593,3.91 l -0.007,-0.003 c 0,0 -0.211,0.539 -0.557,0.823 0,0 0.621,0.275 1.087,0.368 0.982,0.194 1.566,0.175 1.812,0.192 0,0 -0.303,-0.733 0.053,-1.61 l 0.045,-0.121 c 0.299,-0.693 0.61,-1.387 0.897,-2.083 l 0.236,-0.593 c 0.101,-0.301 0.578,-0.793 1.363,-0.653 l 0.068,0.002 c 0.626,0.118 1.253,0.223 1.88,0.32 l 0.006,0.007 c 0,0 1.122,0.23 0.712,1.282 -0.567,1.26 -1.168,2.524 -1.842,3.796 0.7,0.055 1.407,0.095 2.114,0.114 0,0 -0.088,-0.063 0.202,-0.849 0.29,-0.785 1.14,-2.46 1.225,-2.709 0.085,-0.245 0.41,-1.218 0.818,-1.266 0.411,-0.043 2.013,1.241 1.596,3.717 4.402,-1.882 7.763,-6.887 8.688,-7.569 0.809,-0.597 2.424,-0.92 2.83,-0.994 0.68,0.391 2.653,1.629 2.988,3.088 0,0 -3.316,3.054 -7.399,4.854 -4.089,1.801 -10.272,5.702 -12.709,7.328 -0.923,0.615 -2.177,1.145 -3.763,1.437 -0.989,-1.766 -4.429,-3.945 -8.838,-5.427 -4.609,-1.55 -8.841,-1.849 -10.567,-0.889 -1.258,-1.29 -2.026,-2.578 -2.42,-3.715 -0.959,-2.766 -3.546,-9.614 -5.717,-13.515 -2.174,-3.903 -2.979,-8.341 -2.979,-8.341 z m 37.512,46.908 c 8.374,-0.37 16.973,-1.202 25.412,-2.719 34.818,-6.262 56.202,-20.835 66.454,-28.938 0.937,-0.742 1.762,-1.414 2.516,-2.036 1.759,-1.426 2.853,-2.33 2.885,-2.395 -0.165,0.386 -6.725,15.466 -34.01,27.311 -1.213,0.527 -2.451,1.051 -3.748,1.563 -5.547,2.088 -17.226,6.038 -32.671,8.829 -6.244,1.128 -12.561,1.898 -18.881,2.429 -0.506,0.042 -4.17,0.311 -4.17,0.311 -1.149,-1.474 -2.409,-2.927 -3.788,-4.355 z m -9.249,10.042 c 0.019,0.823 0.008,1.651 -0.029,2.483 l -0.036,0.72 c -0.626,-0.318 -1.26,-0.635 -1.905,-0.948 -0.238,1.442 -0.589,2.866 -1.07,4.263 -0.952,-0.553 -1.925,-1.085 -2.905,-1.595 0.431,-1.338 0.769,-2.692 1.026,-4.055 -1.048,-0.476 -2.12,-0.944 -3.213,-1.401 -0.288,1.294 -0.634,2.586 -1.039,3.874 -1.003,-0.464 -2.017,-0.909 -3.037,-1.327 0.398,-1.252 0.759,-2.503 1.087,-3.748 -1.07,-0.413 -2.157,-0.814 -3.262,-1.202 -0.377,1.209 -0.767,2.43 -1.171,3.658 -1.04,-0.374 -2.08,-0.725 -3.133,-1.052 0.417,-1.224 0.841,-2.432 1.269,-3.623 -1.115,-0.355 -2.224,-0.689 -3.328,-1.003 -0.488,1.189 -0.954,2.401 -1.389,3.638 -1.063,-0.284 -2.141,-0.541 -3.219,-0.778 0.449,-1.264 0.951,-2.495 1.496,-3.697 -1.149,-0.291 -2.289,-0.562 -3.414,-0.811 -0.61,1.234 -1.151,2.509 -1.609,3.827 -1.088,-0.189 -2.185,-0.348 -3.282,-0.484 0.453,-1.388 1.026,-2.722 1.696,-4.002 -0.708,-0.135 -1.409,-0.263 -2.102,-0.383 l 0.458,-0.677 c 0.479,-0.693 0.976,-1.365 1.493,-2.014 l 0.18,-0.228 c 0.601,0.071 1.209,0.151 1.823,0.238 0.543,-0.788 1.122,-1.553 1.733,-2.293 1.024,0.132 2.023,0.282 3.002,0.447 -0.557,0.763 -1.088,1.55 -1.593,2.356 1.085,0.197 2.184,0.422 3.295,0.673 0.453,-0.83 0.925,-1.643 1.411,-2.436 0.933,0.201 1.853,0.417 2.756,0.648 -0.415,0.821 -0.821,1.661 -1.218,2.515 1.034,0.276 2.075,0.577 3.121,0.904 0.329,-0.877 0.66,-1.743 0.99,-2.594 0.878,0.273 1.748,0.564 2.613,0.876 -0.25,0.877 -0.508,1.767 -0.774,2.665 1.032,0.367 2.042,0.754 3.035,1.153 0.196,-0.916 0.378,-1.827 0.541,-2.727 0.865,0.359 1.724,0.74 2.592,1.147 -0.089,0.917 -0.203,1.842 -0.339,2.768 1.035,0.463 2.046,0.94 3.029,1.429 0.079,-0.932 0.127,-1.865 0.143,-2.793 0.883,0.459 1.77,0.944 2.666,1.456 0.042,0.936 0.044,1.871 0.005,2.803 0.541,0.296 1.071,0.593 1.593,0.893 l 0.011,0.439 z m -76.82,-68.674 c -13.666,-25.051 -10.847,-42.673 -10.847,-42.673 1.905,8.022 7.565,37.891 37.194,70.013 5.862,6.355 12.273,12.249 18.779,17.634 -1.964,0.319 -3.862,0.729 -5.67,1.223 -4.67,-4.119 -15.628,-14.936 -15.656,-14.962 -8.815,-8.881 -15.396,-17.414 -20.347,-25.348 -1.032,-1.689 -1.833,-3.081 -2.473,-4.123 z m 122.553,-18.729 c -1.681,2.338 -3.194,3.94 -3.973,5.118 -0.929,-1.665 -1.646,-3.436 -1.92,-5.207 0,0 0.513,8.731 4.937,12.928 0,0 -2.38,5.322 -2.876,8.554 -0.487,3.241 0.77,6.65 0.77,6.65 0,0 -0.319,0.514 -0.779,1.222 -2.512,2.966 -6.91,5.534 -9.272,5.1 -2.681,-0.496 -9.14,-2.692 -12.882,-1.921 -3.07,0.638 -4.919,2.373 -5.937,4.126 l 0.018,-0.009 c -0.274,0.328 -0.531,0.691 -0.708,1.116 0,0 -0.796,1.39 -1.017,3.25 -0.548,-0.239 -1.017,-0.425 -1.017,-0.425 0.009,0.097 0.009,0.23 -0.018,0.372 -0.035,0.274 -0.159,0.717 -0.176,0.779 l -0.035,0.195 -0.196,0.744 c -0.247,0.903 -0.468,1.638 -0.752,2.524 l -0.035,0.062 c -0.283,0.841 -1.133,0.567 -1.133,0.567 l -0.096,-0.035 c -0.62,-0.31 -1.302,-0.638 -2.009,-0.974 0,0 -0.796,-0.416 -0.672,-1.24 l 0.009,-0.062 0.019,-0.089 0.07,-0.221 c 0.221,-0.797 0.69,-2.506 0.752,-2.904 0.08,-0.469 0.389,-1.328 0.584,-1.665 -0.133,-0.133 -0.469,-0.496 -0.761,-0.638 -0.248,-0.124 -0.513,-0.177 -0.876,-0.151 -0.133,0.115 -0.354,0.46 -0.363,0.646 -0.009,0.106 -0.291,0.992 -0.602,1.966 -0.318,0.983 -0.681,2.063 -0.841,2.55 -0.176,0.531 -0.557,0.646 -0.867,0.646 -0.257,0 -0.46,-0.08 -0.46,-0.08 -0.618,-0.248 -1.46,-0.549 -2.123,-0.797 l -0.124,-0.044 c -0.796,-0.301 -0.743,-0.983 -0.69,-1.257 0.345,-1.027 0.787,-2.329 1.124,-3.347 l 0.23,-0.726 0.018,-0.035 c 0.027,-0.106 0.327,-0.868 0.787,-1.098 -0.301,-0.23 -0.902,-0.469 -1.353,-0.629 -0.541,-0.177 -1.505,-0.345 -1.558,-0.354 0.159,0.345 0.196,0.947 0.115,1.249 -0.115,0.398 -1.177,4.109 -1.221,4.25 -0.053,0.142 -0.239,0.584 -0.531,0.691 -0.283,0.106 -1.079,-0.151 -1.079,-0.151 l -0.133,-0.027 c -0.672,-0.204 -1.628,-0.354 -2.264,-0.531 0,0 -1.045,-0.301 -0.718,-1.257 0,0 0.681,-2.497 1.017,-3.684 l 0.018,-0.106 c 0.027,-0.089 0.177,-0.584 0.23,-1.337 0.053,-0.753 -0.451,-0.93 -0.823,-0.93 -0.353,0 -0.743,0.638 -0.831,1.009 -0.098,0.398 -0.319,1.063 -0.319,1.063 l -0.027,0.062 v 0.009 l -0.071,0.168 c -0.363,0.965 -0.646,1.762 -0.973,2.727 -0.344,0.912 -1.363,0.726 -1.363,0.726 -0.761,-0.159 -1.495,-0.31 -2.177,-0.434 l -0.097,-0.035 c 0,0 -0.849,-0.292 -0.566,-1.133 l 0.018,-0.08 c 0.302,-0.877 0.557,-1.585 0.911,-2.462 0.097,-0.23 0.451,-1.071 0.655,-1.399 0.212,-0.328 0.495,-0.505 0.495,-0.505 0.01,-0.195 -0.283,-0.558 -0.814,-0.744 l -0.212,-0.053 c 0.31,-0.77 0.699,-1.833 0.885,-2.727 0.584,-2.169 0.513,-5.224 -2,-8.102 -2.522,-2.878 -9.007,-5.021 -11.431,-6.243 -2.433,-1.222 -4.619,-7.093 -4.327,-11.148 0,0 3.052,-1.966 4.61,-4.844 1.575,-2.869 2.867,-8.545 2.867,-8.545 5.884,-0.664 11.387,-6.933 11.724,-7.323 -1.461,1.408 -3.372,2.462 -5.354,3.276 0.106,-1.346 -0.115,-3.613 -0.053,-6.969 0.088,-4.596 4.946,-23.509 30.135,-19.215 4.645,0.965 8.37,2.09 9.343,2.4 l 0.283,0.097 c 0.478,0.151 1.133,0.363 1.921,0.655 l 0.716,0.274 c 0.327,0.124 0.672,0.257 1.035,0.407 0.478,0.195 0.982,0.407 1.513,0.638 0.522,0.239 1.071,0.487 1.638,0.762 1.229,0.593 2.538,1.293 3.857,2.09 l 0.389,0.23 0.115,0.071 c 10.255,6.243 13.068,13.866 13.068,20.171 0,5.543 -2.177,10.077 -3.371,11.75 z m -125.398,75.232 c 0.459,-0.933 1.331,-2.025 2.678,-2.901 1.162,-0.763 2.822,-1.283 4.268,-1.563 0.697,0.014 1.394,0.035 2.09,0.07 1.099,0.053 2.197,0.132 3.293,0.23 2.207,0.197 4.775,0.491 6.964,0.838 -1.314,0.437 -3.125,1.297 -4.345,3.228 l -0.048,0.05 c -2.115,-0.366 -10.484,-0.475 -14.9,0.047 z m -1.862,0.12 c -5.323,0 -6.275,-4.033 -6.294,-4.106 0.44,0.188 0.887,0.317 1.347,0.404 l -0.027,-0.002 0.027,0.002 c 0.484,0.092 0.985,0.13 1.505,0.132 1.635,0.015 3.332,-0.294 5.1,-0.54 1.995,-0.279 4.009,-0.477 6.024,-0.487 0.311,-0.002 0.93,0.011 0.883,0.016 -1.623,0.089 -4.19,0.685 -5.825,1.668 l -0.027,0.019 c -0.935,0.545 -1.933,1.462 -2.442,2.424 -0.034,0.063 -0.219,0.414 -0.27,0.47 z m 108.51,25.889 0.439,0.242 c 0.72,0.406 1.443,0.807 2.158,1.218 1.508,0.87 2.996,1.774 4.46,2.715 1.046,0.672 2.083,1.362 3.092,2.087 l 0.385,0.285 c 0.987,1.099 1.993,2.511 2.459,3.823 0.549,1.511 0.587,2.909 0.391,3.932 -3.207,-3.089 -9.951,-8.049 -11.849,-9.033 0.185,-2.269 -0.752,-4.132 -1.535,-5.269 z m 14.374,11.537 c -0.649,-1.702 -3.606,-4.823 -3.671,-4.877 0,0 1.782,1.43 1.931,1.542 0.678,0.514 2.131,1.859 2.799,2.516 0.551,0.545 1.102,1.089 1.647,1.64 0.401,0.406 2.059,1.972 2.621,2.391 0.426,0.317 0.857,0.597 1.305,0.816 0.41,0.201 0.834,0.36 1.284,0.468 l -0.042,0.03 c -0.923,0.692 -2.008,1.147 -3.175,1.147 -0.401,0 -0.835,-0.059 -1.224,-0.153 -0.544,-0.133 -1.065,-0.331 -1.563,-0.588 -0.314,-0.164 -0.622,-0.339 -0.918,-0.537 -0.181,-0.121 -0.365,-0.253 -0.551,-0.394 l -0.014,-0.023 c 0.052,-0.24 0.094,-0.496 0.111,-0.783 0.063,-1.04 -0.152,-2.233 -0.541,-3.196 z"
           id="Combined-Shape" />
        <path
           style="fill:#b1babf"
           inkscape:connector-curvature="0"
           d="m 378.992,306.183 c -5.769,9.129 -37.242,56.584 -44.685,67.361 l -0.176,-0.133 c -1.089,-0.992 -2.495,-2.188 -4.052,-3.489 2.538,-3.622 31.632,-46.915 40.162,-60.33 2.983,-1.055 5.885,-2.205 8.751,-3.409 z m -53.646,92.969 c 0.134,2.144 -2.371,5.278 -4.593,6.103 -1.61,0.664 -3.743,0.992 -5.805,0.982 -0.655,0 -1.299,-0.026 -1.928,-0.088 0.584,-0.984 1.293,-2.178 2.078,-3.462 1.77,-2.896 3.966,-6.27 5.867,-8.758 1.301,0.646 3.167,1.913 4.043,3.746 0.23,0.487 0.337,0.956 0.337,1.478 z m -13.014,-15.283 c 1.452,1.337 2.663,2.408 3.673,3.251 -4.902,6.34 -11.848,18.196 -11.848,18.196 -2.972,0.178 -4.46,-0.805 -6.14,-4.392 -0.24,-0.514 -0.425,-1.08 -0.566,-1.674 5.448,-12.006 11.582,-20.031 11.591,-20.039 0.646,1.576 1.672,3.17 3.291,4.658 z m 27.314,9.139 c 1.744,7.704 -2.919,15 -6.857,18.436 -3.946,3.444 -10.654,5.64 -17.661,5.508 -6.247,-0.125 -10.635,-1.133 -14.607,-3.294 l -0.036,0.133 c -0.31,0.265 -0.939,1.708 -5.53,2.391 -3.08,0.505 -4.866,-0.115 -5.053,-0.177 5.416,5.482 10.316,2.028 10.316,2.028 0.232,0.957 0.566,1.638 0.566,1.638 0,0 -1.627,2.392 -6.582,1.568 -0.603,-0.098 -1.116,-0.266 -1.619,-0.452 l 0.282,0.151 c 1.903,1.249 2.415,3.808 1.169,5.702 -1.266,1.905 -3.813,2.418 -5.716,1.17 -1.894,-1.257 -2.416,-3.816 -1.16,-5.711 1.026,-1.558 2.901,-2.17 4.592,-1.665 -3.716,-1.789 -4.672,-5.527 -4.672,-5.527 l 0.319,0.063 c 1.274,0.168 6.087,-0.018 8.574,-11.449 0.071,0.292 1.699,6.888 6.149,5.817 l -0.699,1.568 c 1.946,1.213 6.406,3.329 13.997,3.427 10.662,0.142 16.493,-6.88 18.095,-12.104 1.256,-4.065 -0.69,-8.581 -4.708,-12.539 1.177,-1.364 1.894,-3.267 1.106,-5.889 0.363,1.214 -1.911,3.375 -4.31,3.162 -0.221,-0.019 -0.432,-0.054 -0.653,-0.115 -3.62,-1.01 -7.744,-5.42 -11.238,-8.032 -3.477,-2.612 -4.495,-6.659 -4.424,-9.528 0.051,-2.87 -0.921,-6.27 -3.655,-8.847 -2.734,-2.577 -5.184,-2.825 -5.963,-3.028 -0.788,-0.213 -1.01,-0.7 -0.93,-1.222 0.161,-0.859 1.267,-0.7 1.267,-0.7 6.636,1.328 11.484,7.907 12.554,9.838 0.992,1.772 11.468,9.962 15.52,13.549 1.894,1.381 10.096,7.678 11.564,14.133 z m -75.625,-157.41 c -3.457,-1.164 -6.26,-2.574 -9.163,-5.704 -2.56,-2.759 -3.829,-8.004 -4.561,-10.699 -0.105,-0.385 -0.198,-0.719 -0.285,-0.986 -0.677,-2.129 -3.428,-9.938 -4.012,-11.763 -0.587,-1.828 -1.071,-3.352 -0.712,-6.49 0.335,-2.948 1.798,-9.013 1.981,-9.761 l 0.017,-0.076 c 0,0 2.402,1.166 3.151,1.604 l -0.012,0.078 c -0.09,0.673 -0.724,5.469 -0.756,7.776 -0.004,0.354 0.003,0.65 0.033,0.862 0,0 -3.12,-0.541 -4.505,0.62 0,0 0.805,4.438 2.979,8.341 2.17,3.9 4.757,10.749 5.717,13.515 0.394,1.136 1.162,2.424 2.42,3.715 1.726,-0.96 5.958,-0.661 10.567,0.889 4.409,1.482 7.849,3.661 8.838,5.427 1.586,-0.292 2.84,-0.823 3.763,-1.437 2.437,-1.626 8.62,-5.527 12.709,-7.328 4.083,-1.8 7.399,-4.854 7.399,-4.854 -0.335,-1.458 -2.308,-2.696 -2.988,-3.088 l 0.095,-0.015 c 1.134,-1.148 4.248,-6.645 4.633,-7.326 l 0.04,-0.071 c 0.864,0.105 3.475,0.621 3.475,0.621 0,0 -2.72,6.33 -4.331,9.056 -1.606,2.715 -2.914,3.639 -4.48,4.746 -1.563,1.103 -8.467,5.669 -10.295,6.958 -1.822,1.29 -6.67,5.643 -10.904,6.395 -2.1,0.372 -3.921,0.417 -5.649,0.223 -1.728,-0.195 -3.367,-0.628 -5.095,-1.207 l -0.031,-0.012 -0.035,-0.008 z m 9.394,-69.523 c -3.247,-3.392 -9.194,-6.934 -9.194,-7.049 4.407,-1.098 11.565,5.578 15.776,9.095 3.584,3.17 5.151,3.471 5.47,3.56 0.326,0.124 1.751,0.831 6.503,0.46 5.486,-0.256 15.219,-1.265 18.077,2.277 0,0.097 -6.919,-0.682 -11.583,0.071 -4.636,0.983 -11.218,1.612 -14.139,0.593 -2.937,-0.948 -7.813,-5.428 -10.909,-9.005 z m -18.165,16.85 c -3.752,-2.524 -3.522,-5.738 -3.195,-9.182 0.319,-3.436 3.937,-10.069 3.937,-10.069 l 0.054,0.035 0.018,0.009 0.248,0.257 c 0.664,1.001 -0.487,3.49 -0.487,3.49 -0.292,0.726 -0.523,1.47 -0.718,2.223 -0.664,2.577 -0.911,5.773 0.15,8.341 0.044,0.089 0.718,1.257 0.682,1.293 l -0.196,0.151 -0.211,0.142 c -1.841,1.08 -0.398,3.152 -0.283,3.312 z m 11.927,2.126 c 3.202,0.354 7.452,-4.357 8.45,-5.668 0.992,-1.301 2.513,-3.63 2.513,-3.63 0.964,2.099 8.565,4.649 10.645,3.577 -0.01,0.044 -0.203,2.78 -0.196,4.41 0.009,1.639 0.567,7.97 3.337,9.627 h 0.009 c 0,0 -0.692,0.823 0.193,3.4 -0.212,-0.071 -3.681,-1.355 -4.927,-4.163 -1.292,-2.888 -0.035,-10.644 -4.672,-12.265 -4.673,-1.513 -8.344,5.438 -11.124,6.961 -2.768,1.522 -6.449,0.344 -6.449,0.344 2.283,-1.522 2.221,-2.594 2.221,-2.594 z m 19.67,27.087 c -0.213,-0.115 -1.292,-0.593 -1.292,-0.602 0.221,-1.859 1.017,-3.25 1.017,-3.25 0,0 1.566,-1.107 4.37,-0.973 l -0.017,0.026 0.017,-0.009 c -0.079,0.213 -0.715,1.957 -0.885,3.489 -0.096,0.947 -0.557,3.339 -0.557,3.357 -0.823,2.869 -3.583,4.453 -3.832,4.295 -0.292,-0.186 -0.672,-0.885 0.566,-4.853 0,-0.194 0.638,-0.424 0.779,-0.415 l 0.769,-0.124 c 0,0 -0.071,-0.151 -0.336,-0.531 -0.115,-0.187 -0.415,-0.302 -0.601,-0.408 z m 19.236,-7.163 c 2.362,0.434 6.752,-2.135 9.264,-5.1 l -0.062,0.097 c -1.044,1.86 -2.45,3.853 -4.168,5.145 -2,1.505 -2.981,2.665 -8.528,1.354 -2.177,-0.522 -4.381,-0.991 -6.6,-1.265 -2.841,-0.363 -6.601,-0.46 -8.672,1.929 l -0.035,0.036 -0.035,0.027 c 1.026,-1.762 2.876,-3.506 5.955,-4.144 3.743,-0.771 10.201,1.425 12.883,1.921 z m -81.836,31.029 c -2.575,-2.281 -5.084,-4.635 -7.515,-7.068 -5.664,-5.67 -10.888,-11.794 -15.467,-18.374 -3.719,-5.342 -7.058,-10.968 -9.758,-16.895 -2.639,-5.79 -4.791,-11.79 -6.137,-18.017 -1.267,-5.862 -1.829,-11.89 -1.512,-17.883 0.187,-3.542 0.618,-7.225 1.762,-10.599 l 0.171,-0.506 c 0,0 -2.819,17.623 10.847,42.673 l -0.078,-0.141 c 0,0 9.938,24.601 36.064,47.41 -1.867,0.651 -3.622,1.359 -5.229,2.126 -0.257,0.122 -2.833,-2.446 -3.149,-2.726 z m -30.454,9.835 c 4.417,-0.522 12.785,-0.413 14.9,-0.047 l 0.048,-0.05 c -0.328,0.521 -0.624,1.099 -0.841,1.787 -0.349,1.081 -0.611,1.97 -0.814,2.695 -5.091,-1.398 -13.189,-1.83 -13.189,-1.83 -0.232,-0.341 -0.47,-0.8 -0.484,-1.309 -0.007,-0.333 0.15,-0.775 0.38,-1.247 z m 25.236,-12.078 c 0.484,-0.128 0.669,0.492 0.669,0.492 0.912,3.779 -1.341,7.892 -2.088,8.919 -0.75,1.024 -2.747,9.812 -3.536,12.071 0,0 -0.93,2.317 -1.3,3.065 -0.816,1.633 -4.317,5.968 -13.403,3.079 -8.323,-2.643 -10.549,-11.137 -10.861,-12.559 -2.837,-1.828 -2.758,-5.261 -2.758,-5.261 -1.396,3.804 0.899,5.546 1.438,5.895 -0.062,-0.041 -0.539,0.458 -0.595,0.523 l -0.124,0.16 c 0,0 -0.816,-0.154 -1.566,-1.215 -0.312,-0.443 -0.617,-1.025 -0.84,-1.845 -0.081,-0.296 -0.134,-0.582 -0.164,-0.856 l -0.009,0.093 c -0.194,1.286 -1.396,2.168 -2.679,1.975 -1.282,-0.194 -2.17,-1.398 -1.977,-2.684 0.193,-1.287 1.396,-2.171 2.678,-1.974 1.012,0.151 1.777,0.932 1.96,1.889 0.072,-2.317 1.761,-3.675 1.761,-3.675 0.019,0.073 0.971,4.106 6.294,4.106 -0.185,0.399 -0.306,0.772 -0.299,1.062 0.018,0.52 0.29,0.999 0.543,1.329 h -0.028 c -0.19,0 -2.255,-0.011 -2.257,0.137 1.126,6.946 6.555,11.06 10.843,11.893 4.189,0.815 6.491,-0.35 8.02,-3.175 0.97,0.443 2.162,0.521 3.424,-0.526 -1.848,0.079 -2.65,-1.042 -2.79,-1.852 -0.367,-2.128 0.957,-5.351 1.472,-7.798 0.522,-2.448 2.38,-3.947 3.889,-4.609 1.514,-0.662 3.048,-1.988 3.733,-4.044 0.682,-2.047 0.214,-3.382 0.138,-3.839 -0.08,-0.459 0.12,-0.694 0.41,-0.775 z m 99.262,55.145 c 0.388,0.094 0.823,0.153 1.224,0.153 1.167,0 2.252,-0.454 3.175,-1.147 l 0.032,-0.021 c 0.01,0.004 0.088,0.566 0.093,0.69 0.038,0.727 -0.042,1.883 -0.724,3.011 0.703,-0.537 1.685,-0.651 2.517,-0.196 1.131,0.611 1.552,2.029 0.937,3.157 -0.61,1.131 -2.025,1.554 -3.156,0.939 -1.092,-0.593 -1.496,-1.925 -0.972,-3.032 -0.181,0.187 -0.355,0.377 -0.582,0.555 -1.34,1.029 -2.385,1.188 -3.037,1.148 -0.463,-0.029 -0.731,-0.158 -0.731,-0.158 0,0 0.027,-0.294 -0.104,-0.783 l -0.052,-0.199 c 0.159,0.014 0.455,0.019 0.823,-0.033 1.133,-0.161 2.986,-0.88 3.874,-3.8 0,0 -0.218,0.283 -0.591,0.65 -0.816,0.806 -2.496,2.012 -4.808,1.84 -1.11,0.952 -7.978,6.415 -16.207,3.5 -8.987,-3.185 -9.056,-8.737 -8.831,-10.55 0.147,-1.185 0.779,-3.135 0.81,-3.23 0.731,-2.274 4.438,-10.484 4.457,-11.755 0.021,-1.272 0.702,-5.913 3.711,-8.376 0,0 0.517,-0.383 0.825,0.008 0.181,0.241 0.203,0.553 -0.14,0.869 -0.335,0.318 -1.509,1.102 -2.203,3.143 -0.696,2.054 -0.265,4.04 0.537,5.479 0.745,1.336 1.062,2.947 0.805,4.46 -0.088,0.537 -0.252,1.076 -0.481,1.569 -0.569,1.217 -1.015,2.488 -1.53,3.729 -0.564,1.352 -1.189,2.611 -1.994,3.377 -0.894,0.849 -2.336,0.587 -3.22,-0.128 l -0.115,-0.08 c 0.372,1.598 1.373,2.238 2.41,2.468 -0.486,3.189 0.645,5.509 4.481,7.393 3.925,1.924 10.733,1.918 15.817,-2.939 -0.509,-0.573 -1.118,-0.993 -1.711,-1.468 l -0.026,-0.019 c 0.395,-0.114 0.905,-0.331 1.23,-0.736 0.181,-0.226 0.31,-0.598 0.403,-1.025 l 0.021,0.016 c 0.187,0.141 0.37,0.273 0.551,0.394 0.296,0.198 0.603,0.374 0.918,0.537 0.498,0.257 1.019,0.455 1.563,0.588 z m -16.735,-9.925 c 0.242,-0.691 0.419,-1.863 0.419,-1.863 1.898,0.984 8.642,5.944 11.849,9.033 -0.101,0.514 -0.242,0.961 -0.446,1.222 -0.319,0.399 -0.781,0.619 -1.179,0.753 -2.821,-1.933 -7.107,-4.468 -11.625,-6.504 0.279,-0.699 0.6,-1.566 0.981,-2.64 z M 288.683,131.062 c -25.19,-4.295 -30.047,14.619 -30.135,19.215 -0.062,3.356 0.159,5.623 0.053,6.969 -3.663,1.532 -7.583,2.09 -7.583,2.09 0.212,-2.125 0.203,-6.818 1.115,-10.519 0.858,-3.48 6.662,-18.675 27.065,-18.763 2.115,0 4.38,0.151 6.813,0.496 0.876,0.151 1.725,0.319 2.548,0.487 l 0.124,0.027 z m 36.523,42.254 c 1.513,-3.834 7.326,-23.89 -19.049,-36.588 l -1.025,-0.434 c 1.229,0.593 2.538,1.293 3.857,2.09 l 0.389,0.23 0.115,0.071 c 10.255,6.243 13.068,13.866 13.068,20.171 0,5.543 -2.177,10.077 -3.371,11.75 -1.681,2.338 -3.194,3.94 -3.973,5.118 1.417,2.559 3.3,4.844 4.699,6.375 1.194,-1.939 3.919,-5.339 5.29,-8.784 z m -11.913,9.796 0.355,-0.053 0.079,0.008 c 0,0 -1.106,7.474 -2.929,10.405 -1.824,2.941 -3.565,5.65 -8.097,5.402 0,0 2.628,-0.762 1.788,-2.826 -0.062,-0.15 -0.106,-0.3 -0.142,-0.46 1.212,-0.682 2.3,-1.195 3.291,-2.231 1.318,-1.373 2.361,-3.065 3.114,-4.8 0.328,-0.771 0.603,-1.558 0.825,-2.364 0,0 0.584,-2.684 1.716,-3.081 z m -62.451,5.977 c -5.211,-2.293 -5.291,-3.816 -5.99,-6.225 -0.08,-0.302 -0.15,-0.656 -0.203,-1.046 -0.097,-0.769 -0.124,-1.691 -0.124,-2.603 0,-2.276 0.23,-4.534 0.23,-4.534 -0.292,4.055 1.893,9.927 4.327,11.149 2.424,1.221 8.91,3.364 11.433,6.243 2.513,2.878 2.584,5.934 2,8.103 -0.187,0.893 -0.576,1.957 -0.885,2.727 -0.17,-0.044 -0.346,-0.071 -0.522,-0.089 -0.513,-0.062 -1.328,-0.116 -1.497,0.522 l -0.017,0.044 c 0.08,0.274 0.142,0.611 0.106,0.797 -0.045,0.204 -0.115,0.39 -0.15,0.479 -1.389,3.905 -2.123,4.241 -2.469,4.214 -0.292,-0.017 -1.54,-2.957 -0.469,-5.739 l 0.017,-0.052 c 0.549,-1.241 1.071,-2.144 1.558,-2.958 0.858,-1.417 1.407,-3.337 1.407,-3.337 l 0.017,0.035 v -0.027 c 0.718,0.488 1.327,1.081 1.894,1.727 l 0.026,0.036 c 0.257,0.425 0.655,0.752 0.885,1.204 0.063,0.132 0.107,0.257 0.107,0.353 0.194,-0.744 0.168,-1.646 -0.116,-2.372 l -0.026,-0.08 c -1.052,-2.879 -3.778,-4.57 -6.309,-6.004 -1.69,-0.956 -3.451,-1.79 -5.229,-2.568 z m 32.562,4.428 c 0.043,0.982 0.265,1.504 0.503,2.177 0.241,0.63 0.533,1.63 0.161,2.656 l -0.47,1.399 c -0.627,1.887 -2.893,2.817 -5.051,2.099 v -0.01 c 0,0 1.449,-0.371 1.92,-1.761 l 0.017,-0.053 c 0.894,-0.134 1.673,-0.664 1.954,-1.514 l 0.496,-1.461 c 0.495,-1.496 -0.61,-2.17 -0.672,-4.588 -0.088,-1.249 -0.176,-2.462 0.31,-3.905 0.39,-1.17 -0.263,-2.465 -1.483,-3.003 2,0.801 3.112,2.811 2.509,4.614 -0.38,1.151 -0.292,2.072 -0.204,3.294 l 0.011,0.035 v 0.019 z m -11.724,1.38 c -0.284,0.842 0.017,1.728 0.637,2.374 l -0.019,0.062 c -0.468,1.399 0.469,2.567 0.469,2.567 -2.149,-0.725 -3.389,-2.833 -2.761,-4.711 l 0.471,-1.399 c 0.326,-1.046 1.148,-1.674 1.734,-2.028 0.601,-0.39 1.088,-0.673 1.716,-1.426 l 0.026,-0.036 v -0.009 c 0.825,-0.911 1.461,-1.602 1.84,-2.753 0.612,-1.789 2.708,-2.736 4.815,-2.143 -1.302,-0.329 -2.62,0.319 -3.009,1.488 -0.487,1.452 -1.309,2.355 -2.123,3.294 -1.513,1.895 -2.806,1.762 -3.3,3.259 l -0.495,1.46 z m 74.284,44.293 c 27.285,-11.846 33.844,-26.925 34.01,-27.311 l -0.162,0.483 c -2.032,5.864 -5.796,11.32 -9.917,15.901 -2.995,3.331 -6.26,6.365 -9.744,9.179 -5.343,4.315 -11.419,7.814 -17.614,10.742 -6.154,2.908 -12.606,5.217 -19.161,7.037 -10.253,2.845 -21.101,4.337 -31.821,4.939 -0.818,-1.589 -1.793,-3.213 -2.895,-4.851 34.453,-2.469 57.131,-15.979 57.131,-15.979 l 0.173,-0.138 z"
           id="path3205" />
        <path
           style="fill:#0a0a08"
           inkscape:connector-curvature="0"
           d="m 325.436,235.626 c 33.206,-8.943 64.748,-39.279 64.748,-39.279 -7.891,25.838 -11.414,34.374 -32.001,48.966 -20.598,14.584 -52.848,19.038 -52.848,19.038 -0.363,1.399 -2.495,2.869 -2.495,2.869 0,0 3.3,1.222 11.405,7.323 8.096,6.101 5.901,5.8 8.485,7.544 2.584,1.736 4.052,1.249 4.052,1.249 0.779,1.567 0.877,3.896 0.877,3.896 1.079,1.018 6.361,6.065 1.45,11.29 -4.919,5.224 -10.6,0.372 -10.6,0.372 -2.008,0.425 -3.964,-0.239 -3.964,-0.239 0,0 -10.511,6.623 -20.951,-0.593 -8.495,-5.862 -7.982,-12.813 -7.485,-15.212 -2.868,1.647 -5.947,2.931 -9.104,3.923 -8.521,2.674 -19.395,3.781 -30.198,0.186 -7.096,-2.391 -12.971,-6.535 -17.607,-11.13 -4.645,-4.604 -8.078,-9.687 -10.316,-14.265 -0.336,-0.7 -0.655,-1.39 -0.938,-2.063 -0.743,1.771 -4.3,8.493 -15.315,8.013 -12.679,-0.549 -17.076,-12.175 -17.076,-12.175 0,0 -1.955,-0.655 -3.3,-2.196 0,0 -7.45,0.443 -8.228,-6.694 -0.77,-7.137 6.494,-7.969 7.972,-8.129 0,0 1.469,-1.806 3.035,-2.586 0,0 0.885,1.284 3.99,1.452 3.106,0.168 1.177,-0.921 11.316,-0.894 10.14,0.018 13.502,1.045 13.502,1.045 0,0 -0.814,-2.462 -0.257,-3.799 0,0 -23.031,-23.022 -30.666,-47.089 -7.636,-24.067 -5.3,-32.993 3.973,-58.37 0,0 6.875,43.237 27.977,70.404 12.042,15.505 25.588,27.591 35.01,35.118 l 0.646,0.009 c -2.008,-2.24 -3.539,-4.87 -4.3,-7.881 -1.885,-7.438 -4.972,-14.353 -6.388,-19.861 -1.416,-5.516 1.734,-16.541 1.734,-16.541 -4.229,-6.783 -2.168,-17.948 -2.168,-17.948 0,0 2.292,-1.089 4.035,-3.205 1.734,-2.125 1.133,-8.394 2.548,-17.621 1.416,-9.227 7.414,-18.772 20.704,-24.2 13.219,-5.401 33.073,1.682 33.25,1.744 0.177,0.053 20.288,6.384 27.578,18.675 7.326,12.352 6.353,23.598 1.92,31.806 -4.432,8.217 -8.697,12.848 -8.582,15.593 0.106,2.736 1.283,4.985 1.283,4.985 0,0 -5.079,10.156 -12.555,13.025 0,0 -4.132,10.688 -8.591,14.229 -4.442,3.542 -11.077,7.19 -17.067,11.989 -2.362,1.895 -5.079,3.064 -7.972,3.657 l 0.575,0.425 c 12.042,-0.319 30.056,-1.78 48.91,-6.854 z m -80.789,-53.81 c 0.053,0.39 0.124,0.744 0.203,1.045 0.699,2.408 0.779,3.931 5.99,6.225 1.778,0.779 3.539,1.612 5.229,2.568 2.53,1.434 5.256,3.126 6.308,6.003 l 0.027,0.08 c 0.282,0.726 0.309,1.629 0.114,2.373 0,-0.097 -0.044,-0.221 -0.106,-0.354 -0.229,-0.452 -0.628,-0.779 -0.885,-1.204 l -0.027,-0.035 c -0.566,-0.646 -1.177,-1.24 -1.893,-1.727 v 0.027 l -0.018,-0.035 c 0,0 -0.549,1.921 -1.407,3.338 -0.487,0.815 -1.009,1.718 -1.557,2.957 l -0.018,0.053 c -1.071,2.78 0.177,5.72 0.469,5.738 0.345,0.027 1.079,-0.31 2.469,-4.215 0.035,-0.089 0.106,-0.274 0.15,-0.478 0.035,-0.186 -0.027,-0.522 -0.106,-0.797 l 0.018,-0.044 c 0.168,-0.638 0.982,-0.584 1.495,-0.522 0.177,0.018 0.354,0.044 0.522,0.089 l 0.212,0.053 c 0.531,0.186 0.824,0.549 0.814,0.744 0,0 -0.283,0.177 -0.495,0.505 -0.203,0.328 -0.557,1.169 -0.655,1.399 -0.354,0.877 -0.61,1.585 -0.911,2.462 l -0.018,0.08 c -0.283,0.841 0.566,1.133 0.566,1.133 l 0.097,0.035 c 0.681,0.124 1.416,0.274 2.177,0.434 0,0 1.018,0.186 1.363,-0.726 0.327,-0.965 0.61,-1.762 0.973,-2.727 l 0.071,-0.168 v -0.009 l 0.027,-0.062 c 0,0 0.221,-0.664 0.319,-1.063 0.088,-0.372 0.478,-1.009 0.831,-1.009 0.372,0 0.876,0.177 0.823,0.93 -0.053,0.753 -0.203,1.249 -0.23,1.337 l -0.018,0.106 c -0.336,1.187 -1.017,3.684 -1.017,3.684 -0.327,0.956 0.718,1.257 0.718,1.257 0.636,0.177 1.592,0.328 2.264,0.531 l 0.133,0.027 c 0,0 0.796,0.257 1.079,0.151 0.292,-0.106 0.478,-0.549 0.531,-0.691 0.044,-0.142 1.106,-3.852 1.221,-4.25 0.081,-0.301 0.044,-0.903 -0.115,-1.249 0.053,0.009 1.017,0.177 1.558,0.354 0.45,0.159 1.052,0.398 1.353,0.629 -0.46,0.23 -0.761,0.992 -0.787,1.098 l -0.018,0.035 -0.23,0.726 c -0.336,1.018 -0.779,2.32 -1.124,3.347 -0.053,0.274 -0.106,0.956 0.69,1.257 l 0.124,0.044 c 0.664,0.248 1.505,0.549 2.123,0.797 0,0 0.203,0.08 0.46,0.08 0.31,0 0.691,-0.115 0.867,-0.646 0.159,-0.487 0.523,-1.567 0.841,-2.55 0.311,-0.974 0.593,-1.859 0.602,-1.966 0.009,-0.186 0.23,-0.531 0.363,-0.646 0.363,-0.027 0.628,0.027 0.876,0.151 0.292,0.142 0.628,0.505 0.761,0.638 -0.195,0.336 -0.504,1.195 -0.584,1.665 -0.062,0.398 -0.531,2.107 -0.752,2.904 l -0.07,0.221 -0.019,0.089 -0.009,0.062 c -0.124,0.823 0.672,1.24 0.672,1.24 0.708,0.336 1.389,0.664 2.009,0.974 l 0.096,0.035 c 0,0 0.849,0.274 1.133,-0.567 l 0.035,-0.062 c 0.284,-0.885 0.505,-1.62 0.752,-2.524 l 0.196,-0.744 0.035,-0.195 c 0.017,-0.062 0.141,-0.505 0.176,-0.779 0.027,-0.142 0.027,-0.274 0.018,-0.372 0,0 0.47,0.186 1.017,0.425 0,0.009 1.079,0.487 1.292,0.602 0.186,0.106 0.487,0.221 0.602,0.416 0.265,0.372 0.336,0.522 0.336,0.522 l -0.77,0.124 c -0.142,-0.009 -0.779,0.221 -0.779,0.416 -1.239,3.967 -0.858,4.666 -0.565,4.852 0.247,0.159 3.007,-1.417 3.83,-4.286 0,-0.027 0.46,-2.417 0.558,-3.365 0.167,-1.532 0.804,-3.276 0.885,-3.489 l -0.019,0.009 0.019,-0.027 c -2.806,-0.133 -4.372,0.974 -4.372,0.974 0.177,-0.425 0.434,-0.788 0.708,-1.116 l 0.035,-0.035 c 2.07,-2.391 5.831,-2.293 8.671,-1.93 2.221,0.274 4.424,0.744 6.6,1.266 5.556,1.31 6.531,0.151 8.529,-1.355 1.726,-1.293 3.132,-3.285 4.176,-5.145 l 0.062,-0.097 c 0.46,-0.708 0.779,-1.222 0.779,-1.222 0,0 -1.256,-3.409 -0.77,-6.65 0.495,-3.232 2.876,-8.554 2.876,-8.554 -4.424,-4.197 -4.937,-12.928 -4.937,-12.928 0.274,1.771 0.991,3.542 1.92,5.207 1.417,2.559 3.3,4.844 4.699,6.375 1.194,-1.939 3.919,-5.339 5.29,-8.784 1.513,-3.834 7.326,-23.89 -19.049,-36.588 l -1.025,-0.434 c -0.567,-0.274 -1.116,-0.522 -1.638,-0.762 -0.531,-0.239 -1.035,-0.452 -1.513,-0.638 -0.363,-0.151 -0.708,-0.283 -1.035,-0.407 l -0.716,-0.274 c -0.788,-0.292 -1.443,-0.505 -1.921,-0.655 l -0.283,-0.097 c -0.973,-0.31 -4.698,-1.434 -9.343,-2.4 l -0.124,-0.027 c -0.823,-0.168 -1.672,-0.336 -2.548,-0.487 -2.433,-0.345 -4.698,-0.496 -6.813,-0.496 -20.403,0.089 -26.207,15.283 -27.065,18.763 -0.911,3.701 -0.902,8.394 -1.115,10.519 0,0 3.92,-0.558 7.583,-2.09 1.982,-0.815 3.893,-1.868 5.354,-3.276 -0.337,0.39 -5.84,6.659 -11.724,7.323 0,0 -1.292,5.676 -2.867,8.545 -1.557,2.878 -4.61,4.844 -4.61,4.844 0,0 -0.23,2.258 -0.23,4.534 0,0.912 0.027,1.833 0.124,2.603 z m 5.654,37.376 c 0.726,2.701 2,7.943 4.557,10.705 2.903,3.126 5.707,4.534 9.166,5.702 l 0.027,0.009 0.035,0.009 c 1.725,0.584 3.362,1.009 5.096,1.204 1.725,0.195 3.548,0.151 5.646,-0.221 4.237,-0.753 9.086,-5.1 10.908,-6.393 1.823,-1.293 8.733,-5.853 10.291,-6.96 1.565,-1.107 2.876,-2.028 4.485,-4.746 1.61,-2.727 4.327,-9.058 4.327,-9.058 0,0 -2.61,-0.514 -3.477,-0.62 l -0.035,0.071 c -0.389,0.682 -3.504,6.181 -4.635,7.332 l -0.089,0.018 c -0.407,0.071 -2.026,0.39 -2.831,0.992 -0.929,0.682 -4.291,5.685 -8.688,7.571 0.416,-2.479 -1.185,-3.763 -1.601,-3.719 -0.407,0.044 -0.725,1.018 -0.814,1.266 -0.088,0.248 -0.938,1.921 -1.221,2.71 -0.292,0.788 -0.203,0.85 -0.203,0.85 -0.709,-0.027 -1.417,-0.062 -2.115,-0.115 0.672,-1.275 1.274,-2.541 1.84,-3.799 0.407,-1.054 -0.708,-1.284 -0.708,-1.284 l -0.009,-0.009 c -0.628,-0.097 -1.255,-0.195 -1.884,-0.319 h -0.063 c -0.787,-0.142 -1.264,0.354 -1.363,0.655 l -0.239,0.593 c -0.292,0.691 -0.602,1.39 -0.902,2.081 l -0.044,0.124 c -0.354,0.877 -0.053,1.612 -0.053,1.612 -0.239,-0.018 -0.823,0 -1.814,-0.195 -0.46,-0.097 -1.079,-0.372 -1.079,-0.372 0.345,-0.283 0.557,-0.823 0.557,-0.823 0.628,-1.532 1.593,-3.905 1.593,-3.905 0,0 0.38,-1.027 -0.283,-1.222 -0.902,-0.221 -1.796,-0.469 -2.69,-0.735 -0.681,-0.151 -0.973,0.407 -1.044,0.593 -0.142,0.354 -0.38,0.912 -0.469,1.16 -0.345,0.983 -0.681,1.957 -1.017,2.922 l -0.009,0.044 c -0.212,0.62 -0.044,1.213 -0.044,1.213 0,0 -0.867,-0.177 -1.318,-0.301 -0.46,-0.115 -1.15,-0.602 -1.15,-0.602 0.116,-0.106 0.248,-0.425 0.345,-0.646 0.407,-1.452 0.805,-3.267 1.15,-4.79 0.027,-0.213 0.035,-0.841 -0.61,-1.107 -0.761,-0.283 -1.522,-0.576 -2.265,-0.885 -0.664,-0.204 -0.956,0.345 -1.062,0.664 -0.301,1.372 -0.646,3.019 -0.876,4.215 -0.097,0.832 0.283,1.417 0.283,1.417 -0.353,-0.08 -1.062,-0.39 -1.628,-0.629 -0.38,-0.159 -1.203,-0.708 -1.203,-0.708 0.425,-0.035 0.664,-0.939 0.664,-0.939 0.469,-0.983 0.787,-1.833 1.159,-2.763 l 0.044,-0.124 0.035,-0.089 c 0.363,-0.983 -0.319,-1.505 -0.434,-1.585 -0.991,-0.496 -2.106,-1.08 -2.115,-1.08 -0.566,-0.301 -0.938,0.097 -1.062,0.487 -0.389,1.107 -1,2.116 -1.212,3.338 -0.097,0.691 -0.044,1.169 -0.044,1.169 -1.345,-0.638 -1.84,-1.656 -1.84,-1.656 0.319,-0.381 0.752,-1.744 0.761,-3.011 0.009,-1.275 0.088,-2.462 -0.504,-2.887 -0.593,-0.416 -1.584,0.646 -2.097,1.408 -0.504,0.753 -0.619,1.195 -0.619,1.195 v 0.097 c -2.389,-4.162 -2.053,-10.201 -2.38,-11.307 -0.327,-1.107 -1.725,-2.577 -1.725,-2.577 -0.027,-0.213 -0.035,-0.505 -0.035,-0.859 0.035,-2.311 0.672,-7.101 0.761,-7.774 l 0.009,-0.08 c -0.743,-0.443 -3.15,-1.603 -3.15,-1.603 l -0.018,0.071 c -0.186,0.753 -1.646,6.818 -1.982,9.767 -0.044,0.39 -0.071,0.753 -0.088,1.098 -0.142,2.417 0.283,3.79 0.805,5.392 0.584,1.824 3.336,9.634 4.008,11.759 0.088,0.266 0.186,0.602 0.292,0.983 z m 32.137,-20.681 c -0.281,0.85 -1.061,1.38 -1.954,1.514 -0.417,0.053 -0.859,0.053 -1.302,-0.089 -1.37,-0.46 -2.14,-1.86 -1.716,-3.108 0.071,-0.213 -0.054,-0.443 -0.275,-0.523 -0.221,-0.07 -0.45,0.044 -0.521,0.249 -0.415,1.257 -1.876,1.904 -3.256,1.443 -0.442,-0.151 -0.796,-0.416 -1.097,-0.726 -0.62,-0.646 -0.921,-1.532 -0.637,-2.374 l 0.495,-1.46 c 0.495,-1.497 1.787,-1.365 3.3,-3.259 0.814,-0.939 1.637,-1.842 2.123,-3.294 0.389,-1.169 1.708,-1.816 3.009,-1.488 l 0.23,0.062 0.25,0.097 c 1.22,0.537 1.873,1.833 1.483,3.003 -0.486,1.442 -0.398,2.656 -0.31,3.905 0.062,2.417 1.168,3.091 0.672,4.588 l -0.496,1.461 z m 6.15,-14.771 c -0.008,-1.629 0.186,-4.365 0.196,-4.41 l 0.053,0.071 c 0.133,0.195 0.751,1.055 1.699,1.966 v 0.009 c 0.168,0.159 0.344,0.319 0.531,0.479 l 0.035,0.035 c 0.691,0.576 1.505,1.107 2.444,1.418 2.856,0.965 7.024,0.282 11.492,-0.532 0.39,-0.061 0.77,-0.114 1.151,-0.159 4.008,-0.46 7.53,0.426 7.53,0.426 l 0.008,0.026 -0.079,-0.008 -0.355,0.053 c -1.132,0.398 -1.716,3.081 -1.716,3.081 -0.221,0.806 -0.496,1.593 -0.825,2.364 -0.752,1.735 -1.795,3.427 -3.114,4.8 -0.991,1.036 -2.079,1.55 -3.291,2.231 l -0.01,-0.009 c -0.017,0 -0.699,0.213 -1.061,0.256 -2.745,0.337 -8.512,-0.548 -11.281,-2.444 l -0.062,-0.026 h -0.009 c -2.77,-1.657 -3.329,-7.988 -3.337,-9.627 z m -32.277,-19.765 -0.248,-0.257 -0.018,-0.009 -0.027,-0.035 c 0.203,0.08 3.414,1.488 6.246,4.188 0.284,0.267 0.558,0.541 0.825,0.823 3.077,3.348 5.99,6.412 8.848,7.368 0.929,0.31 1.91,0.381 2.805,0.337 l 0.045,-0.01 c 0.247,-0.009 0.486,-0.027 0.715,-0.053 v -0.008 c 1.469,-0.178 2.638,-0.568 2.638,-0.568 0,0 -1.521,2.33 -2.513,3.63 -0.999,1.31 -5.248,6.022 -8.45,5.668 l -0.08,-0.018 c -3.354,-0.168 -8.494,-2.941 -10.477,-4.862 -0.265,-0.266 -0.672,-0.841 -0.68,-0.841 l -0.196,0.142 0.196,-0.151 c 0.035,-0.035 -0.638,-1.204 -0.682,-1.293 -1.062,-2.568 -0.814,-5.764 -0.15,-8.341 0.195,-0.753 0.426,-1.496 0.718,-2.223 0,0 1.15,-2.489 0.487,-3.49 z m 123.504,48.39 0.15,-0.46 0.009,-0.027 c -0.035,0.071 -1.124,0.974 -2.884,2.4 -0.752,0.62 -1.584,1.293 -2.522,2.037 -10.246,8.102 -31.631,22.668 -66.447,28.937 -8.441,1.514 -17.041,2.346 -25.42,2.718 1.381,1.426 2.645,2.878 3.796,4.356 0,0 3.663,-0.274 4.167,-0.319 6.317,-0.531 12.635,-1.293 18.881,-2.426 15.448,-2.789 27.127,-6.738 32.666,-8.828 1.301,-0.514 2.539,-1.036 3.751,-1.567 l -0.167,0.142 c 0,0 -22.686,13.512 -57.131,15.983 1.097,1.638 2.07,3.259 2.893,4.852 10.715,-0.602 21.562,-2.099 31.816,-4.941 6.556,-1.824 13.006,-4.126 19.164,-7.039 6.193,-2.922 12.272,-6.428 17.616,-10.741 3.477,-2.816 6.742,-5.844 9.741,-9.182 4.123,-4.578 7.883,-10.032 9.918,-15.894 z m -76.781,60.947 c -0.717,-0.416 -1.433,-0.815 -2.159,-1.222 l -0.434,-0.239 c 0.779,1.133 1.716,3.003 1.531,5.269 0,0 -0.177,1.169 -0.415,1.859 -0.381,1.071 -0.709,1.939 -0.983,2.639 4.522,2.037 8.803,4.578 11.626,6.508 0.398,-0.133 0.859,-0.354 1.177,-0.753 0.203,-0.266 0.346,-0.708 0.442,-1.222 0.203,-1.027 0.16,-2.426 -0.389,-3.931 -0.46,-1.31 -1.469,-2.727 -2.46,-3.824 l -0.38,-0.284 c -1.009,-0.726 -2.044,-1.417 -3.097,-2.09 -1.46,-0.939 -2.946,-1.842 -4.459,-2.71 z m 10.042,6.738 -1.885,-1.496 c 0.38,0.39 3.017,3.232 3.619,4.835 0.389,0.956 0.61,2.152 0.549,3.188 -0.018,0.292 -0.062,0.549 -0.115,0.788 l 0.018,0.018 -0.027,-0.009 c -0.088,0.425 -0.221,0.797 -0.398,1.027 -0.327,0.399 -0.841,0.621 -1.23,0.735 l 0.027,0.018 c 0.593,0.469 1.203,0.894 1.708,1.47 -5.087,4.852 -11.891,4.861 -15.82,2.931 -3.831,-1.876 -4.964,-4.197 -4.477,-7.394 -1.035,-0.221 -2.035,-0.868 -2.415,-2.462 l 0.116,0.08 c 0.885,0.717 2.326,0.974 3.22,0.124 0.805,-0.762 1.433,-2.019 2,-3.374 0.513,-1.24 0.956,-2.515 1.531,-3.728 0.23,-0.496 0.389,-1.036 0.478,-1.567 0.257,-1.514 -0.062,-3.126 -0.805,-4.463 -0.805,-1.443 -1.23,-3.427 -0.54,-5.481 0.699,-2.045 1.867,-2.825 2.203,-3.143 0.345,-0.31 0.327,-0.629 0.142,-0.868 -0.31,-0.39 -0.823,-0.009 -0.823,-0.009 -3.008,2.462 -3.69,7.101 -3.716,8.377 -0.018,1.275 -3.724,9.483 -4.45,11.759 -0.035,0.089 -0.664,2.045 -0.814,3.223 -0.221,1.815 -0.15,7.367 8.83,10.555 8.229,2.914 15.103,-2.55 16.209,-3.498 2.309,0.168 3.99,-1.036 4.804,-1.842 0.336,-0.328 0.54,-0.584 0.584,-0.646 -0.876,2.913 -2.734,3.63 -3.866,3.79 -0.363,0.053 -0.664,0.053 -0.823,0.035 l 0.053,0.205 c 0.133,0.486 0.106,0.778 0.106,0.778 0,0 0.265,0.133 0.726,0.159 0.655,0.035 1.699,-0.124 3.045,-1.151 0.221,-0.177 0.397,-0.363 0.574,-0.549 -0.522,1.107 -0.115,2.435 0.974,3.028 1.132,0.612 2.547,0.195 3.158,-0.938 0.619,-1.125 0.195,-2.551 -0.938,-3.162 -0.832,-0.452 -1.813,-0.336 -2.513,0.195 0.681,-1.125 0.761,-2.285 0.717,-3.01 0,-0.125 -0.08,-0.683 -0.088,-0.683 l 0.009,-0.009 c -0.451,-0.115 -0.876,-0.274 -1.283,-0.469 -0.451,-0.221 -0.876,-0.505 -1.301,-0.823 -0.566,-0.416 -2.22,-1.983 -2.627,-2.391 -0.541,-0.549 -1.098,-1.089 -1.647,-1.638 -0.664,-0.655 -2.123,-2.001 -2.796,-2.515 z m -23.128,-7.819 c 0.186,-1.31 -0.106,-3.179 -0.832,-5.366 -2.831,-8.412 -12.245,-21.535 -26.764,-26.413 -17.536,-5.888 -36.559,2.816 -40.735,8.102 -0.177,0.213 -0.336,0.434 -0.469,0.673 l -0.053,0.097 c 0,0 -0.106,0.159 -0.221,0.487 -1.663,4.976 8.414,26.121 27.437,32.514 19.04,6.393 39.62,-3.825 41.478,-9.368 0.133,-0.398 0.159,-0.726 0.159,-0.726 z M 217.609,243.17 c 0.743,-1.027 2.999,-5.136 2.088,-8.917 0,0 -0.186,-0.62 -0.672,-0.496 -0.283,0.08 -0.487,0.319 -0.407,0.779 0.08,0.452 0.549,1.789 -0.142,3.834 -0.681,2.063 -2.212,3.382 -3.725,4.047 -1.513,0.664 -3.371,2.161 -3.893,4.613 -0.513,2.444 -1.84,5.667 -1.469,7.792 0.133,0.815 0.938,1.93 2.787,1.859 -1.265,1.045 -2.451,0.965 -3.424,0.522 -1.531,2.825 -3.831,3.985 -8.025,3.17 -4.282,-0.823 -9.715,-4.941 -10.838,-11.892 0,-0.142 2.07,-0.133 2.256,-0.133 h 0.027 c -0.248,-0.328 -0.522,-0.815 -0.54,-1.328 -0.009,-0.292 0.115,-0.664 0.301,-1.063 l 0.265,-0.469 c 0.513,-0.965 1.504,-1.877 2.442,-2.426 l 0.027,-0.018 c 1.637,-0.983 4.203,-1.576 5.831,-1.665 0.044,-0.009 -0.575,-0.027 -0.885,-0.018 -2.017,0.009 -4.026,0.204 -6.025,0.487 -1.77,0.248 -3.468,0.549 -5.096,0.54 -0.522,-0.009 -1.026,-0.044 -1.513,-0.133 -0.451,-0.089 -0.902,-0.221 -1.345,-0.407 0,0 -1.69,1.355 -1.761,3.675 -0.177,-0.956 -0.947,-1.736 -1.955,-1.886 -1.283,-0.195 -2.486,0.682 -2.681,1.975 -0.195,1.284 0.699,2.488 1.982,2.683 1.274,0.195 2.477,-0.691 2.672,-1.975 l 0.009,-0.097 c 0.035,0.274 0.088,0.567 0.168,0.859 0.221,0.823 0.522,1.399 0.841,1.842 0.743,1.063 1.566,1.222 1.566,1.222 l 0.124,-0.168 c 0.053,-0.062 0.495,-0.522 0.584,-0.522 -0.549,-0.363 -2.814,-2.107 -1.433,-5.888 0,0 -0.08,3.436 2.76,5.26 0.31,1.417 2.539,9.917 10.865,12.556 9.087,2.895 12.581,-1.443 13.404,-3.081 0.363,-0.744 1.292,-3.064 1.292,-3.064 0.787,-2.258 2.787,-11.042 3.539,-12.069 z m -14.785,-1.727 c -0.69,-0.035 -1.389,-0.053 -2.088,-0.071 -1.442,0.283 -3.106,0.797 -4.265,1.567 -1.354,0.877 -2.221,1.966 -2.681,2.895 -0.23,0.478 -0.389,0.921 -0.38,1.249 0.018,0.514 0.257,0.965 0.487,1.31 0,0 8.096,0.434 13.192,1.833 0.195,-0.726 0.46,-1.62 0.805,-2.701 0.221,-0.691 0.522,-1.266 0.849,-1.789 1.221,-1.93 3.026,-2.789 4.344,-3.223 -2.194,-0.354 -4.76,-0.646 -6.963,-0.841 -1.097,-0.097 -2.194,-0.177 -3.3,-0.23 z m -1.557,-30.885 c 4.574,6.579 9.803,12.706 15.466,18.373 2.424,2.435 4.937,4.79 7.512,7.075 0.319,0.274 2.893,2.842 3.15,2.727 1.61,-0.77 3.362,-1.479 5.229,-2.134 -25.72,-22.447 -35.745,-46.638 -36.055,-47.39 l 0.071,0.124 c 0.319,0.584 0.637,1.169 0.982,1.762 0.637,1.045 1.433,2.435 2.469,4.126 4.955,7.934 11.529,16.47 20.35,25.351 0.027,0.027 10.98,10.838 15.652,14.956 1.814,-0.496 3.707,-0.903 5.671,-1.222 -6.503,-5.384 -12.918,-11.281 -18.784,-17.63 -29.622,-32.125 -35.285,-61.992 -37.187,-70.014 l -0.177,0.505 c -1.141,3.374 -1.575,7.057 -1.761,10.599 -0.319,5.995 0.248,12.025 1.513,17.878 1.345,6.234 3.495,12.228 6.14,18.019 2.699,5.933 6.034,11.555 9.759,16.895 z m 23.011,37.452 c 3.929,-0.873 10.648,-1.284 18.563,-0.341 -0.518,0.649 -1.015,1.321 -1.493,2.014 -6.461,-1.154 -12.328,-1.632 -17.07,-1.674 z m 49.179,9.999 c 6.682,3.92 11.654,8.14 14.189,11.162 -3.715,-2.742 -8.545,-5.787 -14.218,-8.679 0.037,-0.832 0.048,-1.66 0.029,-2.483 z"
           id="path3207" />
        <path
           style="fill:#c2242a"
           inkscape:connector-curvature="0"
           d="m 287.84,274.079 c -7.048,4.446 -22.778,8.559 -37.928,3.474 -14.869,-4.997 -24.748,-17.716 -27.912,-25.461 -0.371,-0.804 -0.467,-2.974 1.705,-3.98 0,0 -1.372,0.196 -2.608,1.21 0,0 -0.109,0.16 -0.22,0.492 -1.664,4.968 8.412,26.118 27.436,32.509 19.035,6.394 39.622,-3.824 41.48,-9.363 0.127,-0.403 0.153,-0.727 0.153,-0.727 -0.432,-1.356 -1.258,-2.2 -1.258,-2.2 1.058,1.998 -0.027,3.464 -0.848,4.046"
           id="path3209" />
        <path
           style="fill:#ff7900"
           inkscape:connector-curvature="0"
           d="m 273.428,260.492 -0.036,0.72 c -0.626,-0.318 -1.26,-0.635 -1.905,-0.948 -0.238,1.442 -0.589,2.866 -1.07,4.263 -0.952,-0.553 -1.925,-1.085 -2.905,-1.595 0.431,-1.338 0.769,-2.692 1.026,-4.055 -1.048,-0.476 -2.12,-0.944 -3.213,-1.401 -0.288,1.294 -0.634,2.586 -1.039,3.874 -1.003,-0.464 -2.017,-0.909 -3.037,-1.327 0.398,-1.252 0.759,-2.503 1.087,-3.748 -1.07,-0.413 -2.157,-0.814 -3.262,-1.202 -0.377,1.209 -0.767,2.43 -1.171,3.658 -1.04,-0.374 -2.08,-0.725 -3.133,-1.052 0.417,-1.224 0.841,-2.432 1.269,-3.623 -1.115,-0.355 -2.224,-0.689 -3.328,-1.003 -0.488,1.189 -0.954,2.401 -1.389,3.638 -1.063,-0.284 -2.141,-0.541 -3.219,-0.778 0.449,-1.264 0.951,-2.495 1.496,-3.697 -1.149,-0.291 -2.289,-0.562 -3.414,-0.811 -0.61,1.234 -1.151,2.509 -1.609,3.827 -1.088,-0.189 -2.185,-0.348 -3.282,-0.484 0.453,-1.388 1.026,-2.722 1.696,-4.002 -0.708,-0.135 -1.409,-0.263 -2.102,-0.383 l 0.458,-0.677 c -6.461,-1.154 -12.328,-1.632 -17.07,-1.674 3.929,-0.873 10.648,-1.284 18.563,-0.341 l 0.18,-0.228 c 0.601,0.071 1.209,0.151 1.823,0.238 0.543,-0.788 1.122,-1.553 1.733,-2.293 1.024,0.132 2.023,0.282 3.002,0.447 -0.557,0.763 -1.088,1.55 -1.593,2.356 1.085,0.197 2.184,0.422 3.295,0.673 0.453,-0.83 0.925,-1.643 1.411,-2.436 0.933,0.201 1.853,0.417 2.756,0.648 -0.415,0.821 -0.821,1.661 -1.218,2.515 1.034,0.276 2.075,0.577 3.121,0.904 0.329,-0.877 0.66,-1.743 0.99,-2.594 0.878,0.273 1.748,0.564 2.613,0.876 -0.25,0.877 -0.508,1.767 -0.774,2.665 1.032,0.367 2.042,0.754 3.035,1.153 0.196,-0.916 0.378,-1.827 0.541,-2.727 0.865,0.359 1.724,0.74 2.592,1.147 -0.089,0.917 -0.203,1.842 -0.339,2.768 1.035,0.463 2.046,0.94 3.029,1.429 0.079,-0.932 0.127,-1.865 0.143,-2.793 0.883,0.459 1.77,0.944 2.666,1.456 0.042,0.936 0.044,1.871 0.005,2.803 0.541,0.296 1.071,0.593 1.593,0.893 l 0.011,0.439 c 6.682,3.92 11.654,8.14 14.189,11.162 -3.715,-2.742 -8.545,-5.787 -14.218,-8.679 z m -11.075,-20.039 c -17.534,-5.887 -36.558,2.811 -40.74,8.098 -0.17,0.215 -0.33,0.441 -0.465,0.679 l -0.051,0.093 c 1.236,-1.015 2.608,-1.21 2.608,-1.21 -2.172,1.006 -2.076,3.176 -1.705,3.98 3.164,7.744 13.043,20.464 27.912,25.461 15.149,5.085 30.879,0.972 37.928,-3.474 0.82,-0.582 1.906,-2.047 0.848,-4.046 0,0 0.826,0.845 1.258,2.2 0.183,-1.317 -0.104,-3.181 -0.834,-5.364 -2.825,-8.413 -12.24,-21.542 -26.758,-26.417 z"
           id="path3211" />
      </g>
      <rect
         y="164.70831"
         x="0"
         height="132.29167"
         width="132.29167"
         id="rect2120"
         style="opacity:1;fill:none;fill-opacity:1;stroke:none;stroke-width:10.58333302;stroke-linejoin:round;stroke-miterlimit:4;stroke-dasharray:none;stroke-opacity:1;paint-order:stroke fill markers" />
    </g>
  </g>
  <style
     id="style2869"
     type="text/css">
	.st0{fill:#125740;}
	.st1{fill:#FFFFFF;}
</style>
</svg>
